M48
; DRILL file {KiCad (5.1.5)-3} date 09/23/20 00:09:51
; FORMAT={-:-/ absolute / inch / decimal}
; #@! TF.CreationDate,2020-09-23T00:09:51-07:00
; #@! TF.GenerationSoftware,Kicad,Pcbnew,(5.1.5)-3
; #@! TF.FileFunction,Plated,1,2,PTH
FMAT,2
INCH
T1C0.0157
T2C0.0236
T3C0.0394
T4C0.0579
T5C0.0787
%
G90
G05
T1
X5.4498Y-2.0886
X5.6772Y-1.7333
X5.9004Y0.7453
X5.9596Y-1.625
X5.9862Y0.3907
X6.0087Y0.9874
X6.0264Y0.5063
X6.1073Y-1.6831
X6.1272Y0.4315
X6.128Y-0.4508
X6.2122Y0.9212
X6.2285Y1.1789
X6.2622Y-0.548
X6.3071Y-1.683
X6.3331Y-0.4079
X6.4301Y-1.2972
X6.4711Y1.2488
X6.4759Y-1.9493
X6.5104Y1.1022
X6.5491Y-1.3139
X6.6248Y-1.726
X6.646Y-2.1342
X6.6929Y-2.4094
X6.7008Y-1.7402
X6.7153Y-1.2286
X6.8622Y-2.4006
X6.876Y-2.2648
X13.0862Y0.9372
X13.4734Y-1.4783
T3
X13.3391Y1.2271
X13.3391Y0.6562
X13.4375Y0.6562
X13.5359Y1.2271
X13.5359Y0.6562
X5.5891Y1.2271
X5.5891Y0.6562
X5.6875Y0.6562
X5.7859Y1.2271
X5.7859Y0.6562
T4
X10.9125Y-0.6188
X10.9641Y-0.5613
X11.1609Y-0.5416
X11.1625Y-0.5187
X12.4125Y-0.6188
X12.4641Y-0.5613
X12.6609Y-0.5416
X12.6625Y-0.5187
X10.5375Y0.1313
X10.5891Y0.1887
X10.7859Y0.2084
X10.7875Y0.2312
X11.7562Y-2.1187
X11.8078Y-2.0613
X12.0047Y-2.0416
X12.0062Y-2.0187
X6.7875Y-1.3687
X6.8391Y-1.3113
X7.0359Y-1.2916
X7.0375Y-1.2688
X9.7875Y-1.3687
X9.8391Y-1.3113
X10.0359Y-1.2916
X10.0375Y-1.2688
X7.9125Y-0.6188
X7.9641Y-0.5613
X8.1609Y-0.5416
X8.1625Y-0.5187
X10.5375Y-1.3687
X10.5891Y-1.3113
X10.7859Y-1.2916
X10.7875Y-1.2688
X9.0375Y0.1313
X9.0891Y0.1887
X9.2859Y0.2084
X9.2875Y0.2312
X12.7875Y0.1313
X12.8391Y0.1887
X13.0359Y0.2084
X13.0375Y0.2312
X7.5375Y0.1313
X7.5891Y0.1887
X7.7859Y0.2084
X7.7875Y0.2312
X5.85Y-1.3687
X5.9016Y-1.3113
X6.0984Y-1.2916
X6.1Y-1.2688
X5.9437Y-2.1187
X5.9953Y-2.0613
X6.1922Y-2.0416
X6.1937Y-2.0187
X5.6625Y-0.6188
X5.7141Y-0.5613
X5.9109Y-0.5416
X5.9125Y-0.5187
X6.4125Y-0.6188
X6.4641Y-0.5613
X6.6609Y-0.5416
X6.6625Y-0.5187
X12.0375Y-1.3687
X12.0891Y-1.3113
X12.2859Y-1.2916
X12.2875Y-1.2688
X11.6625Y-0.6188
X11.7141Y-0.5613
X11.9109Y-0.5416
X11.9125Y-0.5187
X8.6625Y-0.6188
X8.7141Y-0.5613
X8.9109Y-0.5416
X8.9125Y-0.5187
X12.0375Y0.1313
X12.0891Y0.1887
X12.2859Y0.2084
X12.2875Y0.2312
X9.0375Y-1.3687
X9.0891Y-1.3113
X9.2859Y-1.2916
X9.2875Y-1.2688
X9.4125Y-0.6188
X9.4641Y-0.5613
X9.6609Y-0.5416
X9.6625Y-0.5187
X8.2875Y-1.3687
X8.3391Y-1.3113
X8.5359Y-1.2916
X8.5375Y-1.2688
X13.1625Y-0.6188
X13.2141Y-0.5613
X13.4109Y-0.5416
X13.4125Y-0.5187
X10.4437Y-2.1187
X10.4953Y-2.0613
X10.6922Y-2.0416
X10.6937Y-2.0187
X6.7875Y0.1313
X6.8391Y0.1887
X7.0359Y0.2084
X7.0375Y0.2312
X11.2875Y-1.3687
X11.3391Y-1.3113
X11.5359Y-1.2916
X11.5375Y-1.2688
X8.2875Y0.1313
X8.3391Y0.1887
X8.5359Y0.2084
X8.5375Y0.2312
X10.1625Y-0.6188
X10.2141Y-0.5613
X10.4109Y-0.5416
X10.4125Y-0.5187
X7.1625Y-0.6188
X7.2141Y-0.5613
X7.4109Y-0.5416
X7.4125Y-0.5187
X7.0687Y-2.1187
X7.1203Y-2.0613
X7.3172Y-2.0416
X7.3187Y-2.0187
X7.5375Y-1.3687
X7.5891Y-1.3113
X7.7859Y-1.2916
X7.7875Y-1.2688
X9.7875Y0.1313
X9.8391Y0.1887
X10.0359Y0.2084
X10.0375Y0.2312
X12.8812Y-2.1187
X12.9328Y-2.0613
X13.1297Y-2.0416
X13.1312Y-2.0187
X6.0375Y0.1313
X6.0891Y0.1887
X6.2859Y0.2084
X6.2875Y0.2312
X11.2875Y0.1313
X11.3391Y0.1887
X11.5359Y0.2084
X11.5375Y0.2312
X8.5687Y-2.1187
X8.6203Y-2.0613
X8.8172Y-2.0416
X8.8187Y-2.0187
X12.975Y-1.3687
X13.0266Y-1.3113
X13.2234Y-1.2916
X13.225Y-1.2688
X9.8812Y-2.1187
X9.9328Y-2.0613
X10.1297Y-2.0416
X10.1312Y-2.0187
T2
G00X6.5106Y1.5766
M15
G01X6.5106Y1.553
M16
G05
G00X6.5106Y1.4219
M15
G01X6.5106Y1.3785
M16
G05
G00X6.8508Y1.5766
M15
G01X6.8508Y1.553
M16
G05
G00X6.8508Y1.4219
M15
G01X6.8508Y1.3785
M16
G05
T5
G00X13.217Y0.9417
M15
G01X13.217Y0.9614
M16
G05
G00X13.658Y0.9417
M15
G01X13.658Y0.9614
M16
G05
G00X5.467Y0.9417
M15
G01X5.467Y0.9614
M16
G05
G00X5.908Y0.9417
M15
G01X5.908Y0.9614
M16
G05
T0
M30
