G04 #@! TF.GenerationSoftware,KiCad,Pcbnew,(5.1.5)-3*
G04 #@! TF.CreationDate,2020-09-23T00:09:50-07:00*
G04 #@! TF.ProjectId,keyboard,6b657962-6f61-4726-942e-6b696361645f,rev?*
G04 #@! TF.SameCoordinates,Original*
G04 #@! TF.FileFunction,Soldermask,Top*
G04 #@! TF.FilePolarity,Negative*
%FSLAX46Y46*%
G04 Gerber Fmt 4.6, Leading zero omitted, Abs format (unit mm)*
G04 Created by KiCad (PCBNEW (5.1.5)-3) date 2020-09-23 00:09:50*
%MOMM*%
%LPD*%
G04 APERTURE LIST*
%ADD10R,1.500000X1.000000*%
%ADD11R,2.000000X2.000000*%
%ADD12C,2.000000*%
%ADD13R,2.500000X3.000000*%
%ADD14C,0.100000*%
%ADD15C,3.987800*%
%ADD16C,1.750000*%
%ADD17C,3.048000*%
%ADD18O,1.000000X1.600000*%
%ADD19O,1.000000X2.100000*%
%ADD20C,0.650000*%
G04 APERTURE END LIST*
D10*
X154702500Y25786250D03*
X154702500Y22586250D03*
X159602500Y25786250D03*
X159602500Y22586250D03*
D11*
X141962500Y16668750D03*
D12*
X144462500Y16668750D03*
X146962500Y16668750D03*
D13*
X138862500Y24168750D03*
X150062500Y24168750D03*
D12*
X141962500Y31168750D03*
X146962500Y31168750D03*
D11*
X338812500Y16668750D03*
D12*
X341312500Y16668750D03*
X343812500Y16668750D03*
D13*
X335712500Y24168750D03*
X346912500Y24168750D03*
D12*
X338812500Y31168750D03*
X343812500Y31168750D03*
D10*
X326152500Y25786250D03*
X326152500Y22586250D03*
X331052500Y25786250D03*
X331052500Y22586250D03*
X316627500Y25786250D03*
X316627500Y22586250D03*
X321527500Y25786250D03*
X321527500Y22586250D03*
X307102500Y25786250D03*
X307102500Y22586250D03*
X312002500Y25786250D03*
X312002500Y22586250D03*
X173752500Y25786250D03*
X173752500Y22586250D03*
X178652500Y25786250D03*
X178652500Y22586250D03*
X164227500Y25786250D03*
X164227500Y22586250D03*
X169127500Y25786250D03*
X169127500Y22586250D03*
D14*
G36*
X166007642Y20122576D02*
G01*
X166031303Y20119066D01*
X166054507Y20113254D01*
X166077029Y20105196D01*
X166098653Y20094968D01*
X166119170Y20082671D01*
X166138383Y20068421D01*
X166156107Y20052357D01*
X166172171Y20034633D01*
X166186421Y20015420D01*
X166198718Y19994903D01*
X166208946Y19973279D01*
X166217004Y19950757D01*
X166222816Y19927553D01*
X166226326Y19903892D01*
X166227500Y19880000D01*
X166227500Y18967500D01*
X166226326Y18943608D01*
X166222816Y18919947D01*
X166217004Y18896743D01*
X166208946Y18874221D01*
X166198718Y18852597D01*
X166186421Y18832080D01*
X166172171Y18812867D01*
X166156107Y18795143D01*
X166138383Y18779079D01*
X166119170Y18764829D01*
X166098653Y18752532D01*
X166077029Y18742304D01*
X166054507Y18734246D01*
X166031303Y18728434D01*
X166007642Y18724924D01*
X165983750Y18723750D01*
X165496250Y18723750D01*
X165472358Y18724924D01*
X165448697Y18728434D01*
X165425493Y18734246D01*
X165402971Y18742304D01*
X165381347Y18752532D01*
X165360830Y18764829D01*
X165341617Y18779079D01*
X165323893Y18795143D01*
X165307829Y18812867D01*
X165293579Y18832080D01*
X165281282Y18852597D01*
X165271054Y18874221D01*
X165262996Y18896743D01*
X165257184Y18919947D01*
X165253674Y18943608D01*
X165252500Y18967500D01*
X165252500Y19880000D01*
X165253674Y19903892D01*
X165257184Y19927553D01*
X165262996Y19950757D01*
X165271054Y19973279D01*
X165281282Y19994903D01*
X165293579Y20015420D01*
X165307829Y20034633D01*
X165323893Y20052357D01*
X165341617Y20068421D01*
X165360830Y20082671D01*
X165381347Y20094968D01*
X165402971Y20105196D01*
X165425493Y20113254D01*
X165448697Y20119066D01*
X165472358Y20122576D01*
X165496250Y20123750D01*
X165983750Y20123750D01*
X166007642Y20122576D01*
G37*
G36*
X167882642Y20122576D02*
G01*
X167906303Y20119066D01*
X167929507Y20113254D01*
X167952029Y20105196D01*
X167973653Y20094968D01*
X167994170Y20082671D01*
X168013383Y20068421D01*
X168031107Y20052357D01*
X168047171Y20034633D01*
X168061421Y20015420D01*
X168073718Y19994903D01*
X168083946Y19973279D01*
X168092004Y19950757D01*
X168097816Y19927553D01*
X168101326Y19903892D01*
X168102500Y19880000D01*
X168102500Y18967500D01*
X168101326Y18943608D01*
X168097816Y18919947D01*
X168092004Y18896743D01*
X168083946Y18874221D01*
X168073718Y18852597D01*
X168061421Y18832080D01*
X168047171Y18812867D01*
X168031107Y18795143D01*
X168013383Y18779079D01*
X167994170Y18764829D01*
X167973653Y18752532D01*
X167952029Y18742304D01*
X167929507Y18734246D01*
X167906303Y18728434D01*
X167882642Y18724924D01*
X167858750Y18723750D01*
X167371250Y18723750D01*
X167347358Y18724924D01*
X167323697Y18728434D01*
X167300493Y18734246D01*
X167277971Y18742304D01*
X167256347Y18752532D01*
X167235830Y18764829D01*
X167216617Y18779079D01*
X167198893Y18795143D01*
X167182829Y18812867D01*
X167168579Y18832080D01*
X167156282Y18852597D01*
X167146054Y18874221D01*
X167137996Y18896743D01*
X167132184Y18919947D01*
X167128674Y18943608D01*
X167127500Y18967500D01*
X167127500Y19880000D01*
X167128674Y19903892D01*
X167132184Y19927553D01*
X167137996Y19950757D01*
X167146054Y19973279D01*
X167156282Y19994903D01*
X167168579Y20015420D01*
X167182829Y20034633D01*
X167198893Y20052357D01*
X167216617Y20068421D01*
X167235830Y20082671D01*
X167256347Y20094968D01*
X167277971Y20105196D01*
X167300493Y20113254D01*
X167323697Y20119066D01*
X167347358Y20122576D01*
X167371250Y20123750D01*
X167858750Y20123750D01*
X167882642Y20122576D01*
G37*
G36*
X308882642Y20122576D02*
G01*
X308906303Y20119066D01*
X308929507Y20113254D01*
X308952029Y20105196D01*
X308973653Y20094968D01*
X308994170Y20082671D01*
X309013383Y20068421D01*
X309031107Y20052357D01*
X309047171Y20034633D01*
X309061421Y20015420D01*
X309073718Y19994903D01*
X309083946Y19973279D01*
X309092004Y19950757D01*
X309097816Y19927553D01*
X309101326Y19903892D01*
X309102500Y19880000D01*
X309102500Y18967500D01*
X309101326Y18943608D01*
X309097816Y18919947D01*
X309092004Y18896743D01*
X309083946Y18874221D01*
X309073718Y18852597D01*
X309061421Y18832080D01*
X309047171Y18812867D01*
X309031107Y18795143D01*
X309013383Y18779079D01*
X308994170Y18764829D01*
X308973653Y18752532D01*
X308952029Y18742304D01*
X308929507Y18734246D01*
X308906303Y18728434D01*
X308882642Y18724924D01*
X308858750Y18723750D01*
X308371250Y18723750D01*
X308347358Y18724924D01*
X308323697Y18728434D01*
X308300493Y18734246D01*
X308277971Y18742304D01*
X308256347Y18752532D01*
X308235830Y18764829D01*
X308216617Y18779079D01*
X308198893Y18795143D01*
X308182829Y18812867D01*
X308168579Y18832080D01*
X308156282Y18852597D01*
X308146054Y18874221D01*
X308137996Y18896743D01*
X308132184Y18919947D01*
X308128674Y18943608D01*
X308127500Y18967500D01*
X308127500Y19880000D01*
X308128674Y19903892D01*
X308132184Y19927553D01*
X308137996Y19950757D01*
X308146054Y19973279D01*
X308156282Y19994903D01*
X308168579Y20015420D01*
X308182829Y20034633D01*
X308198893Y20052357D01*
X308216617Y20068421D01*
X308235830Y20082671D01*
X308256347Y20094968D01*
X308277971Y20105196D01*
X308300493Y20113254D01*
X308323697Y20119066D01*
X308347358Y20122576D01*
X308371250Y20123750D01*
X308858750Y20123750D01*
X308882642Y20122576D01*
G37*
G36*
X310757642Y20122576D02*
G01*
X310781303Y20119066D01*
X310804507Y20113254D01*
X310827029Y20105196D01*
X310848653Y20094968D01*
X310869170Y20082671D01*
X310888383Y20068421D01*
X310906107Y20052357D01*
X310922171Y20034633D01*
X310936421Y20015420D01*
X310948718Y19994903D01*
X310958946Y19973279D01*
X310967004Y19950757D01*
X310972816Y19927553D01*
X310976326Y19903892D01*
X310977500Y19880000D01*
X310977500Y18967500D01*
X310976326Y18943608D01*
X310972816Y18919947D01*
X310967004Y18896743D01*
X310958946Y18874221D01*
X310948718Y18852597D01*
X310936421Y18832080D01*
X310922171Y18812867D01*
X310906107Y18795143D01*
X310888383Y18779079D01*
X310869170Y18764829D01*
X310848653Y18752532D01*
X310827029Y18742304D01*
X310804507Y18734246D01*
X310781303Y18728434D01*
X310757642Y18724924D01*
X310733750Y18723750D01*
X310246250Y18723750D01*
X310222358Y18724924D01*
X310198697Y18728434D01*
X310175493Y18734246D01*
X310152971Y18742304D01*
X310131347Y18752532D01*
X310110830Y18764829D01*
X310091617Y18779079D01*
X310073893Y18795143D01*
X310057829Y18812867D01*
X310043579Y18832080D01*
X310031282Y18852597D01*
X310021054Y18874221D01*
X310012996Y18896743D01*
X310007184Y18919947D01*
X310003674Y18943608D01*
X310002500Y18967500D01*
X310002500Y19880000D01*
X310003674Y19903892D01*
X310007184Y19927553D01*
X310012996Y19950757D01*
X310021054Y19973279D01*
X310031282Y19994903D01*
X310043579Y20015420D01*
X310057829Y20034633D01*
X310073893Y20052357D01*
X310091617Y20068421D01*
X310110830Y20082671D01*
X310131347Y20094968D01*
X310152971Y20105196D01*
X310175493Y20113254D01*
X310198697Y20119066D01*
X310222358Y20122576D01*
X310246250Y20123750D01*
X310733750Y20123750D01*
X310757642Y20122576D01*
G37*
G36*
X156482642Y20122576D02*
G01*
X156506303Y20119066D01*
X156529507Y20113254D01*
X156552029Y20105196D01*
X156573653Y20094968D01*
X156594170Y20082671D01*
X156613383Y20068421D01*
X156631107Y20052357D01*
X156647171Y20034633D01*
X156661421Y20015420D01*
X156673718Y19994903D01*
X156683946Y19973279D01*
X156692004Y19950757D01*
X156697816Y19927553D01*
X156701326Y19903892D01*
X156702500Y19880000D01*
X156702500Y18967500D01*
X156701326Y18943608D01*
X156697816Y18919947D01*
X156692004Y18896743D01*
X156683946Y18874221D01*
X156673718Y18852597D01*
X156661421Y18832080D01*
X156647171Y18812867D01*
X156631107Y18795143D01*
X156613383Y18779079D01*
X156594170Y18764829D01*
X156573653Y18752532D01*
X156552029Y18742304D01*
X156529507Y18734246D01*
X156506303Y18728434D01*
X156482642Y18724924D01*
X156458750Y18723750D01*
X155971250Y18723750D01*
X155947358Y18724924D01*
X155923697Y18728434D01*
X155900493Y18734246D01*
X155877971Y18742304D01*
X155856347Y18752532D01*
X155835830Y18764829D01*
X155816617Y18779079D01*
X155798893Y18795143D01*
X155782829Y18812867D01*
X155768579Y18832080D01*
X155756282Y18852597D01*
X155746054Y18874221D01*
X155737996Y18896743D01*
X155732184Y18919947D01*
X155728674Y18943608D01*
X155727500Y18967500D01*
X155727500Y19880000D01*
X155728674Y19903892D01*
X155732184Y19927553D01*
X155737996Y19950757D01*
X155746054Y19973279D01*
X155756282Y19994903D01*
X155768579Y20015420D01*
X155782829Y20034633D01*
X155798893Y20052357D01*
X155816617Y20068421D01*
X155835830Y20082671D01*
X155856347Y20094968D01*
X155877971Y20105196D01*
X155900493Y20113254D01*
X155923697Y20119066D01*
X155947358Y20122576D01*
X155971250Y20123750D01*
X156458750Y20123750D01*
X156482642Y20122576D01*
G37*
G36*
X158357642Y20122576D02*
G01*
X158381303Y20119066D01*
X158404507Y20113254D01*
X158427029Y20105196D01*
X158448653Y20094968D01*
X158469170Y20082671D01*
X158488383Y20068421D01*
X158506107Y20052357D01*
X158522171Y20034633D01*
X158536421Y20015420D01*
X158548718Y19994903D01*
X158558946Y19973279D01*
X158567004Y19950757D01*
X158572816Y19927553D01*
X158576326Y19903892D01*
X158577500Y19880000D01*
X158577500Y18967500D01*
X158576326Y18943608D01*
X158572816Y18919947D01*
X158567004Y18896743D01*
X158558946Y18874221D01*
X158548718Y18852597D01*
X158536421Y18832080D01*
X158522171Y18812867D01*
X158506107Y18795143D01*
X158488383Y18779079D01*
X158469170Y18764829D01*
X158448653Y18752532D01*
X158427029Y18742304D01*
X158404507Y18734246D01*
X158381303Y18728434D01*
X158357642Y18724924D01*
X158333750Y18723750D01*
X157846250Y18723750D01*
X157822358Y18724924D01*
X157798697Y18728434D01*
X157775493Y18734246D01*
X157752971Y18742304D01*
X157731347Y18752532D01*
X157710830Y18764829D01*
X157691617Y18779079D01*
X157673893Y18795143D01*
X157657829Y18812867D01*
X157643579Y18832080D01*
X157631282Y18852597D01*
X157621054Y18874221D01*
X157612996Y18896743D01*
X157607184Y18919947D01*
X157603674Y18943608D01*
X157602500Y18967500D01*
X157602500Y19880000D01*
X157603674Y19903892D01*
X157607184Y19927553D01*
X157612996Y19950757D01*
X157621054Y19973279D01*
X157631282Y19994903D01*
X157643579Y20015420D01*
X157657829Y20034633D01*
X157673893Y20052357D01*
X157691617Y20068421D01*
X157710830Y20082671D01*
X157731347Y20094968D01*
X157752971Y20105196D01*
X157775493Y20113254D01*
X157798697Y20119066D01*
X157822358Y20122576D01*
X157846250Y20123750D01*
X158333750Y20123750D01*
X158357642Y20122576D01*
G37*
G36*
X318407642Y20122576D02*
G01*
X318431303Y20119066D01*
X318454507Y20113254D01*
X318477029Y20105196D01*
X318498653Y20094968D01*
X318519170Y20082671D01*
X318538383Y20068421D01*
X318556107Y20052357D01*
X318572171Y20034633D01*
X318586421Y20015420D01*
X318598718Y19994903D01*
X318608946Y19973279D01*
X318617004Y19950757D01*
X318622816Y19927553D01*
X318626326Y19903892D01*
X318627500Y19880000D01*
X318627500Y18967500D01*
X318626326Y18943608D01*
X318622816Y18919947D01*
X318617004Y18896743D01*
X318608946Y18874221D01*
X318598718Y18852597D01*
X318586421Y18832080D01*
X318572171Y18812867D01*
X318556107Y18795143D01*
X318538383Y18779079D01*
X318519170Y18764829D01*
X318498653Y18752532D01*
X318477029Y18742304D01*
X318454507Y18734246D01*
X318431303Y18728434D01*
X318407642Y18724924D01*
X318383750Y18723750D01*
X317896250Y18723750D01*
X317872358Y18724924D01*
X317848697Y18728434D01*
X317825493Y18734246D01*
X317802971Y18742304D01*
X317781347Y18752532D01*
X317760830Y18764829D01*
X317741617Y18779079D01*
X317723893Y18795143D01*
X317707829Y18812867D01*
X317693579Y18832080D01*
X317681282Y18852597D01*
X317671054Y18874221D01*
X317662996Y18896743D01*
X317657184Y18919947D01*
X317653674Y18943608D01*
X317652500Y18967500D01*
X317652500Y19880000D01*
X317653674Y19903892D01*
X317657184Y19927553D01*
X317662996Y19950757D01*
X317671054Y19973279D01*
X317681282Y19994903D01*
X317693579Y20015420D01*
X317707829Y20034633D01*
X317723893Y20052357D01*
X317741617Y20068421D01*
X317760830Y20082671D01*
X317781347Y20094968D01*
X317802971Y20105196D01*
X317825493Y20113254D01*
X317848697Y20119066D01*
X317872358Y20122576D01*
X317896250Y20123750D01*
X318383750Y20123750D01*
X318407642Y20122576D01*
G37*
G36*
X320282642Y20122576D02*
G01*
X320306303Y20119066D01*
X320329507Y20113254D01*
X320352029Y20105196D01*
X320373653Y20094968D01*
X320394170Y20082671D01*
X320413383Y20068421D01*
X320431107Y20052357D01*
X320447171Y20034633D01*
X320461421Y20015420D01*
X320473718Y19994903D01*
X320483946Y19973279D01*
X320492004Y19950757D01*
X320497816Y19927553D01*
X320501326Y19903892D01*
X320502500Y19880000D01*
X320502500Y18967500D01*
X320501326Y18943608D01*
X320497816Y18919947D01*
X320492004Y18896743D01*
X320483946Y18874221D01*
X320473718Y18852597D01*
X320461421Y18832080D01*
X320447171Y18812867D01*
X320431107Y18795143D01*
X320413383Y18779079D01*
X320394170Y18764829D01*
X320373653Y18752532D01*
X320352029Y18742304D01*
X320329507Y18734246D01*
X320306303Y18728434D01*
X320282642Y18724924D01*
X320258750Y18723750D01*
X319771250Y18723750D01*
X319747358Y18724924D01*
X319723697Y18728434D01*
X319700493Y18734246D01*
X319677971Y18742304D01*
X319656347Y18752532D01*
X319635830Y18764829D01*
X319616617Y18779079D01*
X319598893Y18795143D01*
X319582829Y18812867D01*
X319568579Y18832080D01*
X319556282Y18852597D01*
X319546054Y18874221D01*
X319537996Y18896743D01*
X319532184Y18919947D01*
X319528674Y18943608D01*
X319527500Y18967500D01*
X319527500Y19880000D01*
X319528674Y19903892D01*
X319532184Y19927553D01*
X319537996Y19950757D01*
X319546054Y19973279D01*
X319556282Y19994903D01*
X319568579Y20015420D01*
X319582829Y20034633D01*
X319598893Y20052357D01*
X319616617Y20068421D01*
X319635830Y20082671D01*
X319656347Y20094968D01*
X319677971Y20105196D01*
X319700493Y20113254D01*
X319723697Y20119066D01*
X319747358Y20122576D01*
X319771250Y20123750D01*
X320258750Y20123750D01*
X320282642Y20122576D01*
G37*
G36*
X327932642Y20122576D02*
G01*
X327956303Y20119066D01*
X327979507Y20113254D01*
X328002029Y20105196D01*
X328023653Y20094968D01*
X328044170Y20082671D01*
X328063383Y20068421D01*
X328081107Y20052357D01*
X328097171Y20034633D01*
X328111421Y20015420D01*
X328123718Y19994903D01*
X328133946Y19973279D01*
X328142004Y19950757D01*
X328147816Y19927553D01*
X328151326Y19903892D01*
X328152500Y19880000D01*
X328152500Y18967500D01*
X328151326Y18943608D01*
X328147816Y18919947D01*
X328142004Y18896743D01*
X328133946Y18874221D01*
X328123718Y18852597D01*
X328111421Y18832080D01*
X328097171Y18812867D01*
X328081107Y18795143D01*
X328063383Y18779079D01*
X328044170Y18764829D01*
X328023653Y18752532D01*
X328002029Y18742304D01*
X327979507Y18734246D01*
X327956303Y18728434D01*
X327932642Y18724924D01*
X327908750Y18723750D01*
X327421250Y18723750D01*
X327397358Y18724924D01*
X327373697Y18728434D01*
X327350493Y18734246D01*
X327327971Y18742304D01*
X327306347Y18752532D01*
X327285830Y18764829D01*
X327266617Y18779079D01*
X327248893Y18795143D01*
X327232829Y18812867D01*
X327218579Y18832080D01*
X327206282Y18852597D01*
X327196054Y18874221D01*
X327187996Y18896743D01*
X327182184Y18919947D01*
X327178674Y18943608D01*
X327177500Y18967500D01*
X327177500Y19880000D01*
X327178674Y19903892D01*
X327182184Y19927553D01*
X327187996Y19950757D01*
X327196054Y19973279D01*
X327206282Y19994903D01*
X327218579Y20015420D01*
X327232829Y20034633D01*
X327248893Y20052357D01*
X327266617Y20068421D01*
X327285830Y20082671D01*
X327306347Y20094968D01*
X327327971Y20105196D01*
X327350493Y20113254D01*
X327373697Y20119066D01*
X327397358Y20122576D01*
X327421250Y20123750D01*
X327908750Y20123750D01*
X327932642Y20122576D01*
G37*
G36*
X329807642Y20122576D02*
G01*
X329831303Y20119066D01*
X329854507Y20113254D01*
X329877029Y20105196D01*
X329898653Y20094968D01*
X329919170Y20082671D01*
X329938383Y20068421D01*
X329956107Y20052357D01*
X329972171Y20034633D01*
X329986421Y20015420D01*
X329998718Y19994903D01*
X330008946Y19973279D01*
X330017004Y19950757D01*
X330022816Y19927553D01*
X330026326Y19903892D01*
X330027500Y19880000D01*
X330027500Y18967500D01*
X330026326Y18943608D01*
X330022816Y18919947D01*
X330017004Y18896743D01*
X330008946Y18874221D01*
X329998718Y18852597D01*
X329986421Y18832080D01*
X329972171Y18812867D01*
X329956107Y18795143D01*
X329938383Y18779079D01*
X329919170Y18764829D01*
X329898653Y18752532D01*
X329877029Y18742304D01*
X329854507Y18734246D01*
X329831303Y18728434D01*
X329807642Y18724924D01*
X329783750Y18723750D01*
X329296250Y18723750D01*
X329272358Y18724924D01*
X329248697Y18728434D01*
X329225493Y18734246D01*
X329202971Y18742304D01*
X329181347Y18752532D01*
X329160830Y18764829D01*
X329141617Y18779079D01*
X329123893Y18795143D01*
X329107829Y18812867D01*
X329093579Y18832080D01*
X329081282Y18852597D01*
X329071054Y18874221D01*
X329062996Y18896743D01*
X329057184Y18919947D01*
X329053674Y18943608D01*
X329052500Y18967500D01*
X329052500Y19880000D01*
X329053674Y19903892D01*
X329057184Y19927553D01*
X329062996Y19950757D01*
X329071054Y19973279D01*
X329081282Y19994903D01*
X329093579Y20015420D01*
X329107829Y20034633D01*
X329123893Y20052357D01*
X329141617Y20068421D01*
X329160830Y20082671D01*
X329181347Y20094968D01*
X329202971Y20105196D01*
X329225493Y20113254D01*
X329248697Y20119066D01*
X329272358Y20122576D01*
X329296250Y20123750D01*
X329783750Y20123750D01*
X329807642Y20122576D01*
G37*
G36*
X175532642Y20122576D02*
G01*
X175556303Y20119066D01*
X175579507Y20113254D01*
X175602029Y20105196D01*
X175623653Y20094968D01*
X175644170Y20082671D01*
X175663383Y20068421D01*
X175681107Y20052357D01*
X175697171Y20034633D01*
X175711421Y20015420D01*
X175723718Y19994903D01*
X175733946Y19973279D01*
X175742004Y19950757D01*
X175747816Y19927553D01*
X175751326Y19903892D01*
X175752500Y19880000D01*
X175752500Y18967500D01*
X175751326Y18943608D01*
X175747816Y18919947D01*
X175742004Y18896743D01*
X175733946Y18874221D01*
X175723718Y18852597D01*
X175711421Y18832080D01*
X175697171Y18812867D01*
X175681107Y18795143D01*
X175663383Y18779079D01*
X175644170Y18764829D01*
X175623653Y18752532D01*
X175602029Y18742304D01*
X175579507Y18734246D01*
X175556303Y18728434D01*
X175532642Y18724924D01*
X175508750Y18723750D01*
X175021250Y18723750D01*
X174997358Y18724924D01*
X174973697Y18728434D01*
X174950493Y18734246D01*
X174927971Y18742304D01*
X174906347Y18752532D01*
X174885830Y18764829D01*
X174866617Y18779079D01*
X174848893Y18795143D01*
X174832829Y18812867D01*
X174818579Y18832080D01*
X174806282Y18852597D01*
X174796054Y18874221D01*
X174787996Y18896743D01*
X174782184Y18919947D01*
X174778674Y18943608D01*
X174777500Y18967500D01*
X174777500Y19880000D01*
X174778674Y19903892D01*
X174782184Y19927553D01*
X174787996Y19950757D01*
X174796054Y19973279D01*
X174806282Y19994903D01*
X174818579Y20015420D01*
X174832829Y20034633D01*
X174848893Y20052357D01*
X174866617Y20068421D01*
X174885830Y20082671D01*
X174906347Y20094968D01*
X174927971Y20105196D01*
X174950493Y20113254D01*
X174973697Y20119066D01*
X174997358Y20122576D01*
X175021250Y20123750D01*
X175508750Y20123750D01*
X175532642Y20122576D01*
G37*
G36*
X177407642Y20122576D02*
G01*
X177431303Y20119066D01*
X177454507Y20113254D01*
X177477029Y20105196D01*
X177498653Y20094968D01*
X177519170Y20082671D01*
X177538383Y20068421D01*
X177556107Y20052357D01*
X177572171Y20034633D01*
X177586421Y20015420D01*
X177598718Y19994903D01*
X177608946Y19973279D01*
X177617004Y19950757D01*
X177622816Y19927553D01*
X177626326Y19903892D01*
X177627500Y19880000D01*
X177627500Y18967500D01*
X177626326Y18943608D01*
X177622816Y18919947D01*
X177617004Y18896743D01*
X177608946Y18874221D01*
X177598718Y18852597D01*
X177586421Y18832080D01*
X177572171Y18812867D01*
X177556107Y18795143D01*
X177538383Y18779079D01*
X177519170Y18764829D01*
X177498653Y18752532D01*
X177477029Y18742304D01*
X177454507Y18734246D01*
X177431303Y18728434D01*
X177407642Y18724924D01*
X177383750Y18723750D01*
X176896250Y18723750D01*
X176872358Y18724924D01*
X176848697Y18728434D01*
X176825493Y18734246D01*
X176802971Y18742304D01*
X176781347Y18752532D01*
X176760830Y18764829D01*
X176741617Y18779079D01*
X176723893Y18795143D01*
X176707829Y18812867D01*
X176693579Y18832080D01*
X176681282Y18852597D01*
X176671054Y18874221D01*
X176662996Y18896743D01*
X176657184Y18919947D01*
X176653674Y18943608D01*
X176652500Y18967500D01*
X176652500Y19880000D01*
X176653674Y19903892D01*
X176657184Y19927553D01*
X176662996Y19950757D01*
X176671054Y19973279D01*
X176681282Y19994903D01*
X176693579Y20015420D01*
X176707829Y20034633D01*
X176723893Y20052357D01*
X176741617Y20068421D01*
X176760830Y20082671D01*
X176781347Y20094968D01*
X176802971Y20105196D01*
X176825493Y20113254D01*
X176848697Y20119066D01*
X176872358Y20122576D01*
X176896250Y20123750D01*
X177383750Y20123750D01*
X177407642Y20122576D01*
G37*
G36*
X153603892Y20197576D02*
G01*
X153627553Y20194066D01*
X153650757Y20188254D01*
X153673279Y20180196D01*
X153694903Y20169968D01*
X153715420Y20157671D01*
X153734633Y20143421D01*
X153752357Y20127357D01*
X153768421Y20109633D01*
X153782671Y20090420D01*
X153794968Y20069903D01*
X153805196Y20048279D01*
X153813254Y20025757D01*
X153819066Y20002553D01*
X153822576Y19978892D01*
X153823750Y19955000D01*
X153823750Y19467500D01*
X153822576Y19443608D01*
X153819066Y19419947D01*
X153813254Y19396743D01*
X153805196Y19374221D01*
X153794968Y19352597D01*
X153782671Y19332080D01*
X153768421Y19312867D01*
X153752357Y19295143D01*
X153734633Y19279079D01*
X153715420Y19264829D01*
X153694903Y19252532D01*
X153673279Y19242304D01*
X153650757Y19234246D01*
X153627553Y19228434D01*
X153603892Y19224924D01*
X153580000Y19223750D01*
X152667500Y19223750D01*
X152643608Y19224924D01*
X152619947Y19228434D01*
X152596743Y19234246D01*
X152574221Y19242304D01*
X152552597Y19252532D01*
X152532080Y19264829D01*
X152512867Y19279079D01*
X152495143Y19295143D01*
X152479079Y19312867D01*
X152464829Y19332080D01*
X152452532Y19352597D01*
X152442304Y19374221D01*
X152434246Y19396743D01*
X152428434Y19419947D01*
X152424924Y19443608D01*
X152423750Y19467500D01*
X152423750Y19955000D01*
X152424924Y19978892D01*
X152428434Y20002553D01*
X152434246Y20025757D01*
X152442304Y20048279D01*
X152452532Y20069903D01*
X152464829Y20090420D01*
X152479079Y20109633D01*
X152495143Y20127357D01*
X152512867Y20143421D01*
X152532080Y20157671D01*
X152552597Y20169968D01*
X152574221Y20180196D01*
X152596743Y20188254D01*
X152619947Y20194066D01*
X152643608Y20197576D01*
X152667500Y20198750D01*
X153580000Y20198750D01*
X153603892Y20197576D01*
G37*
G36*
X153603892Y18322576D02*
G01*
X153627553Y18319066D01*
X153650757Y18313254D01*
X153673279Y18305196D01*
X153694903Y18294968D01*
X153715420Y18282671D01*
X153734633Y18268421D01*
X153752357Y18252357D01*
X153768421Y18234633D01*
X153782671Y18215420D01*
X153794968Y18194903D01*
X153805196Y18173279D01*
X153813254Y18150757D01*
X153819066Y18127553D01*
X153822576Y18103892D01*
X153823750Y18080000D01*
X153823750Y17592500D01*
X153822576Y17568608D01*
X153819066Y17544947D01*
X153813254Y17521743D01*
X153805196Y17499221D01*
X153794968Y17477597D01*
X153782671Y17457080D01*
X153768421Y17437867D01*
X153752357Y17420143D01*
X153734633Y17404079D01*
X153715420Y17389829D01*
X153694903Y17377532D01*
X153673279Y17367304D01*
X153650757Y17359246D01*
X153627553Y17353434D01*
X153603892Y17349924D01*
X153580000Y17348750D01*
X152667500Y17348750D01*
X152643608Y17349924D01*
X152619947Y17353434D01*
X152596743Y17359246D01*
X152574221Y17367304D01*
X152552597Y17377532D01*
X152532080Y17389829D01*
X152512867Y17404079D01*
X152495143Y17420143D01*
X152479079Y17437867D01*
X152464829Y17457080D01*
X152452532Y17477597D01*
X152442304Y17499221D01*
X152434246Y17521743D01*
X152428434Y17544947D01*
X152424924Y17568608D01*
X152423750Y17592500D01*
X152423750Y18080000D01*
X152424924Y18103892D01*
X152428434Y18127553D01*
X152434246Y18150757D01*
X152442304Y18173279D01*
X152452532Y18194903D01*
X152464829Y18215420D01*
X152479079Y18234633D01*
X152495143Y18252357D01*
X152512867Y18268421D01*
X152532080Y18282671D01*
X152552597Y18294968D01*
X152574221Y18305196D01*
X152596743Y18313254D01*
X152619947Y18319066D01*
X152643608Y18322576D01*
X152667500Y18323750D01*
X153580000Y18323750D01*
X153603892Y18322576D01*
G37*
D10*
X297646250Y25773750D03*
X297646250Y22573750D03*
X302546250Y25773750D03*
X302546250Y22573750D03*
X288121250Y25773750D03*
X288121250Y22573750D03*
X293021250Y25773750D03*
X293021250Y22573750D03*
X278596250Y25773750D03*
X278596250Y22573750D03*
X283496250Y25773750D03*
X283496250Y22573750D03*
X269071250Y25773750D03*
X269071250Y22573750D03*
X273971250Y25773750D03*
X273971250Y22573750D03*
X259408750Y25773750D03*
X259408750Y22573750D03*
X264308750Y25773750D03*
X264308750Y22573750D03*
X249883750Y25773750D03*
X249883750Y22573750D03*
X254783750Y25773750D03*
X254783750Y22573750D03*
X240427500Y25786250D03*
X240427500Y22586250D03*
X245327500Y25786250D03*
X245327500Y22586250D03*
X230902500Y25786250D03*
X230902500Y22586250D03*
X235802500Y25786250D03*
X235802500Y22586250D03*
X221377500Y25773750D03*
X221377500Y22573750D03*
X226277500Y25773750D03*
X226277500Y22573750D03*
X211783750Y25773750D03*
X211783750Y22573750D03*
X216683750Y25773750D03*
X216683750Y22573750D03*
X202327500Y25786250D03*
X202327500Y22586250D03*
X207227500Y25786250D03*
X207227500Y22586250D03*
X192802500Y25786250D03*
X192802500Y22586250D03*
X197702500Y25786250D03*
X197702500Y22586250D03*
X183277500Y25786250D03*
X183277500Y22586250D03*
X188177500Y25786250D03*
X188177500Y22586250D03*
D14*
G36*
X223157642Y20122576D02*
G01*
X223181303Y20119066D01*
X223204507Y20113254D01*
X223227029Y20105196D01*
X223248653Y20094968D01*
X223269170Y20082671D01*
X223288383Y20068421D01*
X223306107Y20052357D01*
X223322171Y20034633D01*
X223336421Y20015420D01*
X223348718Y19994903D01*
X223358946Y19973279D01*
X223367004Y19950757D01*
X223372816Y19927553D01*
X223376326Y19903892D01*
X223377500Y19880000D01*
X223377500Y18967500D01*
X223376326Y18943608D01*
X223372816Y18919947D01*
X223367004Y18896743D01*
X223358946Y18874221D01*
X223348718Y18852597D01*
X223336421Y18832080D01*
X223322171Y18812867D01*
X223306107Y18795143D01*
X223288383Y18779079D01*
X223269170Y18764829D01*
X223248653Y18752532D01*
X223227029Y18742304D01*
X223204507Y18734246D01*
X223181303Y18728434D01*
X223157642Y18724924D01*
X223133750Y18723750D01*
X222646250Y18723750D01*
X222622358Y18724924D01*
X222598697Y18728434D01*
X222575493Y18734246D01*
X222552971Y18742304D01*
X222531347Y18752532D01*
X222510830Y18764829D01*
X222491617Y18779079D01*
X222473893Y18795143D01*
X222457829Y18812867D01*
X222443579Y18832080D01*
X222431282Y18852597D01*
X222421054Y18874221D01*
X222412996Y18896743D01*
X222407184Y18919947D01*
X222403674Y18943608D01*
X222402500Y18967500D01*
X222402500Y19880000D01*
X222403674Y19903892D01*
X222407184Y19927553D01*
X222412996Y19950757D01*
X222421054Y19973279D01*
X222431282Y19994903D01*
X222443579Y20015420D01*
X222457829Y20034633D01*
X222473893Y20052357D01*
X222491617Y20068421D01*
X222510830Y20082671D01*
X222531347Y20094968D01*
X222552971Y20105196D01*
X222575493Y20113254D01*
X222598697Y20119066D01*
X222622358Y20122576D01*
X222646250Y20123750D01*
X223133750Y20123750D01*
X223157642Y20122576D01*
G37*
G36*
X225032642Y20122576D02*
G01*
X225056303Y20119066D01*
X225079507Y20113254D01*
X225102029Y20105196D01*
X225123653Y20094968D01*
X225144170Y20082671D01*
X225163383Y20068421D01*
X225181107Y20052357D01*
X225197171Y20034633D01*
X225211421Y20015420D01*
X225223718Y19994903D01*
X225233946Y19973279D01*
X225242004Y19950757D01*
X225247816Y19927553D01*
X225251326Y19903892D01*
X225252500Y19880000D01*
X225252500Y18967500D01*
X225251326Y18943608D01*
X225247816Y18919947D01*
X225242004Y18896743D01*
X225233946Y18874221D01*
X225223718Y18852597D01*
X225211421Y18832080D01*
X225197171Y18812867D01*
X225181107Y18795143D01*
X225163383Y18779079D01*
X225144170Y18764829D01*
X225123653Y18752532D01*
X225102029Y18742304D01*
X225079507Y18734246D01*
X225056303Y18728434D01*
X225032642Y18724924D01*
X225008750Y18723750D01*
X224521250Y18723750D01*
X224497358Y18724924D01*
X224473697Y18728434D01*
X224450493Y18734246D01*
X224427971Y18742304D01*
X224406347Y18752532D01*
X224385830Y18764829D01*
X224366617Y18779079D01*
X224348893Y18795143D01*
X224332829Y18812867D01*
X224318579Y18832080D01*
X224306282Y18852597D01*
X224296054Y18874221D01*
X224287996Y18896743D01*
X224282184Y18919947D01*
X224278674Y18943608D01*
X224277500Y18967500D01*
X224277500Y19880000D01*
X224278674Y19903892D01*
X224282184Y19927553D01*
X224287996Y19950757D01*
X224296054Y19973279D01*
X224306282Y19994903D01*
X224318579Y20015420D01*
X224332829Y20034633D01*
X224348893Y20052357D01*
X224366617Y20068421D01*
X224385830Y20082671D01*
X224406347Y20094968D01*
X224427971Y20105196D01*
X224450493Y20113254D01*
X224473697Y20119066D01*
X224497358Y20122576D01*
X224521250Y20123750D01*
X225008750Y20123750D01*
X225032642Y20122576D01*
G37*
G36*
X242207642Y20122576D02*
G01*
X242231303Y20119066D01*
X242254507Y20113254D01*
X242277029Y20105196D01*
X242298653Y20094968D01*
X242319170Y20082671D01*
X242338383Y20068421D01*
X242356107Y20052357D01*
X242372171Y20034633D01*
X242386421Y20015420D01*
X242398718Y19994903D01*
X242408946Y19973279D01*
X242417004Y19950757D01*
X242422816Y19927553D01*
X242426326Y19903892D01*
X242427500Y19880000D01*
X242427500Y18967500D01*
X242426326Y18943608D01*
X242422816Y18919947D01*
X242417004Y18896743D01*
X242408946Y18874221D01*
X242398718Y18852597D01*
X242386421Y18832080D01*
X242372171Y18812867D01*
X242356107Y18795143D01*
X242338383Y18779079D01*
X242319170Y18764829D01*
X242298653Y18752532D01*
X242277029Y18742304D01*
X242254507Y18734246D01*
X242231303Y18728434D01*
X242207642Y18724924D01*
X242183750Y18723750D01*
X241696250Y18723750D01*
X241672358Y18724924D01*
X241648697Y18728434D01*
X241625493Y18734246D01*
X241602971Y18742304D01*
X241581347Y18752532D01*
X241560830Y18764829D01*
X241541617Y18779079D01*
X241523893Y18795143D01*
X241507829Y18812867D01*
X241493579Y18832080D01*
X241481282Y18852597D01*
X241471054Y18874221D01*
X241462996Y18896743D01*
X241457184Y18919947D01*
X241453674Y18943608D01*
X241452500Y18967500D01*
X241452500Y19880000D01*
X241453674Y19903892D01*
X241457184Y19927553D01*
X241462996Y19950757D01*
X241471054Y19973279D01*
X241481282Y19994903D01*
X241493579Y20015420D01*
X241507829Y20034633D01*
X241523893Y20052357D01*
X241541617Y20068421D01*
X241560830Y20082671D01*
X241581347Y20094968D01*
X241602971Y20105196D01*
X241625493Y20113254D01*
X241648697Y20119066D01*
X241672358Y20122576D01*
X241696250Y20123750D01*
X242183750Y20123750D01*
X242207642Y20122576D01*
G37*
G36*
X244082642Y20122576D02*
G01*
X244106303Y20119066D01*
X244129507Y20113254D01*
X244152029Y20105196D01*
X244173653Y20094968D01*
X244194170Y20082671D01*
X244213383Y20068421D01*
X244231107Y20052357D01*
X244247171Y20034633D01*
X244261421Y20015420D01*
X244273718Y19994903D01*
X244283946Y19973279D01*
X244292004Y19950757D01*
X244297816Y19927553D01*
X244301326Y19903892D01*
X244302500Y19880000D01*
X244302500Y18967500D01*
X244301326Y18943608D01*
X244297816Y18919947D01*
X244292004Y18896743D01*
X244283946Y18874221D01*
X244273718Y18852597D01*
X244261421Y18832080D01*
X244247171Y18812867D01*
X244231107Y18795143D01*
X244213383Y18779079D01*
X244194170Y18764829D01*
X244173653Y18752532D01*
X244152029Y18742304D01*
X244129507Y18734246D01*
X244106303Y18728434D01*
X244082642Y18724924D01*
X244058750Y18723750D01*
X243571250Y18723750D01*
X243547358Y18724924D01*
X243523697Y18728434D01*
X243500493Y18734246D01*
X243477971Y18742304D01*
X243456347Y18752532D01*
X243435830Y18764829D01*
X243416617Y18779079D01*
X243398893Y18795143D01*
X243382829Y18812867D01*
X243368579Y18832080D01*
X243356282Y18852597D01*
X243346054Y18874221D01*
X243337996Y18896743D01*
X243332184Y18919947D01*
X243328674Y18943608D01*
X243327500Y18967500D01*
X243327500Y19880000D01*
X243328674Y19903892D01*
X243332184Y19927553D01*
X243337996Y19950757D01*
X243346054Y19973279D01*
X243356282Y19994903D01*
X243368579Y20015420D01*
X243382829Y20034633D01*
X243398893Y20052357D01*
X243416617Y20068421D01*
X243435830Y20082671D01*
X243456347Y20094968D01*
X243477971Y20105196D01*
X243500493Y20113254D01*
X243523697Y20119066D01*
X243547358Y20122576D01*
X243571250Y20123750D01*
X244058750Y20123750D01*
X244082642Y20122576D01*
G37*
G36*
X213632642Y20122576D02*
G01*
X213656303Y20119066D01*
X213679507Y20113254D01*
X213702029Y20105196D01*
X213723653Y20094968D01*
X213744170Y20082671D01*
X213763383Y20068421D01*
X213781107Y20052357D01*
X213797171Y20034633D01*
X213811421Y20015420D01*
X213823718Y19994903D01*
X213833946Y19973279D01*
X213842004Y19950757D01*
X213847816Y19927553D01*
X213851326Y19903892D01*
X213852500Y19880000D01*
X213852500Y18967500D01*
X213851326Y18943608D01*
X213847816Y18919947D01*
X213842004Y18896743D01*
X213833946Y18874221D01*
X213823718Y18852597D01*
X213811421Y18832080D01*
X213797171Y18812867D01*
X213781107Y18795143D01*
X213763383Y18779079D01*
X213744170Y18764829D01*
X213723653Y18752532D01*
X213702029Y18742304D01*
X213679507Y18734246D01*
X213656303Y18728434D01*
X213632642Y18724924D01*
X213608750Y18723750D01*
X213121250Y18723750D01*
X213097358Y18724924D01*
X213073697Y18728434D01*
X213050493Y18734246D01*
X213027971Y18742304D01*
X213006347Y18752532D01*
X212985830Y18764829D01*
X212966617Y18779079D01*
X212948893Y18795143D01*
X212932829Y18812867D01*
X212918579Y18832080D01*
X212906282Y18852597D01*
X212896054Y18874221D01*
X212887996Y18896743D01*
X212882184Y18919947D01*
X212878674Y18943608D01*
X212877500Y18967500D01*
X212877500Y19880000D01*
X212878674Y19903892D01*
X212882184Y19927553D01*
X212887996Y19950757D01*
X212896054Y19973279D01*
X212906282Y19994903D01*
X212918579Y20015420D01*
X212932829Y20034633D01*
X212948893Y20052357D01*
X212966617Y20068421D01*
X212985830Y20082671D01*
X213006347Y20094968D01*
X213027971Y20105196D01*
X213050493Y20113254D01*
X213073697Y20119066D01*
X213097358Y20122576D01*
X213121250Y20123750D01*
X213608750Y20123750D01*
X213632642Y20122576D01*
G37*
G36*
X215507642Y20122576D02*
G01*
X215531303Y20119066D01*
X215554507Y20113254D01*
X215577029Y20105196D01*
X215598653Y20094968D01*
X215619170Y20082671D01*
X215638383Y20068421D01*
X215656107Y20052357D01*
X215672171Y20034633D01*
X215686421Y20015420D01*
X215698718Y19994903D01*
X215708946Y19973279D01*
X215717004Y19950757D01*
X215722816Y19927553D01*
X215726326Y19903892D01*
X215727500Y19880000D01*
X215727500Y18967500D01*
X215726326Y18943608D01*
X215722816Y18919947D01*
X215717004Y18896743D01*
X215708946Y18874221D01*
X215698718Y18852597D01*
X215686421Y18832080D01*
X215672171Y18812867D01*
X215656107Y18795143D01*
X215638383Y18779079D01*
X215619170Y18764829D01*
X215598653Y18752532D01*
X215577029Y18742304D01*
X215554507Y18734246D01*
X215531303Y18728434D01*
X215507642Y18724924D01*
X215483750Y18723750D01*
X214996250Y18723750D01*
X214972358Y18724924D01*
X214948697Y18728434D01*
X214925493Y18734246D01*
X214902971Y18742304D01*
X214881347Y18752532D01*
X214860830Y18764829D01*
X214841617Y18779079D01*
X214823893Y18795143D01*
X214807829Y18812867D01*
X214793579Y18832080D01*
X214781282Y18852597D01*
X214771054Y18874221D01*
X214762996Y18896743D01*
X214757184Y18919947D01*
X214753674Y18943608D01*
X214752500Y18967500D01*
X214752500Y19880000D01*
X214753674Y19903892D01*
X214757184Y19927553D01*
X214762996Y19950757D01*
X214771054Y19973279D01*
X214781282Y19994903D01*
X214793579Y20015420D01*
X214807829Y20034633D01*
X214823893Y20052357D01*
X214841617Y20068421D01*
X214860830Y20082671D01*
X214881347Y20094968D01*
X214902971Y20105196D01*
X214925493Y20113254D01*
X214948697Y20119066D01*
X214972358Y20122576D01*
X214996250Y20123750D01*
X215483750Y20123750D01*
X215507642Y20122576D01*
G37*
G36*
X251732642Y20122576D02*
G01*
X251756303Y20119066D01*
X251779507Y20113254D01*
X251802029Y20105196D01*
X251823653Y20094968D01*
X251844170Y20082671D01*
X251863383Y20068421D01*
X251881107Y20052357D01*
X251897171Y20034633D01*
X251911421Y20015420D01*
X251923718Y19994903D01*
X251933946Y19973279D01*
X251942004Y19950757D01*
X251947816Y19927553D01*
X251951326Y19903892D01*
X251952500Y19880000D01*
X251952500Y18967500D01*
X251951326Y18943608D01*
X251947816Y18919947D01*
X251942004Y18896743D01*
X251933946Y18874221D01*
X251923718Y18852597D01*
X251911421Y18832080D01*
X251897171Y18812867D01*
X251881107Y18795143D01*
X251863383Y18779079D01*
X251844170Y18764829D01*
X251823653Y18752532D01*
X251802029Y18742304D01*
X251779507Y18734246D01*
X251756303Y18728434D01*
X251732642Y18724924D01*
X251708750Y18723750D01*
X251221250Y18723750D01*
X251197358Y18724924D01*
X251173697Y18728434D01*
X251150493Y18734246D01*
X251127971Y18742304D01*
X251106347Y18752532D01*
X251085830Y18764829D01*
X251066617Y18779079D01*
X251048893Y18795143D01*
X251032829Y18812867D01*
X251018579Y18832080D01*
X251006282Y18852597D01*
X250996054Y18874221D01*
X250987996Y18896743D01*
X250982184Y18919947D01*
X250978674Y18943608D01*
X250977500Y18967500D01*
X250977500Y19880000D01*
X250978674Y19903892D01*
X250982184Y19927553D01*
X250987996Y19950757D01*
X250996054Y19973279D01*
X251006282Y19994903D01*
X251018579Y20015420D01*
X251032829Y20034633D01*
X251048893Y20052357D01*
X251066617Y20068421D01*
X251085830Y20082671D01*
X251106347Y20094968D01*
X251127971Y20105196D01*
X251150493Y20113254D01*
X251173697Y20119066D01*
X251197358Y20122576D01*
X251221250Y20123750D01*
X251708750Y20123750D01*
X251732642Y20122576D01*
G37*
G36*
X253607642Y20122576D02*
G01*
X253631303Y20119066D01*
X253654507Y20113254D01*
X253677029Y20105196D01*
X253698653Y20094968D01*
X253719170Y20082671D01*
X253738383Y20068421D01*
X253756107Y20052357D01*
X253772171Y20034633D01*
X253786421Y20015420D01*
X253798718Y19994903D01*
X253808946Y19973279D01*
X253817004Y19950757D01*
X253822816Y19927553D01*
X253826326Y19903892D01*
X253827500Y19880000D01*
X253827500Y18967500D01*
X253826326Y18943608D01*
X253822816Y18919947D01*
X253817004Y18896743D01*
X253808946Y18874221D01*
X253798718Y18852597D01*
X253786421Y18832080D01*
X253772171Y18812867D01*
X253756107Y18795143D01*
X253738383Y18779079D01*
X253719170Y18764829D01*
X253698653Y18752532D01*
X253677029Y18742304D01*
X253654507Y18734246D01*
X253631303Y18728434D01*
X253607642Y18724924D01*
X253583750Y18723750D01*
X253096250Y18723750D01*
X253072358Y18724924D01*
X253048697Y18728434D01*
X253025493Y18734246D01*
X253002971Y18742304D01*
X252981347Y18752532D01*
X252960830Y18764829D01*
X252941617Y18779079D01*
X252923893Y18795143D01*
X252907829Y18812867D01*
X252893579Y18832080D01*
X252881282Y18852597D01*
X252871054Y18874221D01*
X252862996Y18896743D01*
X252857184Y18919947D01*
X252853674Y18943608D01*
X252852500Y18967500D01*
X252852500Y19880000D01*
X252853674Y19903892D01*
X252857184Y19927553D01*
X252862996Y19950757D01*
X252871054Y19973279D01*
X252881282Y19994903D01*
X252893579Y20015420D01*
X252907829Y20034633D01*
X252923893Y20052357D01*
X252941617Y20068421D01*
X252960830Y20082671D01*
X252981347Y20094968D01*
X253002971Y20105196D01*
X253025493Y20113254D01*
X253048697Y20119066D01*
X253072358Y20122576D01*
X253096250Y20123750D01*
X253583750Y20123750D01*
X253607642Y20122576D01*
G37*
G36*
X232682642Y20122576D02*
G01*
X232706303Y20119066D01*
X232729507Y20113254D01*
X232752029Y20105196D01*
X232773653Y20094968D01*
X232794170Y20082671D01*
X232813383Y20068421D01*
X232831107Y20052357D01*
X232847171Y20034633D01*
X232861421Y20015420D01*
X232873718Y19994903D01*
X232883946Y19973279D01*
X232892004Y19950757D01*
X232897816Y19927553D01*
X232901326Y19903892D01*
X232902500Y19880000D01*
X232902500Y18967500D01*
X232901326Y18943608D01*
X232897816Y18919947D01*
X232892004Y18896743D01*
X232883946Y18874221D01*
X232873718Y18852597D01*
X232861421Y18832080D01*
X232847171Y18812867D01*
X232831107Y18795143D01*
X232813383Y18779079D01*
X232794170Y18764829D01*
X232773653Y18752532D01*
X232752029Y18742304D01*
X232729507Y18734246D01*
X232706303Y18728434D01*
X232682642Y18724924D01*
X232658750Y18723750D01*
X232171250Y18723750D01*
X232147358Y18724924D01*
X232123697Y18728434D01*
X232100493Y18734246D01*
X232077971Y18742304D01*
X232056347Y18752532D01*
X232035830Y18764829D01*
X232016617Y18779079D01*
X231998893Y18795143D01*
X231982829Y18812867D01*
X231968579Y18832080D01*
X231956282Y18852597D01*
X231946054Y18874221D01*
X231937996Y18896743D01*
X231932184Y18919947D01*
X231928674Y18943608D01*
X231927500Y18967500D01*
X231927500Y19880000D01*
X231928674Y19903892D01*
X231932184Y19927553D01*
X231937996Y19950757D01*
X231946054Y19973279D01*
X231956282Y19994903D01*
X231968579Y20015420D01*
X231982829Y20034633D01*
X231998893Y20052357D01*
X232016617Y20068421D01*
X232035830Y20082671D01*
X232056347Y20094968D01*
X232077971Y20105196D01*
X232100493Y20113254D01*
X232123697Y20119066D01*
X232147358Y20122576D01*
X232171250Y20123750D01*
X232658750Y20123750D01*
X232682642Y20122576D01*
G37*
G36*
X234557642Y20122576D02*
G01*
X234581303Y20119066D01*
X234604507Y20113254D01*
X234627029Y20105196D01*
X234648653Y20094968D01*
X234669170Y20082671D01*
X234688383Y20068421D01*
X234706107Y20052357D01*
X234722171Y20034633D01*
X234736421Y20015420D01*
X234748718Y19994903D01*
X234758946Y19973279D01*
X234767004Y19950757D01*
X234772816Y19927553D01*
X234776326Y19903892D01*
X234777500Y19880000D01*
X234777500Y18967500D01*
X234776326Y18943608D01*
X234772816Y18919947D01*
X234767004Y18896743D01*
X234758946Y18874221D01*
X234748718Y18852597D01*
X234736421Y18832080D01*
X234722171Y18812867D01*
X234706107Y18795143D01*
X234688383Y18779079D01*
X234669170Y18764829D01*
X234648653Y18752532D01*
X234627029Y18742304D01*
X234604507Y18734246D01*
X234581303Y18728434D01*
X234557642Y18724924D01*
X234533750Y18723750D01*
X234046250Y18723750D01*
X234022358Y18724924D01*
X233998697Y18728434D01*
X233975493Y18734246D01*
X233952971Y18742304D01*
X233931347Y18752532D01*
X233910830Y18764829D01*
X233891617Y18779079D01*
X233873893Y18795143D01*
X233857829Y18812867D01*
X233843579Y18832080D01*
X233831282Y18852597D01*
X233821054Y18874221D01*
X233812996Y18896743D01*
X233807184Y18919947D01*
X233803674Y18943608D01*
X233802500Y18967500D01*
X233802500Y19880000D01*
X233803674Y19903892D01*
X233807184Y19927553D01*
X233812996Y19950757D01*
X233821054Y19973279D01*
X233831282Y19994903D01*
X233843579Y20015420D01*
X233857829Y20034633D01*
X233873893Y20052357D01*
X233891617Y20068421D01*
X233910830Y20082671D01*
X233931347Y20094968D01*
X233952971Y20105196D01*
X233975493Y20113254D01*
X233998697Y20119066D01*
X234022358Y20122576D01*
X234046250Y20123750D01*
X234533750Y20123750D01*
X234557642Y20122576D01*
G37*
G36*
X204107642Y20122576D02*
G01*
X204131303Y20119066D01*
X204154507Y20113254D01*
X204177029Y20105196D01*
X204198653Y20094968D01*
X204219170Y20082671D01*
X204238383Y20068421D01*
X204256107Y20052357D01*
X204272171Y20034633D01*
X204286421Y20015420D01*
X204298718Y19994903D01*
X204308946Y19973279D01*
X204317004Y19950757D01*
X204322816Y19927553D01*
X204326326Y19903892D01*
X204327500Y19880000D01*
X204327500Y18967500D01*
X204326326Y18943608D01*
X204322816Y18919947D01*
X204317004Y18896743D01*
X204308946Y18874221D01*
X204298718Y18852597D01*
X204286421Y18832080D01*
X204272171Y18812867D01*
X204256107Y18795143D01*
X204238383Y18779079D01*
X204219170Y18764829D01*
X204198653Y18752532D01*
X204177029Y18742304D01*
X204154507Y18734246D01*
X204131303Y18728434D01*
X204107642Y18724924D01*
X204083750Y18723750D01*
X203596250Y18723750D01*
X203572358Y18724924D01*
X203548697Y18728434D01*
X203525493Y18734246D01*
X203502971Y18742304D01*
X203481347Y18752532D01*
X203460830Y18764829D01*
X203441617Y18779079D01*
X203423893Y18795143D01*
X203407829Y18812867D01*
X203393579Y18832080D01*
X203381282Y18852597D01*
X203371054Y18874221D01*
X203362996Y18896743D01*
X203357184Y18919947D01*
X203353674Y18943608D01*
X203352500Y18967500D01*
X203352500Y19880000D01*
X203353674Y19903892D01*
X203357184Y19927553D01*
X203362996Y19950757D01*
X203371054Y19973279D01*
X203381282Y19994903D01*
X203393579Y20015420D01*
X203407829Y20034633D01*
X203423893Y20052357D01*
X203441617Y20068421D01*
X203460830Y20082671D01*
X203481347Y20094968D01*
X203502971Y20105196D01*
X203525493Y20113254D01*
X203548697Y20119066D01*
X203572358Y20122576D01*
X203596250Y20123750D01*
X204083750Y20123750D01*
X204107642Y20122576D01*
G37*
G36*
X205982642Y20122576D02*
G01*
X206006303Y20119066D01*
X206029507Y20113254D01*
X206052029Y20105196D01*
X206073653Y20094968D01*
X206094170Y20082671D01*
X206113383Y20068421D01*
X206131107Y20052357D01*
X206147171Y20034633D01*
X206161421Y20015420D01*
X206173718Y19994903D01*
X206183946Y19973279D01*
X206192004Y19950757D01*
X206197816Y19927553D01*
X206201326Y19903892D01*
X206202500Y19880000D01*
X206202500Y18967500D01*
X206201326Y18943608D01*
X206197816Y18919947D01*
X206192004Y18896743D01*
X206183946Y18874221D01*
X206173718Y18852597D01*
X206161421Y18832080D01*
X206147171Y18812867D01*
X206131107Y18795143D01*
X206113383Y18779079D01*
X206094170Y18764829D01*
X206073653Y18752532D01*
X206052029Y18742304D01*
X206029507Y18734246D01*
X206006303Y18728434D01*
X205982642Y18724924D01*
X205958750Y18723750D01*
X205471250Y18723750D01*
X205447358Y18724924D01*
X205423697Y18728434D01*
X205400493Y18734246D01*
X205377971Y18742304D01*
X205356347Y18752532D01*
X205335830Y18764829D01*
X205316617Y18779079D01*
X205298893Y18795143D01*
X205282829Y18812867D01*
X205268579Y18832080D01*
X205256282Y18852597D01*
X205246054Y18874221D01*
X205237996Y18896743D01*
X205232184Y18919947D01*
X205228674Y18943608D01*
X205227500Y18967500D01*
X205227500Y19880000D01*
X205228674Y19903892D01*
X205232184Y19927553D01*
X205237996Y19950757D01*
X205246054Y19973279D01*
X205256282Y19994903D01*
X205268579Y20015420D01*
X205282829Y20034633D01*
X205298893Y20052357D01*
X205316617Y20068421D01*
X205335830Y20082671D01*
X205356347Y20094968D01*
X205377971Y20105196D01*
X205400493Y20113254D01*
X205423697Y20119066D01*
X205447358Y20122576D01*
X205471250Y20123750D01*
X205958750Y20123750D01*
X205982642Y20122576D01*
G37*
G36*
X289976392Y20122576D02*
G01*
X290000053Y20119066D01*
X290023257Y20113254D01*
X290045779Y20105196D01*
X290067403Y20094968D01*
X290087920Y20082671D01*
X290107133Y20068421D01*
X290124857Y20052357D01*
X290140921Y20034633D01*
X290155171Y20015420D01*
X290167468Y19994903D01*
X290177696Y19973279D01*
X290185754Y19950757D01*
X290191566Y19927553D01*
X290195076Y19903892D01*
X290196250Y19880000D01*
X290196250Y18967500D01*
X290195076Y18943608D01*
X290191566Y18919947D01*
X290185754Y18896743D01*
X290177696Y18874221D01*
X290167468Y18852597D01*
X290155171Y18832080D01*
X290140921Y18812867D01*
X290124857Y18795143D01*
X290107133Y18779079D01*
X290087920Y18764829D01*
X290067403Y18752532D01*
X290045779Y18742304D01*
X290023257Y18734246D01*
X290000053Y18728434D01*
X289976392Y18724924D01*
X289952500Y18723750D01*
X289465000Y18723750D01*
X289441108Y18724924D01*
X289417447Y18728434D01*
X289394243Y18734246D01*
X289371721Y18742304D01*
X289350097Y18752532D01*
X289329580Y18764829D01*
X289310367Y18779079D01*
X289292643Y18795143D01*
X289276579Y18812867D01*
X289262329Y18832080D01*
X289250032Y18852597D01*
X289239804Y18874221D01*
X289231746Y18896743D01*
X289225934Y18919947D01*
X289222424Y18943608D01*
X289221250Y18967500D01*
X289221250Y19880000D01*
X289222424Y19903892D01*
X289225934Y19927553D01*
X289231746Y19950757D01*
X289239804Y19973279D01*
X289250032Y19994903D01*
X289262329Y20015420D01*
X289276579Y20034633D01*
X289292643Y20052357D01*
X289310367Y20068421D01*
X289329580Y20082671D01*
X289350097Y20094968D01*
X289371721Y20105196D01*
X289394243Y20113254D01*
X289417447Y20119066D01*
X289441108Y20122576D01*
X289465000Y20123750D01*
X289952500Y20123750D01*
X289976392Y20122576D01*
G37*
G36*
X291851392Y20122576D02*
G01*
X291875053Y20119066D01*
X291898257Y20113254D01*
X291920779Y20105196D01*
X291942403Y20094968D01*
X291962920Y20082671D01*
X291982133Y20068421D01*
X291999857Y20052357D01*
X292015921Y20034633D01*
X292030171Y20015420D01*
X292042468Y19994903D01*
X292052696Y19973279D01*
X292060754Y19950757D01*
X292066566Y19927553D01*
X292070076Y19903892D01*
X292071250Y19880000D01*
X292071250Y18967500D01*
X292070076Y18943608D01*
X292066566Y18919947D01*
X292060754Y18896743D01*
X292052696Y18874221D01*
X292042468Y18852597D01*
X292030171Y18832080D01*
X292015921Y18812867D01*
X291999857Y18795143D01*
X291982133Y18779079D01*
X291962920Y18764829D01*
X291942403Y18752532D01*
X291920779Y18742304D01*
X291898257Y18734246D01*
X291875053Y18728434D01*
X291851392Y18724924D01*
X291827500Y18723750D01*
X291340000Y18723750D01*
X291316108Y18724924D01*
X291292447Y18728434D01*
X291269243Y18734246D01*
X291246721Y18742304D01*
X291225097Y18752532D01*
X291204580Y18764829D01*
X291185367Y18779079D01*
X291167643Y18795143D01*
X291151579Y18812867D01*
X291137329Y18832080D01*
X291125032Y18852597D01*
X291114804Y18874221D01*
X291106746Y18896743D01*
X291100934Y18919947D01*
X291097424Y18943608D01*
X291096250Y18967500D01*
X291096250Y19880000D01*
X291097424Y19903892D01*
X291100934Y19927553D01*
X291106746Y19950757D01*
X291114804Y19973279D01*
X291125032Y19994903D01*
X291137329Y20015420D01*
X291151579Y20034633D01*
X291167643Y20052357D01*
X291185367Y20068421D01*
X291204580Y20082671D01*
X291225097Y20094968D01*
X291246721Y20105196D01*
X291269243Y20113254D01*
X291292447Y20119066D01*
X291316108Y20122576D01*
X291340000Y20123750D01*
X291827500Y20123750D01*
X291851392Y20122576D01*
G37*
G36*
X280451392Y20122576D02*
G01*
X280475053Y20119066D01*
X280498257Y20113254D01*
X280520779Y20105196D01*
X280542403Y20094968D01*
X280562920Y20082671D01*
X280582133Y20068421D01*
X280599857Y20052357D01*
X280615921Y20034633D01*
X280630171Y20015420D01*
X280642468Y19994903D01*
X280652696Y19973279D01*
X280660754Y19950757D01*
X280666566Y19927553D01*
X280670076Y19903892D01*
X280671250Y19880000D01*
X280671250Y18967500D01*
X280670076Y18943608D01*
X280666566Y18919947D01*
X280660754Y18896743D01*
X280652696Y18874221D01*
X280642468Y18852597D01*
X280630171Y18832080D01*
X280615921Y18812867D01*
X280599857Y18795143D01*
X280582133Y18779079D01*
X280562920Y18764829D01*
X280542403Y18752532D01*
X280520779Y18742304D01*
X280498257Y18734246D01*
X280475053Y18728434D01*
X280451392Y18724924D01*
X280427500Y18723750D01*
X279940000Y18723750D01*
X279916108Y18724924D01*
X279892447Y18728434D01*
X279869243Y18734246D01*
X279846721Y18742304D01*
X279825097Y18752532D01*
X279804580Y18764829D01*
X279785367Y18779079D01*
X279767643Y18795143D01*
X279751579Y18812867D01*
X279737329Y18832080D01*
X279725032Y18852597D01*
X279714804Y18874221D01*
X279706746Y18896743D01*
X279700934Y18919947D01*
X279697424Y18943608D01*
X279696250Y18967500D01*
X279696250Y19880000D01*
X279697424Y19903892D01*
X279700934Y19927553D01*
X279706746Y19950757D01*
X279714804Y19973279D01*
X279725032Y19994903D01*
X279737329Y20015420D01*
X279751579Y20034633D01*
X279767643Y20052357D01*
X279785367Y20068421D01*
X279804580Y20082671D01*
X279825097Y20094968D01*
X279846721Y20105196D01*
X279869243Y20113254D01*
X279892447Y20119066D01*
X279916108Y20122576D01*
X279940000Y20123750D01*
X280427500Y20123750D01*
X280451392Y20122576D01*
G37*
G36*
X282326392Y20122576D02*
G01*
X282350053Y20119066D01*
X282373257Y20113254D01*
X282395779Y20105196D01*
X282417403Y20094968D01*
X282437920Y20082671D01*
X282457133Y20068421D01*
X282474857Y20052357D01*
X282490921Y20034633D01*
X282505171Y20015420D01*
X282517468Y19994903D01*
X282527696Y19973279D01*
X282535754Y19950757D01*
X282541566Y19927553D01*
X282545076Y19903892D01*
X282546250Y19880000D01*
X282546250Y18967500D01*
X282545076Y18943608D01*
X282541566Y18919947D01*
X282535754Y18896743D01*
X282527696Y18874221D01*
X282517468Y18852597D01*
X282505171Y18832080D01*
X282490921Y18812867D01*
X282474857Y18795143D01*
X282457133Y18779079D01*
X282437920Y18764829D01*
X282417403Y18752532D01*
X282395779Y18742304D01*
X282373257Y18734246D01*
X282350053Y18728434D01*
X282326392Y18724924D01*
X282302500Y18723750D01*
X281815000Y18723750D01*
X281791108Y18724924D01*
X281767447Y18728434D01*
X281744243Y18734246D01*
X281721721Y18742304D01*
X281700097Y18752532D01*
X281679580Y18764829D01*
X281660367Y18779079D01*
X281642643Y18795143D01*
X281626579Y18812867D01*
X281612329Y18832080D01*
X281600032Y18852597D01*
X281589804Y18874221D01*
X281581746Y18896743D01*
X281575934Y18919947D01*
X281572424Y18943608D01*
X281571250Y18967500D01*
X281571250Y19880000D01*
X281572424Y19903892D01*
X281575934Y19927553D01*
X281581746Y19950757D01*
X281589804Y19973279D01*
X281600032Y19994903D01*
X281612329Y20015420D01*
X281626579Y20034633D01*
X281642643Y20052357D01*
X281660367Y20068421D01*
X281679580Y20082671D01*
X281700097Y20094968D01*
X281721721Y20105196D01*
X281744243Y20113254D01*
X281767447Y20119066D01*
X281791108Y20122576D01*
X281815000Y20123750D01*
X282302500Y20123750D01*
X282326392Y20122576D01*
G37*
G36*
X299357642Y20122576D02*
G01*
X299381303Y20119066D01*
X299404507Y20113254D01*
X299427029Y20105196D01*
X299448653Y20094968D01*
X299469170Y20082671D01*
X299488383Y20068421D01*
X299506107Y20052357D01*
X299522171Y20034633D01*
X299536421Y20015420D01*
X299548718Y19994903D01*
X299558946Y19973279D01*
X299567004Y19950757D01*
X299572816Y19927553D01*
X299576326Y19903892D01*
X299577500Y19880000D01*
X299577500Y18967500D01*
X299576326Y18943608D01*
X299572816Y18919947D01*
X299567004Y18896743D01*
X299558946Y18874221D01*
X299548718Y18852597D01*
X299536421Y18832080D01*
X299522171Y18812867D01*
X299506107Y18795143D01*
X299488383Y18779079D01*
X299469170Y18764829D01*
X299448653Y18752532D01*
X299427029Y18742304D01*
X299404507Y18734246D01*
X299381303Y18728434D01*
X299357642Y18724924D01*
X299333750Y18723750D01*
X298846250Y18723750D01*
X298822358Y18724924D01*
X298798697Y18728434D01*
X298775493Y18734246D01*
X298752971Y18742304D01*
X298731347Y18752532D01*
X298710830Y18764829D01*
X298691617Y18779079D01*
X298673893Y18795143D01*
X298657829Y18812867D01*
X298643579Y18832080D01*
X298631282Y18852597D01*
X298621054Y18874221D01*
X298612996Y18896743D01*
X298607184Y18919947D01*
X298603674Y18943608D01*
X298602500Y18967500D01*
X298602500Y19880000D01*
X298603674Y19903892D01*
X298607184Y19927553D01*
X298612996Y19950757D01*
X298621054Y19973279D01*
X298631282Y19994903D01*
X298643579Y20015420D01*
X298657829Y20034633D01*
X298673893Y20052357D01*
X298691617Y20068421D01*
X298710830Y20082671D01*
X298731347Y20094968D01*
X298752971Y20105196D01*
X298775493Y20113254D01*
X298798697Y20119066D01*
X298822358Y20122576D01*
X298846250Y20123750D01*
X299333750Y20123750D01*
X299357642Y20122576D01*
G37*
G36*
X301232642Y20122576D02*
G01*
X301256303Y20119066D01*
X301279507Y20113254D01*
X301302029Y20105196D01*
X301323653Y20094968D01*
X301344170Y20082671D01*
X301363383Y20068421D01*
X301381107Y20052357D01*
X301397171Y20034633D01*
X301411421Y20015420D01*
X301423718Y19994903D01*
X301433946Y19973279D01*
X301442004Y19950757D01*
X301447816Y19927553D01*
X301451326Y19903892D01*
X301452500Y19880000D01*
X301452500Y18967500D01*
X301451326Y18943608D01*
X301447816Y18919947D01*
X301442004Y18896743D01*
X301433946Y18874221D01*
X301423718Y18852597D01*
X301411421Y18832080D01*
X301397171Y18812867D01*
X301381107Y18795143D01*
X301363383Y18779079D01*
X301344170Y18764829D01*
X301323653Y18752532D01*
X301302029Y18742304D01*
X301279507Y18734246D01*
X301256303Y18728434D01*
X301232642Y18724924D01*
X301208750Y18723750D01*
X300721250Y18723750D01*
X300697358Y18724924D01*
X300673697Y18728434D01*
X300650493Y18734246D01*
X300627971Y18742304D01*
X300606347Y18752532D01*
X300585830Y18764829D01*
X300566617Y18779079D01*
X300548893Y18795143D01*
X300532829Y18812867D01*
X300518579Y18832080D01*
X300506282Y18852597D01*
X300496054Y18874221D01*
X300487996Y18896743D01*
X300482184Y18919947D01*
X300478674Y18943608D01*
X300477500Y18967500D01*
X300477500Y19880000D01*
X300478674Y19903892D01*
X300482184Y19927553D01*
X300487996Y19950757D01*
X300496054Y19973279D01*
X300506282Y19994903D01*
X300518579Y20015420D01*
X300532829Y20034633D01*
X300548893Y20052357D01*
X300566617Y20068421D01*
X300585830Y20082671D01*
X300606347Y20094968D01*
X300627971Y20105196D01*
X300650493Y20113254D01*
X300673697Y20119066D01*
X300697358Y20122576D01*
X300721250Y20123750D01*
X301208750Y20123750D01*
X301232642Y20122576D01*
G37*
G36*
X194582642Y20122576D02*
G01*
X194606303Y20119066D01*
X194629507Y20113254D01*
X194652029Y20105196D01*
X194673653Y20094968D01*
X194694170Y20082671D01*
X194713383Y20068421D01*
X194731107Y20052357D01*
X194747171Y20034633D01*
X194761421Y20015420D01*
X194773718Y19994903D01*
X194783946Y19973279D01*
X194792004Y19950757D01*
X194797816Y19927553D01*
X194801326Y19903892D01*
X194802500Y19880000D01*
X194802500Y18967500D01*
X194801326Y18943608D01*
X194797816Y18919947D01*
X194792004Y18896743D01*
X194783946Y18874221D01*
X194773718Y18852597D01*
X194761421Y18832080D01*
X194747171Y18812867D01*
X194731107Y18795143D01*
X194713383Y18779079D01*
X194694170Y18764829D01*
X194673653Y18752532D01*
X194652029Y18742304D01*
X194629507Y18734246D01*
X194606303Y18728434D01*
X194582642Y18724924D01*
X194558750Y18723750D01*
X194071250Y18723750D01*
X194047358Y18724924D01*
X194023697Y18728434D01*
X194000493Y18734246D01*
X193977971Y18742304D01*
X193956347Y18752532D01*
X193935830Y18764829D01*
X193916617Y18779079D01*
X193898893Y18795143D01*
X193882829Y18812867D01*
X193868579Y18832080D01*
X193856282Y18852597D01*
X193846054Y18874221D01*
X193837996Y18896743D01*
X193832184Y18919947D01*
X193828674Y18943608D01*
X193827500Y18967500D01*
X193827500Y19880000D01*
X193828674Y19903892D01*
X193832184Y19927553D01*
X193837996Y19950757D01*
X193846054Y19973279D01*
X193856282Y19994903D01*
X193868579Y20015420D01*
X193882829Y20034633D01*
X193898893Y20052357D01*
X193916617Y20068421D01*
X193935830Y20082671D01*
X193956347Y20094968D01*
X193977971Y20105196D01*
X194000493Y20113254D01*
X194023697Y20119066D01*
X194047358Y20122576D01*
X194071250Y20123750D01*
X194558750Y20123750D01*
X194582642Y20122576D01*
G37*
G36*
X196457642Y20122576D02*
G01*
X196481303Y20119066D01*
X196504507Y20113254D01*
X196527029Y20105196D01*
X196548653Y20094968D01*
X196569170Y20082671D01*
X196588383Y20068421D01*
X196606107Y20052357D01*
X196622171Y20034633D01*
X196636421Y20015420D01*
X196648718Y19994903D01*
X196658946Y19973279D01*
X196667004Y19950757D01*
X196672816Y19927553D01*
X196676326Y19903892D01*
X196677500Y19880000D01*
X196677500Y18967500D01*
X196676326Y18943608D01*
X196672816Y18919947D01*
X196667004Y18896743D01*
X196658946Y18874221D01*
X196648718Y18852597D01*
X196636421Y18832080D01*
X196622171Y18812867D01*
X196606107Y18795143D01*
X196588383Y18779079D01*
X196569170Y18764829D01*
X196548653Y18752532D01*
X196527029Y18742304D01*
X196504507Y18734246D01*
X196481303Y18728434D01*
X196457642Y18724924D01*
X196433750Y18723750D01*
X195946250Y18723750D01*
X195922358Y18724924D01*
X195898697Y18728434D01*
X195875493Y18734246D01*
X195852971Y18742304D01*
X195831347Y18752532D01*
X195810830Y18764829D01*
X195791617Y18779079D01*
X195773893Y18795143D01*
X195757829Y18812867D01*
X195743579Y18832080D01*
X195731282Y18852597D01*
X195721054Y18874221D01*
X195712996Y18896743D01*
X195707184Y18919947D01*
X195703674Y18943608D01*
X195702500Y18967500D01*
X195702500Y19880000D01*
X195703674Y19903892D01*
X195707184Y19927553D01*
X195712996Y19950757D01*
X195721054Y19973279D01*
X195731282Y19994903D01*
X195743579Y20015420D01*
X195757829Y20034633D01*
X195773893Y20052357D01*
X195791617Y20068421D01*
X195810830Y20082671D01*
X195831347Y20094968D01*
X195852971Y20105196D01*
X195875493Y20113254D01*
X195898697Y20119066D01*
X195922358Y20122576D01*
X195946250Y20123750D01*
X196433750Y20123750D01*
X196457642Y20122576D01*
G37*
G36*
X261257642Y20122576D02*
G01*
X261281303Y20119066D01*
X261304507Y20113254D01*
X261327029Y20105196D01*
X261348653Y20094968D01*
X261369170Y20082671D01*
X261388383Y20068421D01*
X261406107Y20052357D01*
X261422171Y20034633D01*
X261436421Y20015420D01*
X261448718Y19994903D01*
X261458946Y19973279D01*
X261467004Y19950757D01*
X261472816Y19927553D01*
X261476326Y19903892D01*
X261477500Y19880000D01*
X261477500Y18967500D01*
X261476326Y18943608D01*
X261472816Y18919947D01*
X261467004Y18896743D01*
X261458946Y18874221D01*
X261448718Y18852597D01*
X261436421Y18832080D01*
X261422171Y18812867D01*
X261406107Y18795143D01*
X261388383Y18779079D01*
X261369170Y18764829D01*
X261348653Y18752532D01*
X261327029Y18742304D01*
X261304507Y18734246D01*
X261281303Y18728434D01*
X261257642Y18724924D01*
X261233750Y18723750D01*
X260746250Y18723750D01*
X260722358Y18724924D01*
X260698697Y18728434D01*
X260675493Y18734246D01*
X260652971Y18742304D01*
X260631347Y18752532D01*
X260610830Y18764829D01*
X260591617Y18779079D01*
X260573893Y18795143D01*
X260557829Y18812867D01*
X260543579Y18832080D01*
X260531282Y18852597D01*
X260521054Y18874221D01*
X260512996Y18896743D01*
X260507184Y18919947D01*
X260503674Y18943608D01*
X260502500Y18967500D01*
X260502500Y19880000D01*
X260503674Y19903892D01*
X260507184Y19927553D01*
X260512996Y19950757D01*
X260521054Y19973279D01*
X260531282Y19994903D01*
X260543579Y20015420D01*
X260557829Y20034633D01*
X260573893Y20052357D01*
X260591617Y20068421D01*
X260610830Y20082671D01*
X260631347Y20094968D01*
X260652971Y20105196D01*
X260675493Y20113254D01*
X260698697Y20119066D01*
X260722358Y20122576D01*
X260746250Y20123750D01*
X261233750Y20123750D01*
X261257642Y20122576D01*
G37*
G36*
X263132642Y20122576D02*
G01*
X263156303Y20119066D01*
X263179507Y20113254D01*
X263202029Y20105196D01*
X263223653Y20094968D01*
X263244170Y20082671D01*
X263263383Y20068421D01*
X263281107Y20052357D01*
X263297171Y20034633D01*
X263311421Y20015420D01*
X263323718Y19994903D01*
X263333946Y19973279D01*
X263342004Y19950757D01*
X263347816Y19927553D01*
X263351326Y19903892D01*
X263352500Y19880000D01*
X263352500Y18967500D01*
X263351326Y18943608D01*
X263347816Y18919947D01*
X263342004Y18896743D01*
X263333946Y18874221D01*
X263323718Y18852597D01*
X263311421Y18832080D01*
X263297171Y18812867D01*
X263281107Y18795143D01*
X263263383Y18779079D01*
X263244170Y18764829D01*
X263223653Y18752532D01*
X263202029Y18742304D01*
X263179507Y18734246D01*
X263156303Y18728434D01*
X263132642Y18724924D01*
X263108750Y18723750D01*
X262621250Y18723750D01*
X262597358Y18724924D01*
X262573697Y18728434D01*
X262550493Y18734246D01*
X262527971Y18742304D01*
X262506347Y18752532D01*
X262485830Y18764829D01*
X262466617Y18779079D01*
X262448893Y18795143D01*
X262432829Y18812867D01*
X262418579Y18832080D01*
X262406282Y18852597D01*
X262396054Y18874221D01*
X262387996Y18896743D01*
X262382184Y18919947D01*
X262378674Y18943608D01*
X262377500Y18967500D01*
X262377500Y19880000D01*
X262378674Y19903892D01*
X262382184Y19927553D01*
X262387996Y19950757D01*
X262396054Y19973279D01*
X262406282Y19994903D01*
X262418579Y20015420D01*
X262432829Y20034633D01*
X262448893Y20052357D01*
X262466617Y20068421D01*
X262485830Y20082671D01*
X262506347Y20094968D01*
X262527971Y20105196D01*
X262550493Y20113254D01*
X262573697Y20119066D01*
X262597358Y20122576D01*
X262621250Y20123750D01*
X263108750Y20123750D01*
X263132642Y20122576D01*
G37*
G36*
X185057642Y20122576D02*
G01*
X185081303Y20119066D01*
X185104507Y20113254D01*
X185127029Y20105196D01*
X185148653Y20094968D01*
X185169170Y20082671D01*
X185188383Y20068421D01*
X185206107Y20052357D01*
X185222171Y20034633D01*
X185236421Y20015420D01*
X185248718Y19994903D01*
X185258946Y19973279D01*
X185267004Y19950757D01*
X185272816Y19927553D01*
X185276326Y19903892D01*
X185277500Y19880000D01*
X185277500Y18967500D01*
X185276326Y18943608D01*
X185272816Y18919947D01*
X185267004Y18896743D01*
X185258946Y18874221D01*
X185248718Y18852597D01*
X185236421Y18832080D01*
X185222171Y18812867D01*
X185206107Y18795143D01*
X185188383Y18779079D01*
X185169170Y18764829D01*
X185148653Y18752532D01*
X185127029Y18742304D01*
X185104507Y18734246D01*
X185081303Y18728434D01*
X185057642Y18724924D01*
X185033750Y18723750D01*
X184546250Y18723750D01*
X184522358Y18724924D01*
X184498697Y18728434D01*
X184475493Y18734246D01*
X184452971Y18742304D01*
X184431347Y18752532D01*
X184410830Y18764829D01*
X184391617Y18779079D01*
X184373893Y18795143D01*
X184357829Y18812867D01*
X184343579Y18832080D01*
X184331282Y18852597D01*
X184321054Y18874221D01*
X184312996Y18896743D01*
X184307184Y18919947D01*
X184303674Y18943608D01*
X184302500Y18967500D01*
X184302500Y19880000D01*
X184303674Y19903892D01*
X184307184Y19927553D01*
X184312996Y19950757D01*
X184321054Y19973279D01*
X184331282Y19994903D01*
X184343579Y20015420D01*
X184357829Y20034633D01*
X184373893Y20052357D01*
X184391617Y20068421D01*
X184410830Y20082671D01*
X184431347Y20094968D01*
X184452971Y20105196D01*
X184475493Y20113254D01*
X184498697Y20119066D01*
X184522358Y20122576D01*
X184546250Y20123750D01*
X185033750Y20123750D01*
X185057642Y20122576D01*
G37*
G36*
X186932642Y20122576D02*
G01*
X186956303Y20119066D01*
X186979507Y20113254D01*
X187002029Y20105196D01*
X187023653Y20094968D01*
X187044170Y20082671D01*
X187063383Y20068421D01*
X187081107Y20052357D01*
X187097171Y20034633D01*
X187111421Y20015420D01*
X187123718Y19994903D01*
X187133946Y19973279D01*
X187142004Y19950757D01*
X187147816Y19927553D01*
X187151326Y19903892D01*
X187152500Y19880000D01*
X187152500Y18967500D01*
X187151326Y18943608D01*
X187147816Y18919947D01*
X187142004Y18896743D01*
X187133946Y18874221D01*
X187123718Y18852597D01*
X187111421Y18832080D01*
X187097171Y18812867D01*
X187081107Y18795143D01*
X187063383Y18779079D01*
X187044170Y18764829D01*
X187023653Y18752532D01*
X187002029Y18742304D01*
X186979507Y18734246D01*
X186956303Y18728434D01*
X186932642Y18724924D01*
X186908750Y18723750D01*
X186421250Y18723750D01*
X186397358Y18724924D01*
X186373697Y18728434D01*
X186350493Y18734246D01*
X186327971Y18742304D01*
X186306347Y18752532D01*
X186285830Y18764829D01*
X186266617Y18779079D01*
X186248893Y18795143D01*
X186232829Y18812867D01*
X186218579Y18832080D01*
X186206282Y18852597D01*
X186196054Y18874221D01*
X186187996Y18896743D01*
X186182184Y18919947D01*
X186178674Y18943608D01*
X186177500Y18967500D01*
X186177500Y19880000D01*
X186178674Y19903892D01*
X186182184Y19927553D01*
X186187996Y19950757D01*
X186196054Y19973279D01*
X186206282Y19994903D01*
X186218579Y20015420D01*
X186232829Y20034633D01*
X186248893Y20052357D01*
X186266617Y20068421D01*
X186285830Y20082671D01*
X186306347Y20094968D01*
X186327971Y20105196D01*
X186350493Y20113254D01*
X186373697Y20119066D01*
X186397358Y20122576D01*
X186421250Y20123750D01*
X186908750Y20123750D01*
X186932642Y20122576D01*
G37*
G36*
X270782642Y20122576D02*
G01*
X270806303Y20119066D01*
X270829507Y20113254D01*
X270852029Y20105196D01*
X270873653Y20094968D01*
X270894170Y20082671D01*
X270913383Y20068421D01*
X270931107Y20052357D01*
X270947171Y20034633D01*
X270961421Y20015420D01*
X270973718Y19994903D01*
X270983946Y19973279D01*
X270992004Y19950757D01*
X270997816Y19927553D01*
X271001326Y19903892D01*
X271002500Y19880000D01*
X271002500Y18967500D01*
X271001326Y18943608D01*
X270997816Y18919947D01*
X270992004Y18896743D01*
X270983946Y18874221D01*
X270973718Y18852597D01*
X270961421Y18832080D01*
X270947171Y18812867D01*
X270931107Y18795143D01*
X270913383Y18779079D01*
X270894170Y18764829D01*
X270873653Y18752532D01*
X270852029Y18742304D01*
X270829507Y18734246D01*
X270806303Y18728434D01*
X270782642Y18724924D01*
X270758750Y18723750D01*
X270271250Y18723750D01*
X270247358Y18724924D01*
X270223697Y18728434D01*
X270200493Y18734246D01*
X270177971Y18742304D01*
X270156347Y18752532D01*
X270135830Y18764829D01*
X270116617Y18779079D01*
X270098893Y18795143D01*
X270082829Y18812867D01*
X270068579Y18832080D01*
X270056282Y18852597D01*
X270046054Y18874221D01*
X270037996Y18896743D01*
X270032184Y18919947D01*
X270028674Y18943608D01*
X270027500Y18967500D01*
X270027500Y19880000D01*
X270028674Y19903892D01*
X270032184Y19927553D01*
X270037996Y19950757D01*
X270046054Y19973279D01*
X270056282Y19994903D01*
X270068579Y20015420D01*
X270082829Y20034633D01*
X270098893Y20052357D01*
X270116617Y20068421D01*
X270135830Y20082671D01*
X270156347Y20094968D01*
X270177971Y20105196D01*
X270200493Y20113254D01*
X270223697Y20119066D01*
X270247358Y20122576D01*
X270271250Y20123750D01*
X270758750Y20123750D01*
X270782642Y20122576D01*
G37*
G36*
X272657642Y20122576D02*
G01*
X272681303Y20119066D01*
X272704507Y20113254D01*
X272727029Y20105196D01*
X272748653Y20094968D01*
X272769170Y20082671D01*
X272788383Y20068421D01*
X272806107Y20052357D01*
X272822171Y20034633D01*
X272836421Y20015420D01*
X272848718Y19994903D01*
X272858946Y19973279D01*
X272867004Y19950757D01*
X272872816Y19927553D01*
X272876326Y19903892D01*
X272877500Y19880000D01*
X272877500Y18967500D01*
X272876326Y18943608D01*
X272872816Y18919947D01*
X272867004Y18896743D01*
X272858946Y18874221D01*
X272848718Y18852597D01*
X272836421Y18832080D01*
X272822171Y18812867D01*
X272806107Y18795143D01*
X272788383Y18779079D01*
X272769170Y18764829D01*
X272748653Y18752532D01*
X272727029Y18742304D01*
X272704507Y18734246D01*
X272681303Y18728434D01*
X272657642Y18724924D01*
X272633750Y18723750D01*
X272146250Y18723750D01*
X272122358Y18724924D01*
X272098697Y18728434D01*
X272075493Y18734246D01*
X272052971Y18742304D01*
X272031347Y18752532D01*
X272010830Y18764829D01*
X271991617Y18779079D01*
X271973893Y18795143D01*
X271957829Y18812867D01*
X271943579Y18832080D01*
X271931282Y18852597D01*
X271921054Y18874221D01*
X271912996Y18896743D01*
X271907184Y18919947D01*
X271903674Y18943608D01*
X271902500Y18967500D01*
X271902500Y19880000D01*
X271903674Y19903892D01*
X271907184Y19927553D01*
X271912996Y19950757D01*
X271921054Y19973279D01*
X271931282Y19994903D01*
X271943579Y20015420D01*
X271957829Y20034633D01*
X271973893Y20052357D01*
X271991617Y20068421D01*
X272010830Y20082671D01*
X272031347Y20094968D01*
X272052971Y20105196D01*
X272075493Y20113254D01*
X272098697Y20119066D01*
X272122358Y20122576D01*
X272146250Y20123750D01*
X272633750Y20123750D01*
X272657642Y20122576D01*
G37*
D15*
X176212500Y-37306250D03*
D16*
X171132500Y-37306250D03*
X181292500Y-37306250D03*
D15*
X252412500Y793750D03*
D16*
X247332500Y793750D03*
X257492500Y793750D03*
D15*
X195262500Y-37306250D03*
D16*
X190182500Y-37306250D03*
X200342500Y-37306250D03*
D15*
X176212500Y793750D03*
D16*
X171132500Y793750D03*
X181292500Y793750D03*
D15*
X233362500Y-37306250D03*
D16*
X228282500Y-37306250D03*
X238442500Y-37306250D03*
D15*
X271462500Y793750D03*
D16*
X266382500Y793750D03*
X276542500Y793750D03*
D15*
X147637500Y-18256250D03*
D16*
X142557500Y-18256250D03*
X152717500Y-18256250D03*
D15*
X233362500Y793750D03*
D16*
X228282500Y793750D03*
X238442500Y793750D03*
D15*
X183356250Y-56356250D03*
D16*
X178276250Y-56356250D03*
X188436250Y-56356250D03*
D15*
X221456250Y-56356250D03*
D16*
X216376250Y-56356250D03*
X226536250Y-56356250D03*
D17*
X209518250Y-63341250D03*
X233394250Y-63341250D03*
D15*
X209518250Y-48101250D03*
X233394250Y-48101250D03*
X269081250Y-56356250D03*
D16*
X264001250Y-56356250D03*
X274161250Y-56356250D03*
D17*
X257143250Y-63341250D03*
X281019250Y-63341250D03*
D15*
X257143250Y-48101250D03*
X281019250Y-48101250D03*
X302418750Y-56356250D03*
D16*
X297338750Y-56356250D03*
X307498750Y-56356250D03*
D15*
X254793750Y-56356250D03*
D16*
X249713750Y-56356250D03*
X259873750Y-56356250D03*
D17*
X204793850Y-63341250D03*
X304793650Y-63341250D03*
D15*
X204793850Y-48101250D03*
X304793650Y-48101250D03*
X333375000Y-37306250D03*
D16*
X328295000Y-37306250D03*
X338455000Y-37306250D03*
D15*
X152400000Y-37306250D03*
D16*
X147320000Y-37306250D03*
X157480000Y-37306250D03*
D15*
X185737500Y-18256250D03*
D16*
X180657500Y-18256250D03*
X190817500Y-18256250D03*
D15*
X214312500Y793750D03*
D16*
X209232500Y793750D03*
X219392500Y793750D03*
D15*
X157162500Y793750D03*
D16*
X152082500Y793750D03*
X162242500Y793750D03*
D15*
X309562500Y-37306250D03*
D16*
X304482500Y-37306250D03*
X314642500Y-37306250D03*
D15*
X328612500Y793750D03*
D16*
X323532500Y793750D03*
X333692500Y793750D03*
D15*
X309562500Y793750D03*
D16*
X304482500Y793750D03*
X314642500Y793750D03*
D15*
X271462500Y-37306250D03*
D16*
X266382500Y-37306250D03*
X276542500Y-37306250D03*
D15*
X330993750Y-56356250D03*
D16*
X325913750Y-56356250D03*
X336073750Y-56356250D03*
D15*
X290512500Y-37306250D03*
D16*
X285432500Y-37306250D03*
X295592500Y-37306250D03*
D15*
X154781250Y-56356250D03*
D16*
X149701250Y-56356250D03*
X159861250Y-56356250D03*
D15*
X319087500Y-18256250D03*
D16*
X314007500Y-18256250D03*
X324167500Y-18256250D03*
D15*
X300037500Y-18256250D03*
D16*
X294957500Y-18256250D03*
X305117500Y-18256250D03*
D15*
X280987500Y-18256250D03*
D16*
X275907500Y-18256250D03*
X286067500Y-18256250D03*
D15*
X290512500Y793750D03*
D16*
X285432500Y793750D03*
X295592500Y793750D03*
D15*
X261937500Y-18256250D03*
D16*
X256857500Y-18256250D03*
X267017500Y-18256250D03*
D15*
X242887500Y-18256250D03*
D16*
X237807500Y-18256250D03*
X247967500Y-18256250D03*
D15*
X223837500Y-18256250D03*
D16*
X218757500Y-18256250D03*
X228917500Y-18256250D03*
D15*
X195262500Y793750D03*
D16*
X190182500Y793750D03*
X200342500Y793750D03*
D15*
X204787500Y-18256250D03*
D16*
X199707500Y-18256250D03*
X209867500Y-18256250D03*
D15*
X214312500Y-37306250D03*
D16*
X209232500Y-37306250D03*
X219392500Y-37306250D03*
D15*
X252412500Y-37306250D03*
D16*
X247332500Y-37306250D03*
X257492500Y-37306250D03*
D15*
X338137500Y-18256250D03*
D16*
X333057500Y-18256250D03*
X343217500Y-18256250D03*
D15*
X166687500Y-18256250D03*
D16*
X161607500Y-18256250D03*
X171767500Y-18256250D03*
D18*
X174010000Y39745000D03*
X165370000Y39745000D03*
D19*
X174010000Y35565000D03*
X165370000Y35565000D03*
D20*
X166800000Y36095000D03*
X172580000Y36095000D03*
M02*
