G04 #@! TF.GenerationSoftware,KiCad,Pcbnew,(5.1.5)-3*
G04 #@! TF.CreationDate,2020-09-23T00:09:50-07:00*
G04 #@! TF.ProjectId,keyboard,6b657962-6f61-4726-942e-6b696361645f,rev?*
G04 #@! TF.SameCoordinates,Original*
G04 #@! TF.FileFunction,Legend,Bot*
G04 #@! TF.FilePolarity,Positive*
%FSLAX46Y46*%
G04 Gerber Fmt 4.6, Leading zero omitted, Abs format (unit mm)*
G04 Created by KiCad (PCBNEW (5.1.5)-3) date 2020-09-23 00:09:50*
%MOMM*%
%LPD*%
G04 APERTURE LIST*
%ADD10C,0.010000*%
%ADD11C,0.120000*%
%ADD12C,0.150000*%
G04 APERTURE END LIST*
D10*
G36*
X182036724Y-20590394D02*
G01*
X181825702Y-20635807D01*
X181445835Y-20807582D01*
X181072821Y-21093228D01*
X180761887Y-21444339D01*
X180612627Y-21699000D01*
X180504818Y-22068950D01*
X180457088Y-22527664D01*
X180469366Y-23006625D01*
X180541579Y-23437316D01*
X180614691Y-23646333D01*
X180787813Y-23950686D01*
X181013533Y-24193676D01*
X181330814Y-24408987D01*
X181724667Y-24605947D01*
X182378473Y-24836745D01*
X182985278Y-24910189D01*
X183359521Y-24874415D01*
X183734808Y-24740565D01*
X184114098Y-24501462D01*
X184429435Y-24204894D01*
X184549096Y-24037860D01*
X184658902Y-23747820D01*
X184731634Y-23352133D01*
X184762508Y-22911379D01*
X184746739Y-22486137D01*
X184695079Y-22189393D01*
X184477528Y-21692862D01*
X184129598Y-21266591D01*
X183681421Y-20926894D01*
X183163129Y-20690086D01*
X182604853Y-20572481D01*
X182036724Y-20590394D01*
G37*
X182036724Y-20590394D02*
X181825702Y-20635807D01*
X181445835Y-20807582D01*
X181072821Y-21093228D01*
X180761887Y-21444339D01*
X180612627Y-21699000D01*
X180504818Y-22068950D01*
X180457088Y-22527664D01*
X180469366Y-23006625D01*
X180541579Y-23437316D01*
X180614691Y-23646333D01*
X180787813Y-23950686D01*
X181013533Y-24193676D01*
X181330814Y-24408987D01*
X181724667Y-24605947D01*
X182378473Y-24836745D01*
X182985278Y-24910189D01*
X183359521Y-24874415D01*
X183734808Y-24740565D01*
X184114098Y-24501462D01*
X184429435Y-24204894D01*
X184549096Y-24037860D01*
X184658902Y-23747820D01*
X184731634Y-23352133D01*
X184762508Y-22911379D01*
X184746739Y-22486137D01*
X184695079Y-22189393D01*
X184477528Y-21692862D01*
X184129598Y-21266591D01*
X183681421Y-20926894D01*
X183163129Y-20690086D01*
X182604853Y-20572481D01*
X182036724Y-20590394D01*
G36*
X226365169Y-845861D02*
G01*
X225944087Y-965448D01*
X225656110Y-1088052D01*
X225249276Y-1349943D01*
X224847497Y-1701592D01*
X224501293Y-2092711D01*
X224261185Y-2473012D01*
X224258044Y-2479667D01*
X224121264Y-2912924D01*
X224058213Y-3430082D01*
X224072622Y-3960856D01*
X224156261Y-4396652D01*
X224309047Y-4724985D01*
X224553799Y-5067742D01*
X224840160Y-5362911D01*
X225075206Y-5528290D01*
X225397206Y-5633809D01*
X225828135Y-5689619D01*
X226313854Y-5691645D01*
X226709092Y-5651247D01*
X227069483Y-5569946D01*
X227469743Y-5442729D01*
X227706205Y-5348136D01*
X228215353Y-5051658D01*
X228575029Y-4684681D01*
X228785786Y-4244546D01*
X228848176Y-3728597D01*
X228762751Y-3134175D01*
X228530066Y-2458623D01*
X228376349Y-2125194D01*
X228065651Y-1589583D01*
X227727865Y-1177404D01*
X227378486Y-904795D01*
X227102440Y-798321D01*
X226773458Y-785711D01*
X226365169Y-845861D01*
G37*
X226365169Y-845861D02*
X225944087Y-965448D01*
X225656110Y-1088052D01*
X225249276Y-1349943D01*
X224847497Y-1701592D01*
X224501293Y-2092711D01*
X224261185Y-2473012D01*
X224258044Y-2479667D01*
X224121264Y-2912924D01*
X224058213Y-3430082D01*
X224072622Y-3960856D01*
X224156261Y-4396652D01*
X224309047Y-4724985D01*
X224553799Y-5067742D01*
X224840160Y-5362911D01*
X225075206Y-5528290D01*
X225397206Y-5633809D01*
X225828135Y-5689619D01*
X226313854Y-5691645D01*
X226709092Y-5651247D01*
X227069483Y-5569946D01*
X227469743Y-5442729D01*
X227706205Y-5348136D01*
X228215353Y-5051658D01*
X228575029Y-4684681D01*
X228785786Y-4244546D01*
X228848176Y-3728597D01*
X228762751Y-3134175D01*
X228530066Y-2458623D01*
X228376349Y-2125194D01*
X228065651Y-1589583D01*
X227727865Y-1177404D01*
X227378486Y-904795D01*
X227102440Y-798321D01*
X226773458Y-785711D01*
X226365169Y-845861D01*
G36*
X204293985Y22160086D02*
G01*
X204076291Y22088947D01*
X203748809Y21974371D01*
X203335568Y21825298D01*
X202860594Y21650667D01*
X202347915Y21459417D01*
X201821559Y21260488D01*
X201305552Y21062820D01*
X200823923Y20875352D01*
X200400699Y20707022D01*
X200182000Y20617775D01*
X198874148Y20042692D01*
X197489952Y19371156D01*
X196072692Y18626563D01*
X194665649Y17832311D01*
X193312103Y17011795D01*
X192320206Y16367865D01*
X190117055Y14789258D01*
X188010349Y13077150D01*
X186007099Y11240247D01*
X184114318Y9287253D01*
X182339015Y7226876D01*
X180688202Y5067820D01*
X179168890Y2818792D01*
X177788091Y488496D01*
X176552816Y-1914361D01*
X175470077Y-4381074D01*
X175334077Y-4723333D01*
X175106633Y-5299123D01*
X174868091Y-5896332D01*
X174636750Y-6469610D01*
X174430906Y-6973603D01*
X174275178Y-7348000D01*
X174033685Y-7926115D01*
X173820329Y-8452519D01*
X173616669Y-8974937D01*
X173404267Y-9541096D01*
X173164685Y-10198720D01*
X173043861Y-10535060D01*
X172675720Y-11563120D01*
X173119802Y-11618604D01*
X173622419Y-11736460D01*
X174155340Y-11952900D01*
X174641765Y-12235351D01*
X174736392Y-12304242D01*
X175038891Y-12604960D01*
X175333208Y-13022780D01*
X175586043Y-13507341D01*
X175672114Y-13719347D01*
X175821144Y-14121694D01*
X176338739Y-13667309D01*
X177240497Y-12941381D01*
X178120489Y-12371759D01*
X178997764Y-11950411D01*
X179891368Y-11669302D01*
X180820349Y-11520399D01*
X181499657Y-11490528D01*
X182189993Y-11526542D01*
X182934269Y-11627927D01*
X183678011Y-11783153D01*
X184366747Y-11980693D01*
X184946003Y-12209018D01*
X184986240Y-12228395D01*
X185651400Y-12617765D01*
X186360365Y-13151421D01*
X187097669Y-13815024D01*
X187847848Y-14594240D01*
X188595438Y-15474730D01*
X188879000Y-15837299D01*
X189048334Y-16058761D01*
X189979667Y-14480259D01*
X190473295Y-13663208D01*
X191044044Y-12751587D01*
X191665814Y-11785065D01*
X192312509Y-10803312D01*
X192958031Y-9845994D01*
X193576283Y-8952782D01*
X194083312Y-8242688D01*
X194618124Y-7520473D01*
X195218801Y-6731956D01*
X195863528Y-5904224D01*
X196530485Y-5064361D01*
X197197856Y-4239454D01*
X197843823Y-3456589D01*
X198446569Y-2742849D01*
X198984277Y-2125322D01*
X199236927Y-1844667D01*
X199662465Y-1379000D01*
X199808409Y-1590667D01*
X200303375Y-2171289D01*
X200920864Y-2676652D01*
X201621966Y-3082619D01*
X202367773Y-3365057D01*
X202833850Y-3467283D01*
X203316060Y-3509756D01*
X203830736Y-3501695D01*
X204315391Y-3447490D01*
X204707537Y-3351534D01*
X204759101Y-3331959D01*
X204870509Y-3350390D01*
X205023462Y-3493415D01*
X205223256Y-3760340D01*
X205706566Y-4326118D01*
X206312109Y-4818171D01*
X206999002Y-5208248D01*
X207675000Y-5454739D01*
X207966103Y-5508876D01*
X208351699Y-5549214D01*
X208757070Y-5568362D01*
X208830249Y-5568995D01*
X209638523Y-5506047D01*
X210369231Y-5307573D01*
X211059452Y-4962665D01*
X211201362Y-4871518D01*
X211574413Y-4596618D01*
X211998363Y-4242565D01*
X212430737Y-3848774D01*
X212829060Y-3454663D01*
X213150856Y-3099650D01*
X213263000Y-2958296D01*
X213517000Y-2616610D01*
X220332667Y-6053115D01*
X221447461Y-6615491D01*
X222599860Y-7197380D01*
X223769610Y-7788523D01*
X224936458Y-8378663D01*
X226080148Y-8957543D01*
X227180428Y-9514907D01*
X228217042Y-10040497D01*
X229169736Y-10524055D01*
X230018257Y-10955325D01*
X230742350Y-11324049D01*
X230947204Y-11428550D01*
X231688678Y-11806311D01*
X232383123Y-12158788D01*
X233016229Y-12478810D01*
X233573689Y-12759209D01*
X234041194Y-12992815D01*
X234404436Y-13172457D01*
X234649106Y-13290967D01*
X234760896Y-13341176D01*
X234766387Y-13342241D01*
X234798810Y-13254800D01*
X234865526Y-13047510D01*
X234952892Y-12762930D01*
X234964497Y-12724333D01*
X235250405Y-12006446D01*
X235655819Y-11375983D01*
X236190483Y-10823706D01*
X236864142Y-10340374D01*
X237686539Y-9916750D01*
X238109209Y-9742571D01*
X238141570Y-9718402D01*
X238133148Y-9679806D01*
X238073153Y-9620790D01*
X237950790Y-9535358D01*
X237755269Y-9417518D01*
X237475797Y-9261274D01*
X237101582Y-9060634D01*
X236621832Y-8809602D01*
X236025754Y-8502185D01*
X235302557Y-8132390D01*
X234441448Y-7694221D01*
X234204378Y-7573811D01*
X233430904Y-7181389D01*
X232703560Y-6812998D01*
X232036190Y-6475608D01*
X231442638Y-6176187D01*
X230936748Y-5921705D01*
X230532364Y-5719130D01*
X230243330Y-5575431D01*
X230083489Y-5497577D01*
X230055497Y-5485333D01*
X229982657Y-5540224D01*
X229819856Y-5686432D01*
X229597588Y-5896262D01*
X229513314Y-5977736D01*
X229022706Y-6393160D01*
X228489351Y-6712879D01*
X227866045Y-6961916D01*
X227409957Y-7092757D01*
X226572192Y-7241211D01*
X225767322Y-7257239D01*
X225017959Y-7143792D01*
X224346711Y-6903819D01*
X223896906Y-6634381D01*
X223507669Y-6277201D01*
X223136979Y-5808865D01*
X222825118Y-5286154D01*
X222646996Y-4872577D01*
X222548247Y-4450418D01*
X222496738Y-3927238D01*
X222492364Y-3364597D01*
X222535019Y-2824054D01*
X222624599Y-2367167D01*
X222651426Y-2281563D01*
X222724261Y-2024058D01*
X222749972Y-1832028D01*
X222733830Y-1763404D01*
X222645206Y-1712348D01*
X222421207Y-1593048D01*
X222077591Y-1413637D01*
X221630116Y-1182243D01*
X221094541Y-906996D01*
X220486622Y-596026D01*
X219822117Y-257464D01*
X219359000Y-22237D01*
X218667764Y328635D01*
X218024220Y655699D01*
X217443853Y951053D01*
X216942148Y1206800D01*
X216534592Y1415039D01*
X216236671Y1567872D01*
X216063869Y1657399D01*
X216025768Y1678058D01*
X216037449Y1763555D01*
X216096487Y1967540D01*
X216190991Y2249876D01*
X216216294Y2321121D01*
X216518200Y3335077D01*
X216668383Y4278281D01*
X216665737Y5157358D01*
X216509156Y5978936D01*
X216197538Y6749644D01*
X215729775Y7476108D01*
X215268953Y8002926D01*
X214561373Y8608317D01*
X213772502Y9066578D01*
X212911418Y9373781D01*
X211987199Y9525999D01*
X211714910Y9540413D01*
X210923730Y9563469D01*
X210626294Y10018901D01*
X210051085Y10749502D01*
X209367564Y11354328D01*
X208590287Y11824121D01*
X207733813Y12149626D01*
X207049237Y12293357D01*
X206638885Y12325172D01*
X206175293Y12320342D01*
X205719846Y12283013D01*
X205333931Y12217332D01*
X205160555Y12165758D01*
X205050701Y12199018D01*
X204882166Y12367667D01*
X204647454Y12679443D01*
X204608707Y12735215D01*
X203999159Y13742031D01*
X203529740Y14783040D01*
X203203981Y15841335D01*
X203025409Y16900012D01*
X202997554Y17942163D01*
X203123944Y18950885D01*
X203224950Y19364333D01*
X203324916Y19668574D01*
X203478275Y20075368D01*
X203665219Y20534575D01*
X203865940Y20996054D01*
X203893866Y21057667D01*
X204071479Y21451262D01*
X204218936Y21785540D01*
X204324202Y22032617D01*
X204375239Y22164608D01*
X204377864Y22178848D01*
X204293985Y22160086D01*
G37*
X204293985Y22160086D02*
X204076291Y22088947D01*
X203748809Y21974371D01*
X203335568Y21825298D01*
X202860594Y21650667D01*
X202347915Y21459417D01*
X201821559Y21260488D01*
X201305552Y21062820D01*
X200823923Y20875352D01*
X200400699Y20707022D01*
X200182000Y20617775D01*
X198874148Y20042692D01*
X197489952Y19371156D01*
X196072692Y18626563D01*
X194665649Y17832311D01*
X193312103Y17011795D01*
X192320206Y16367865D01*
X190117055Y14789258D01*
X188010349Y13077150D01*
X186007099Y11240247D01*
X184114318Y9287253D01*
X182339015Y7226876D01*
X180688202Y5067820D01*
X179168890Y2818792D01*
X177788091Y488496D01*
X176552816Y-1914361D01*
X175470077Y-4381074D01*
X175334077Y-4723333D01*
X175106633Y-5299123D01*
X174868091Y-5896332D01*
X174636750Y-6469610D01*
X174430906Y-6973603D01*
X174275178Y-7348000D01*
X174033685Y-7926115D01*
X173820329Y-8452519D01*
X173616669Y-8974937D01*
X173404267Y-9541096D01*
X173164685Y-10198720D01*
X173043861Y-10535060D01*
X172675720Y-11563120D01*
X173119802Y-11618604D01*
X173622419Y-11736460D01*
X174155340Y-11952900D01*
X174641765Y-12235351D01*
X174736392Y-12304242D01*
X175038891Y-12604960D01*
X175333208Y-13022780D01*
X175586043Y-13507341D01*
X175672114Y-13719347D01*
X175821144Y-14121694D01*
X176338739Y-13667309D01*
X177240497Y-12941381D01*
X178120489Y-12371759D01*
X178997764Y-11950411D01*
X179891368Y-11669302D01*
X180820349Y-11520399D01*
X181499657Y-11490528D01*
X182189993Y-11526542D01*
X182934269Y-11627927D01*
X183678011Y-11783153D01*
X184366747Y-11980693D01*
X184946003Y-12209018D01*
X184986240Y-12228395D01*
X185651400Y-12617765D01*
X186360365Y-13151421D01*
X187097669Y-13815024D01*
X187847848Y-14594240D01*
X188595438Y-15474730D01*
X188879000Y-15837299D01*
X189048334Y-16058761D01*
X189979667Y-14480259D01*
X190473295Y-13663208D01*
X191044044Y-12751587D01*
X191665814Y-11785065D01*
X192312509Y-10803312D01*
X192958031Y-9845994D01*
X193576283Y-8952782D01*
X194083312Y-8242688D01*
X194618124Y-7520473D01*
X195218801Y-6731956D01*
X195863528Y-5904224D01*
X196530485Y-5064361D01*
X197197856Y-4239454D01*
X197843823Y-3456589D01*
X198446569Y-2742849D01*
X198984277Y-2125322D01*
X199236927Y-1844667D01*
X199662465Y-1379000D01*
X199808409Y-1590667D01*
X200303375Y-2171289D01*
X200920864Y-2676652D01*
X201621966Y-3082619D01*
X202367773Y-3365057D01*
X202833850Y-3467283D01*
X203316060Y-3509756D01*
X203830736Y-3501695D01*
X204315391Y-3447490D01*
X204707537Y-3351534D01*
X204759101Y-3331959D01*
X204870509Y-3350390D01*
X205023462Y-3493415D01*
X205223256Y-3760340D01*
X205706566Y-4326118D01*
X206312109Y-4818171D01*
X206999002Y-5208248D01*
X207675000Y-5454739D01*
X207966103Y-5508876D01*
X208351699Y-5549214D01*
X208757070Y-5568362D01*
X208830249Y-5568995D01*
X209638523Y-5506047D01*
X210369231Y-5307573D01*
X211059452Y-4962665D01*
X211201362Y-4871518D01*
X211574413Y-4596618D01*
X211998363Y-4242565D01*
X212430737Y-3848774D01*
X212829060Y-3454663D01*
X213150856Y-3099650D01*
X213263000Y-2958296D01*
X213517000Y-2616610D01*
X220332667Y-6053115D01*
X221447461Y-6615491D01*
X222599860Y-7197380D01*
X223769610Y-7788523D01*
X224936458Y-8378663D01*
X226080148Y-8957543D01*
X227180428Y-9514907D01*
X228217042Y-10040497D01*
X229169736Y-10524055D01*
X230018257Y-10955325D01*
X230742350Y-11324049D01*
X230947204Y-11428550D01*
X231688678Y-11806311D01*
X232383123Y-12158788D01*
X233016229Y-12478810D01*
X233573689Y-12759209D01*
X234041194Y-12992815D01*
X234404436Y-13172457D01*
X234649106Y-13290967D01*
X234760896Y-13341176D01*
X234766387Y-13342241D01*
X234798810Y-13254800D01*
X234865526Y-13047510D01*
X234952892Y-12762930D01*
X234964497Y-12724333D01*
X235250405Y-12006446D01*
X235655819Y-11375983D01*
X236190483Y-10823706D01*
X236864142Y-10340374D01*
X237686539Y-9916750D01*
X238109209Y-9742571D01*
X238141570Y-9718402D01*
X238133148Y-9679806D01*
X238073153Y-9620790D01*
X237950790Y-9535358D01*
X237755269Y-9417518D01*
X237475797Y-9261274D01*
X237101582Y-9060634D01*
X236621832Y-8809602D01*
X236025754Y-8502185D01*
X235302557Y-8132390D01*
X234441448Y-7694221D01*
X234204378Y-7573811D01*
X233430904Y-7181389D01*
X232703560Y-6812998D01*
X232036190Y-6475608D01*
X231442638Y-6176187D01*
X230936748Y-5921705D01*
X230532364Y-5719130D01*
X230243330Y-5575431D01*
X230083489Y-5497577D01*
X230055497Y-5485333D01*
X229982657Y-5540224D01*
X229819856Y-5686432D01*
X229597588Y-5896262D01*
X229513314Y-5977736D01*
X229022706Y-6393160D01*
X228489351Y-6712879D01*
X227866045Y-6961916D01*
X227409957Y-7092757D01*
X226572192Y-7241211D01*
X225767322Y-7257239D01*
X225017959Y-7143792D01*
X224346711Y-6903819D01*
X223896906Y-6634381D01*
X223507669Y-6277201D01*
X223136979Y-5808865D01*
X222825118Y-5286154D01*
X222646996Y-4872577D01*
X222548247Y-4450418D01*
X222496738Y-3927238D01*
X222492364Y-3364597D01*
X222535019Y-2824054D01*
X222624599Y-2367167D01*
X222651426Y-2281563D01*
X222724261Y-2024058D01*
X222749972Y-1832028D01*
X222733830Y-1763404D01*
X222645206Y-1712348D01*
X222421207Y-1593048D01*
X222077591Y-1413637D01*
X221630116Y-1182243D01*
X221094541Y-906996D01*
X220486622Y-596026D01*
X219822117Y-257464D01*
X219359000Y-22237D01*
X218667764Y328635D01*
X218024220Y655699D01*
X217443853Y951053D01*
X216942148Y1206800D01*
X216534592Y1415039D01*
X216236671Y1567872D01*
X216063869Y1657399D01*
X216025768Y1678058D01*
X216037449Y1763555D01*
X216096487Y1967540D01*
X216190991Y2249876D01*
X216216294Y2321121D01*
X216518200Y3335077D01*
X216668383Y4278281D01*
X216665737Y5157358D01*
X216509156Y5978936D01*
X216197538Y6749644D01*
X215729775Y7476108D01*
X215268953Y8002926D01*
X214561373Y8608317D01*
X213772502Y9066578D01*
X212911418Y9373781D01*
X211987199Y9525999D01*
X211714910Y9540413D01*
X210923730Y9563469D01*
X210626294Y10018901D01*
X210051085Y10749502D01*
X209367564Y11354328D01*
X208590287Y11824121D01*
X207733813Y12149626D01*
X207049237Y12293357D01*
X206638885Y12325172D01*
X206175293Y12320342D01*
X205719846Y12283013D01*
X205333931Y12217332D01*
X205160555Y12165758D01*
X205050701Y12199018D01*
X204882166Y12367667D01*
X204647454Y12679443D01*
X204608707Y12735215D01*
X203999159Y13742031D01*
X203529740Y14783040D01*
X203203981Y15841335D01*
X203025409Y16900012D01*
X202997554Y17942163D01*
X203123944Y18950885D01*
X203224950Y19364333D01*
X203324916Y19668574D01*
X203478275Y20075368D01*
X203665219Y20534575D01*
X203865940Y20996054D01*
X203893866Y21057667D01*
X204071479Y21451262D01*
X204218936Y21785540D01*
X204324202Y22032617D01*
X204375239Y22164608D01*
X204377864Y22178848D01*
X204293985Y22160086D01*
G36*
X258801194Y-20308388D02*
G01*
X258732404Y-20560734D01*
X258651435Y-20913649D01*
X258564610Y-21333664D01*
X258478252Y-21787311D01*
X258398683Y-22241123D01*
X258332227Y-22661632D01*
X258285205Y-23015370D01*
X258263940Y-23268869D01*
X258263334Y-23303282D01*
X258283563Y-23591097D01*
X258338258Y-23985016D01*
X258418433Y-24427482D01*
X258490952Y-24761124D01*
X258718570Y-25727616D01*
X260078452Y-26438592D01*
X260623025Y-26723463D01*
X261034735Y-26936953D01*
X261331360Y-27085018D01*
X261530679Y-27173611D01*
X261650471Y-27208688D01*
X261708514Y-27196202D01*
X261722588Y-27142108D01*
X261710470Y-27052361D01*
X261697503Y-26980847D01*
X261677655Y-26843134D01*
X261640859Y-26567038D01*
X261590125Y-26176570D01*
X261528465Y-25695742D01*
X261458890Y-25148563D01*
X261384409Y-24559046D01*
X261308035Y-23951202D01*
X261232777Y-23349042D01*
X261161647Y-22776576D01*
X261097657Y-22257816D01*
X261043816Y-21816773D01*
X261003135Y-21477459D01*
X260978626Y-21263884D01*
X260972667Y-21200465D01*
X260900948Y-21136588D01*
X260708549Y-21022727D01*
X260429606Y-20875143D01*
X260098258Y-20710095D01*
X259748642Y-20543844D01*
X259414894Y-20392652D01*
X259131152Y-20272778D01*
X258931554Y-20200484D01*
X258851482Y-20190078D01*
X258801194Y-20308388D01*
G37*
X258801194Y-20308388D02*
X258732404Y-20560734D01*
X258651435Y-20913649D01*
X258564610Y-21333664D01*
X258478252Y-21787311D01*
X258398683Y-22241123D01*
X258332227Y-22661632D01*
X258285205Y-23015370D01*
X258263940Y-23268869D01*
X258263334Y-23303282D01*
X258283563Y-23591097D01*
X258338258Y-23985016D01*
X258418433Y-24427482D01*
X258490952Y-24761124D01*
X258718570Y-25727616D01*
X260078452Y-26438592D01*
X260623025Y-26723463D01*
X261034735Y-26936953D01*
X261331360Y-27085018D01*
X261530679Y-27173611D01*
X261650471Y-27208688D01*
X261708514Y-27196202D01*
X261722588Y-27142108D01*
X261710470Y-27052361D01*
X261697503Y-26980847D01*
X261677655Y-26843134D01*
X261640859Y-26567038D01*
X261590125Y-26176570D01*
X261528465Y-25695742D01*
X261458890Y-25148563D01*
X261384409Y-24559046D01*
X261308035Y-23951202D01*
X261232777Y-23349042D01*
X261161647Y-22776576D01*
X261097657Y-22257816D01*
X261043816Y-21816773D01*
X261003135Y-21477459D01*
X260978626Y-21263884D01*
X260972667Y-21200465D01*
X260900948Y-21136588D01*
X260708549Y-21022727D01*
X260429606Y-20875143D01*
X260098258Y-20710095D01*
X259748642Y-20543844D01*
X259414894Y-20392652D01*
X259131152Y-20272778D01*
X258931554Y-20200484D01*
X258851482Y-20190078D01*
X258801194Y-20308388D01*
G36*
X212101981Y-13383643D02*
G01*
X211822365Y-13432595D01*
X211261354Y-13669918D01*
X210741140Y-14062062D01*
X210278733Y-14596197D01*
X210277200Y-14598351D01*
X209879995Y-15155656D01*
X209565346Y-15590941D01*
X209318144Y-15920512D01*
X209123278Y-16160678D01*
X208965636Y-16327744D01*
X208830109Y-16438020D01*
X208701584Y-16507812D01*
X208564953Y-16553428D01*
X208437259Y-16584010D01*
X207976030Y-16687228D01*
X207612867Y-16352476D01*
X207049995Y-15893407D01*
X206395142Y-15457204D01*
X205695005Y-15069089D01*
X204996282Y-14754282D01*
X204345670Y-14538002D01*
X204181154Y-14499099D01*
X203679777Y-14425923D01*
X203070725Y-14387779D01*
X202411960Y-14384500D01*
X201761441Y-14415920D01*
X201177128Y-14481872D01*
X201024444Y-14508171D01*
X200076098Y-14745467D01*
X199216466Y-15088282D01*
X198412497Y-15554210D01*
X197631140Y-16160845D01*
X197236065Y-16524890D01*
X196534361Y-17276909D01*
X195935594Y-18081478D01*
X195436477Y-18950415D01*
X195033725Y-19895541D01*
X194724051Y-20928676D01*
X194504169Y-22061641D01*
X194370792Y-23306255D01*
X194320635Y-24674338D01*
X194350412Y-26177712D01*
X194382187Y-26790013D01*
X194434530Y-27577727D01*
X194491869Y-28229214D01*
X194560319Y-28777576D01*
X194645993Y-29255915D01*
X194755006Y-29697333D01*
X194893472Y-30134932D01*
X195067507Y-30601815D01*
X195102650Y-30690437D01*
X195564453Y-31672352D01*
X196106533Y-32505680D01*
X196729836Y-33191437D01*
X197435311Y-33730637D01*
X198223907Y-34124297D01*
X198353028Y-34172135D01*
X198880155Y-34307053D01*
X199498966Y-34384159D01*
X200147681Y-34401827D01*
X200764523Y-34358428D01*
X201287710Y-34252336D01*
X201296508Y-34249652D01*
X201820699Y-34037464D01*
X202308473Y-33746034D01*
X202718972Y-33405232D01*
X203011339Y-33044929D01*
X203057854Y-32961901D01*
X203147201Y-32763346D01*
X203209511Y-32556373D01*
X203243410Y-32320834D01*
X203247524Y-32036582D01*
X203220480Y-31683467D01*
X203160904Y-31241342D01*
X203067423Y-30690057D01*
X202938663Y-30009466D01*
X202813656Y-29379858D01*
X202668967Y-28652093D01*
X202557752Y-28065673D01*
X202477874Y-27596397D01*
X202427193Y-27220066D01*
X202403572Y-26912477D01*
X202404871Y-26649431D01*
X202428953Y-26406727D01*
X202473677Y-26160164D01*
X202513504Y-25983397D01*
X202723393Y-25353954D01*
X203047836Y-24710836D01*
X203462373Y-24083339D01*
X203942544Y-23500761D01*
X204463889Y-22992398D01*
X205001947Y-22587548D01*
X205532259Y-22315507D01*
X205594583Y-22293052D01*
X206011144Y-22196057D01*
X206444192Y-22170387D01*
X206830320Y-22216258D01*
X207033195Y-22288147D01*
X207320550Y-22496554D01*
X207639392Y-22826805D01*
X207960462Y-23242682D01*
X208254502Y-23707969D01*
X208395207Y-23974072D01*
X208686537Y-24641839D01*
X208880788Y-25277191D01*
X208978492Y-25910050D01*
X208980184Y-26570336D01*
X208886398Y-27287971D01*
X208697666Y-28092874D01*
X208481506Y-28811000D01*
X208282498Y-29452829D01*
X208141584Y-29973616D01*
X208050526Y-30408120D01*
X208001087Y-30791101D01*
X207995738Y-30860621D01*
X208003240Y-31726346D01*
X208149117Y-32496256D01*
X208429999Y-33167174D01*
X208842515Y-33735926D01*
X209383295Y-34199335D01*
X210048969Y-34554226D01*
X210836166Y-34797422D01*
X211741518Y-34925749D01*
X212331667Y-34946296D01*
X212806652Y-34938364D01*
X213168753Y-34910243D01*
X213473936Y-34854500D01*
X213778170Y-34763700D01*
X213822357Y-34748303D01*
X214555694Y-34413537D01*
X215157021Y-33972848D01*
X215627703Y-33424636D01*
X215969109Y-32767305D01*
X216182606Y-31999254D01*
X216184735Y-31987479D01*
X216229705Y-31588841D01*
X216226128Y-31140805D01*
X216170759Y-30626050D01*
X216060349Y-30027259D01*
X215891653Y-29327114D01*
X215661424Y-28508296D01*
X215366416Y-27553485D01*
X215335306Y-27456333D01*
X215110881Y-26744731D01*
X214931659Y-26131301D01*
X214797564Y-25589624D01*
X214708516Y-25093275D01*
X214664438Y-24615835D01*
X214665251Y-24130879D01*
X214710876Y-23611987D01*
X214801237Y-23032737D01*
X214936254Y-22366706D01*
X215115849Y-21587473D01*
X215315503Y-20767667D01*
X215454238Y-20198412D01*
X215556328Y-19753574D01*
X215627430Y-19393607D01*
X215673204Y-19078963D01*
X215699306Y-18770097D01*
X215711394Y-18427459D01*
X215715127Y-18011505D01*
X215715234Y-17973667D01*
X215712455Y-17460917D01*
X215697814Y-17072418D01*
X215666478Y-16763232D01*
X215613618Y-16488423D01*
X215534404Y-16203052D01*
X215519874Y-16156317D01*
X215215445Y-15347939D01*
X214851715Y-14663137D01*
X214437239Y-14114483D01*
X213980571Y-13714547D01*
X213774806Y-13592170D01*
X213444496Y-13476920D01*
X213012616Y-13400236D01*
X212543625Y-13367388D01*
X212101981Y-13383643D01*
G37*
X212101981Y-13383643D02*
X211822365Y-13432595D01*
X211261354Y-13669918D01*
X210741140Y-14062062D01*
X210278733Y-14596197D01*
X210277200Y-14598351D01*
X209879995Y-15155656D01*
X209565346Y-15590941D01*
X209318144Y-15920512D01*
X209123278Y-16160678D01*
X208965636Y-16327744D01*
X208830109Y-16438020D01*
X208701584Y-16507812D01*
X208564953Y-16553428D01*
X208437259Y-16584010D01*
X207976030Y-16687228D01*
X207612867Y-16352476D01*
X207049995Y-15893407D01*
X206395142Y-15457204D01*
X205695005Y-15069089D01*
X204996282Y-14754282D01*
X204345670Y-14538002D01*
X204181154Y-14499099D01*
X203679777Y-14425923D01*
X203070725Y-14387779D01*
X202411960Y-14384500D01*
X201761441Y-14415920D01*
X201177128Y-14481872D01*
X201024444Y-14508171D01*
X200076098Y-14745467D01*
X199216466Y-15088282D01*
X198412497Y-15554210D01*
X197631140Y-16160845D01*
X197236065Y-16524890D01*
X196534361Y-17276909D01*
X195935594Y-18081478D01*
X195436477Y-18950415D01*
X195033725Y-19895541D01*
X194724051Y-20928676D01*
X194504169Y-22061641D01*
X194370792Y-23306255D01*
X194320635Y-24674338D01*
X194350412Y-26177712D01*
X194382187Y-26790013D01*
X194434530Y-27577727D01*
X194491869Y-28229214D01*
X194560319Y-28777576D01*
X194645993Y-29255915D01*
X194755006Y-29697333D01*
X194893472Y-30134932D01*
X195067507Y-30601815D01*
X195102650Y-30690437D01*
X195564453Y-31672352D01*
X196106533Y-32505680D01*
X196729836Y-33191437D01*
X197435311Y-33730637D01*
X198223907Y-34124297D01*
X198353028Y-34172135D01*
X198880155Y-34307053D01*
X199498966Y-34384159D01*
X200147681Y-34401827D01*
X200764523Y-34358428D01*
X201287710Y-34252336D01*
X201296508Y-34249652D01*
X201820699Y-34037464D01*
X202308473Y-33746034D01*
X202718972Y-33405232D01*
X203011339Y-33044929D01*
X203057854Y-32961901D01*
X203147201Y-32763346D01*
X203209511Y-32556373D01*
X203243410Y-32320834D01*
X203247524Y-32036582D01*
X203220480Y-31683467D01*
X203160904Y-31241342D01*
X203067423Y-30690057D01*
X202938663Y-30009466D01*
X202813656Y-29379858D01*
X202668967Y-28652093D01*
X202557752Y-28065673D01*
X202477874Y-27596397D01*
X202427193Y-27220066D01*
X202403572Y-26912477D01*
X202404871Y-26649431D01*
X202428953Y-26406727D01*
X202473677Y-26160164D01*
X202513504Y-25983397D01*
X202723393Y-25353954D01*
X203047836Y-24710836D01*
X203462373Y-24083339D01*
X203942544Y-23500761D01*
X204463889Y-22992398D01*
X205001947Y-22587548D01*
X205532259Y-22315507D01*
X205594583Y-22293052D01*
X206011144Y-22196057D01*
X206444192Y-22170387D01*
X206830320Y-22216258D01*
X207033195Y-22288147D01*
X207320550Y-22496554D01*
X207639392Y-22826805D01*
X207960462Y-23242682D01*
X208254502Y-23707969D01*
X208395207Y-23974072D01*
X208686537Y-24641839D01*
X208880788Y-25277191D01*
X208978492Y-25910050D01*
X208980184Y-26570336D01*
X208886398Y-27287971D01*
X208697666Y-28092874D01*
X208481506Y-28811000D01*
X208282498Y-29452829D01*
X208141584Y-29973616D01*
X208050526Y-30408120D01*
X208001087Y-30791101D01*
X207995738Y-30860621D01*
X208003240Y-31726346D01*
X208149117Y-32496256D01*
X208429999Y-33167174D01*
X208842515Y-33735926D01*
X209383295Y-34199335D01*
X210048969Y-34554226D01*
X210836166Y-34797422D01*
X211741518Y-34925749D01*
X212331667Y-34946296D01*
X212806652Y-34938364D01*
X213168753Y-34910243D01*
X213473936Y-34854500D01*
X213778170Y-34763700D01*
X213822357Y-34748303D01*
X214555694Y-34413537D01*
X215157021Y-33972848D01*
X215627703Y-33424636D01*
X215969109Y-32767305D01*
X216182606Y-31999254D01*
X216184735Y-31987479D01*
X216229705Y-31588841D01*
X216226128Y-31140805D01*
X216170759Y-30626050D01*
X216060349Y-30027259D01*
X215891653Y-29327114D01*
X215661424Y-28508296D01*
X215366416Y-27553485D01*
X215335306Y-27456333D01*
X215110881Y-26744731D01*
X214931659Y-26131301D01*
X214797564Y-25589624D01*
X214708516Y-25093275D01*
X214664438Y-24615835D01*
X214665251Y-24130879D01*
X214710876Y-23611987D01*
X214801237Y-23032737D01*
X214936254Y-22366706D01*
X215115849Y-21587473D01*
X215315503Y-20767667D01*
X215454238Y-20198412D01*
X215556328Y-19753574D01*
X215627430Y-19393607D01*
X215673204Y-19078963D01*
X215699306Y-18770097D01*
X215711394Y-18427459D01*
X215715127Y-18011505D01*
X215715234Y-17973667D01*
X215712455Y-17460917D01*
X215697814Y-17072418D01*
X215666478Y-16763232D01*
X215613618Y-16488423D01*
X215534404Y-16203052D01*
X215519874Y-16156317D01*
X215215445Y-15347939D01*
X214851715Y-14663137D01*
X214437239Y-14114483D01*
X213980571Y-13714547D01*
X213774806Y-13592170D01*
X213444496Y-13476920D01*
X213012616Y-13400236D01*
X212543625Y-13367388D01*
X212101981Y-13383643D01*
G36*
X226435014Y-13279475D02*
G01*
X225635240Y-13459916D01*
X224883172Y-13783852D01*
X224198677Y-14232964D01*
X223601619Y-14788936D01*
X223111863Y-15433448D01*
X222749276Y-16148183D01*
X222541825Y-16869433D01*
X222473357Y-17342518D01*
X222452413Y-17799668D01*
X222484029Y-18267260D01*
X222573238Y-18771665D01*
X222725077Y-19339259D01*
X222944580Y-19996415D01*
X223236782Y-20769508D01*
X223332368Y-21010481D01*
X223551144Y-21567010D01*
X223726426Y-22050177D01*
X223857330Y-22482562D01*
X223942973Y-22886743D01*
X223982471Y-23285301D01*
X223974941Y-23700815D01*
X223919498Y-24155863D01*
X223815259Y-24673026D01*
X223661340Y-25274881D01*
X223456858Y-25984009D01*
X223200929Y-26822989D01*
X223091012Y-27177300D01*
X222871300Y-27900708D01*
X222704645Y-28495363D01*
X222585609Y-28991423D01*
X222508754Y-29419045D01*
X222468640Y-29808384D01*
X222459830Y-30189598D01*
X222476389Y-30585349D01*
X222605100Y-31514625D01*
X222861807Y-32333086D01*
X223246405Y-33040607D01*
X223758793Y-33637059D01*
X224398866Y-34122315D01*
X225166521Y-34496246D01*
X225809981Y-34699506D01*
X226267200Y-34793537D01*
X226781251Y-34862558D01*
X227303073Y-34903423D01*
X227783605Y-34912985D01*
X228173787Y-34888096D01*
X228323699Y-34860744D01*
X228867244Y-34664144D01*
X229427470Y-34339401D01*
X230020687Y-33875776D01*
X230500135Y-33427399D01*
X230860283Y-33060882D01*
X231127019Y-32761961D01*
X231333722Y-32485988D01*
X231513768Y-32188315D01*
X231700533Y-31824295D01*
X231704256Y-31816667D01*
X231961144Y-31215348D01*
X232164456Y-30589989D01*
X232299978Y-29992857D01*
X232353495Y-29476217D01*
X232353776Y-29428403D01*
X232327575Y-29234102D01*
X232257923Y-28925954D01*
X232156199Y-28550319D01*
X232062898Y-28243391D01*
X231914937Y-27751797D01*
X231762564Y-27199231D01*
X231630016Y-26675255D01*
X231581694Y-26465391D01*
X231420641Y-25850542D01*
X231243819Y-25399605D01*
X231147181Y-25231426D01*
X230852557Y-24737482D01*
X230600324Y-24191153D01*
X230386793Y-23575633D01*
X230208273Y-22874115D01*
X230061076Y-22069796D01*
X229941511Y-21145869D01*
X229845887Y-20085529D01*
X229776659Y-18989667D01*
X229737929Y-18290243D01*
X229702471Y-17732931D01*
X229667170Y-17290632D01*
X229628909Y-16936244D01*
X229584574Y-16642669D01*
X229531049Y-16382804D01*
X229465219Y-16129551D01*
X229436351Y-16029485D01*
X229150108Y-15216623D01*
X228809288Y-14528107D01*
X228422838Y-13980380D01*
X228192596Y-13743761D01*
X227817602Y-13463808D01*
X227425323Y-13301313D01*
X226971814Y-13244667D01*
X226435014Y-13279475D01*
G37*
X226435014Y-13279475D02*
X225635240Y-13459916D01*
X224883172Y-13783852D01*
X224198677Y-14232964D01*
X223601619Y-14788936D01*
X223111863Y-15433448D01*
X222749276Y-16148183D01*
X222541825Y-16869433D01*
X222473357Y-17342518D01*
X222452413Y-17799668D01*
X222484029Y-18267260D01*
X222573238Y-18771665D01*
X222725077Y-19339259D01*
X222944580Y-19996415D01*
X223236782Y-20769508D01*
X223332368Y-21010481D01*
X223551144Y-21567010D01*
X223726426Y-22050177D01*
X223857330Y-22482562D01*
X223942973Y-22886743D01*
X223982471Y-23285301D01*
X223974941Y-23700815D01*
X223919498Y-24155863D01*
X223815259Y-24673026D01*
X223661340Y-25274881D01*
X223456858Y-25984009D01*
X223200929Y-26822989D01*
X223091012Y-27177300D01*
X222871300Y-27900708D01*
X222704645Y-28495363D01*
X222585609Y-28991423D01*
X222508754Y-29419045D01*
X222468640Y-29808384D01*
X222459830Y-30189598D01*
X222476389Y-30585349D01*
X222605100Y-31514625D01*
X222861807Y-32333086D01*
X223246405Y-33040607D01*
X223758793Y-33637059D01*
X224398866Y-34122315D01*
X225166521Y-34496246D01*
X225809981Y-34699506D01*
X226267200Y-34793537D01*
X226781251Y-34862558D01*
X227303073Y-34903423D01*
X227783605Y-34912985D01*
X228173787Y-34888096D01*
X228323699Y-34860744D01*
X228867244Y-34664144D01*
X229427470Y-34339401D01*
X230020687Y-33875776D01*
X230500135Y-33427399D01*
X230860283Y-33060882D01*
X231127019Y-32761961D01*
X231333722Y-32485988D01*
X231513768Y-32188315D01*
X231700533Y-31824295D01*
X231704256Y-31816667D01*
X231961144Y-31215348D01*
X232164456Y-30589989D01*
X232299978Y-29992857D01*
X232353495Y-29476217D01*
X232353776Y-29428403D01*
X232327575Y-29234102D01*
X232257923Y-28925954D01*
X232156199Y-28550319D01*
X232062898Y-28243391D01*
X231914937Y-27751797D01*
X231762564Y-27199231D01*
X231630016Y-26675255D01*
X231581694Y-26465391D01*
X231420641Y-25850542D01*
X231243819Y-25399605D01*
X231147181Y-25231426D01*
X230852557Y-24737482D01*
X230600324Y-24191153D01*
X230386793Y-23575633D01*
X230208273Y-22874115D01*
X230061076Y-22069796D01*
X229941511Y-21145869D01*
X229845887Y-20085529D01*
X229776659Y-18989667D01*
X229737929Y-18290243D01*
X229702471Y-17732931D01*
X229667170Y-17290632D01*
X229628909Y-16936244D01*
X229584574Y-16642669D01*
X229531049Y-16382804D01*
X229465219Y-16129551D01*
X229436351Y-16029485D01*
X229150108Y-15216623D01*
X228809288Y-14528107D01*
X228422838Y-13980380D01*
X228192596Y-13743761D01*
X227817602Y-13463808D01*
X227425323Y-13301313D01*
X226971814Y-13244667D01*
X226435014Y-13279475D01*
G36*
X241085457Y-10850838D02*
G01*
X240308490Y-10914581D01*
X239534188Y-11030328D01*
X238814837Y-11192088D01*
X238220484Y-11386706D01*
X237585820Y-11722192D01*
X237076239Y-12161850D01*
X236696171Y-12691042D01*
X236450045Y-13295131D01*
X236342288Y-13959477D01*
X236377329Y-14669443D01*
X236559598Y-15410390D01*
X236817949Y-16022717D01*
X237208244Y-16675631D01*
X237724923Y-17353900D01*
X238334985Y-18025700D01*
X239005425Y-18659207D01*
X239703243Y-19222597D01*
X240395435Y-19684046D01*
X240878753Y-19938492D01*
X241415730Y-20159323D01*
X241914961Y-20302673D01*
X242412975Y-20369981D01*
X242946301Y-20362685D01*
X243551471Y-20282225D01*
X244265012Y-20130038D01*
X244468849Y-20079889D01*
X244983547Y-19954710D01*
X245375090Y-19871451D01*
X245682834Y-19824444D01*
X245946134Y-19808024D01*
X246204346Y-19816525D01*
X246265258Y-19821250D01*
X246975607Y-19959987D01*
X247611423Y-20245852D01*
X248165257Y-20670494D01*
X248629660Y-21225562D01*
X248997185Y-21902705D01*
X249260381Y-22693574D01*
X249378750Y-23311771D01*
X249402489Y-23525338D01*
X249412658Y-23754502D01*
X249407583Y-24024326D01*
X249385590Y-24359869D01*
X249345004Y-24786194D01*
X249284151Y-25328361D01*
X249201357Y-26011431D01*
X249194912Y-26063437D01*
X249075135Y-27135399D01*
X248986426Y-28159901D01*
X248929205Y-29118359D01*
X248903890Y-29992186D01*
X248910901Y-30762799D01*
X248950655Y-31411611D01*
X249023571Y-31920037D01*
X249059538Y-32070667D01*
X249361006Y-32908237D01*
X249766973Y-33613907D01*
X250276278Y-34186502D01*
X250887757Y-34624847D01*
X251600248Y-34927766D01*
X251981001Y-35025388D01*
X252514651Y-35096612D01*
X253100899Y-35110205D01*
X253671436Y-35068281D01*
X254157952Y-34972957D01*
X254212994Y-34956265D01*
X254857414Y-34693392D01*
X255524399Y-34320549D01*
X256180883Y-33864512D01*
X256793801Y-33352058D01*
X257330088Y-32809965D01*
X257756679Y-32265010D01*
X257959220Y-31922447D01*
X258065236Y-31688751D01*
X258142663Y-31449840D01*
X258189667Y-31188904D01*
X258204412Y-30889138D01*
X258185064Y-30533731D01*
X258129786Y-30105879D01*
X258036745Y-29588771D01*
X257904104Y-28965602D01*
X257730030Y-28219562D01*
X257512687Y-27333845D01*
X257416152Y-26948333D01*
X257206713Y-26110239D01*
X257037154Y-25415708D01*
X256904268Y-24844544D01*
X256804851Y-24376550D01*
X256735695Y-23991529D01*
X256693597Y-23669285D01*
X256675349Y-23389621D01*
X256677746Y-23132340D01*
X256697583Y-22877246D01*
X256729305Y-22621117D01*
X256781054Y-22300301D01*
X256863497Y-21854769D01*
X256968655Y-21324661D01*
X257088552Y-20750119D01*
X257215208Y-20171283D01*
X257223890Y-20132667D01*
X257359679Y-19520092D01*
X257460299Y-19035023D01*
X257530966Y-18640514D01*
X257576892Y-18299624D01*
X257603290Y-17975408D01*
X257615374Y-17630924D01*
X257618175Y-17338667D01*
X257587542Y-16453128D01*
X257481336Y-15650952D01*
X257287045Y-14881377D01*
X256992155Y-14093646D01*
X256628183Y-13322860D01*
X256235926Y-12655741D01*
X255789753Y-12075515D01*
X255312979Y-11608152D01*
X254828919Y-11279623D01*
X254765394Y-11247855D01*
X254205498Y-11065226D01*
X253574361Y-11005390D01*
X252920807Y-11071733D01*
X252758736Y-11108661D01*
X252372377Y-11228314D01*
X252018015Y-11389929D01*
X251677011Y-11609981D01*
X251330726Y-11904945D01*
X250960520Y-12291297D01*
X250547754Y-12785510D01*
X250073790Y-13404059D01*
X249908078Y-13628322D01*
X249679214Y-13930772D01*
X249481744Y-14174452D01*
X249339288Y-14331267D01*
X249280014Y-14375333D01*
X249128921Y-14330361D01*
X248850963Y-14200982D01*
X248460971Y-13995504D01*
X247973777Y-13722234D01*
X247404213Y-13389477D01*
X246767110Y-13005542D01*
X246120265Y-12605626D01*
X245376453Y-12148894D01*
X244744660Y-11781781D01*
X244200805Y-11493155D01*
X243720810Y-11271882D01*
X243280594Y-11106830D01*
X242856076Y-10986866D01*
X242438238Y-10903335D01*
X241812802Y-10845092D01*
X241085457Y-10850838D01*
G37*
X241085457Y-10850838D02*
X240308490Y-10914581D01*
X239534188Y-11030328D01*
X238814837Y-11192088D01*
X238220484Y-11386706D01*
X237585820Y-11722192D01*
X237076239Y-12161850D01*
X236696171Y-12691042D01*
X236450045Y-13295131D01*
X236342288Y-13959477D01*
X236377329Y-14669443D01*
X236559598Y-15410390D01*
X236817949Y-16022717D01*
X237208244Y-16675631D01*
X237724923Y-17353900D01*
X238334985Y-18025700D01*
X239005425Y-18659207D01*
X239703243Y-19222597D01*
X240395435Y-19684046D01*
X240878753Y-19938492D01*
X241415730Y-20159323D01*
X241914961Y-20302673D01*
X242412975Y-20369981D01*
X242946301Y-20362685D01*
X243551471Y-20282225D01*
X244265012Y-20130038D01*
X244468849Y-20079889D01*
X244983547Y-19954710D01*
X245375090Y-19871451D01*
X245682834Y-19824444D01*
X245946134Y-19808024D01*
X246204346Y-19816525D01*
X246265258Y-19821250D01*
X246975607Y-19959987D01*
X247611423Y-20245852D01*
X248165257Y-20670494D01*
X248629660Y-21225562D01*
X248997185Y-21902705D01*
X249260381Y-22693574D01*
X249378750Y-23311771D01*
X249402489Y-23525338D01*
X249412658Y-23754502D01*
X249407583Y-24024326D01*
X249385590Y-24359869D01*
X249345004Y-24786194D01*
X249284151Y-25328361D01*
X249201357Y-26011431D01*
X249194912Y-26063437D01*
X249075135Y-27135399D01*
X248986426Y-28159901D01*
X248929205Y-29118359D01*
X248903890Y-29992186D01*
X248910901Y-30762799D01*
X248950655Y-31411611D01*
X249023571Y-31920037D01*
X249059538Y-32070667D01*
X249361006Y-32908237D01*
X249766973Y-33613907D01*
X250276278Y-34186502D01*
X250887757Y-34624847D01*
X251600248Y-34927766D01*
X251981001Y-35025388D01*
X252514651Y-35096612D01*
X253100899Y-35110205D01*
X253671436Y-35068281D01*
X254157952Y-34972957D01*
X254212994Y-34956265D01*
X254857414Y-34693392D01*
X255524399Y-34320549D01*
X256180883Y-33864512D01*
X256793801Y-33352058D01*
X257330088Y-32809965D01*
X257756679Y-32265010D01*
X257959220Y-31922447D01*
X258065236Y-31688751D01*
X258142663Y-31449840D01*
X258189667Y-31188904D01*
X258204412Y-30889138D01*
X258185064Y-30533731D01*
X258129786Y-30105879D01*
X258036745Y-29588771D01*
X257904104Y-28965602D01*
X257730030Y-28219562D01*
X257512687Y-27333845D01*
X257416152Y-26948333D01*
X257206713Y-26110239D01*
X257037154Y-25415708D01*
X256904268Y-24844544D01*
X256804851Y-24376550D01*
X256735695Y-23991529D01*
X256693597Y-23669285D01*
X256675349Y-23389621D01*
X256677746Y-23132340D01*
X256697583Y-22877246D01*
X256729305Y-22621117D01*
X256781054Y-22300301D01*
X256863497Y-21854769D01*
X256968655Y-21324661D01*
X257088552Y-20750119D01*
X257215208Y-20171283D01*
X257223890Y-20132667D01*
X257359679Y-19520092D01*
X257460299Y-19035023D01*
X257530966Y-18640514D01*
X257576892Y-18299624D01*
X257603290Y-17975408D01*
X257615374Y-17630924D01*
X257618175Y-17338667D01*
X257587542Y-16453128D01*
X257481336Y-15650952D01*
X257287045Y-14881377D01*
X256992155Y-14093646D01*
X256628183Y-13322860D01*
X256235926Y-12655741D01*
X255789753Y-12075515D01*
X255312979Y-11608152D01*
X254828919Y-11279623D01*
X254765394Y-11247855D01*
X254205498Y-11065226D01*
X253574361Y-11005390D01*
X252920807Y-11071733D01*
X252758736Y-11108661D01*
X252372377Y-11228314D01*
X252018015Y-11389929D01*
X251677011Y-11609981D01*
X251330726Y-11904945D01*
X250960520Y-12291297D01*
X250547754Y-12785510D01*
X250073790Y-13404059D01*
X249908078Y-13628322D01*
X249679214Y-13930772D01*
X249481744Y-14174452D01*
X249339288Y-14331267D01*
X249280014Y-14375333D01*
X249128921Y-14330361D01*
X248850963Y-14200982D01*
X248460971Y-13995504D01*
X247973777Y-13722234D01*
X247404213Y-13389477D01*
X246767110Y-13005542D01*
X246120265Y-12605626D01*
X245376453Y-12148894D01*
X244744660Y-11781781D01*
X244200805Y-11493155D01*
X243720810Y-11271882D01*
X243280594Y-11106830D01*
X242856076Y-10986866D01*
X242438238Y-10903335D01*
X241812802Y-10845092D01*
X241085457Y-10850838D01*
G36*
X288044936Y1174830D02*
G01*
X287458674Y996580D01*
X286971580Y688561D01*
X286570684Y242943D01*
X286287438Y-251067D01*
X286054582Y-906939D01*
X285918679Y-1659697D01*
X285882728Y-2465354D01*
X285949728Y-3279918D01*
X286046815Y-3780625D01*
X286329470Y-4601501D01*
X286764615Y-5387853D01*
X287335676Y-6114749D01*
X288024283Y-6755823D01*
X288463880Y-7092704D01*
X288881380Y-7380137D01*
X289306510Y-7632736D01*
X289769001Y-7865115D01*
X290298581Y-8091890D01*
X290924981Y-8327673D01*
X291677929Y-8587080D01*
X291898742Y-8660413D01*
X292492609Y-8860777D01*
X293074674Y-9064965D01*
X293611791Y-9260765D01*
X294070814Y-9435964D01*
X294418597Y-9578350D01*
X294543000Y-9634660D01*
X295236489Y-10049436D01*
X295821131Y-10568869D01*
X296280791Y-11173863D01*
X296599333Y-11845322D01*
X296696930Y-12183708D01*
X296776772Y-12758974D01*
X296785676Y-13441501D01*
X296728272Y-14187015D01*
X296609191Y-14951241D01*
X296433065Y-15689906D01*
X296280899Y-16160984D01*
X296074624Y-16686256D01*
X295847540Y-17175615D01*
X295584259Y-17651640D01*
X295269391Y-18136909D01*
X294887548Y-18654001D01*
X294423341Y-19225494D01*
X293861380Y-19873968D01*
X293400811Y-20386667D01*
X292436847Y-21465937D01*
X291597348Y-22444749D01*
X290876684Y-23331037D01*
X290269227Y-24132737D01*
X289769345Y-24857783D01*
X289371411Y-25514111D01*
X289069794Y-26109655D01*
X288858864Y-26652350D01*
X288791455Y-26883663D01*
X288671368Y-27617271D01*
X288668341Y-28394165D01*
X288773502Y-29180612D01*
X288977979Y-29942880D01*
X289272897Y-30647234D01*
X289649386Y-31259942D01*
X290062396Y-31715677D01*
X290847945Y-32313617D01*
X291719965Y-32781278D01*
X292695196Y-33126752D01*
X293268124Y-33264833D01*
X294187174Y-33402709D01*
X294997794Y-33411711D01*
X295705113Y-33288573D01*
X296314262Y-33030032D01*
X296830371Y-32632824D01*
X297258570Y-32093683D01*
X297603988Y-31409345D01*
X297871755Y-30576545D01*
X297938718Y-30292667D01*
X297978618Y-30041482D01*
X298020991Y-29655689D01*
X298062931Y-29169923D01*
X298101532Y-28618824D01*
X298133888Y-28037028D01*
X298141155Y-27879667D01*
X298205828Y-26751888D01*
X298296618Y-25764601D01*
X298418232Y-24890325D01*
X298575374Y-24101575D01*
X298772749Y-23370871D01*
X299015064Y-22670730D01*
X299047174Y-22588000D01*
X299483958Y-21612226D01*
X299965194Y-20798977D01*
X300492204Y-20147032D01*
X301066314Y-19655165D01*
X301688848Y-19322154D01*
X302361129Y-19146775D01*
X302804597Y-19116667D01*
X303292282Y-19116667D01*
X303681638Y-19603500D01*
X303921347Y-19929792D01*
X304153001Y-20288543D01*
X304302331Y-20556000D01*
X304388067Y-20735533D01*
X304449461Y-20896294D01*
X304490533Y-21070863D01*
X304515303Y-21291819D01*
X304527792Y-21591744D01*
X304532019Y-22003218D01*
X304532171Y-22418667D01*
X304530674Y-23815667D01*
X304009283Y-25339667D01*
X303741905Y-26144773D01*
X303537143Y-26820714D01*
X303389587Y-27393393D01*
X303293825Y-27888711D01*
X303244445Y-28332571D01*
X303236034Y-28750875D01*
X303247384Y-28986199D01*
X303372626Y-29829075D01*
X303631163Y-30621909D01*
X304032258Y-31383116D01*
X304585175Y-32131112D01*
X305120398Y-32709842D01*
X305867717Y-33388199D01*
X306656050Y-33980204D01*
X307455879Y-34467247D01*
X308237685Y-34830717D01*
X308753342Y-35000306D01*
X309030687Y-35047641D01*
X309426954Y-35081705D01*
X309892163Y-35101312D01*
X310376333Y-35105278D01*
X310829485Y-35092418D01*
X311201639Y-35061548D01*
X311222334Y-35058822D01*
X311705831Y-34972589D01*
X312229065Y-34845562D01*
X312734961Y-34694227D01*
X313166444Y-34535069D01*
X313378241Y-34436150D01*
X313951083Y-34066970D01*
X314404683Y-33626132D01*
X314746610Y-33098357D01*
X314984435Y-32468366D01*
X315125730Y-31720881D01*
X315178065Y-30840621D01*
X315178410Y-30803102D01*
X315161910Y-30243773D01*
X315099749Y-29681854D01*
X314985647Y-29096850D01*
X314813326Y-28468266D01*
X314576507Y-27775604D01*
X314268911Y-26998371D01*
X313884260Y-26116071D01*
X313465790Y-25212667D01*
X312946171Y-24081493D01*
X312515612Y-23066433D01*
X312167584Y-22143830D01*
X311895558Y-21290024D01*
X311693003Y-20481357D01*
X311553391Y-19694172D01*
X311470192Y-18904809D01*
X311436875Y-18089612D01*
X311435592Y-17856743D01*
X311440211Y-17470576D01*
X311454375Y-17080128D01*
X311480151Y-16669925D01*
X311519608Y-16224490D01*
X311574815Y-15728349D01*
X311647840Y-15166028D01*
X311740753Y-14522051D01*
X311855621Y-13780943D01*
X311994514Y-12927230D01*
X312159501Y-11945437D01*
X312352649Y-10820088D01*
X312455574Y-10226667D01*
X313154948Y-6205000D01*
X313026107Y-5443000D01*
X312772258Y-4426044D01*
X312365451Y-3431196D01*
X311821765Y-2490543D01*
X311157282Y-1636172D01*
X311071058Y-1541901D01*
X310342158Y-870100D01*
X309537175Y-343604D01*
X308643673Y44196D01*
X307649214Y299912D01*
X307584421Y311486D01*
X306543611Y427671D01*
X305586930Y398894D01*
X304715632Y225446D01*
X303930971Y-92379D01*
X303234199Y-554289D01*
X303002426Y-758336D01*
X302555907Y-1270744D01*
X302274752Y-1811372D01*
X302156046Y-2389575D01*
X302196875Y-3014707D01*
X302238826Y-3208884D01*
X302315151Y-3438171D01*
X302459344Y-3795572D01*
X302661453Y-4258811D01*
X302911525Y-4805609D01*
X303199606Y-5413690D01*
X303487265Y-6003265D01*
X303808564Y-6655110D01*
X304061057Y-7174246D01*
X304252320Y-7579093D01*
X304389932Y-7888069D01*
X304481468Y-8119593D01*
X304534507Y-8292084D01*
X304556626Y-8423961D01*
X304555401Y-8533642D01*
X304548779Y-8583613D01*
X304403072Y-9007768D01*
X304107514Y-9372673D01*
X303950426Y-9501768D01*
X303765361Y-9605355D01*
X303528738Y-9658885D01*
X303184807Y-9674399D01*
X303151324Y-9674360D01*
X302822031Y-9655580D01*
X302513972Y-9593933D01*
X302213010Y-9477849D01*
X301905010Y-9295755D01*
X301575834Y-9036081D01*
X301211344Y-8687256D01*
X300797404Y-8237707D01*
X300319878Y-7675864D01*
X299764627Y-6990156D01*
X299565689Y-6739475D01*
X299014541Y-6045370D01*
X298542658Y-5461533D01*
X298126769Y-4964558D01*
X297743605Y-4531039D01*
X297369895Y-4137570D01*
X296982369Y-3760745D01*
X296557756Y-3377158D01*
X296072785Y-2963404D01*
X295504188Y-2496075D01*
X294828692Y-1951767D01*
X294715711Y-1861235D01*
X294029921Y-1315418D01*
X293453241Y-865273D01*
X292965739Y-496828D01*
X292547482Y-196112D01*
X292178538Y50847D01*
X291838973Y258019D01*
X291508855Y439376D01*
X291242703Y573064D01*
X290480292Y902763D01*
X289784262Y1113539D01*
X289112502Y1216479D01*
X288743334Y1231136D01*
X288044936Y1174830D01*
G37*
X288044936Y1174830D02*
X287458674Y996580D01*
X286971580Y688561D01*
X286570684Y242943D01*
X286287438Y-251067D01*
X286054582Y-906939D01*
X285918679Y-1659697D01*
X285882728Y-2465354D01*
X285949728Y-3279918D01*
X286046815Y-3780625D01*
X286329470Y-4601501D01*
X286764615Y-5387853D01*
X287335676Y-6114749D01*
X288024283Y-6755823D01*
X288463880Y-7092704D01*
X288881380Y-7380137D01*
X289306510Y-7632736D01*
X289769001Y-7865115D01*
X290298581Y-8091890D01*
X290924981Y-8327673D01*
X291677929Y-8587080D01*
X291898742Y-8660413D01*
X292492609Y-8860777D01*
X293074674Y-9064965D01*
X293611791Y-9260765D01*
X294070814Y-9435964D01*
X294418597Y-9578350D01*
X294543000Y-9634660D01*
X295236489Y-10049436D01*
X295821131Y-10568869D01*
X296280791Y-11173863D01*
X296599333Y-11845322D01*
X296696930Y-12183708D01*
X296776772Y-12758974D01*
X296785676Y-13441501D01*
X296728272Y-14187015D01*
X296609191Y-14951241D01*
X296433065Y-15689906D01*
X296280899Y-16160984D01*
X296074624Y-16686256D01*
X295847540Y-17175615D01*
X295584259Y-17651640D01*
X295269391Y-18136909D01*
X294887548Y-18654001D01*
X294423341Y-19225494D01*
X293861380Y-19873968D01*
X293400811Y-20386667D01*
X292436847Y-21465937D01*
X291597348Y-22444749D01*
X290876684Y-23331037D01*
X290269227Y-24132737D01*
X289769345Y-24857783D01*
X289371411Y-25514111D01*
X289069794Y-26109655D01*
X288858864Y-26652350D01*
X288791455Y-26883663D01*
X288671368Y-27617271D01*
X288668341Y-28394165D01*
X288773502Y-29180612D01*
X288977979Y-29942880D01*
X289272897Y-30647234D01*
X289649386Y-31259942D01*
X290062396Y-31715677D01*
X290847945Y-32313617D01*
X291719965Y-32781278D01*
X292695196Y-33126752D01*
X293268124Y-33264833D01*
X294187174Y-33402709D01*
X294997794Y-33411711D01*
X295705113Y-33288573D01*
X296314262Y-33030032D01*
X296830371Y-32632824D01*
X297258570Y-32093683D01*
X297603988Y-31409345D01*
X297871755Y-30576545D01*
X297938718Y-30292667D01*
X297978618Y-30041482D01*
X298020991Y-29655689D01*
X298062931Y-29169923D01*
X298101532Y-28618824D01*
X298133888Y-28037028D01*
X298141155Y-27879667D01*
X298205828Y-26751888D01*
X298296618Y-25764601D01*
X298418232Y-24890325D01*
X298575374Y-24101575D01*
X298772749Y-23370871D01*
X299015064Y-22670730D01*
X299047174Y-22588000D01*
X299483958Y-21612226D01*
X299965194Y-20798977D01*
X300492204Y-20147032D01*
X301066314Y-19655165D01*
X301688848Y-19322154D01*
X302361129Y-19146775D01*
X302804597Y-19116667D01*
X303292282Y-19116667D01*
X303681638Y-19603500D01*
X303921347Y-19929792D01*
X304153001Y-20288543D01*
X304302331Y-20556000D01*
X304388067Y-20735533D01*
X304449461Y-20896294D01*
X304490533Y-21070863D01*
X304515303Y-21291819D01*
X304527792Y-21591744D01*
X304532019Y-22003218D01*
X304532171Y-22418667D01*
X304530674Y-23815667D01*
X304009283Y-25339667D01*
X303741905Y-26144773D01*
X303537143Y-26820714D01*
X303389587Y-27393393D01*
X303293825Y-27888711D01*
X303244445Y-28332571D01*
X303236034Y-28750875D01*
X303247384Y-28986199D01*
X303372626Y-29829075D01*
X303631163Y-30621909D01*
X304032258Y-31383116D01*
X304585175Y-32131112D01*
X305120398Y-32709842D01*
X305867717Y-33388199D01*
X306656050Y-33980204D01*
X307455879Y-34467247D01*
X308237685Y-34830717D01*
X308753342Y-35000306D01*
X309030687Y-35047641D01*
X309426954Y-35081705D01*
X309892163Y-35101312D01*
X310376333Y-35105278D01*
X310829485Y-35092418D01*
X311201639Y-35061548D01*
X311222334Y-35058822D01*
X311705831Y-34972589D01*
X312229065Y-34845562D01*
X312734961Y-34694227D01*
X313166444Y-34535069D01*
X313378241Y-34436150D01*
X313951083Y-34066970D01*
X314404683Y-33626132D01*
X314746610Y-33098357D01*
X314984435Y-32468366D01*
X315125730Y-31720881D01*
X315178065Y-30840621D01*
X315178410Y-30803102D01*
X315161910Y-30243773D01*
X315099749Y-29681854D01*
X314985647Y-29096850D01*
X314813326Y-28468266D01*
X314576507Y-27775604D01*
X314268911Y-26998371D01*
X313884260Y-26116071D01*
X313465790Y-25212667D01*
X312946171Y-24081493D01*
X312515612Y-23066433D01*
X312167584Y-22143830D01*
X311895558Y-21290024D01*
X311693003Y-20481357D01*
X311553391Y-19694172D01*
X311470192Y-18904809D01*
X311436875Y-18089612D01*
X311435592Y-17856743D01*
X311440211Y-17470576D01*
X311454375Y-17080128D01*
X311480151Y-16669925D01*
X311519608Y-16224490D01*
X311574815Y-15728349D01*
X311647840Y-15166028D01*
X311740753Y-14522051D01*
X311855621Y-13780943D01*
X311994514Y-12927230D01*
X312159501Y-11945437D01*
X312352649Y-10820088D01*
X312455574Y-10226667D01*
X313154948Y-6205000D01*
X313026107Y-5443000D01*
X312772258Y-4426044D01*
X312365451Y-3431196D01*
X311821765Y-2490543D01*
X311157282Y-1636172D01*
X311071058Y-1541901D01*
X310342158Y-870100D01*
X309537175Y-343604D01*
X308643673Y44196D01*
X307649214Y299912D01*
X307584421Y311486D01*
X306543611Y427671D01*
X305586930Y398894D01*
X304715632Y225446D01*
X303930971Y-92379D01*
X303234199Y-554289D01*
X303002426Y-758336D01*
X302555907Y-1270744D01*
X302274752Y-1811372D01*
X302156046Y-2389575D01*
X302196875Y-3014707D01*
X302238826Y-3208884D01*
X302315151Y-3438171D01*
X302459344Y-3795572D01*
X302661453Y-4258811D01*
X302911525Y-4805609D01*
X303199606Y-5413690D01*
X303487265Y-6003265D01*
X303808564Y-6655110D01*
X304061057Y-7174246D01*
X304252320Y-7579093D01*
X304389932Y-7888069D01*
X304481468Y-8119593D01*
X304534507Y-8292084D01*
X304556626Y-8423961D01*
X304555401Y-8533642D01*
X304548779Y-8583613D01*
X304403072Y-9007768D01*
X304107514Y-9372673D01*
X303950426Y-9501768D01*
X303765361Y-9605355D01*
X303528738Y-9658885D01*
X303184807Y-9674399D01*
X303151324Y-9674360D01*
X302822031Y-9655580D01*
X302513972Y-9593933D01*
X302213010Y-9477849D01*
X301905010Y-9295755D01*
X301575834Y-9036081D01*
X301211344Y-8687256D01*
X300797404Y-8237707D01*
X300319878Y-7675864D01*
X299764627Y-6990156D01*
X299565689Y-6739475D01*
X299014541Y-6045370D01*
X298542658Y-5461533D01*
X298126769Y-4964558D01*
X297743605Y-4531039D01*
X297369895Y-4137570D01*
X296982369Y-3760745D01*
X296557756Y-3377158D01*
X296072785Y-2963404D01*
X295504188Y-2496075D01*
X294828692Y-1951767D01*
X294715711Y-1861235D01*
X294029921Y-1315418D01*
X293453241Y-865273D01*
X292965739Y-496828D01*
X292547482Y-196112D01*
X292178538Y50847D01*
X291838973Y258019D01*
X291508855Y439376D01*
X291242703Y573064D01*
X290480292Y902763D01*
X289784262Y1113539D01*
X289112502Y1216479D01*
X288743334Y1231136D01*
X288044936Y1174830D01*
G36*
X181047352Y-13059505D02*
G01*
X180215250Y-13213352D01*
X179383485Y-13502594D01*
X178584789Y-13916773D01*
X178096702Y-14249677D01*
X177859909Y-14442201D01*
X177533936Y-14725955D01*
X177149841Y-15072933D01*
X176738682Y-15455133D01*
X176379873Y-15797655D01*
X176014703Y-16148057D01*
X175692472Y-16451514D01*
X175432140Y-16690643D01*
X175252665Y-16848062D01*
X175173006Y-16906389D01*
X175171094Y-16905949D01*
X175134195Y-16819238D01*
X175050562Y-16599726D01*
X174930123Y-16274183D01*
X174782806Y-15869381D01*
X174656520Y-15518333D01*
X174482674Y-15042994D01*
X174314083Y-14600405D01*
X174164505Y-14225366D01*
X174047696Y-13952679D01*
X173995511Y-13846174D01*
X173737685Y-13543323D01*
X173365503Y-13314605D01*
X172921919Y-13171475D01*
X172449885Y-13125392D01*
X171992353Y-13187813D01*
X171792859Y-13258634D01*
X171437910Y-13500662D01*
X171107611Y-13891116D01*
X170811362Y-14409774D01*
X170558566Y-15036416D01*
X170358626Y-15750822D01*
X170220942Y-16532771D01*
X170203841Y-16676025D01*
X170176271Y-16963540D01*
X170158392Y-17258320D01*
X170151376Y-17574616D01*
X170156394Y-17926681D01*
X170174618Y-18328768D01*
X170207220Y-18795129D01*
X170255372Y-19340017D01*
X170320246Y-19977685D01*
X170403012Y-20722384D01*
X170504844Y-21588367D01*
X170626912Y-22589888D01*
X170770389Y-23741198D01*
X170811701Y-24069667D01*
X170940519Y-25103755D01*
X171046640Y-25982122D01*
X171131258Y-26716685D01*
X171195565Y-27319362D01*
X171240751Y-27802073D01*
X171268011Y-28176734D01*
X171278537Y-28455265D01*
X171273519Y-28649582D01*
X171271811Y-28669033D01*
X171212084Y-29068673D01*
X171101432Y-29523235D01*
X170932296Y-30056783D01*
X170697117Y-30693383D01*
X170419734Y-31381573D01*
X170185968Y-32001988D01*
X170054154Y-32514038D01*
X170027202Y-32946707D01*
X170108022Y-33328978D01*
X170299525Y-33689836D01*
X170604622Y-34058263D01*
X170698123Y-34154087D01*
X171102511Y-34505662D01*
X171521546Y-34745777D01*
X172019536Y-34908019D01*
X172228716Y-34953475D01*
X172628301Y-35004382D01*
X173090289Y-35020456D01*
X173565366Y-35004449D01*
X174004218Y-34959113D01*
X174357530Y-34887200D01*
X174521856Y-34825511D01*
X174675996Y-34706753D01*
X174898418Y-34487941D01*
X175157271Y-34205575D01*
X175420703Y-33896154D01*
X175656863Y-33596178D01*
X175833899Y-33342148D01*
X175871598Y-33278787D01*
X175911461Y-33238997D01*
X175984634Y-33229495D01*
X176109693Y-33257475D01*
X176305215Y-33330132D01*
X176589776Y-33454660D01*
X176981953Y-33638254D01*
X177500322Y-33888108D01*
X177716827Y-33993431D01*
X178442894Y-34341980D01*
X179047938Y-34618851D01*
X179559365Y-34833871D01*
X180004582Y-34996863D01*
X180410995Y-35117652D01*
X180806010Y-35206064D01*
X181217034Y-35271923D01*
X181320908Y-35285439D01*
X181729128Y-35330602D01*
X182092439Y-35353746D01*
X182462520Y-35354845D01*
X182891048Y-35333871D01*
X183429702Y-35290796D01*
X183502667Y-35284278D01*
X184798206Y-35106743D01*
X185966745Y-34817783D01*
X187010249Y-34415707D01*
X187930686Y-33898823D01*
X188730022Y-33265439D01*
X189410223Y-32513863D01*
X189973257Y-31642404D01*
X190421088Y-30649369D01*
X190755685Y-29533067D01*
X190879361Y-28938000D01*
X190928980Y-28546792D01*
X190964346Y-28029497D01*
X190985426Y-27428765D01*
X190992188Y-26787243D01*
X190984602Y-26147581D01*
X190962635Y-25552426D01*
X190926254Y-25044428D01*
X190882523Y-24704667D01*
X190562849Y-23232192D01*
X190521657Y-23096873D01*
X186353464Y-23096873D01*
X186272358Y-23832151D01*
X186065401Y-24503953D01*
X185739279Y-25085157D01*
X185570216Y-25293694D01*
X184987844Y-25820122D01*
X184332876Y-26195428D01*
X183614546Y-26416738D01*
X182842085Y-26481178D01*
X182046335Y-26390372D01*
X181397237Y-26196089D01*
X180761737Y-25894766D01*
X180178377Y-25511852D01*
X179685698Y-25072796D01*
X179322239Y-24603047D01*
X179311104Y-24584270D01*
X179074897Y-24049751D01*
X178918932Y-23418279D01*
X178850618Y-22745774D01*
X178877361Y-22088151D01*
X178935738Y-21751041D01*
X179177718Y-21057613D01*
X179554819Y-20437587D01*
X180045131Y-19906669D01*
X180626745Y-19480568D01*
X181277752Y-19174992D01*
X181976244Y-19005650D01*
X182700312Y-18988249D01*
X182778295Y-18996028D01*
X183600140Y-19165973D01*
X184338265Y-19475365D01*
X184980420Y-19912630D01*
X185514354Y-20466195D01*
X185927817Y-21124485D01*
X186208558Y-21875926D01*
X186302033Y-22325243D01*
X186353464Y-23096873D01*
X190521657Y-23096873D01*
X190121653Y-21782837D01*
X189547007Y-20320880D01*
X189087177Y-19328333D01*
X188386247Y-18019751D01*
X187629757Y-16839830D01*
X186824666Y-15797094D01*
X185977936Y-14900071D01*
X185096526Y-14157287D01*
X184577084Y-13803569D01*
X184217936Y-13624902D01*
X183736122Y-13449360D01*
X183178034Y-13289722D01*
X182590063Y-13158768D01*
X182018602Y-13069278D01*
X181847061Y-13051509D01*
X181047352Y-13059505D01*
G37*
X181047352Y-13059505D02*
X180215250Y-13213352D01*
X179383485Y-13502594D01*
X178584789Y-13916773D01*
X178096702Y-14249677D01*
X177859909Y-14442201D01*
X177533936Y-14725955D01*
X177149841Y-15072933D01*
X176738682Y-15455133D01*
X176379873Y-15797655D01*
X176014703Y-16148057D01*
X175692472Y-16451514D01*
X175432140Y-16690643D01*
X175252665Y-16848062D01*
X175173006Y-16906389D01*
X175171094Y-16905949D01*
X175134195Y-16819238D01*
X175050562Y-16599726D01*
X174930123Y-16274183D01*
X174782806Y-15869381D01*
X174656520Y-15518333D01*
X174482674Y-15042994D01*
X174314083Y-14600405D01*
X174164505Y-14225366D01*
X174047696Y-13952679D01*
X173995511Y-13846174D01*
X173737685Y-13543323D01*
X173365503Y-13314605D01*
X172921919Y-13171475D01*
X172449885Y-13125392D01*
X171992353Y-13187813D01*
X171792859Y-13258634D01*
X171437910Y-13500662D01*
X171107611Y-13891116D01*
X170811362Y-14409774D01*
X170558566Y-15036416D01*
X170358626Y-15750822D01*
X170220942Y-16532771D01*
X170203841Y-16676025D01*
X170176271Y-16963540D01*
X170158392Y-17258320D01*
X170151376Y-17574616D01*
X170156394Y-17926681D01*
X170174618Y-18328768D01*
X170207220Y-18795129D01*
X170255372Y-19340017D01*
X170320246Y-19977685D01*
X170403012Y-20722384D01*
X170504844Y-21588367D01*
X170626912Y-22589888D01*
X170770389Y-23741198D01*
X170811701Y-24069667D01*
X170940519Y-25103755D01*
X171046640Y-25982122D01*
X171131258Y-26716685D01*
X171195565Y-27319362D01*
X171240751Y-27802073D01*
X171268011Y-28176734D01*
X171278537Y-28455265D01*
X171273519Y-28649582D01*
X171271811Y-28669033D01*
X171212084Y-29068673D01*
X171101432Y-29523235D01*
X170932296Y-30056783D01*
X170697117Y-30693383D01*
X170419734Y-31381573D01*
X170185968Y-32001988D01*
X170054154Y-32514038D01*
X170027202Y-32946707D01*
X170108022Y-33328978D01*
X170299525Y-33689836D01*
X170604622Y-34058263D01*
X170698123Y-34154087D01*
X171102511Y-34505662D01*
X171521546Y-34745777D01*
X172019536Y-34908019D01*
X172228716Y-34953475D01*
X172628301Y-35004382D01*
X173090289Y-35020456D01*
X173565366Y-35004449D01*
X174004218Y-34959113D01*
X174357530Y-34887200D01*
X174521856Y-34825511D01*
X174675996Y-34706753D01*
X174898418Y-34487941D01*
X175157271Y-34205575D01*
X175420703Y-33896154D01*
X175656863Y-33596178D01*
X175833899Y-33342148D01*
X175871598Y-33278787D01*
X175911461Y-33238997D01*
X175984634Y-33229495D01*
X176109693Y-33257475D01*
X176305215Y-33330132D01*
X176589776Y-33454660D01*
X176981953Y-33638254D01*
X177500322Y-33888108D01*
X177716827Y-33993431D01*
X178442894Y-34341980D01*
X179047938Y-34618851D01*
X179559365Y-34833871D01*
X180004582Y-34996863D01*
X180410995Y-35117652D01*
X180806010Y-35206064D01*
X181217034Y-35271923D01*
X181320908Y-35285439D01*
X181729128Y-35330602D01*
X182092439Y-35353746D01*
X182462520Y-35354845D01*
X182891048Y-35333871D01*
X183429702Y-35290796D01*
X183502667Y-35284278D01*
X184798206Y-35106743D01*
X185966745Y-34817783D01*
X187010249Y-34415707D01*
X187930686Y-33898823D01*
X188730022Y-33265439D01*
X189410223Y-32513863D01*
X189973257Y-31642404D01*
X190421088Y-30649369D01*
X190755685Y-29533067D01*
X190879361Y-28938000D01*
X190928980Y-28546792D01*
X190964346Y-28029497D01*
X190985426Y-27428765D01*
X190992188Y-26787243D01*
X190984602Y-26147581D01*
X190962635Y-25552426D01*
X190926254Y-25044428D01*
X190882523Y-24704667D01*
X190562849Y-23232192D01*
X190521657Y-23096873D01*
X186353464Y-23096873D01*
X186272358Y-23832151D01*
X186065401Y-24503953D01*
X185739279Y-25085157D01*
X185570216Y-25293694D01*
X184987844Y-25820122D01*
X184332876Y-26195428D01*
X183614546Y-26416738D01*
X182842085Y-26481178D01*
X182046335Y-26390372D01*
X181397237Y-26196089D01*
X180761737Y-25894766D01*
X180178377Y-25511852D01*
X179685698Y-25072796D01*
X179322239Y-24603047D01*
X179311104Y-24584270D01*
X179074897Y-24049751D01*
X178918932Y-23418279D01*
X178850618Y-22745774D01*
X178877361Y-22088151D01*
X178935738Y-21751041D01*
X179177718Y-21057613D01*
X179554819Y-20437587D01*
X180045131Y-19906669D01*
X180626745Y-19480568D01*
X181277752Y-19174992D01*
X181976244Y-19005650D01*
X182700312Y-18988249D01*
X182778295Y-18996028D01*
X183600140Y-19165973D01*
X184338265Y-19475365D01*
X184980420Y-19912630D01*
X185514354Y-20466195D01*
X185927817Y-21124485D01*
X186208558Y-21875926D01*
X186302033Y-22325243D01*
X186353464Y-23096873D01*
X190521657Y-23096873D01*
X190121653Y-21782837D01*
X189547007Y-20320880D01*
X189087177Y-19328333D01*
X188386247Y-18019751D01*
X187629757Y-16839830D01*
X186824666Y-15797094D01*
X185977936Y-14900071D01*
X185096526Y-14157287D01*
X184577084Y-13803569D01*
X184217936Y-13624902D01*
X183736122Y-13449360D01*
X183178034Y-13289722D01*
X182590063Y-13158768D01*
X182018602Y-13069278D01*
X181847061Y-13051509D01*
X181047352Y-13059505D01*
G36*
X273079929Y-13076067D02*
G01*
X272423656Y-13164342D01*
X272195427Y-13222767D01*
X271713532Y-13386319D01*
X271260099Y-13585161D01*
X270813247Y-13834530D01*
X270351091Y-14149659D01*
X269851750Y-14545782D01*
X269293339Y-15038134D01*
X268653976Y-15641949D01*
X268486138Y-15805059D01*
X268123612Y-16155383D01*
X267803295Y-16458141D01*
X267544268Y-16695854D01*
X267365610Y-16851042D01*
X267286403Y-16906226D01*
X267284749Y-16905638D01*
X267245739Y-16818283D01*
X267158861Y-16596804D01*
X267033651Y-16266382D01*
X266879644Y-15852200D01*
X266706375Y-15379439D01*
X266694590Y-15347055D01*
X266461945Y-14723705D01*
X266263887Y-14241700D01*
X266085424Y-13880476D01*
X265911560Y-13619468D01*
X265727301Y-13438110D01*
X265517653Y-13315836D01*
X265267620Y-13232082D01*
X265128784Y-13199507D01*
X264712808Y-13126758D01*
X264392865Y-13118613D01*
X264107117Y-13178442D01*
X263883838Y-13267310D01*
X263578059Y-13455800D01*
X263306349Y-13739077D01*
X263047853Y-14143111D01*
X262835840Y-14572314D01*
X262603398Y-15158699D01*
X262438919Y-15760488D01*
X262330958Y-16429624D01*
X262272959Y-17127000D01*
X262260403Y-17395638D01*
X262254414Y-17665344D01*
X262256325Y-17950588D01*
X262267468Y-18265841D01*
X262289177Y-18625573D01*
X262322782Y-19044257D01*
X262369618Y-19536362D01*
X262431016Y-20116359D01*
X262508308Y-20798719D01*
X262602828Y-21597914D01*
X262715908Y-22528413D01*
X262848880Y-23604688D01*
X262927781Y-24238410D01*
X263045795Y-25189293D01*
X263143278Y-25988063D01*
X263221673Y-26650511D01*
X263282422Y-27192426D01*
X263326965Y-27629599D01*
X263356744Y-27977817D01*
X263373200Y-28252873D01*
X263377775Y-28470554D01*
X263371911Y-28646651D01*
X263357047Y-28796954D01*
X263349006Y-28852744D01*
X263263385Y-29279783D01*
X263127575Y-29762433D01*
X262932894Y-30326789D01*
X262670658Y-30998949D01*
X262489589Y-31435667D01*
X262267058Y-32021499D01*
X262144641Y-32502774D01*
X262120323Y-32910006D01*
X262192089Y-33273705D01*
X262346364Y-33604874D01*
X262754627Y-34134804D01*
X263300248Y-34566792D01*
X263678137Y-34771439D01*
X263887555Y-34863271D01*
X264079981Y-34925423D01*
X264296119Y-34963605D01*
X264576677Y-34983525D01*
X264962359Y-34990894D01*
X265248334Y-34991667D01*
X265711889Y-34988908D01*
X266041604Y-34977509D01*
X266272929Y-34952780D01*
X266441309Y-34910036D01*
X266582194Y-34844588D01*
X266645334Y-34806937D01*
X266807669Y-34671862D01*
X267038510Y-34437632D01*
X267305697Y-34141256D01*
X267577071Y-33819742D01*
X267820472Y-33510099D01*
X268003741Y-33249334D01*
X268016487Y-33229043D01*
X268114450Y-33231184D01*
X268359173Y-33315493D01*
X268749602Y-33481527D01*
X269284684Y-33728842D01*
X269836821Y-33994997D01*
X270677395Y-34396451D01*
X271402306Y-34717508D01*
X272041140Y-34964816D01*
X272623483Y-35145020D01*
X273178921Y-35264766D01*
X273737041Y-35330701D01*
X274327428Y-35349472D01*
X274979670Y-35327724D01*
X275577667Y-35284632D01*
X276875509Y-35112414D01*
X278050505Y-34823688D01*
X279102783Y-34418359D01*
X280032468Y-33896329D01*
X280839689Y-33257503D01*
X281524570Y-32501785D01*
X282087240Y-31629079D01*
X282527824Y-30639288D01*
X282778048Y-29820727D01*
X283039193Y-28447389D01*
X283137255Y-27030798D01*
X283072459Y-25572469D01*
X282845029Y-24073917D01*
X282488039Y-22666183D01*
X278409398Y-22666183D01*
X278402613Y-23128356D01*
X278401355Y-23166080D01*
X278382192Y-23592227D01*
X278351664Y-23902063D01*
X278298665Y-24148612D01*
X278212091Y-24384895D01*
X278092657Y-24639977D01*
X277703707Y-25247614D01*
X277200750Y-25743052D01*
X276603362Y-26118156D01*
X275931119Y-26364793D01*
X275203598Y-26474826D01*
X274440375Y-26440122D01*
X273981222Y-26348454D01*
X273437434Y-26165419D01*
X272879358Y-25904147D01*
X272365223Y-25596067D01*
X271953262Y-25272609D01*
X271909433Y-25230257D01*
X271677057Y-24953910D01*
X271441858Y-24602753D01*
X271282154Y-24307815D01*
X271073394Y-23693542D01*
X270969825Y-23000917D01*
X270974792Y-22286870D01*
X271091639Y-21608332D01*
X271118126Y-21516080D01*
X271415302Y-20805943D01*
X271832770Y-20200413D01*
X272351775Y-19707457D01*
X272953560Y-19335042D01*
X273619369Y-19091135D01*
X274330447Y-18983704D01*
X275068036Y-19020714D01*
X275813382Y-19210134D01*
X276183254Y-19364559D01*
X276903586Y-19784337D01*
X277481874Y-20293476D01*
X277923424Y-20897897D01*
X278233541Y-21603524D01*
X278257562Y-21679993D01*
X278342531Y-22000485D01*
X278391257Y-22309721D01*
X278409398Y-22666183D01*
X282488039Y-22666183D01*
X282455192Y-22536658D01*
X281903171Y-20962207D01*
X281239330Y-19455333D01*
X280578890Y-18192824D01*
X279884055Y-17076033D01*
X279139723Y-16082450D01*
X278479277Y-15341194D01*
X277855081Y-14726454D01*
X277283693Y-14240656D01*
X276735846Y-13864626D01*
X276182275Y-13579193D01*
X275593717Y-13365182D01*
X275366000Y-13301503D01*
X274596678Y-13145780D01*
X273819462Y-13070257D01*
X273079929Y-13076067D01*
G37*
X273079929Y-13076067D02*
X272423656Y-13164342D01*
X272195427Y-13222767D01*
X271713532Y-13386319D01*
X271260099Y-13585161D01*
X270813247Y-13834530D01*
X270351091Y-14149659D01*
X269851750Y-14545782D01*
X269293339Y-15038134D01*
X268653976Y-15641949D01*
X268486138Y-15805059D01*
X268123612Y-16155383D01*
X267803295Y-16458141D01*
X267544268Y-16695854D01*
X267365610Y-16851042D01*
X267286403Y-16906226D01*
X267284749Y-16905638D01*
X267245739Y-16818283D01*
X267158861Y-16596804D01*
X267033651Y-16266382D01*
X266879644Y-15852200D01*
X266706375Y-15379439D01*
X266694590Y-15347055D01*
X266461945Y-14723705D01*
X266263887Y-14241700D01*
X266085424Y-13880476D01*
X265911560Y-13619468D01*
X265727301Y-13438110D01*
X265517653Y-13315836D01*
X265267620Y-13232082D01*
X265128784Y-13199507D01*
X264712808Y-13126758D01*
X264392865Y-13118613D01*
X264107117Y-13178442D01*
X263883838Y-13267310D01*
X263578059Y-13455800D01*
X263306349Y-13739077D01*
X263047853Y-14143111D01*
X262835840Y-14572314D01*
X262603398Y-15158699D01*
X262438919Y-15760488D01*
X262330958Y-16429624D01*
X262272959Y-17127000D01*
X262260403Y-17395638D01*
X262254414Y-17665344D01*
X262256325Y-17950588D01*
X262267468Y-18265841D01*
X262289177Y-18625573D01*
X262322782Y-19044257D01*
X262369618Y-19536362D01*
X262431016Y-20116359D01*
X262508308Y-20798719D01*
X262602828Y-21597914D01*
X262715908Y-22528413D01*
X262848880Y-23604688D01*
X262927781Y-24238410D01*
X263045795Y-25189293D01*
X263143278Y-25988063D01*
X263221673Y-26650511D01*
X263282422Y-27192426D01*
X263326965Y-27629599D01*
X263356744Y-27977817D01*
X263373200Y-28252873D01*
X263377775Y-28470554D01*
X263371911Y-28646651D01*
X263357047Y-28796954D01*
X263349006Y-28852744D01*
X263263385Y-29279783D01*
X263127575Y-29762433D01*
X262932894Y-30326789D01*
X262670658Y-30998949D01*
X262489589Y-31435667D01*
X262267058Y-32021499D01*
X262144641Y-32502774D01*
X262120323Y-32910006D01*
X262192089Y-33273705D01*
X262346364Y-33604874D01*
X262754627Y-34134804D01*
X263300248Y-34566792D01*
X263678137Y-34771439D01*
X263887555Y-34863271D01*
X264079981Y-34925423D01*
X264296119Y-34963605D01*
X264576677Y-34983525D01*
X264962359Y-34990894D01*
X265248334Y-34991667D01*
X265711889Y-34988908D01*
X266041604Y-34977509D01*
X266272929Y-34952780D01*
X266441309Y-34910036D01*
X266582194Y-34844588D01*
X266645334Y-34806937D01*
X266807669Y-34671862D01*
X267038510Y-34437632D01*
X267305697Y-34141256D01*
X267577071Y-33819742D01*
X267820472Y-33510099D01*
X268003741Y-33249334D01*
X268016487Y-33229043D01*
X268114450Y-33231184D01*
X268359173Y-33315493D01*
X268749602Y-33481527D01*
X269284684Y-33728842D01*
X269836821Y-33994997D01*
X270677395Y-34396451D01*
X271402306Y-34717508D01*
X272041140Y-34964816D01*
X272623483Y-35145020D01*
X273178921Y-35264766D01*
X273737041Y-35330701D01*
X274327428Y-35349472D01*
X274979670Y-35327724D01*
X275577667Y-35284632D01*
X276875509Y-35112414D01*
X278050505Y-34823688D01*
X279102783Y-34418359D01*
X280032468Y-33896329D01*
X280839689Y-33257503D01*
X281524570Y-32501785D01*
X282087240Y-31629079D01*
X282527824Y-30639288D01*
X282778048Y-29820727D01*
X283039193Y-28447389D01*
X283137255Y-27030798D01*
X283072459Y-25572469D01*
X282845029Y-24073917D01*
X282488039Y-22666183D01*
X278409398Y-22666183D01*
X278402613Y-23128356D01*
X278401355Y-23166080D01*
X278382192Y-23592227D01*
X278351664Y-23902063D01*
X278298665Y-24148612D01*
X278212091Y-24384895D01*
X278092657Y-24639977D01*
X277703707Y-25247614D01*
X277200750Y-25743052D01*
X276603362Y-26118156D01*
X275931119Y-26364793D01*
X275203598Y-26474826D01*
X274440375Y-26440122D01*
X273981222Y-26348454D01*
X273437434Y-26165419D01*
X272879358Y-25904147D01*
X272365223Y-25596067D01*
X271953262Y-25272609D01*
X271909433Y-25230257D01*
X271677057Y-24953910D01*
X271441858Y-24602753D01*
X271282154Y-24307815D01*
X271073394Y-23693542D01*
X270969825Y-23000917D01*
X270974792Y-22286870D01*
X271091639Y-21608332D01*
X271118126Y-21516080D01*
X271415302Y-20805943D01*
X271832770Y-20200413D01*
X272351775Y-19707457D01*
X272953560Y-19335042D01*
X273619369Y-19091135D01*
X274330447Y-18983704D01*
X275068036Y-19020714D01*
X275813382Y-19210134D01*
X276183254Y-19364559D01*
X276903586Y-19784337D01*
X277481874Y-20293476D01*
X277923424Y-20897897D01*
X278233541Y-21603524D01*
X278257562Y-21679993D01*
X278342531Y-22000485D01*
X278391257Y-22309721D01*
X278409398Y-22666183D01*
X282488039Y-22666183D01*
X282455192Y-22536658D01*
X281903171Y-20962207D01*
X281239330Y-19455333D01*
X280578890Y-18192824D01*
X279884055Y-17076033D01*
X279139723Y-16082450D01*
X278479277Y-15341194D01*
X277855081Y-14726454D01*
X277283693Y-14240656D01*
X276735846Y-13864626D01*
X276182275Y-13579193D01*
X275593717Y-13365182D01*
X275366000Y-13301503D01*
X274596678Y-13145780D01*
X273819462Y-13070257D01*
X273079929Y-13076067D01*
G36*
X283365086Y-32644778D02*
G01*
X283341117Y-32663960D01*
X283324667Y-32685966D01*
X282670483Y-33570472D01*
X282003595Y-34310037D01*
X281295903Y-34928351D01*
X280519310Y-35449105D01*
X279645716Y-35895990D01*
X279381751Y-36010332D01*
X278768421Y-36266998D01*
X282888044Y-38459720D01*
X283812566Y-38952287D01*
X284846021Y-39503741D01*
X285970422Y-40104435D01*
X287167777Y-40744719D01*
X288420098Y-41414944D01*
X289709395Y-42105462D01*
X291017678Y-42806624D01*
X292326957Y-43508781D01*
X293619243Y-44202285D01*
X294876547Y-44877485D01*
X296080878Y-45524734D01*
X297214248Y-46134383D01*
X298258666Y-46696782D01*
X299196143Y-47202284D01*
X300008689Y-47641238D01*
X300267882Y-47781505D01*
X302436763Y-48955894D01*
X302487062Y-49636114D01*
X302570719Y-50342817D01*
X302721923Y-50984950D01*
X302960097Y-51632055D01*
X303173725Y-52094333D01*
X303702508Y-52988502D01*
X304350901Y-53763184D01*
X305119562Y-54418953D01*
X306009149Y-54956383D01*
X306883576Y-55328703D01*
X307384232Y-55460116D01*
X307995547Y-55548904D01*
X308663852Y-55593303D01*
X309335477Y-55591548D01*
X309956752Y-55541875D01*
X310460334Y-55446289D01*
X311451689Y-55099723D01*
X312336416Y-54626236D01*
X313129264Y-54016980D01*
X313566872Y-53582722D01*
X314109471Y-52928525D01*
X314527499Y-52264898D01*
X314857835Y-51531345D01*
X314918505Y-51365613D01*
X315185054Y-50365810D01*
X315287011Y-49351468D01*
X315225447Y-48339800D01*
X315001429Y-47348015D01*
X314616026Y-46393325D01*
X314609051Y-46379433D01*
X314073013Y-45499563D01*
X313407895Y-44719406D01*
X312630498Y-44052694D01*
X311757621Y-43513160D01*
X310806064Y-43114533D01*
X310502667Y-43023071D01*
X310112453Y-42940944D01*
X309642857Y-42891994D01*
X309054474Y-42872515D01*
X308894000Y-42871814D01*
X308198100Y-42891302D01*
X307609265Y-42957752D01*
X307068882Y-43083142D01*
X306518336Y-43279451D01*
X306180331Y-43426383D01*
X305625661Y-43679553D01*
X294538664Y-38089531D01*
X293027286Y-37327535D01*
X291659814Y-36638273D01*
X290428954Y-36018232D01*
X289327417Y-35463899D01*
X288347911Y-34971760D01*
X287483145Y-34538302D01*
X286725828Y-34160011D01*
X286068669Y-33833375D01*
X285504376Y-33554881D01*
X285025660Y-33321014D01*
X284625228Y-33128262D01*
X284295789Y-32973111D01*
X284030053Y-32852048D01*
X283820729Y-32761560D01*
X283660524Y-32698134D01*
X283542149Y-32658256D01*
X283458312Y-32638413D01*
X283401721Y-32635091D01*
X283365086Y-32644778D01*
G37*
X283365086Y-32644778D02*
X283341117Y-32663960D01*
X283324667Y-32685966D01*
X282670483Y-33570472D01*
X282003595Y-34310037D01*
X281295903Y-34928351D01*
X280519310Y-35449105D01*
X279645716Y-35895990D01*
X279381751Y-36010332D01*
X278768421Y-36266998D01*
X282888044Y-38459720D01*
X283812566Y-38952287D01*
X284846021Y-39503741D01*
X285970422Y-40104435D01*
X287167777Y-40744719D01*
X288420098Y-41414944D01*
X289709395Y-42105462D01*
X291017678Y-42806624D01*
X292326957Y-43508781D01*
X293619243Y-44202285D01*
X294876547Y-44877485D01*
X296080878Y-45524734D01*
X297214248Y-46134383D01*
X298258666Y-46696782D01*
X299196143Y-47202284D01*
X300008689Y-47641238D01*
X300267882Y-47781505D01*
X302436763Y-48955894D01*
X302487062Y-49636114D01*
X302570719Y-50342817D01*
X302721923Y-50984950D01*
X302960097Y-51632055D01*
X303173725Y-52094333D01*
X303702508Y-52988502D01*
X304350901Y-53763184D01*
X305119562Y-54418953D01*
X306009149Y-54956383D01*
X306883576Y-55328703D01*
X307384232Y-55460116D01*
X307995547Y-55548904D01*
X308663852Y-55593303D01*
X309335477Y-55591548D01*
X309956752Y-55541875D01*
X310460334Y-55446289D01*
X311451689Y-55099723D01*
X312336416Y-54626236D01*
X313129264Y-54016980D01*
X313566872Y-53582722D01*
X314109471Y-52928525D01*
X314527499Y-52264898D01*
X314857835Y-51531345D01*
X314918505Y-51365613D01*
X315185054Y-50365810D01*
X315287011Y-49351468D01*
X315225447Y-48339800D01*
X315001429Y-47348015D01*
X314616026Y-46393325D01*
X314609051Y-46379433D01*
X314073013Y-45499563D01*
X313407895Y-44719406D01*
X312630498Y-44052694D01*
X311757621Y-43513160D01*
X310806064Y-43114533D01*
X310502667Y-43023071D01*
X310112453Y-42940944D01*
X309642857Y-42891994D01*
X309054474Y-42872515D01*
X308894000Y-42871814D01*
X308198100Y-42891302D01*
X307609265Y-42957752D01*
X307068882Y-43083142D01*
X306518336Y-43279451D01*
X306180331Y-43426383D01*
X305625661Y-43679553D01*
X294538664Y-38089531D01*
X293027286Y-37327535D01*
X291659814Y-36638273D01*
X290428954Y-36018232D01*
X289327417Y-35463899D01*
X288347911Y-34971760D01*
X287483145Y-34538302D01*
X286725828Y-34160011D01*
X286068669Y-33833375D01*
X285504376Y-33554881D01*
X285025660Y-33321014D01*
X284625228Y-33128262D01*
X284295789Y-32973111D01*
X284030053Y-32852048D01*
X283820729Y-32761560D01*
X283660524Y-32698134D01*
X283542149Y-32658256D01*
X283458312Y-32638413D01*
X283401721Y-32635091D01*
X283365086Y-32644778D01*
G36*
X175985901Y-35644397D02*
G01*
X175717156Y-35886774D01*
X175459678Y-36095516D01*
X175263998Y-36229979D01*
X175245207Y-36240156D01*
X174768626Y-36416508D01*
X174176516Y-36530226D01*
X173510265Y-36582328D01*
X172811258Y-36573835D01*
X172120881Y-36505764D01*
X171480521Y-36379136D01*
X170931563Y-36194969D01*
X170794585Y-36130543D01*
X170582756Y-36031630D01*
X170443003Y-35983525D01*
X170416683Y-35984428D01*
X170416080Y-36079126D01*
X170443064Y-36314399D01*
X170493324Y-36664520D01*
X170562550Y-37103764D01*
X170646430Y-37606404D01*
X170740653Y-38146713D01*
X170840907Y-38698965D01*
X170942881Y-39237434D01*
X171042265Y-39736393D01*
X171059056Y-39817667D01*
X171701069Y-42548325D01*
X172486691Y-45245734D01*
X173423728Y-47934755D01*
X174280741Y-50080327D01*
X174396221Y-50341630D01*
X174567645Y-50712619D01*
X174785270Y-51173492D01*
X175039353Y-51704446D01*
X175320150Y-52285678D01*
X175617918Y-52897386D01*
X175922914Y-53519769D01*
X176225394Y-54133023D01*
X176515614Y-54717346D01*
X176783832Y-55252936D01*
X177020304Y-55719991D01*
X177215287Y-56098708D01*
X177359037Y-56369285D01*
X177441811Y-56511919D01*
X177451861Y-56525295D01*
X177474095Y-56465706D01*
X177504451Y-56282301D01*
X177526550Y-56101961D01*
X177547083Y-55882484D01*
X177576432Y-55526571D01*
X177612092Y-55066739D01*
X177651561Y-54535506D01*
X177692334Y-53965392D01*
X177704721Y-53787667D01*
X178011947Y-50267189D01*
X178441663Y-46837113D01*
X178998874Y-43465888D01*
X179688590Y-40121966D01*
X180232701Y-37859931D01*
X180515131Y-36748863D01*
X180040399Y-36643635D01*
X179624570Y-36536126D01*
X179173832Y-36386948D01*
X178658455Y-36184628D01*
X178048707Y-35917692D01*
X177506700Y-35665876D01*
X176475054Y-35177824D01*
X175985901Y-35644397D01*
G37*
X175985901Y-35644397D02*
X175717156Y-35886774D01*
X175459678Y-36095516D01*
X175263998Y-36229979D01*
X175245207Y-36240156D01*
X174768626Y-36416508D01*
X174176516Y-36530226D01*
X173510265Y-36582328D01*
X172811258Y-36573835D01*
X172120881Y-36505764D01*
X171480521Y-36379136D01*
X170931563Y-36194969D01*
X170794585Y-36130543D01*
X170582756Y-36031630D01*
X170443003Y-35983525D01*
X170416683Y-35984428D01*
X170416080Y-36079126D01*
X170443064Y-36314399D01*
X170493324Y-36664520D01*
X170562550Y-37103764D01*
X170646430Y-37606404D01*
X170740653Y-38146713D01*
X170840907Y-38698965D01*
X170942881Y-39237434D01*
X171042265Y-39736393D01*
X171059056Y-39817667D01*
X171701069Y-42548325D01*
X172486691Y-45245734D01*
X173423728Y-47934755D01*
X174280741Y-50080327D01*
X174396221Y-50341630D01*
X174567645Y-50712619D01*
X174785270Y-51173492D01*
X175039353Y-51704446D01*
X175320150Y-52285678D01*
X175617918Y-52897386D01*
X175922914Y-53519769D01*
X176225394Y-54133023D01*
X176515614Y-54717346D01*
X176783832Y-55252936D01*
X177020304Y-55719991D01*
X177215287Y-56098708D01*
X177359037Y-56369285D01*
X177441811Y-56511919D01*
X177451861Y-56525295D01*
X177474095Y-56465706D01*
X177504451Y-56282301D01*
X177526550Y-56101961D01*
X177547083Y-55882484D01*
X177576432Y-55526571D01*
X177612092Y-55066739D01*
X177651561Y-54535506D01*
X177692334Y-53965392D01*
X177704721Y-53787667D01*
X178011947Y-50267189D01*
X178441663Y-46837113D01*
X178998874Y-43465888D01*
X179688590Y-40121966D01*
X180232701Y-37859931D01*
X180515131Y-36748863D01*
X180040399Y-36643635D01*
X179624570Y-36536126D01*
X179173832Y-36386948D01*
X178658455Y-36184628D01*
X178048707Y-35917692D01*
X177506700Y-35665876D01*
X176475054Y-35177824D01*
X175985901Y-35644397D01*
G36*
X132110000Y-67038000D02*
G01*
X353090000Y-67038000D01*
X353090000Y26603333D01*
X346740000Y26603333D01*
X346740000Y-60688000D01*
X138460000Y-60688000D01*
X138460000Y26603333D01*
X346740000Y26603333D01*
X353090000Y26603333D01*
X353090000Y32953333D01*
X132110000Y32953333D01*
X132110000Y-67038000D01*
G37*
X132110000Y-67038000D02*
X353090000Y-67038000D01*
X353090000Y26603333D01*
X346740000Y26603333D01*
X346740000Y-60688000D01*
X138460000Y-60688000D01*
X138460000Y26603333D01*
X346740000Y26603333D01*
X353090000Y26603333D01*
X353090000Y32953333D01*
X132110000Y32953333D01*
X132110000Y-67038000D01*
D11*
X348875000Y7450000D02*
X348875000Y11350000D01*
X346875000Y7450000D02*
X346875000Y11350000D01*
X348875000Y7450000D02*
X346875000Y7450000D01*
X150800000Y9425000D02*
X150800000Y13325000D01*
X148800000Y9425000D02*
X148800000Y13325000D01*
X150800000Y9425000D02*
X148800000Y9425000D01*
X170467883Y-40503225D02*
X170102199Y-40137541D01*
X171471975Y-39499133D02*
X171106291Y-39133449D01*
X160352513Y-36619060D02*
X163180940Y-39447487D01*
X158019060Y-38952513D02*
X160352513Y-36619060D01*
D12*
X168600000Y-55718555D02*
X168193414Y-55311969D01*
X175918555Y-48400000D02*
X175441258Y-47922703D01*
X168600000Y-41081445D02*
X169077297Y-41558742D01*
X161281445Y-48400000D02*
X161758742Y-48877297D01*
X168600000Y-55718555D02*
X169077297Y-55241258D01*
X161281445Y-48400000D02*
X161758742Y-47922703D01*
X168600000Y-41081445D02*
X168122703Y-41558742D01*
X175918555Y-48400000D02*
X175441258Y-48877297D01*
X168193414Y-55311969D02*
X167291852Y-56213530D01*
X152400000Y-46400000D02*
G75*
G03X152400000Y-46400000I-1000000J0D01*
G01*
X154000000Y-49000000D02*
X154000000Y-43800000D01*
X148800000Y-49000000D02*
X154000000Y-49000000D01*
X148800000Y-43800000D02*
X148800000Y-49000000D01*
X154000000Y-43800000D02*
X148800000Y-43800000D01*
D11*
X170730000Y30323922D02*
X170730000Y30841078D01*
X172150000Y30323922D02*
X172150000Y30841078D01*
X165992199Y30851291D02*
X166357883Y31216975D01*
X166996291Y29847199D02*
X167361975Y30212883D01*
X177480796Y-47372388D02*
X177115112Y-47006704D01*
X178484888Y-46368296D02*
X178119204Y-46002612D01*
X156690000Y-45196078D02*
X156690000Y-44678922D01*
X158110000Y-45196078D02*
X158110000Y-44678922D01*
X165396078Y-64510000D02*
X164878922Y-64510000D01*
X165396078Y-63090000D02*
X164878922Y-63090000D01*
X166258578Y-66510000D02*
X165741422Y-66510000D01*
X166258578Y-65090000D02*
X165741422Y-65090000D01*
X160487936Y30855000D02*
X161692064Y30855000D01*
X160487936Y29035000D02*
X161692064Y29035000D01*
X348662500Y-65018750D02*
X348662500Y-61118750D01*
X346662500Y-65018750D02*
X346662500Y-61118750D01*
X348662500Y-65018750D02*
X346662500Y-65018750D01*
X291512500Y-65018750D02*
X291512500Y-61118750D01*
X289512500Y-65018750D02*
X289512500Y-61118750D01*
X291512500Y-65018750D02*
X289512500Y-65018750D01*
X273256250Y-65018750D02*
X273256250Y-61118750D01*
X271256250Y-65018750D02*
X271256250Y-61118750D01*
X273256250Y-65018750D02*
X271256250Y-65018750D01*
X262937500Y-65018750D02*
X262937500Y-61118750D01*
X260937500Y-65018750D02*
X260937500Y-61118750D01*
X262937500Y-65018750D02*
X260937500Y-65018750D01*
X248650000Y-65018750D02*
X248650000Y-61118750D01*
X246650000Y-65018750D02*
X246650000Y-61118750D01*
X248650000Y-65018750D02*
X246650000Y-65018750D01*
X196262500Y-65018750D02*
X196262500Y-61118750D01*
X194262500Y-65018750D02*
X194262500Y-61118750D01*
X196262500Y-65018750D02*
X194262500Y-65018750D01*
X172450000Y-65018750D02*
X172450000Y-61118750D01*
X170450000Y-65018750D02*
X170450000Y-61118750D01*
X172450000Y-65018750D02*
X170450000Y-65018750D01*
X346662500Y-27850000D02*
X346662500Y-31750000D01*
X348662500Y-27850000D02*
X348662500Y-31750000D01*
X346662500Y-27850000D02*
X348662500Y-27850000D01*
X318087500Y-27850000D02*
X318087500Y-31750000D01*
X320087500Y-27850000D02*
X320087500Y-31750000D01*
X318087500Y-27850000D02*
X320087500Y-27850000D01*
X299037500Y-27975000D02*
X299037500Y-31875000D01*
X301037500Y-27975000D02*
X301037500Y-31875000D01*
X299037500Y-27975000D02*
X301037500Y-27975000D01*
X279987500Y-27850000D02*
X279987500Y-31750000D01*
X281987500Y-27850000D02*
X281987500Y-31750000D01*
X279987500Y-27850000D02*
X281987500Y-27850000D01*
X260937500Y-27850000D02*
X260937500Y-31750000D01*
X262937500Y-27850000D02*
X262937500Y-31750000D01*
X260937500Y-27850000D02*
X262937500Y-27850000D01*
X241887500Y-27912500D02*
X241887500Y-31812500D01*
X243887500Y-27912500D02*
X243887500Y-31812500D01*
X241887500Y-27912500D02*
X243887500Y-27912500D01*
X222837500Y-27850000D02*
X222837500Y-31750000D01*
X224837500Y-27850000D02*
X224837500Y-31750000D01*
X222837500Y-27850000D02*
X224837500Y-27850000D01*
X203787500Y-27850000D02*
X203787500Y-31750000D01*
X205787500Y-27850000D02*
X205787500Y-31750000D01*
X203787500Y-27850000D02*
X205787500Y-27850000D01*
X184737500Y-27850000D02*
X184737500Y-31750000D01*
X186737500Y-27850000D02*
X186737500Y-31750000D01*
X184737500Y-27850000D02*
X186737500Y-27850000D01*
X165687500Y-27912500D02*
X165687500Y-31812500D01*
X167687500Y-27912500D02*
X167687500Y-31812500D01*
X165687500Y-27912500D02*
X167687500Y-27912500D01*
X346662500Y-8800000D02*
X346662500Y-12700000D01*
X348662500Y-8800000D02*
X348662500Y-12700000D01*
X346662500Y-8800000D02*
X348662500Y-8800000D01*
X327612500Y-8800000D02*
X327612500Y-12700000D01*
X329612500Y-8800000D02*
X329612500Y-12700000D01*
X327612500Y-8800000D02*
X329612500Y-8800000D01*
X308562500Y-8862500D02*
X308562500Y-12762500D01*
X310562500Y-8862500D02*
X310562500Y-12762500D01*
X308562500Y-8862500D02*
X310562500Y-8862500D01*
X289512500Y-8800000D02*
X289512500Y-12700000D01*
X291512500Y-8800000D02*
X291512500Y-12700000D01*
X289512500Y-8800000D02*
X291512500Y-8800000D01*
X270462500Y-8800000D02*
X270462500Y-12700000D01*
X272462500Y-8800000D02*
X272462500Y-12700000D01*
X270462500Y-8800000D02*
X272462500Y-8800000D01*
X251412500Y-8862500D02*
X251412500Y-12762500D01*
X253412500Y-8862500D02*
X253412500Y-12762500D01*
X251412500Y-8862500D02*
X253412500Y-8862500D01*
X232362500Y-8862500D02*
X232362500Y-12762500D01*
X234362500Y-8862500D02*
X234362500Y-12762500D01*
X232362500Y-8862500D02*
X234362500Y-8862500D01*
X213312500Y-8862500D02*
X213312500Y-12762500D01*
X215312500Y-8862500D02*
X215312500Y-12762500D01*
X213312500Y-8862500D02*
X215312500Y-8862500D01*
X194262500Y-8800000D02*
X194262500Y-12700000D01*
X196262500Y-8800000D02*
X196262500Y-12700000D01*
X194262500Y-8800000D02*
X196262500Y-8800000D01*
X175212500Y-8862500D02*
X175212500Y-12762500D01*
X177212500Y-8862500D02*
X177212500Y-12762500D01*
X175212500Y-8862500D02*
X177212500Y-8862500D01*
X156162500Y-8800000D02*
X156162500Y-12700000D01*
X158162500Y-8800000D02*
X158162500Y-12700000D01*
X156162500Y-8800000D02*
X158162500Y-8800000D01*
X337137500Y10187500D02*
X337137500Y6287500D01*
X339137500Y10187500D02*
X339137500Y6287500D01*
X337137500Y10187500D02*
X339137500Y10187500D01*
X318087500Y10250000D02*
X318087500Y6350000D01*
X320087500Y10250000D02*
X320087500Y6350000D01*
X318087500Y10250000D02*
X320087500Y10250000D01*
X299037500Y10250000D02*
X299037500Y6350000D01*
X301037500Y10250000D02*
X301037500Y6350000D01*
X299037500Y10250000D02*
X301037500Y10250000D01*
X279987500Y10250000D02*
X279987500Y6350000D01*
X281987500Y10250000D02*
X281987500Y6350000D01*
X279987500Y10250000D02*
X281987500Y10250000D01*
X260937500Y10250000D02*
X260937500Y6350000D01*
X262937500Y10250000D02*
X262937500Y6350000D01*
X260937500Y10250000D02*
X262937500Y10250000D01*
X241887500Y10250000D02*
X241887500Y6350000D01*
X243887500Y10250000D02*
X243887500Y6350000D01*
X241887500Y10250000D02*
X243887500Y10250000D01*
X222837500Y10187500D02*
X222837500Y6287500D01*
X224837500Y10187500D02*
X224837500Y6287500D01*
X222837500Y10187500D02*
X224837500Y10187500D01*
X203787500Y10250000D02*
X203787500Y6350000D01*
X205787500Y10250000D02*
X205787500Y6350000D01*
X203787500Y10250000D02*
X205787500Y10250000D01*
X184737500Y10187500D02*
X184737500Y6287500D01*
X186737500Y10187500D02*
X186737500Y6287500D01*
X184737500Y10187500D02*
X186737500Y10187500D01*
X165687500Y10250000D02*
X165687500Y6350000D01*
X167687500Y10250000D02*
X167687500Y6350000D01*
X165687500Y10250000D02*
X167687500Y10250000D01*
X162852199Y-55343709D02*
X163217883Y-54978025D01*
X163856291Y-56347801D02*
X164221975Y-55982117D01*
X163547801Y-41656291D02*
X163182117Y-42021975D01*
X162543709Y-40652199D02*
X162178025Y-41017883D01*
X162343709Y-37947801D02*
X161978025Y-37582117D01*
X163347801Y-36943709D02*
X162982117Y-36578025D01*
X178021975Y-51182117D02*
X177656291Y-51547801D01*
X177017883Y-50178025D02*
X176652199Y-50543709D01*
X162547801Y-54256291D02*
X162182117Y-54621975D01*
X161543709Y-53252199D02*
X161178025Y-53617883D01*
X170452199Y-56943709D02*
X170817883Y-56578025D01*
X171456291Y-57947801D02*
X171821975Y-57582117D01*
D12*
X350327380Y10914285D02*
X349327380Y10914285D01*
X349327380Y10676190D01*
X349375000Y10533333D01*
X349470238Y10438095D01*
X349565476Y10390476D01*
X349755952Y10342857D01*
X349898809Y10342857D01*
X350089285Y10390476D01*
X350184523Y10438095D01*
X350279761Y10533333D01*
X350327380Y10676190D01*
X350327380Y10914285D01*
X349327380Y9438095D02*
X349327380Y9914285D01*
X349803571Y9961904D01*
X349755952Y9914285D01*
X349708333Y9819047D01*
X349708333Y9580952D01*
X349755952Y9485714D01*
X349803571Y9438095D01*
X349898809Y9390476D01*
X350136904Y9390476D01*
X350232142Y9438095D01*
X350279761Y9485714D01*
X350327380Y9580952D01*
X350327380Y9819047D01*
X350279761Y9914285D01*
X350232142Y9961904D01*
X350327380Y8914285D02*
X350327380Y8723809D01*
X350279761Y8628571D01*
X350232142Y8580952D01*
X350089285Y8485714D01*
X349898809Y8438095D01*
X349517857Y8438095D01*
X349422619Y8485714D01*
X349375000Y8533333D01*
X349327380Y8628571D01*
X349327380Y8819047D01*
X349375000Y8914285D01*
X349422619Y8961904D01*
X349517857Y9009523D01*
X349755952Y9009523D01*
X349851190Y8961904D01*
X349898809Y8914285D01*
X349946428Y8819047D01*
X349946428Y8628571D01*
X349898809Y8533333D01*
X349851190Y8485714D01*
X349755952Y8438095D01*
X152252380Y12889285D02*
X151252380Y12889285D01*
X151252380Y12651190D01*
X151300000Y12508333D01*
X151395238Y12413095D01*
X151490476Y12365476D01*
X151680952Y12317857D01*
X151823809Y12317857D01*
X152014285Y12365476D01*
X152109523Y12413095D01*
X152204761Y12508333D01*
X152252380Y12651190D01*
X152252380Y12889285D01*
X151252380Y11413095D02*
X151252380Y11889285D01*
X151728571Y11936904D01*
X151680952Y11889285D01*
X151633333Y11794047D01*
X151633333Y11555952D01*
X151680952Y11460714D01*
X151728571Y11413095D01*
X151823809Y11365476D01*
X152061904Y11365476D01*
X152157142Y11413095D01*
X152204761Y11460714D01*
X152252380Y11555952D01*
X152252380Y11794047D01*
X152204761Y11889285D01*
X152157142Y11936904D01*
X151680952Y10794047D02*
X151633333Y10889285D01*
X151585714Y10936904D01*
X151490476Y10984523D01*
X151442857Y10984523D01*
X151347619Y10936904D01*
X151300000Y10889285D01*
X151252380Y10794047D01*
X151252380Y10603571D01*
X151300000Y10508333D01*
X151347619Y10460714D01*
X151442857Y10413095D01*
X151490476Y10413095D01*
X151585714Y10460714D01*
X151633333Y10508333D01*
X151680952Y10603571D01*
X151680952Y10794047D01*
X151728571Y10889285D01*
X151776190Y10936904D01*
X151871428Y10984523D01*
X152061904Y10984523D01*
X152157142Y10936904D01*
X152204761Y10889285D01*
X152252380Y10794047D01*
X152252380Y10603571D01*
X152204761Y10508333D01*
X152157142Y10460714D01*
X152061904Y10413095D01*
X151871428Y10413095D01*
X151776190Y10460714D01*
X151728571Y10508333D01*
X151680952Y10603571D01*
X171819125Y-39022000D02*
X171819125Y-39089343D01*
X171886469Y-39224030D01*
X171953813Y-39291374D01*
X172088500Y-39358717D01*
X172223187Y-39358717D01*
X172324202Y-39325046D01*
X172492561Y-39224030D01*
X172593576Y-39123015D01*
X172694591Y-38954656D01*
X172728263Y-38853641D01*
X172728263Y-38718954D01*
X172660919Y-38584267D01*
X172593576Y-38516923D01*
X172458889Y-38449580D01*
X172391545Y-38449580D01*
X171819125Y-37742473D02*
X172155843Y-38079191D01*
X171852797Y-38449580D01*
X171852797Y-38382236D01*
X171819125Y-38281221D01*
X171650767Y-38112862D01*
X171549751Y-38079191D01*
X171482408Y-38079191D01*
X171381393Y-38112862D01*
X171213034Y-38281221D01*
X171179362Y-38382236D01*
X171179362Y-38449580D01*
X171213034Y-38550595D01*
X171381393Y-38718954D01*
X171482408Y-38752626D01*
X171549751Y-38752626D01*
X159221141Y-41252293D02*
X158884423Y-41589011D01*
X159827232Y-41117606D02*
X159221141Y-41252293D01*
X159355828Y-40646202D01*
X158042630Y-40747217D02*
X158446691Y-41151278D01*
X158244660Y-40949247D02*
X158951767Y-40242141D01*
X158918095Y-40410499D01*
X158918095Y-40545186D01*
X158951767Y-40646202D01*
X171428095Y32692619D02*
X171428095Y31883095D01*
X171380476Y31787857D01*
X171332857Y31740238D01*
X171237619Y31692619D01*
X171047142Y31692619D01*
X170951904Y31740238D01*
X170904285Y31787857D01*
X170856666Y31883095D01*
X170856666Y32692619D01*
X170428095Y31740238D02*
X170285238Y31692619D01*
X170047142Y31692619D01*
X169951904Y31740238D01*
X169904285Y31787857D01*
X169856666Y31883095D01*
X169856666Y31978333D01*
X169904285Y32073571D01*
X169951904Y32121190D01*
X170047142Y32168809D01*
X170237619Y32216428D01*
X170332857Y32264047D01*
X170380476Y32311666D01*
X170428095Y32406904D01*
X170428095Y32502142D01*
X170380476Y32597380D01*
X170332857Y32645000D01*
X170237619Y32692619D01*
X169999523Y32692619D01*
X169856666Y32645000D01*
X169094761Y32216428D02*
X168951904Y32168809D01*
X168904285Y32121190D01*
X168856666Y32025952D01*
X168856666Y31883095D01*
X168904285Y31787857D01*
X168951904Y31740238D01*
X169047142Y31692619D01*
X169428095Y31692619D01*
X169428095Y32692619D01*
X169094761Y32692619D01*
X168999523Y32645000D01*
X168951904Y32597380D01*
X168904285Y32502142D01*
X168904285Y32406904D01*
X168951904Y32311666D01*
X168999523Y32264047D01*
X169094761Y32216428D01*
X169428095Y32216428D01*
X167904285Y31692619D02*
X168475714Y31692619D01*
X168190000Y31692619D02*
X168190000Y32692619D01*
X168285238Y32549761D01*
X168380476Y32454523D01*
X168475714Y32406904D01*
X174019468Y-52741972D02*
X174591888Y-53314392D01*
X174625560Y-53415407D01*
X174625560Y-53482751D01*
X174591888Y-53583766D01*
X174457201Y-53718453D01*
X174356186Y-53752125D01*
X174288842Y-53752125D01*
X174187827Y-53718453D01*
X173615407Y-53146033D01*
X173615407Y-54560247D02*
X174019468Y-54156186D01*
X173817438Y-54358216D02*
X173110331Y-53651110D01*
X173278690Y-53684781D01*
X173413377Y-53684781D01*
X173514392Y-53651110D01*
X152733333Y-50868761D02*
X152590476Y-50916380D01*
X152352380Y-50916380D01*
X152257142Y-50868761D01*
X152209523Y-50821142D01*
X152161904Y-50725904D01*
X152161904Y-50630666D01*
X152209523Y-50535428D01*
X152257142Y-50487809D01*
X152352380Y-50440190D01*
X152542857Y-50392571D01*
X152638095Y-50344952D01*
X152685714Y-50297333D01*
X152733333Y-50202095D01*
X152733333Y-50106857D01*
X152685714Y-50011619D01*
X152638095Y-49964000D01*
X152542857Y-49916380D01*
X152304761Y-49916380D01*
X152161904Y-49964000D01*
X151828571Y-49916380D02*
X151590476Y-50916380D01*
X151400000Y-50202095D01*
X151209523Y-50916380D01*
X150971428Y-49916380D01*
X150066666Y-50916380D02*
X150638095Y-50916380D01*
X150352380Y-50916380D02*
X150352380Y-49916380D01*
X150447619Y-50059238D01*
X150542857Y-50154476D01*
X150638095Y-50202095D01*
X173542380Y30749166D02*
X173066190Y31082500D01*
X173542380Y31320595D02*
X172542380Y31320595D01*
X172542380Y30939642D01*
X172590000Y30844404D01*
X172637619Y30796785D01*
X172732857Y30749166D01*
X172875714Y30749166D01*
X172970952Y30796785D01*
X173018571Y30844404D01*
X173066190Y30939642D01*
X173066190Y31320595D01*
X172542380Y30415833D02*
X172542380Y29749166D01*
X173542380Y30177738D01*
X168281545Y29163330D02*
X168180530Y29735750D01*
X168685606Y29567391D02*
X167978500Y30274498D01*
X167709125Y30005124D01*
X167675454Y29904109D01*
X167675454Y29836765D01*
X167709125Y29735750D01*
X167810141Y29634735D01*
X167911156Y29601063D01*
X167978500Y29601063D01*
X168079515Y29634735D01*
X168348889Y29904109D01*
X166968347Y29264345D02*
X167103034Y29399032D01*
X167204049Y29432704D01*
X167271393Y29432704D01*
X167439751Y29399032D01*
X167608110Y29298017D01*
X167877484Y29028643D01*
X167911156Y28927628D01*
X167911156Y28860284D01*
X167877484Y28759269D01*
X167742797Y28624582D01*
X167641782Y28590910D01*
X167574438Y28590910D01*
X167473423Y28624582D01*
X167305064Y28792941D01*
X167271393Y28893956D01*
X167271393Y28961299D01*
X167305064Y29062315D01*
X167439751Y29197002D01*
X167540767Y29230673D01*
X167608110Y29230673D01*
X167709125Y29197002D01*
X178764695Y-45958506D02*
X179337115Y-45857491D01*
X179168756Y-46362567D02*
X179875863Y-45655461D01*
X179606489Y-45386086D01*
X179505474Y-45352415D01*
X179438130Y-45352415D01*
X179337115Y-45386086D01*
X179236100Y-45487102D01*
X179202428Y-45588117D01*
X179202428Y-45655461D01*
X179236100Y-45756476D01*
X179505474Y-46025850D01*
X178832038Y-44611636D02*
X179168756Y-44948354D01*
X178865710Y-45318743D01*
X178865710Y-45251399D01*
X178832038Y-45150384D01*
X178663680Y-44982025D01*
X178562664Y-44948354D01*
X178495321Y-44948354D01*
X178394306Y-44982025D01*
X178225947Y-45150384D01*
X178192275Y-45251399D01*
X178192275Y-45318743D01*
X178225947Y-45419758D01*
X178394306Y-45588117D01*
X178495321Y-45621789D01*
X178562664Y-45621789D01*
X159502380Y-44770833D02*
X159026190Y-44437500D01*
X159502380Y-44199404D02*
X158502380Y-44199404D01*
X158502380Y-44580357D01*
X158550000Y-44675595D01*
X158597619Y-44723214D01*
X158692857Y-44770833D01*
X158835714Y-44770833D01*
X158930952Y-44723214D01*
X158978571Y-44675595D01*
X159026190Y-44580357D01*
X159026190Y-44199404D01*
X158835714Y-45627976D02*
X159502380Y-45627976D01*
X158454761Y-45389880D02*
X159169047Y-45151785D01*
X159169047Y-45770833D01*
X165304166Y-62602380D02*
X165637500Y-62126190D01*
X165875595Y-62602380D02*
X165875595Y-61602380D01*
X165494642Y-61602380D01*
X165399404Y-61650000D01*
X165351785Y-61697619D01*
X165304166Y-61792857D01*
X165304166Y-61935714D01*
X165351785Y-62030952D01*
X165399404Y-62078571D01*
X165494642Y-62126190D01*
X165875595Y-62126190D01*
X164970833Y-61602380D02*
X164351785Y-61602380D01*
X164685119Y-61983333D01*
X164542261Y-61983333D01*
X164447023Y-62030952D01*
X164399404Y-62078571D01*
X164351785Y-62173809D01*
X164351785Y-62411904D01*
X164399404Y-62507142D01*
X164447023Y-62554761D01*
X164542261Y-62602380D01*
X164827976Y-62602380D01*
X164923214Y-62554761D01*
X164970833Y-62507142D01*
X166166666Y-64602380D02*
X166500000Y-64126190D01*
X166738095Y-64602380D02*
X166738095Y-63602380D01*
X166357142Y-63602380D01*
X166261904Y-63650000D01*
X166214285Y-63697619D01*
X166166666Y-63792857D01*
X166166666Y-63935714D01*
X166214285Y-64030952D01*
X166261904Y-64078571D01*
X166357142Y-64126190D01*
X166738095Y-64126190D01*
X165785714Y-63697619D02*
X165738095Y-63650000D01*
X165642857Y-63602380D01*
X165404761Y-63602380D01*
X165309523Y-63650000D01*
X165261904Y-63697619D01*
X165214285Y-63792857D01*
X165214285Y-63888095D01*
X165261904Y-64030952D01*
X165833333Y-64602380D01*
X165214285Y-64602380D01*
X161423333Y28196428D02*
X161756666Y28196428D01*
X161756666Y27672619D02*
X161756666Y28672619D01*
X161280476Y28672619D01*
X160375714Y27672619D02*
X160947142Y27672619D01*
X160661428Y27672619D02*
X160661428Y28672619D01*
X160756666Y28529761D01*
X160851904Y28434523D01*
X160947142Y28386904D01*
X350114880Y-61554464D02*
X349114880Y-61554464D01*
X349114880Y-61792559D01*
X349162500Y-61935416D01*
X349257738Y-62030654D01*
X349352976Y-62078273D01*
X349543452Y-62125892D01*
X349686309Y-62125892D01*
X349876785Y-62078273D01*
X349972023Y-62030654D01*
X350067261Y-61935416D01*
X350114880Y-61792559D01*
X350114880Y-61554464D01*
X349448214Y-62983035D02*
X350114880Y-62983035D01*
X349067261Y-62744940D02*
X349781547Y-62506845D01*
X349781547Y-63125892D01*
X349210119Y-63459226D02*
X349162500Y-63506845D01*
X349114880Y-63602083D01*
X349114880Y-63840178D01*
X349162500Y-63935416D01*
X349210119Y-63983035D01*
X349305357Y-64030654D01*
X349400595Y-64030654D01*
X349543452Y-63983035D01*
X350114880Y-63411607D01*
X350114880Y-64030654D01*
X292964880Y-61554464D02*
X291964880Y-61554464D01*
X291964880Y-61792559D01*
X292012500Y-61935416D01*
X292107738Y-62030654D01*
X292202976Y-62078273D01*
X292393452Y-62125892D01*
X292536309Y-62125892D01*
X292726785Y-62078273D01*
X292822023Y-62030654D01*
X292917261Y-61935416D01*
X292964880Y-61792559D01*
X292964880Y-61554464D01*
X292298214Y-62983035D02*
X292964880Y-62983035D01*
X291917261Y-62744940D02*
X292631547Y-62506845D01*
X292631547Y-63125892D01*
X292964880Y-64030654D02*
X292964880Y-63459226D01*
X292964880Y-63744940D02*
X291964880Y-63744940D01*
X292107738Y-63649702D01*
X292202976Y-63554464D01*
X292250595Y-63459226D01*
X274708630Y-61554464D02*
X273708630Y-61554464D01*
X273708630Y-61792559D01*
X273756250Y-61935416D01*
X273851488Y-62030654D01*
X273946726Y-62078273D01*
X274137202Y-62125892D01*
X274280059Y-62125892D01*
X274470535Y-62078273D01*
X274565773Y-62030654D01*
X274661011Y-61935416D01*
X274708630Y-61792559D01*
X274708630Y-61554464D01*
X274041964Y-62983035D02*
X274708630Y-62983035D01*
X273661011Y-62744940D02*
X274375297Y-62506845D01*
X274375297Y-63125892D01*
X273708630Y-63697321D02*
X273708630Y-63792559D01*
X273756250Y-63887797D01*
X273803869Y-63935416D01*
X273899107Y-63983035D01*
X274089583Y-64030654D01*
X274327678Y-64030654D01*
X274518154Y-63983035D01*
X274613392Y-63935416D01*
X274661011Y-63887797D01*
X274708630Y-63792559D01*
X274708630Y-63697321D01*
X274661011Y-63602083D01*
X274613392Y-63554464D01*
X274518154Y-63506845D01*
X274327678Y-63459226D01*
X274089583Y-63459226D01*
X273899107Y-63506845D01*
X273803869Y-63554464D01*
X273756250Y-63602083D01*
X273708630Y-63697321D01*
X264389880Y-61554464D02*
X263389880Y-61554464D01*
X263389880Y-61792559D01*
X263437500Y-61935416D01*
X263532738Y-62030654D01*
X263627976Y-62078273D01*
X263818452Y-62125892D01*
X263961309Y-62125892D01*
X264151785Y-62078273D01*
X264247023Y-62030654D01*
X264342261Y-61935416D01*
X264389880Y-61792559D01*
X264389880Y-61554464D01*
X263389880Y-62459226D02*
X263389880Y-63078273D01*
X263770833Y-62744940D01*
X263770833Y-62887797D01*
X263818452Y-62983035D01*
X263866071Y-63030654D01*
X263961309Y-63078273D01*
X264199404Y-63078273D01*
X264294642Y-63030654D01*
X264342261Y-62983035D01*
X264389880Y-62887797D01*
X264389880Y-62602083D01*
X264342261Y-62506845D01*
X264294642Y-62459226D01*
X264389880Y-63554464D02*
X264389880Y-63744940D01*
X264342261Y-63840178D01*
X264294642Y-63887797D01*
X264151785Y-63983035D01*
X263961309Y-64030654D01*
X263580357Y-64030654D01*
X263485119Y-63983035D01*
X263437500Y-63935416D01*
X263389880Y-63840178D01*
X263389880Y-63649702D01*
X263437500Y-63554464D01*
X263485119Y-63506845D01*
X263580357Y-63459226D01*
X263818452Y-63459226D01*
X263913690Y-63506845D01*
X263961309Y-63554464D01*
X264008928Y-63649702D01*
X264008928Y-63840178D01*
X263961309Y-63935416D01*
X263913690Y-63983035D01*
X263818452Y-64030654D01*
X250102380Y-61554464D02*
X249102380Y-61554464D01*
X249102380Y-61792559D01*
X249150000Y-61935416D01*
X249245238Y-62030654D01*
X249340476Y-62078273D01*
X249530952Y-62125892D01*
X249673809Y-62125892D01*
X249864285Y-62078273D01*
X249959523Y-62030654D01*
X250054761Y-61935416D01*
X250102380Y-61792559D01*
X250102380Y-61554464D01*
X249102380Y-62459226D02*
X249102380Y-63078273D01*
X249483333Y-62744940D01*
X249483333Y-62887797D01*
X249530952Y-62983035D01*
X249578571Y-63030654D01*
X249673809Y-63078273D01*
X249911904Y-63078273D01*
X250007142Y-63030654D01*
X250054761Y-62983035D01*
X250102380Y-62887797D01*
X250102380Y-62602083D01*
X250054761Y-62506845D01*
X250007142Y-62459226D01*
X249530952Y-63649702D02*
X249483333Y-63554464D01*
X249435714Y-63506845D01*
X249340476Y-63459226D01*
X249292857Y-63459226D01*
X249197619Y-63506845D01*
X249150000Y-63554464D01*
X249102380Y-63649702D01*
X249102380Y-63840178D01*
X249150000Y-63935416D01*
X249197619Y-63983035D01*
X249292857Y-64030654D01*
X249340476Y-64030654D01*
X249435714Y-63983035D01*
X249483333Y-63935416D01*
X249530952Y-63840178D01*
X249530952Y-63649702D01*
X249578571Y-63554464D01*
X249626190Y-63506845D01*
X249721428Y-63459226D01*
X249911904Y-63459226D01*
X250007142Y-63506845D01*
X250054761Y-63554464D01*
X250102380Y-63649702D01*
X250102380Y-63840178D01*
X250054761Y-63935416D01*
X250007142Y-63983035D01*
X249911904Y-64030654D01*
X249721428Y-64030654D01*
X249626190Y-63983035D01*
X249578571Y-63935416D01*
X249530952Y-63840178D01*
X197714880Y-61554464D02*
X196714880Y-61554464D01*
X196714880Y-61792559D01*
X196762500Y-61935416D01*
X196857738Y-62030654D01*
X196952976Y-62078273D01*
X197143452Y-62125892D01*
X197286309Y-62125892D01*
X197476785Y-62078273D01*
X197572023Y-62030654D01*
X197667261Y-61935416D01*
X197714880Y-61792559D01*
X197714880Y-61554464D01*
X196714880Y-62459226D02*
X196714880Y-63078273D01*
X197095833Y-62744940D01*
X197095833Y-62887797D01*
X197143452Y-62983035D01*
X197191071Y-63030654D01*
X197286309Y-63078273D01*
X197524404Y-63078273D01*
X197619642Y-63030654D01*
X197667261Y-62983035D01*
X197714880Y-62887797D01*
X197714880Y-62602083D01*
X197667261Y-62506845D01*
X197619642Y-62459226D01*
X196714880Y-63411607D02*
X196714880Y-64078273D01*
X197714880Y-63649702D01*
X173902380Y-61554464D02*
X172902380Y-61554464D01*
X172902380Y-61792559D01*
X172950000Y-61935416D01*
X173045238Y-62030654D01*
X173140476Y-62078273D01*
X173330952Y-62125892D01*
X173473809Y-62125892D01*
X173664285Y-62078273D01*
X173759523Y-62030654D01*
X173854761Y-61935416D01*
X173902380Y-61792559D01*
X173902380Y-61554464D01*
X172902380Y-62459226D02*
X172902380Y-63078273D01*
X173283333Y-62744940D01*
X173283333Y-62887797D01*
X173330952Y-62983035D01*
X173378571Y-63030654D01*
X173473809Y-63078273D01*
X173711904Y-63078273D01*
X173807142Y-63030654D01*
X173854761Y-62983035D01*
X173902380Y-62887797D01*
X173902380Y-62602083D01*
X173854761Y-62506845D01*
X173807142Y-62459226D01*
X172902380Y-63935416D02*
X172902380Y-63744940D01*
X172950000Y-63649702D01*
X172997619Y-63602083D01*
X173140476Y-63506845D01*
X173330952Y-63459226D01*
X173711904Y-63459226D01*
X173807142Y-63506845D01*
X173854761Y-63554464D01*
X173902380Y-63649702D01*
X173902380Y-63840178D01*
X173854761Y-63935416D01*
X173807142Y-63983035D01*
X173711904Y-64030654D01*
X173473809Y-64030654D01*
X173378571Y-63983035D01*
X173330952Y-63935416D01*
X173283333Y-63840178D01*
X173283333Y-63649702D01*
X173330952Y-63554464D01*
X173378571Y-63506845D01*
X173473809Y-63459226D01*
X346114880Y-28885714D02*
X345114880Y-28885714D01*
X345114880Y-29123809D01*
X345162500Y-29266666D01*
X345257738Y-29361904D01*
X345352976Y-29409523D01*
X345543452Y-29457142D01*
X345686309Y-29457142D01*
X345876785Y-29409523D01*
X345972023Y-29361904D01*
X346067261Y-29266666D01*
X346114880Y-29123809D01*
X346114880Y-28885714D01*
X345114880Y-29790476D02*
X345114880Y-30409523D01*
X345495833Y-30076190D01*
X345495833Y-30219047D01*
X345543452Y-30314285D01*
X345591071Y-30361904D01*
X345686309Y-30409523D01*
X345924404Y-30409523D01*
X346019642Y-30361904D01*
X346067261Y-30314285D01*
X346114880Y-30219047D01*
X346114880Y-29933333D01*
X346067261Y-29838095D01*
X346019642Y-29790476D01*
X345114880Y-31314285D02*
X345114880Y-30838095D01*
X345591071Y-30790476D01*
X345543452Y-30838095D01*
X345495833Y-30933333D01*
X345495833Y-31171428D01*
X345543452Y-31266666D01*
X345591071Y-31314285D01*
X345686309Y-31361904D01*
X345924404Y-31361904D01*
X346019642Y-31314285D01*
X346067261Y-31266666D01*
X346114880Y-31171428D01*
X346114880Y-30933333D01*
X346067261Y-30838095D01*
X346019642Y-30790476D01*
X317539880Y-28885714D02*
X316539880Y-28885714D01*
X316539880Y-29123809D01*
X316587500Y-29266666D01*
X316682738Y-29361904D01*
X316777976Y-29409523D01*
X316968452Y-29457142D01*
X317111309Y-29457142D01*
X317301785Y-29409523D01*
X317397023Y-29361904D01*
X317492261Y-29266666D01*
X317539880Y-29123809D01*
X317539880Y-28885714D01*
X316539880Y-29790476D02*
X316539880Y-30409523D01*
X316920833Y-30076190D01*
X316920833Y-30219047D01*
X316968452Y-30314285D01*
X317016071Y-30361904D01*
X317111309Y-30409523D01*
X317349404Y-30409523D01*
X317444642Y-30361904D01*
X317492261Y-30314285D01*
X317539880Y-30219047D01*
X317539880Y-29933333D01*
X317492261Y-29838095D01*
X317444642Y-29790476D01*
X316873214Y-31266666D02*
X317539880Y-31266666D01*
X316492261Y-31028571D02*
X317206547Y-30790476D01*
X317206547Y-31409523D01*
X298489880Y-29010714D02*
X297489880Y-29010714D01*
X297489880Y-29248809D01*
X297537500Y-29391666D01*
X297632738Y-29486904D01*
X297727976Y-29534523D01*
X297918452Y-29582142D01*
X298061309Y-29582142D01*
X298251785Y-29534523D01*
X298347023Y-29486904D01*
X298442261Y-29391666D01*
X298489880Y-29248809D01*
X298489880Y-29010714D01*
X297489880Y-29915476D02*
X297489880Y-30534523D01*
X297870833Y-30201190D01*
X297870833Y-30344047D01*
X297918452Y-30439285D01*
X297966071Y-30486904D01*
X298061309Y-30534523D01*
X298299404Y-30534523D01*
X298394642Y-30486904D01*
X298442261Y-30439285D01*
X298489880Y-30344047D01*
X298489880Y-30058333D01*
X298442261Y-29963095D01*
X298394642Y-29915476D01*
X297489880Y-30867857D02*
X297489880Y-31486904D01*
X297870833Y-31153571D01*
X297870833Y-31296428D01*
X297918452Y-31391666D01*
X297966071Y-31439285D01*
X298061309Y-31486904D01*
X298299404Y-31486904D01*
X298394642Y-31439285D01*
X298442261Y-31391666D01*
X298489880Y-31296428D01*
X298489880Y-31010714D01*
X298442261Y-30915476D01*
X298394642Y-30867857D01*
X279439880Y-28885714D02*
X278439880Y-28885714D01*
X278439880Y-29123809D01*
X278487500Y-29266666D01*
X278582738Y-29361904D01*
X278677976Y-29409523D01*
X278868452Y-29457142D01*
X279011309Y-29457142D01*
X279201785Y-29409523D01*
X279297023Y-29361904D01*
X279392261Y-29266666D01*
X279439880Y-29123809D01*
X279439880Y-28885714D01*
X278439880Y-29790476D02*
X278439880Y-30409523D01*
X278820833Y-30076190D01*
X278820833Y-30219047D01*
X278868452Y-30314285D01*
X278916071Y-30361904D01*
X279011309Y-30409523D01*
X279249404Y-30409523D01*
X279344642Y-30361904D01*
X279392261Y-30314285D01*
X279439880Y-30219047D01*
X279439880Y-29933333D01*
X279392261Y-29838095D01*
X279344642Y-29790476D01*
X278535119Y-30790476D02*
X278487500Y-30838095D01*
X278439880Y-30933333D01*
X278439880Y-31171428D01*
X278487500Y-31266666D01*
X278535119Y-31314285D01*
X278630357Y-31361904D01*
X278725595Y-31361904D01*
X278868452Y-31314285D01*
X279439880Y-30742857D01*
X279439880Y-31361904D01*
X260389880Y-28885714D02*
X259389880Y-28885714D01*
X259389880Y-29123809D01*
X259437500Y-29266666D01*
X259532738Y-29361904D01*
X259627976Y-29409523D01*
X259818452Y-29457142D01*
X259961309Y-29457142D01*
X260151785Y-29409523D01*
X260247023Y-29361904D01*
X260342261Y-29266666D01*
X260389880Y-29123809D01*
X260389880Y-28885714D01*
X259389880Y-29790476D02*
X259389880Y-30409523D01*
X259770833Y-30076190D01*
X259770833Y-30219047D01*
X259818452Y-30314285D01*
X259866071Y-30361904D01*
X259961309Y-30409523D01*
X260199404Y-30409523D01*
X260294642Y-30361904D01*
X260342261Y-30314285D01*
X260389880Y-30219047D01*
X260389880Y-29933333D01*
X260342261Y-29838095D01*
X260294642Y-29790476D01*
X260389880Y-31361904D02*
X260389880Y-30790476D01*
X260389880Y-31076190D02*
X259389880Y-31076190D01*
X259532738Y-30980952D01*
X259627976Y-30885714D01*
X259675595Y-30790476D01*
X241339880Y-28948214D02*
X240339880Y-28948214D01*
X240339880Y-29186309D01*
X240387500Y-29329166D01*
X240482738Y-29424404D01*
X240577976Y-29472023D01*
X240768452Y-29519642D01*
X240911309Y-29519642D01*
X241101785Y-29472023D01*
X241197023Y-29424404D01*
X241292261Y-29329166D01*
X241339880Y-29186309D01*
X241339880Y-28948214D01*
X240339880Y-29852976D02*
X240339880Y-30472023D01*
X240720833Y-30138690D01*
X240720833Y-30281547D01*
X240768452Y-30376785D01*
X240816071Y-30424404D01*
X240911309Y-30472023D01*
X241149404Y-30472023D01*
X241244642Y-30424404D01*
X241292261Y-30376785D01*
X241339880Y-30281547D01*
X241339880Y-29995833D01*
X241292261Y-29900595D01*
X241244642Y-29852976D01*
X240339880Y-31091071D02*
X240339880Y-31186309D01*
X240387500Y-31281547D01*
X240435119Y-31329166D01*
X240530357Y-31376785D01*
X240720833Y-31424404D01*
X240958928Y-31424404D01*
X241149404Y-31376785D01*
X241244642Y-31329166D01*
X241292261Y-31281547D01*
X241339880Y-31186309D01*
X241339880Y-31091071D01*
X241292261Y-30995833D01*
X241244642Y-30948214D01*
X241149404Y-30900595D01*
X240958928Y-30852976D01*
X240720833Y-30852976D01*
X240530357Y-30900595D01*
X240435119Y-30948214D01*
X240387500Y-30995833D01*
X240339880Y-31091071D01*
X222289880Y-28885714D02*
X221289880Y-28885714D01*
X221289880Y-29123809D01*
X221337500Y-29266666D01*
X221432738Y-29361904D01*
X221527976Y-29409523D01*
X221718452Y-29457142D01*
X221861309Y-29457142D01*
X222051785Y-29409523D01*
X222147023Y-29361904D01*
X222242261Y-29266666D01*
X222289880Y-29123809D01*
X222289880Y-28885714D01*
X221385119Y-29838095D02*
X221337500Y-29885714D01*
X221289880Y-29980952D01*
X221289880Y-30219047D01*
X221337500Y-30314285D01*
X221385119Y-30361904D01*
X221480357Y-30409523D01*
X221575595Y-30409523D01*
X221718452Y-30361904D01*
X222289880Y-29790476D01*
X222289880Y-30409523D01*
X222289880Y-30885714D02*
X222289880Y-31076190D01*
X222242261Y-31171428D01*
X222194642Y-31219047D01*
X222051785Y-31314285D01*
X221861309Y-31361904D01*
X221480357Y-31361904D01*
X221385119Y-31314285D01*
X221337500Y-31266666D01*
X221289880Y-31171428D01*
X221289880Y-30980952D01*
X221337500Y-30885714D01*
X221385119Y-30838095D01*
X221480357Y-30790476D01*
X221718452Y-30790476D01*
X221813690Y-30838095D01*
X221861309Y-30885714D01*
X221908928Y-30980952D01*
X221908928Y-31171428D01*
X221861309Y-31266666D01*
X221813690Y-31314285D01*
X221718452Y-31361904D01*
X203239880Y-28885714D02*
X202239880Y-28885714D01*
X202239880Y-29123809D01*
X202287500Y-29266666D01*
X202382738Y-29361904D01*
X202477976Y-29409523D01*
X202668452Y-29457142D01*
X202811309Y-29457142D01*
X203001785Y-29409523D01*
X203097023Y-29361904D01*
X203192261Y-29266666D01*
X203239880Y-29123809D01*
X203239880Y-28885714D01*
X202335119Y-29838095D02*
X202287500Y-29885714D01*
X202239880Y-29980952D01*
X202239880Y-30219047D01*
X202287500Y-30314285D01*
X202335119Y-30361904D01*
X202430357Y-30409523D01*
X202525595Y-30409523D01*
X202668452Y-30361904D01*
X203239880Y-29790476D01*
X203239880Y-30409523D01*
X202668452Y-30980952D02*
X202620833Y-30885714D01*
X202573214Y-30838095D01*
X202477976Y-30790476D01*
X202430357Y-30790476D01*
X202335119Y-30838095D01*
X202287500Y-30885714D01*
X202239880Y-30980952D01*
X202239880Y-31171428D01*
X202287500Y-31266666D01*
X202335119Y-31314285D01*
X202430357Y-31361904D01*
X202477976Y-31361904D01*
X202573214Y-31314285D01*
X202620833Y-31266666D01*
X202668452Y-31171428D01*
X202668452Y-30980952D01*
X202716071Y-30885714D01*
X202763690Y-30838095D01*
X202858928Y-30790476D01*
X203049404Y-30790476D01*
X203144642Y-30838095D01*
X203192261Y-30885714D01*
X203239880Y-30980952D01*
X203239880Y-31171428D01*
X203192261Y-31266666D01*
X203144642Y-31314285D01*
X203049404Y-31361904D01*
X202858928Y-31361904D01*
X202763690Y-31314285D01*
X202716071Y-31266666D01*
X202668452Y-31171428D01*
X184189880Y-28885714D02*
X183189880Y-28885714D01*
X183189880Y-29123809D01*
X183237500Y-29266666D01*
X183332738Y-29361904D01*
X183427976Y-29409523D01*
X183618452Y-29457142D01*
X183761309Y-29457142D01*
X183951785Y-29409523D01*
X184047023Y-29361904D01*
X184142261Y-29266666D01*
X184189880Y-29123809D01*
X184189880Y-28885714D01*
X183285119Y-29838095D02*
X183237500Y-29885714D01*
X183189880Y-29980952D01*
X183189880Y-30219047D01*
X183237500Y-30314285D01*
X183285119Y-30361904D01*
X183380357Y-30409523D01*
X183475595Y-30409523D01*
X183618452Y-30361904D01*
X184189880Y-29790476D01*
X184189880Y-30409523D01*
X183189880Y-30742857D02*
X183189880Y-31409523D01*
X184189880Y-30980952D01*
X165139880Y-28948214D02*
X164139880Y-28948214D01*
X164139880Y-29186309D01*
X164187500Y-29329166D01*
X164282738Y-29424404D01*
X164377976Y-29472023D01*
X164568452Y-29519642D01*
X164711309Y-29519642D01*
X164901785Y-29472023D01*
X164997023Y-29424404D01*
X165092261Y-29329166D01*
X165139880Y-29186309D01*
X165139880Y-28948214D01*
X164235119Y-29900595D02*
X164187500Y-29948214D01*
X164139880Y-30043452D01*
X164139880Y-30281547D01*
X164187500Y-30376785D01*
X164235119Y-30424404D01*
X164330357Y-30472023D01*
X164425595Y-30472023D01*
X164568452Y-30424404D01*
X165139880Y-29852976D01*
X165139880Y-30472023D01*
X164139880Y-31329166D02*
X164139880Y-31138690D01*
X164187500Y-31043452D01*
X164235119Y-30995833D01*
X164377976Y-30900595D01*
X164568452Y-30852976D01*
X164949404Y-30852976D01*
X165044642Y-30900595D01*
X165092261Y-30948214D01*
X165139880Y-31043452D01*
X165139880Y-31233928D01*
X165092261Y-31329166D01*
X165044642Y-31376785D01*
X164949404Y-31424404D01*
X164711309Y-31424404D01*
X164616071Y-31376785D01*
X164568452Y-31329166D01*
X164520833Y-31233928D01*
X164520833Y-31043452D01*
X164568452Y-30948214D01*
X164616071Y-30900595D01*
X164711309Y-30852976D01*
X346114880Y-9835714D02*
X345114880Y-9835714D01*
X345114880Y-10073809D01*
X345162500Y-10216666D01*
X345257738Y-10311904D01*
X345352976Y-10359523D01*
X345543452Y-10407142D01*
X345686309Y-10407142D01*
X345876785Y-10359523D01*
X345972023Y-10311904D01*
X346067261Y-10216666D01*
X346114880Y-10073809D01*
X346114880Y-9835714D01*
X345210119Y-10788095D02*
X345162500Y-10835714D01*
X345114880Y-10930952D01*
X345114880Y-11169047D01*
X345162500Y-11264285D01*
X345210119Y-11311904D01*
X345305357Y-11359523D01*
X345400595Y-11359523D01*
X345543452Y-11311904D01*
X346114880Y-10740476D01*
X346114880Y-11359523D01*
X345114880Y-12264285D02*
X345114880Y-11788095D01*
X345591071Y-11740476D01*
X345543452Y-11788095D01*
X345495833Y-11883333D01*
X345495833Y-12121428D01*
X345543452Y-12216666D01*
X345591071Y-12264285D01*
X345686309Y-12311904D01*
X345924404Y-12311904D01*
X346019642Y-12264285D01*
X346067261Y-12216666D01*
X346114880Y-12121428D01*
X346114880Y-11883333D01*
X346067261Y-11788095D01*
X346019642Y-11740476D01*
X327064880Y-9835714D02*
X326064880Y-9835714D01*
X326064880Y-10073809D01*
X326112500Y-10216666D01*
X326207738Y-10311904D01*
X326302976Y-10359523D01*
X326493452Y-10407142D01*
X326636309Y-10407142D01*
X326826785Y-10359523D01*
X326922023Y-10311904D01*
X327017261Y-10216666D01*
X327064880Y-10073809D01*
X327064880Y-9835714D01*
X326160119Y-10788095D02*
X326112500Y-10835714D01*
X326064880Y-10930952D01*
X326064880Y-11169047D01*
X326112500Y-11264285D01*
X326160119Y-11311904D01*
X326255357Y-11359523D01*
X326350595Y-11359523D01*
X326493452Y-11311904D01*
X327064880Y-10740476D01*
X327064880Y-11359523D01*
X326398214Y-12216666D02*
X327064880Y-12216666D01*
X326017261Y-11978571D02*
X326731547Y-11740476D01*
X326731547Y-12359523D01*
X308014880Y-9898214D02*
X307014880Y-9898214D01*
X307014880Y-10136309D01*
X307062500Y-10279166D01*
X307157738Y-10374404D01*
X307252976Y-10422023D01*
X307443452Y-10469642D01*
X307586309Y-10469642D01*
X307776785Y-10422023D01*
X307872023Y-10374404D01*
X307967261Y-10279166D01*
X308014880Y-10136309D01*
X308014880Y-9898214D01*
X307110119Y-10850595D02*
X307062500Y-10898214D01*
X307014880Y-10993452D01*
X307014880Y-11231547D01*
X307062500Y-11326785D01*
X307110119Y-11374404D01*
X307205357Y-11422023D01*
X307300595Y-11422023D01*
X307443452Y-11374404D01*
X308014880Y-10802976D01*
X308014880Y-11422023D01*
X307014880Y-11755357D02*
X307014880Y-12374404D01*
X307395833Y-12041071D01*
X307395833Y-12183928D01*
X307443452Y-12279166D01*
X307491071Y-12326785D01*
X307586309Y-12374404D01*
X307824404Y-12374404D01*
X307919642Y-12326785D01*
X307967261Y-12279166D01*
X308014880Y-12183928D01*
X308014880Y-11898214D01*
X307967261Y-11802976D01*
X307919642Y-11755357D01*
X288964880Y-9835714D02*
X287964880Y-9835714D01*
X287964880Y-10073809D01*
X288012500Y-10216666D01*
X288107738Y-10311904D01*
X288202976Y-10359523D01*
X288393452Y-10407142D01*
X288536309Y-10407142D01*
X288726785Y-10359523D01*
X288822023Y-10311904D01*
X288917261Y-10216666D01*
X288964880Y-10073809D01*
X288964880Y-9835714D01*
X288060119Y-10788095D02*
X288012500Y-10835714D01*
X287964880Y-10930952D01*
X287964880Y-11169047D01*
X288012500Y-11264285D01*
X288060119Y-11311904D01*
X288155357Y-11359523D01*
X288250595Y-11359523D01*
X288393452Y-11311904D01*
X288964880Y-10740476D01*
X288964880Y-11359523D01*
X288060119Y-11740476D02*
X288012500Y-11788095D01*
X287964880Y-11883333D01*
X287964880Y-12121428D01*
X288012500Y-12216666D01*
X288060119Y-12264285D01*
X288155357Y-12311904D01*
X288250595Y-12311904D01*
X288393452Y-12264285D01*
X288964880Y-11692857D01*
X288964880Y-12311904D01*
X269914880Y-9835714D02*
X268914880Y-9835714D01*
X268914880Y-10073809D01*
X268962500Y-10216666D01*
X269057738Y-10311904D01*
X269152976Y-10359523D01*
X269343452Y-10407142D01*
X269486309Y-10407142D01*
X269676785Y-10359523D01*
X269772023Y-10311904D01*
X269867261Y-10216666D01*
X269914880Y-10073809D01*
X269914880Y-9835714D01*
X269010119Y-10788095D02*
X268962500Y-10835714D01*
X268914880Y-10930952D01*
X268914880Y-11169047D01*
X268962500Y-11264285D01*
X269010119Y-11311904D01*
X269105357Y-11359523D01*
X269200595Y-11359523D01*
X269343452Y-11311904D01*
X269914880Y-10740476D01*
X269914880Y-11359523D01*
X269914880Y-12311904D02*
X269914880Y-11740476D01*
X269914880Y-12026190D02*
X268914880Y-12026190D01*
X269057738Y-11930952D01*
X269152976Y-11835714D01*
X269200595Y-11740476D01*
X250864880Y-9898214D02*
X249864880Y-9898214D01*
X249864880Y-10136309D01*
X249912500Y-10279166D01*
X250007738Y-10374404D01*
X250102976Y-10422023D01*
X250293452Y-10469642D01*
X250436309Y-10469642D01*
X250626785Y-10422023D01*
X250722023Y-10374404D01*
X250817261Y-10279166D01*
X250864880Y-10136309D01*
X250864880Y-9898214D01*
X249960119Y-10850595D02*
X249912500Y-10898214D01*
X249864880Y-10993452D01*
X249864880Y-11231547D01*
X249912500Y-11326785D01*
X249960119Y-11374404D01*
X250055357Y-11422023D01*
X250150595Y-11422023D01*
X250293452Y-11374404D01*
X250864880Y-10802976D01*
X250864880Y-11422023D01*
X249864880Y-12041071D02*
X249864880Y-12136309D01*
X249912500Y-12231547D01*
X249960119Y-12279166D01*
X250055357Y-12326785D01*
X250245833Y-12374404D01*
X250483928Y-12374404D01*
X250674404Y-12326785D01*
X250769642Y-12279166D01*
X250817261Y-12231547D01*
X250864880Y-12136309D01*
X250864880Y-12041071D01*
X250817261Y-11945833D01*
X250769642Y-11898214D01*
X250674404Y-11850595D01*
X250483928Y-11802976D01*
X250245833Y-11802976D01*
X250055357Y-11850595D01*
X249960119Y-11898214D01*
X249912500Y-11945833D01*
X249864880Y-12041071D01*
X231814880Y-9898214D02*
X230814880Y-9898214D01*
X230814880Y-10136309D01*
X230862500Y-10279166D01*
X230957738Y-10374404D01*
X231052976Y-10422023D01*
X231243452Y-10469642D01*
X231386309Y-10469642D01*
X231576785Y-10422023D01*
X231672023Y-10374404D01*
X231767261Y-10279166D01*
X231814880Y-10136309D01*
X231814880Y-9898214D01*
X231814880Y-11422023D02*
X231814880Y-10850595D01*
X231814880Y-11136309D02*
X230814880Y-11136309D01*
X230957738Y-11041071D01*
X231052976Y-10945833D01*
X231100595Y-10850595D01*
X231814880Y-11898214D02*
X231814880Y-12088690D01*
X231767261Y-12183928D01*
X231719642Y-12231547D01*
X231576785Y-12326785D01*
X231386309Y-12374404D01*
X231005357Y-12374404D01*
X230910119Y-12326785D01*
X230862500Y-12279166D01*
X230814880Y-12183928D01*
X230814880Y-11993452D01*
X230862500Y-11898214D01*
X230910119Y-11850595D01*
X231005357Y-11802976D01*
X231243452Y-11802976D01*
X231338690Y-11850595D01*
X231386309Y-11898214D01*
X231433928Y-11993452D01*
X231433928Y-12183928D01*
X231386309Y-12279166D01*
X231338690Y-12326785D01*
X231243452Y-12374404D01*
X212764880Y-9898214D02*
X211764880Y-9898214D01*
X211764880Y-10136309D01*
X211812500Y-10279166D01*
X211907738Y-10374404D01*
X212002976Y-10422023D01*
X212193452Y-10469642D01*
X212336309Y-10469642D01*
X212526785Y-10422023D01*
X212622023Y-10374404D01*
X212717261Y-10279166D01*
X212764880Y-10136309D01*
X212764880Y-9898214D01*
X212764880Y-11422023D02*
X212764880Y-10850595D01*
X212764880Y-11136309D02*
X211764880Y-11136309D01*
X211907738Y-11041071D01*
X212002976Y-10945833D01*
X212050595Y-10850595D01*
X212193452Y-11993452D02*
X212145833Y-11898214D01*
X212098214Y-11850595D01*
X212002976Y-11802976D01*
X211955357Y-11802976D01*
X211860119Y-11850595D01*
X211812500Y-11898214D01*
X211764880Y-11993452D01*
X211764880Y-12183928D01*
X211812500Y-12279166D01*
X211860119Y-12326785D01*
X211955357Y-12374404D01*
X212002976Y-12374404D01*
X212098214Y-12326785D01*
X212145833Y-12279166D01*
X212193452Y-12183928D01*
X212193452Y-11993452D01*
X212241071Y-11898214D01*
X212288690Y-11850595D01*
X212383928Y-11802976D01*
X212574404Y-11802976D01*
X212669642Y-11850595D01*
X212717261Y-11898214D01*
X212764880Y-11993452D01*
X212764880Y-12183928D01*
X212717261Y-12279166D01*
X212669642Y-12326785D01*
X212574404Y-12374404D01*
X212383928Y-12374404D01*
X212288690Y-12326785D01*
X212241071Y-12279166D01*
X212193452Y-12183928D01*
X193714880Y-9835714D02*
X192714880Y-9835714D01*
X192714880Y-10073809D01*
X192762500Y-10216666D01*
X192857738Y-10311904D01*
X192952976Y-10359523D01*
X193143452Y-10407142D01*
X193286309Y-10407142D01*
X193476785Y-10359523D01*
X193572023Y-10311904D01*
X193667261Y-10216666D01*
X193714880Y-10073809D01*
X193714880Y-9835714D01*
X193714880Y-11359523D02*
X193714880Y-10788095D01*
X193714880Y-11073809D02*
X192714880Y-11073809D01*
X192857738Y-10978571D01*
X192952976Y-10883333D01*
X193000595Y-10788095D01*
X192714880Y-11692857D02*
X192714880Y-12359523D01*
X193714880Y-11930952D01*
X174664880Y-9898214D02*
X173664880Y-9898214D01*
X173664880Y-10136309D01*
X173712500Y-10279166D01*
X173807738Y-10374404D01*
X173902976Y-10422023D01*
X174093452Y-10469642D01*
X174236309Y-10469642D01*
X174426785Y-10422023D01*
X174522023Y-10374404D01*
X174617261Y-10279166D01*
X174664880Y-10136309D01*
X174664880Y-9898214D01*
X174664880Y-11422023D02*
X174664880Y-10850595D01*
X174664880Y-11136309D02*
X173664880Y-11136309D01*
X173807738Y-11041071D01*
X173902976Y-10945833D01*
X173950595Y-10850595D01*
X173664880Y-12279166D02*
X173664880Y-12088690D01*
X173712500Y-11993452D01*
X173760119Y-11945833D01*
X173902976Y-11850595D01*
X174093452Y-11802976D01*
X174474404Y-11802976D01*
X174569642Y-11850595D01*
X174617261Y-11898214D01*
X174664880Y-11993452D01*
X174664880Y-12183928D01*
X174617261Y-12279166D01*
X174569642Y-12326785D01*
X174474404Y-12374404D01*
X174236309Y-12374404D01*
X174141071Y-12326785D01*
X174093452Y-12279166D01*
X174045833Y-12183928D01*
X174045833Y-11993452D01*
X174093452Y-11898214D01*
X174141071Y-11850595D01*
X174236309Y-11802976D01*
X155614880Y-9835714D02*
X154614880Y-9835714D01*
X154614880Y-10073809D01*
X154662500Y-10216666D01*
X154757738Y-10311904D01*
X154852976Y-10359523D01*
X155043452Y-10407142D01*
X155186309Y-10407142D01*
X155376785Y-10359523D01*
X155472023Y-10311904D01*
X155567261Y-10216666D01*
X155614880Y-10073809D01*
X155614880Y-9835714D01*
X155614880Y-11359523D02*
X155614880Y-10788095D01*
X155614880Y-11073809D02*
X154614880Y-11073809D01*
X154757738Y-10978571D01*
X154852976Y-10883333D01*
X154900595Y-10788095D01*
X154614880Y-12264285D02*
X154614880Y-11788095D01*
X155091071Y-11740476D01*
X155043452Y-11788095D01*
X154995833Y-11883333D01*
X154995833Y-12121428D01*
X155043452Y-12216666D01*
X155091071Y-12264285D01*
X155186309Y-12311904D01*
X155424404Y-12311904D01*
X155519642Y-12264285D01*
X155567261Y-12216666D01*
X155614880Y-12121428D01*
X155614880Y-11883333D01*
X155567261Y-11788095D01*
X155519642Y-11740476D01*
X336589880Y9151785D02*
X335589880Y9151785D01*
X335589880Y8913690D01*
X335637500Y8770833D01*
X335732738Y8675595D01*
X335827976Y8627976D01*
X336018452Y8580357D01*
X336161309Y8580357D01*
X336351785Y8627976D01*
X336447023Y8675595D01*
X336542261Y8770833D01*
X336589880Y8913690D01*
X336589880Y9151785D01*
X336589880Y7627976D02*
X336589880Y8199404D01*
X336589880Y7913690D02*
X335589880Y7913690D01*
X335732738Y8008928D01*
X335827976Y8104166D01*
X335875595Y8199404D01*
X335923214Y6770833D02*
X336589880Y6770833D01*
X335542261Y7008928D02*
X336256547Y7247023D01*
X336256547Y6627976D01*
X317539880Y9214285D02*
X316539880Y9214285D01*
X316539880Y8976190D01*
X316587500Y8833333D01*
X316682738Y8738095D01*
X316777976Y8690476D01*
X316968452Y8642857D01*
X317111309Y8642857D01*
X317301785Y8690476D01*
X317397023Y8738095D01*
X317492261Y8833333D01*
X317539880Y8976190D01*
X317539880Y9214285D01*
X317539880Y7690476D02*
X317539880Y8261904D01*
X317539880Y7976190D02*
X316539880Y7976190D01*
X316682738Y8071428D01*
X316777976Y8166666D01*
X316825595Y8261904D01*
X316539880Y7357142D02*
X316539880Y6738095D01*
X316920833Y7071428D01*
X316920833Y6928571D01*
X316968452Y6833333D01*
X317016071Y6785714D01*
X317111309Y6738095D01*
X317349404Y6738095D01*
X317444642Y6785714D01*
X317492261Y6833333D01*
X317539880Y6928571D01*
X317539880Y7214285D01*
X317492261Y7309523D01*
X317444642Y7357142D01*
X298489880Y9214285D02*
X297489880Y9214285D01*
X297489880Y8976190D01*
X297537500Y8833333D01*
X297632738Y8738095D01*
X297727976Y8690476D01*
X297918452Y8642857D01*
X298061309Y8642857D01*
X298251785Y8690476D01*
X298347023Y8738095D01*
X298442261Y8833333D01*
X298489880Y8976190D01*
X298489880Y9214285D01*
X298489880Y7690476D02*
X298489880Y8261904D01*
X298489880Y7976190D02*
X297489880Y7976190D01*
X297632738Y8071428D01*
X297727976Y8166666D01*
X297775595Y8261904D01*
X297585119Y7309523D02*
X297537500Y7261904D01*
X297489880Y7166666D01*
X297489880Y6928571D01*
X297537500Y6833333D01*
X297585119Y6785714D01*
X297680357Y6738095D01*
X297775595Y6738095D01*
X297918452Y6785714D01*
X298489880Y7357142D01*
X298489880Y6738095D01*
X279439880Y9214285D02*
X278439880Y9214285D01*
X278439880Y8976190D01*
X278487500Y8833333D01*
X278582738Y8738095D01*
X278677976Y8690476D01*
X278868452Y8642857D01*
X279011309Y8642857D01*
X279201785Y8690476D01*
X279297023Y8738095D01*
X279392261Y8833333D01*
X279439880Y8976190D01*
X279439880Y9214285D01*
X279439880Y7690476D02*
X279439880Y8261904D01*
X279439880Y7976190D02*
X278439880Y7976190D01*
X278582738Y8071428D01*
X278677976Y8166666D01*
X278725595Y8261904D01*
X279439880Y6738095D02*
X279439880Y7309523D01*
X279439880Y7023809D02*
X278439880Y7023809D01*
X278582738Y7119047D01*
X278677976Y7214285D01*
X278725595Y7309523D01*
X260389880Y9214285D02*
X259389880Y9214285D01*
X259389880Y8976190D01*
X259437500Y8833333D01*
X259532738Y8738095D01*
X259627976Y8690476D01*
X259818452Y8642857D01*
X259961309Y8642857D01*
X260151785Y8690476D01*
X260247023Y8738095D01*
X260342261Y8833333D01*
X260389880Y8976190D01*
X260389880Y9214285D01*
X260389880Y7690476D02*
X260389880Y8261904D01*
X260389880Y7976190D02*
X259389880Y7976190D01*
X259532738Y8071428D01*
X259627976Y8166666D01*
X259675595Y8261904D01*
X259389880Y7071428D02*
X259389880Y6976190D01*
X259437500Y6880952D01*
X259485119Y6833333D01*
X259580357Y6785714D01*
X259770833Y6738095D01*
X260008928Y6738095D01*
X260199404Y6785714D01*
X260294642Y6833333D01*
X260342261Y6880952D01*
X260389880Y6976190D01*
X260389880Y7071428D01*
X260342261Y7166666D01*
X260294642Y7214285D01*
X260199404Y7261904D01*
X260008928Y7309523D01*
X259770833Y7309523D01*
X259580357Y7261904D01*
X259485119Y7214285D01*
X259437500Y7166666D01*
X259389880Y7071428D01*
X241339880Y8738095D02*
X240339880Y8738095D01*
X240339880Y8500000D01*
X240387500Y8357142D01*
X240482738Y8261904D01*
X240577976Y8214285D01*
X240768452Y8166666D01*
X240911309Y8166666D01*
X241101785Y8214285D01*
X241197023Y8261904D01*
X241292261Y8357142D01*
X241339880Y8500000D01*
X241339880Y8738095D01*
X241339880Y7690476D02*
X241339880Y7500000D01*
X241292261Y7404761D01*
X241244642Y7357142D01*
X241101785Y7261904D01*
X240911309Y7214285D01*
X240530357Y7214285D01*
X240435119Y7261904D01*
X240387500Y7309523D01*
X240339880Y7404761D01*
X240339880Y7595238D01*
X240387500Y7690476D01*
X240435119Y7738095D01*
X240530357Y7785714D01*
X240768452Y7785714D01*
X240863690Y7738095D01*
X240911309Y7690476D01*
X240958928Y7595238D01*
X240958928Y7404761D01*
X240911309Y7309523D01*
X240863690Y7261904D01*
X240768452Y7214285D01*
X222289880Y8675595D02*
X221289880Y8675595D01*
X221289880Y8437500D01*
X221337500Y8294642D01*
X221432738Y8199404D01*
X221527976Y8151785D01*
X221718452Y8104166D01*
X221861309Y8104166D01*
X222051785Y8151785D01*
X222147023Y8199404D01*
X222242261Y8294642D01*
X222289880Y8437500D01*
X222289880Y8675595D01*
X221718452Y7532738D02*
X221670833Y7627976D01*
X221623214Y7675595D01*
X221527976Y7723214D01*
X221480357Y7723214D01*
X221385119Y7675595D01*
X221337500Y7627976D01*
X221289880Y7532738D01*
X221289880Y7342261D01*
X221337500Y7247023D01*
X221385119Y7199404D01*
X221480357Y7151785D01*
X221527976Y7151785D01*
X221623214Y7199404D01*
X221670833Y7247023D01*
X221718452Y7342261D01*
X221718452Y7532738D01*
X221766071Y7627976D01*
X221813690Y7675595D01*
X221908928Y7723214D01*
X222099404Y7723214D01*
X222194642Y7675595D01*
X222242261Y7627976D01*
X222289880Y7532738D01*
X222289880Y7342261D01*
X222242261Y7247023D01*
X222194642Y7199404D01*
X222099404Y7151785D01*
X221908928Y7151785D01*
X221813690Y7199404D01*
X221766071Y7247023D01*
X221718452Y7342261D01*
X203239880Y8738095D02*
X202239880Y8738095D01*
X202239880Y8500000D01*
X202287500Y8357142D01*
X202382738Y8261904D01*
X202477976Y8214285D01*
X202668452Y8166666D01*
X202811309Y8166666D01*
X203001785Y8214285D01*
X203097023Y8261904D01*
X203192261Y8357142D01*
X203239880Y8500000D01*
X203239880Y8738095D01*
X202239880Y7833333D02*
X202239880Y7166666D01*
X203239880Y7595238D01*
X184189880Y8675595D02*
X183189880Y8675595D01*
X183189880Y8437500D01*
X183237500Y8294642D01*
X183332738Y8199404D01*
X183427976Y8151785D01*
X183618452Y8104166D01*
X183761309Y8104166D01*
X183951785Y8151785D01*
X184047023Y8199404D01*
X184142261Y8294642D01*
X184189880Y8437500D01*
X184189880Y8675595D01*
X183189880Y7247023D02*
X183189880Y7437500D01*
X183237500Y7532738D01*
X183285119Y7580357D01*
X183427976Y7675595D01*
X183618452Y7723214D01*
X183999404Y7723214D01*
X184094642Y7675595D01*
X184142261Y7627976D01*
X184189880Y7532738D01*
X184189880Y7342261D01*
X184142261Y7247023D01*
X184094642Y7199404D01*
X183999404Y7151785D01*
X183761309Y7151785D01*
X183666071Y7199404D01*
X183618452Y7247023D01*
X183570833Y7342261D01*
X183570833Y7532738D01*
X183618452Y7627976D01*
X183666071Y7675595D01*
X183761309Y7723214D01*
X165139880Y8738095D02*
X164139880Y8738095D01*
X164139880Y8500000D01*
X164187500Y8357142D01*
X164282738Y8261904D01*
X164377976Y8214285D01*
X164568452Y8166666D01*
X164711309Y8166666D01*
X164901785Y8214285D01*
X164997023Y8261904D01*
X165092261Y8357142D01*
X165139880Y8500000D01*
X165139880Y8738095D01*
X164139880Y7261904D02*
X164139880Y7738095D01*
X164616071Y7785714D01*
X164568452Y7738095D01*
X164520833Y7642857D01*
X164520833Y7404761D01*
X164568452Y7309523D01*
X164616071Y7261904D01*
X164711309Y7214285D01*
X164949404Y7214285D01*
X165044642Y7261904D01*
X165092261Y7309523D01*
X165139880Y7404761D01*
X165139880Y7642857D01*
X165092261Y7738095D01*
X165044642Y7785714D01*
X165410919Y-56627608D02*
X165478263Y-56627608D01*
X165612950Y-56560264D01*
X165680293Y-56492921D01*
X165747637Y-56358234D01*
X165747637Y-56223547D01*
X165713965Y-56122532D01*
X165612950Y-55954173D01*
X165511935Y-55853158D01*
X165343576Y-55752142D01*
X165242561Y-55718471D01*
X165107874Y-55718471D01*
X164973187Y-55785814D01*
X164905843Y-55853158D01*
X164838500Y-55987845D01*
X164838500Y-56055188D01*
X164804828Y-57368387D02*
X165208889Y-56964326D01*
X165006858Y-57166356D02*
X164299751Y-56459249D01*
X164468110Y-56492921D01*
X164602797Y-56492921D01*
X164703813Y-56459249D01*
X164131393Y-58041822D02*
X164535454Y-57637761D01*
X164333423Y-57839791D02*
X163626316Y-57132684D01*
X163794675Y-57166356D01*
X163929362Y-57166356D01*
X164030377Y-57132684D01*
X162403293Y-39968330D02*
X162470637Y-39968330D01*
X162605324Y-39900986D01*
X162672667Y-39833643D01*
X162740011Y-39698956D01*
X162740011Y-39564269D01*
X162706339Y-39463254D01*
X162605324Y-39294895D01*
X162504309Y-39193880D01*
X162335950Y-39092864D01*
X162234935Y-39059193D01*
X162100248Y-39059193D01*
X161965561Y-39126536D01*
X161898217Y-39193880D01*
X161830874Y-39328567D01*
X161830874Y-39395910D01*
X161797202Y-40709109D02*
X162201263Y-40305048D01*
X161999232Y-40507078D02*
X161292125Y-39799971D01*
X161460484Y-39833643D01*
X161595171Y-39833643D01*
X161696187Y-39799971D01*
X160652362Y-40439735D02*
X160585019Y-40507078D01*
X160551347Y-40608093D01*
X160551347Y-40675437D01*
X160585019Y-40776452D01*
X160686034Y-40944811D01*
X160854393Y-41113170D01*
X161022751Y-41214185D01*
X161123767Y-41247857D01*
X161191110Y-41247857D01*
X161292125Y-41214185D01*
X161359469Y-41146841D01*
X161393141Y-41045826D01*
X161393141Y-40978483D01*
X161359469Y-40877467D01*
X161258454Y-40709109D01*
X161090095Y-40540750D01*
X160921736Y-40439735D01*
X160820721Y-40406063D01*
X160753377Y-40406063D01*
X160652362Y-40439735D01*
X163694951Y-36466576D02*
X163694951Y-36533919D01*
X163762295Y-36668606D01*
X163829639Y-36735950D01*
X163964326Y-36803293D01*
X164099013Y-36803293D01*
X164200028Y-36769622D01*
X164368387Y-36668606D01*
X164469402Y-36567591D01*
X164570417Y-36399232D01*
X164604089Y-36298217D01*
X164604089Y-36163530D01*
X164536745Y-36028843D01*
X164469402Y-35961499D01*
X164334715Y-35894156D01*
X164267371Y-35894156D01*
X163290890Y-36197202D02*
X163156203Y-36062515D01*
X163122532Y-35961499D01*
X163122532Y-35894156D01*
X163156203Y-35725797D01*
X163257219Y-35557438D01*
X163526593Y-35288064D01*
X163627608Y-35254393D01*
X163694951Y-35254393D01*
X163795967Y-35288064D01*
X163930654Y-35422751D01*
X163964326Y-35523767D01*
X163964326Y-35591110D01*
X163930654Y-35692125D01*
X163762295Y-35860484D01*
X163661280Y-35894156D01*
X163593936Y-35894156D01*
X163492921Y-35860484D01*
X163358234Y-35725797D01*
X163324562Y-35624782D01*
X163324562Y-35557438D01*
X163358234Y-35456423D01*
X176540750Y-49830874D02*
X176608093Y-49830874D01*
X176742780Y-49763530D01*
X176810124Y-49696187D01*
X176877467Y-49561499D01*
X176877467Y-49426812D01*
X176843796Y-49325797D01*
X176742780Y-49157438D01*
X176641765Y-49056423D01*
X176473406Y-48955408D01*
X176372391Y-48921736D01*
X176237704Y-48921736D01*
X176103017Y-48989080D01*
X176035673Y-49056423D01*
X175968330Y-49191110D01*
X175968330Y-49258454D01*
X175799971Y-49898217D02*
X175833643Y-49797202D01*
X175833643Y-49729858D01*
X175799971Y-49628843D01*
X175766299Y-49595171D01*
X175665284Y-49561499D01*
X175597941Y-49561499D01*
X175496925Y-49595171D01*
X175362238Y-49729858D01*
X175328567Y-49830874D01*
X175328567Y-49898217D01*
X175362238Y-49999232D01*
X175395910Y-50032904D01*
X175496925Y-50066576D01*
X175564269Y-50066576D01*
X175665284Y-50032904D01*
X175799971Y-49898217D01*
X175900986Y-49864545D01*
X175968330Y-49864545D01*
X176069345Y-49898217D01*
X176204032Y-50032904D01*
X176237704Y-50133919D01*
X176237704Y-50201263D01*
X176204032Y-50302278D01*
X176069345Y-50436965D01*
X175968330Y-50470637D01*
X175900986Y-50470637D01*
X175799971Y-50436965D01*
X175665284Y-50302278D01*
X175631612Y-50201263D01*
X175631612Y-50133919D01*
X175665284Y-50032904D01*
X161066576Y-52905048D02*
X161133919Y-52905048D01*
X161268606Y-52837704D01*
X161335950Y-52770361D01*
X161403293Y-52635673D01*
X161403293Y-52500986D01*
X161369622Y-52399971D01*
X161268606Y-52231612D01*
X161167591Y-52130597D01*
X160999232Y-52029582D01*
X160898217Y-51995910D01*
X160763530Y-51995910D01*
X160628843Y-52063254D01*
X160561499Y-52130597D01*
X160494156Y-52265284D01*
X160494156Y-52332628D01*
X160191110Y-52500986D02*
X159719706Y-52972391D01*
X160729858Y-53376452D01*
X172674202Y-58564326D02*
X172741545Y-58564326D01*
X172876232Y-58496982D01*
X172943576Y-58429639D01*
X173010919Y-58294951D01*
X173010919Y-58160264D01*
X172977248Y-58059249D01*
X172876232Y-57890890D01*
X172775217Y-57789875D01*
X172606858Y-57688860D01*
X172505843Y-57655188D01*
X172371156Y-57655188D01*
X172236469Y-57722532D01*
X172169125Y-57789875D01*
X172101782Y-57924562D01*
X172101782Y-57991906D01*
X171428347Y-58530654D02*
X171563034Y-58395967D01*
X171664049Y-58362295D01*
X171731393Y-58362295D01*
X171899751Y-58395967D01*
X172068110Y-58496982D01*
X172337484Y-58766356D01*
X172371156Y-58867371D01*
X172371156Y-58934715D01*
X172337484Y-59035730D01*
X172202797Y-59170417D01*
X172101782Y-59204089D01*
X172034438Y-59204089D01*
X171933423Y-59170417D01*
X171765064Y-59002058D01*
X171731393Y-58901043D01*
X171731393Y-58833700D01*
X171765064Y-58732684D01*
X171899751Y-58597997D01*
X172000767Y-58564326D01*
X172068110Y-58564326D01*
X172169125Y-58597997D01*
M02*
