G04 #@! TF.GenerationSoftware,KiCad,Pcbnew,(5.1.5)-3*
G04 #@! TF.CreationDate,2020-09-23T00:09:50-07:00*
G04 #@! TF.ProjectId,keyboard,6b657962-6f61-4726-942e-6b696361645f,rev?*
G04 #@! TF.SameCoordinates,Original*
G04 #@! TF.FileFunction,Paste,Bot*
G04 #@! TF.FilePolarity,Positive*
%FSLAX46Y46*%
G04 Gerber Fmt 4.6, Leading zero omitted, Abs format (unit mm)*
G04 Created by KiCad (PCBNEW (5.1.5)-3) date 2020-09-23 00:09:50*
%MOMM*%
%LPD*%
G04 APERTURE LIST*
%ADD10R,1.200000X0.900000*%
%ADD11C,0.100000*%
%ADD12R,0.300000X2.450000*%
%ADD13R,0.600000X2.450000*%
%ADD14R,1.800000X1.100000*%
G04 APERTURE END LIST*
D10*
X347875000Y11350000D03*
X347875000Y8050000D03*
X149800000Y13325000D03*
X149800000Y10025000D03*
D11*
G36*
X170298326Y-38417873D02*
G01*
X170321987Y-38421383D01*
X170345191Y-38427195D01*
X170367713Y-38435253D01*
X170389337Y-38445481D01*
X170409854Y-38457778D01*
X170429067Y-38472028D01*
X170446791Y-38488092D01*
X170791506Y-38832807D01*
X170807570Y-38850531D01*
X170821820Y-38869744D01*
X170834117Y-38890261D01*
X170844345Y-38911885D01*
X170852403Y-38934407D01*
X170858215Y-38957611D01*
X170861725Y-38981272D01*
X170862899Y-39005164D01*
X170861725Y-39029056D01*
X170858215Y-39052717D01*
X170852403Y-39075921D01*
X170844345Y-39098443D01*
X170834117Y-39120067D01*
X170821820Y-39140584D01*
X170807570Y-39159797D01*
X170791506Y-39177521D01*
X170146271Y-39822756D01*
X170128547Y-39838820D01*
X170109334Y-39853070D01*
X170088817Y-39865367D01*
X170067193Y-39875595D01*
X170044671Y-39883653D01*
X170021467Y-39889465D01*
X169997806Y-39892975D01*
X169973914Y-39894149D01*
X169950022Y-39892975D01*
X169926361Y-39889465D01*
X169903157Y-39883653D01*
X169880635Y-39875595D01*
X169859011Y-39865367D01*
X169838494Y-39853070D01*
X169819281Y-39838820D01*
X169801557Y-39822756D01*
X169456842Y-39478041D01*
X169440778Y-39460317D01*
X169426528Y-39441104D01*
X169414231Y-39420587D01*
X169404003Y-39398963D01*
X169395945Y-39376441D01*
X169390133Y-39353237D01*
X169386623Y-39329576D01*
X169385449Y-39305684D01*
X169386623Y-39281792D01*
X169390133Y-39258131D01*
X169395945Y-39234927D01*
X169404003Y-39212405D01*
X169414231Y-39190781D01*
X169426528Y-39170264D01*
X169440778Y-39151051D01*
X169456842Y-39133327D01*
X170102077Y-38488092D01*
X170119801Y-38472028D01*
X170139014Y-38457778D01*
X170159531Y-38445481D01*
X170181155Y-38435253D01*
X170203677Y-38427195D01*
X170226881Y-38421383D01*
X170250542Y-38417873D01*
X170274434Y-38416699D01*
X170298326Y-38417873D01*
G37*
G36*
X171624152Y-39743699D02*
G01*
X171647813Y-39747209D01*
X171671017Y-39753021D01*
X171693539Y-39761079D01*
X171715163Y-39771307D01*
X171735680Y-39783604D01*
X171754893Y-39797854D01*
X171772617Y-39813918D01*
X172117332Y-40158633D01*
X172133396Y-40176357D01*
X172147646Y-40195570D01*
X172159943Y-40216087D01*
X172170171Y-40237711D01*
X172178229Y-40260233D01*
X172184041Y-40283437D01*
X172187551Y-40307098D01*
X172188725Y-40330990D01*
X172187551Y-40354882D01*
X172184041Y-40378543D01*
X172178229Y-40401747D01*
X172170171Y-40424269D01*
X172159943Y-40445893D01*
X172147646Y-40466410D01*
X172133396Y-40485623D01*
X172117332Y-40503347D01*
X171472097Y-41148582D01*
X171454373Y-41164646D01*
X171435160Y-41178896D01*
X171414643Y-41191193D01*
X171393019Y-41201421D01*
X171370497Y-41209479D01*
X171347293Y-41215291D01*
X171323632Y-41218801D01*
X171299740Y-41219975D01*
X171275848Y-41218801D01*
X171252187Y-41215291D01*
X171228983Y-41209479D01*
X171206461Y-41201421D01*
X171184837Y-41191193D01*
X171164320Y-41178896D01*
X171145107Y-41164646D01*
X171127383Y-41148582D01*
X170782668Y-40803867D01*
X170766604Y-40786143D01*
X170752354Y-40766930D01*
X170740057Y-40746413D01*
X170729829Y-40724789D01*
X170721771Y-40702267D01*
X170715959Y-40679063D01*
X170712449Y-40655402D01*
X170711275Y-40631510D01*
X170712449Y-40607618D01*
X170715959Y-40583957D01*
X170721771Y-40560753D01*
X170729829Y-40538231D01*
X170740057Y-40516607D01*
X170752354Y-40496090D01*
X170766604Y-40476877D01*
X170782668Y-40459153D01*
X171427903Y-39813918D01*
X171445627Y-39797854D01*
X171464840Y-39783604D01*
X171485357Y-39771307D01*
X171506981Y-39761079D01*
X171529503Y-39753021D01*
X171552707Y-39747209D01*
X171576368Y-39743699D01*
X171600260Y-39742525D01*
X171624152Y-39743699D01*
G37*
G36*
X158301903Y-38952512D02*
G01*
X159150431Y-38103984D01*
X160140381Y-39093934D01*
X159291853Y-39942462D01*
X158301903Y-38952512D01*
G37*
G36*
X159857538Y-40508147D02*
G01*
X160706066Y-39659619D01*
X161696016Y-40649569D01*
X160847488Y-41498097D01*
X159857538Y-40508147D01*
G37*
G36*
X161059619Y-39306066D02*
G01*
X161908147Y-38457538D01*
X162898097Y-39447488D01*
X162049569Y-40296016D01*
X161059619Y-39306066D01*
G37*
G36*
X159503984Y-37750431D02*
G01*
X160352512Y-36901903D01*
X161342462Y-37891853D01*
X160493934Y-38740381D01*
X159503984Y-37750431D01*
G37*
D12*
X169440000Y34150000D03*
X169940000Y34150000D03*
X170440000Y34150000D03*
X168940000Y34150000D03*
X170940000Y34150000D03*
X168440000Y34150000D03*
X171440000Y34150000D03*
X167940000Y34150000D03*
D13*
X167240000Y34150000D03*
X172140000Y34150000D03*
X166465000Y34150000D03*
X172915000Y34150000D03*
D11*
G36*
X167062042Y-55983720D02*
G01*
X166673134Y-55594812D01*
X167733794Y-54534152D01*
X168122702Y-54923060D01*
X167062042Y-55983720D01*
G37*
G36*
X166496357Y-55418034D02*
G01*
X166107449Y-55029126D01*
X167168109Y-53968466D01*
X167557017Y-54357374D01*
X166496357Y-55418034D01*
G37*
G36*
X165930672Y-54852349D02*
G01*
X165541764Y-54463441D01*
X166602424Y-53402781D01*
X166991332Y-53791689D01*
X165930672Y-54852349D01*
G37*
G36*
X165364986Y-54286664D02*
G01*
X164976078Y-53897756D01*
X166036738Y-52837096D01*
X166425646Y-53226004D01*
X165364986Y-54286664D01*
G37*
G36*
X164799301Y-53720978D02*
G01*
X164410393Y-53332070D01*
X165471053Y-52271410D01*
X165859961Y-52660318D01*
X164799301Y-53720978D01*
G37*
G36*
X164233615Y-53155293D02*
G01*
X163844707Y-52766385D01*
X164905367Y-51705725D01*
X165294275Y-52094633D01*
X164233615Y-53155293D01*
G37*
G36*
X163667930Y-52589607D02*
G01*
X163279022Y-52200699D01*
X164339682Y-51140039D01*
X164728590Y-51528947D01*
X163667930Y-52589607D01*
G37*
G36*
X163102244Y-52023922D02*
G01*
X162713336Y-51635014D01*
X163773996Y-50574354D01*
X164162904Y-50963262D01*
X163102244Y-52023922D01*
G37*
G36*
X162536559Y-51458236D02*
G01*
X162147651Y-51069328D01*
X163208311Y-50008668D01*
X163597219Y-50397576D01*
X162536559Y-51458236D01*
G37*
G36*
X161970874Y-50892551D02*
G01*
X161581966Y-50503643D01*
X162642626Y-49442983D01*
X163031534Y-49831891D01*
X161970874Y-50892551D01*
G37*
G36*
X161405188Y-50326866D02*
G01*
X161016280Y-49937958D01*
X162076940Y-48877298D01*
X162465848Y-49266206D01*
X161405188Y-50326866D01*
G37*
G36*
X161016280Y-46862042D02*
G01*
X161405188Y-46473134D01*
X162465848Y-47533794D01*
X162076940Y-47922702D01*
X161016280Y-46862042D01*
G37*
G36*
X161581966Y-46296357D02*
G01*
X161970874Y-45907449D01*
X163031534Y-46968109D01*
X162642626Y-47357017D01*
X161581966Y-46296357D01*
G37*
G36*
X162147651Y-45730672D02*
G01*
X162536559Y-45341764D01*
X163597219Y-46402424D01*
X163208311Y-46791332D01*
X162147651Y-45730672D01*
G37*
G36*
X162713336Y-45164986D02*
G01*
X163102244Y-44776078D01*
X164162904Y-45836738D01*
X163773996Y-46225646D01*
X162713336Y-45164986D01*
G37*
G36*
X163279022Y-44599301D02*
G01*
X163667930Y-44210393D01*
X164728590Y-45271053D01*
X164339682Y-45659961D01*
X163279022Y-44599301D01*
G37*
G36*
X163844707Y-44033615D02*
G01*
X164233615Y-43644707D01*
X165294275Y-44705367D01*
X164905367Y-45094275D01*
X163844707Y-44033615D01*
G37*
G36*
X164410393Y-43467930D02*
G01*
X164799301Y-43079022D01*
X165859961Y-44139682D01*
X165471053Y-44528590D01*
X164410393Y-43467930D01*
G37*
G36*
X164976078Y-42902244D02*
G01*
X165364986Y-42513336D01*
X166425646Y-43573996D01*
X166036738Y-43962904D01*
X164976078Y-42902244D01*
G37*
G36*
X165541764Y-42336559D02*
G01*
X165930672Y-41947651D01*
X166991332Y-43008311D01*
X166602424Y-43397219D01*
X165541764Y-42336559D01*
G37*
G36*
X166107449Y-41770874D02*
G01*
X166496357Y-41381966D01*
X167557017Y-42442626D01*
X167168109Y-42831534D01*
X166107449Y-41770874D01*
G37*
G36*
X166673134Y-41205188D02*
G01*
X167062042Y-40816280D01*
X168122702Y-41876940D01*
X167733794Y-42265848D01*
X166673134Y-41205188D01*
G37*
G36*
X169466206Y-42265848D02*
G01*
X169077298Y-41876940D01*
X170137958Y-40816280D01*
X170526866Y-41205188D01*
X169466206Y-42265848D01*
G37*
G36*
X170031891Y-42831534D02*
G01*
X169642983Y-42442626D01*
X170703643Y-41381966D01*
X171092551Y-41770874D01*
X170031891Y-42831534D01*
G37*
G36*
X170597576Y-43397219D02*
G01*
X170208668Y-43008311D01*
X171269328Y-41947651D01*
X171658236Y-42336559D01*
X170597576Y-43397219D01*
G37*
G36*
X171163262Y-43962904D02*
G01*
X170774354Y-43573996D01*
X171835014Y-42513336D01*
X172223922Y-42902244D01*
X171163262Y-43962904D01*
G37*
G36*
X171728947Y-44528590D02*
G01*
X171340039Y-44139682D01*
X172400699Y-43079022D01*
X172789607Y-43467930D01*
X171728947Y-44528590D01*
G37*
G36*
X172294633Y-45094275D02*
G01*
X171905725Y-44705367D01*
X172966385Y-43644707D01*
X173355293Y-44033615D01*
X172294633Y-45094275D01*
G37*
G36*
X172860318Y-45659961D02*
G01*
X172471410Y-45271053D01*
X173532070Y-44210393D01*
X173920978Y-44599301D01*
X172860318Y-45659961D01*
G37*
G36*
X173426004Y-46225646D02*
G01*
X173037096Y-45836738D01*
X174097756Y-44776078D01*
X174486664Y-45164986D01*
X173426004Y-46225646D01*
G37*
G36*
X173991689Y-46791332D02*
G01*
X173602781Y-46402424D01*
X174663441Y-45341764D01*
X175052349Y-45730672D01*
X173991689Y-46791332D01*
G37*
G36*
X174557374Y-47357017D02*
G01*
X174168466Y-46968109D01*
X175229126Y-45907449D01*
X175618034Y-46296357D01*
X174557374Y-47357017D01*
G37*
G36*
X175123060Y-47922702D02*
G01*
X174734152Y-47533794D01*
X175794812Y-46473134D01*
X176183720Y-46862042D01*
X175123060Y-47922702D01*
G37*
G36*
X174734152Y-49266206D02*
G01*
X175123060Y-48877298D01*
X176183720Y-49937958D01*
X175794812Y-50326866D01*
X174734152Y-49266206D01*
G37*
G36*
X174168466Y-49831891D02*
G01*
X174557374Y-49442983D01*
X175618034Y-50503643D01*
X175229126Y-50892551D01*
X174168466Y-49831891D01*
G37*
G36*
X173602781Y-50397576D02*
G01*
X173991689Y-50008668D01*
X175052349Y-51069328D01*
X174663441Y-51458236D01*
X173602781Y-50397576D01*
G37*
G36*
X173037096Y-50963262D02*
G01*
X173426004Y-50574354D01*
X174486664Y-51635014D01*
X174097756Y-52023922D01*
X173037096Y-50963262D01*
G37*
G36*
X172471410Y-51528947D02*
G01*
X172860318Y-51140039D01*
X173920978Y-52200699D01*
X173532070Y-52589607D01*
X172471410Y-51528947D01*
G37*
G36*
X171905725Y-52094633D02*
G01*
X172294633Y-51705725D01*
X173355293Y-52766385D01*
X172966385Y-53155293D01*
X171905725Y-52094633D01*
G37*
G36*
X171340039Y-52660318D02*
G01*
X171728947Y-52271410D01*
X172789607Y-53332070D01*
X172400699Y-53720978D01*
X171340039Y-52660318D01*
G37*
G36*
X170774354Y-53226004D02*
G01*
X171163262Y-52837096D01*
X172223922Y-53897756D01*
X171835014Y-54286664D01*
X170774354Y-53226004D01*
G37*
G36*
X170208668Y-53791689D02*
G01*
X170597576Y-53402781D01*
X171658236Y-54463441D01*
X171269328Y-54852349D01*
X170208668Y-53791689D01*
G37*
G36*
X169642983Y-54357374D02*
G01*
X170031891Y-53968466D01*
X171092551Y-55029126D01*
X170703643Y-55418034D01*
X169642983Y-54357374D01*
G37*
G36*
X169077298Y-54923060D02*
G01*
X169466206Y-54534152D01*
X170526866Y-55594812D01*
X170137958Y-55983720D01*
X169077298Y-54923060D01*
G37*
D14*
X148300000Y-48250000D03*
X154500000Y-44550000D03*
X148300000Y-44550000D03*
X154500000Y-48250000D03*
D11*
G36*
X171920142Y32006326D02*
G01*
X171943803Y32002816D01*
X171967007Y31997004D01*
X171989529Y31988946D01*
X172011153Y31978718D01*
X172031670Y31966421D01*
X172050883Y31952171D01*
X172068607Y31936107D01*
X172084671Y31918383D01*
X172098921Y31899170D01*
X172111218Y31878653D01*
X172121446Y31857029D01*
X172129504Y31834507D01*
X172135316Y31811303D01*
X172138826Y31787642D01*
X172140000Y31763750D01*
X172140000Y31276250D01*
X172138826Y31252358D01*
X172135316Y31228697D01*
X172129504Y31205493D01*
X172121446Y31182971D01*
X172111218Y31161347D01*
X172098921Y31140830D01*
X172084671Y31121617D01*
X172068607Y31103893D01*
X172050883Y31087829D01*
X172031670Y31073579D01*
X172011153Y31061282D01*
X171989529Y31051054D01*
X171967007Y31042996D01*
X171943803Y31037184D01*
X171920142Y31033674D01*
X171896250Y31032500D01*
X170983750Y31032500D01*
X170959858Y31033674D01*
X170936197Y31037184D01*
X170912993Y31042996D01*
X170890471Y31051054D01*
X170868847Y31061282D01*
X170848330Y31073579D01*
X170829117Y31087829D01*
X170811393Y31103893D01*
X170795329Y31121617D01*
X170781079Y31140830D01*
X170768782Y31161347D01*
X170758554Y31182971D01*
X170750496Y31205493D01*
X170744684Y31228697D01*
X170741174Y31252358D01*
X170740000Y31276250D01*
X170740000Y31763750D01*
X170741174Y31787642D01*
X170744684Y31811303D01*
X170750496Y31834507D01*
X170758554Y31857029D01*
X170768782Y31878653D01*
X170781079Y31899170D01*
X170795329Y31918383D01*
X170811393Y31936107D01*
X170829117Y31952171D01*
X170848330Y31966421D01*
X170868847Y31978718D01*
X170890471Y31988946D01*
X170912993Y31997004D01*
X170936197Y32002816D01*
X170959858Y32006326D01*
X170983750Y32007500D01*
X171896250Y32007500D01*
X171920142Y32006326D01*
G37*
G36*
X171920142Y30131326D02*
G01*
X171943803Y30127816D01*
X171967007Y30122004D01*
X171989529Y30113946D01*
X172011153Y30103718D01*
X172031670Y30091421D01*
X172050883Y30077171D01*
X172068607Y30061107D01*
X172084671Y30043383D01*
X172098921Y30024170D01*
X172111218Y30003653D01*
X172121446Y29982029D01*
X172129504Y29959507D01*
X172135316Y29936303D01*
X172138826Y29912642D01*
X172140000Y29888750D01*
X172140000Y29401250D01*
X172138826Y29377358D01*
X172135316Y29353697D01*
X172129504Y29330493D01*
X172121446Y29307971D01*
X172111218Y29286347D01*
X172098921Y29265830D01*
X172084671Y29246617D01*
X172068607Y29228893D01*
X172050883Y29212829D01*
X172031670Y29198579D01*
X172011153Y29186282D01*
X171989529Y29176054D01*
X171967007Y29167996D01*
X171943803Y29162184D01*
X171920142Y29158674D01*
X171896250Y29157500D01*
X170983750Y29157500D01*
X170959858Y29158674D01*
X170936197Y29162184D01*
X170912993Y29167996D01*
X170890471Y29176054D01*
X170868847Y29186282D01*
X170848330Y29198579D01*
X170829117Y29212829D01*
X170811393Y29228893D01*
X170795329Y29246617D01*
X170781079Y29265830D01*
X170768782Y29286347D01*
X170758554Y29307971D01*
X170750496Y29330493D01*
X170744684Y29353697D01*
X170741174Y29377358D01*
X170740000Y29401250D01*
X170740000Y29888750D01*
X170741174Y29912642D01*
X170744684Y29936303D01*
X170750496Y29959507D01*
X170758554Y29982029D01*
X170768782Y30003653D01*
X170781079Y30024170D01*
X170795329Y30043383D01*
X170811393Y30061107D01*
X170829117Y30077171D01*
X170848330Y30091421D01*
X170868847Y30103718D01*
X170890471Y30113946D01*
X170912993Y30122004D01*
X170936197Y30127816D01*
X170959858Y30131326D01*
X170983750Y30132500D01*
X171896250Y30132500D01*
X171920142Y30131326D01*
G37*
G36*
X167213632Y31932551D02*
G01*
X167237293Y31929041D01*
X167260497Y31923229D01*
X167283019Y31915171D01*
X167304643Y31904943D01*
X167325160Y31892646D01*
X167344373Y31878396D01*
X167362097Y31862332D01*
X168007332Y31217097D01*
X168023396Y31199373D01*
X168037646Y31180160D01*
X168049943Y31159643D01*
X168060171Y31138019D01*
X168068229Y31115497D01*
X168074041Y31092293D01*
X168077551Y31068632D01*
X168078725Y31044740D01*
X168077551Y31020848D01*
X168074041Y30997187D01*
X168068229Y30973983D01*
X168060171Y30951461D01*
X168049943Y30929837D01*
X168037646Y30909320D01*
X168023396Y30890107D01*
X168007332Y30872383D01*
X167662617Y30527668D01*
X167644893Y30511604D01*
X167625680Y30497354D01*
X167605163Y30485057D01*
X167583539Y30474829D01*
X167561017Y30466771D01*
X167537813Y30460959D01*
X167514152Y30457449D01*
X167490260Y30456275D01*
X167466368Y30457449D01*
X167442707Y30460959D01*
X167419503Y30466771D01*
X167396981Y30474829D01*
X167375357Y30485057D01*
X167354840Y30497354D01*
X167335627Y30511604D01*
X167317903Y30527668D01*
X166672668Y31172903D01*
X166656604Y31190627D01*
X166642354Y31209840D01*
X166630057Y31230357D01*
X166619829Y31251981D01*
X166611771Y31274503D01*
X166605959Y31297707D01*
X166602449Y31321368D01*
X166601275Y31345260D01*
X166602449Y31369152D01*
X166605959Y31392813D01*
X166611771Y31416017D01*
X166619829Y31438539D01*
X166630057Y31460163D01*
X166642354Y31480680D01*
X166656604Y31499893D01*
X166672668Y31517617D01*
X167017383Y31862332D01*
X167035107Y31878396D01*
X167054320Y31892646D01*
X167074837Y31904943D01*
X167096461Y31915171D01*
X167118983Y31923229D01*
X167142187Y31929041D01*
X167165848Y31932551D01*
X167189740Y31933725D01*
X167213632Y31932551D01*
G37*
G36*
X165887806Y30606725D02*
G01*
X165911467Y30603215D01*
X165934671Y30597403D01*
X165957193Y30589345D01*
X165978817Y30579117D01*
X165999334Y30566820D01*
X166018547Y30552570D01*
X166036271Y30536506D01*
X166681506Y29891271D01*
X166697570Y29873547D01*
X166711820Y29854334D01*
X166724117Y29833817D01*
X166734345Y29812193D01*
X166742403Y29789671D01*
X166748215Y29766467D01*
X166751725Y29742806D01*
X166752899Y29718914D01*
X166751725Y29695022D01*
X166748215Y29671361D01*
X166742403Y29648157D01*
X166734345Y29625635D01*
X166724117Y29604011D01*
X166711820Y29583494D01*
X166697570Y29564281D01*
X166681506Y29546557D01*
X166336791Y29201842D01*
X166319067Y29185778D01*
X166299854Y29171528D01*
X166279337Y29159231D01*
X166257713Y29149003D01*
X166235191Y29140945D01*
X166211987Y29135133D01*
X166188326Y29131623D01*
X166164434Y29130449D01*
X166140542Y29131623D01*
X166116881Y29135133D01*
X166093677Y29140945D01*
X166071155Y29149003D01*
X166049531Y29159231D01*
X166029014Y29171528D01*
X166009801Y29185778D01*
X165992077Y29201842D01*
X165346842Y29847077D01*
X165330778Y29864801D01*
X165316528Y29884014D01*
X165304231Y29904531D01*
X165294003Y29926155D01*
X165285945Y29948677D01*
X165280133Y29971881D01*
X165276623Y29995542D01*
X165275449Y30019434D01*
X165276623Y30043326D01*
X165280133Y30066987D01*
X165285945Y30090191D01*
X165294003Y30112713D01*
X165304231Y30134337D01*
X165316528Y30154854D01*
X165330778Y30174067D01*
X165346842Y30191791D01*
X165691557Y30536506D01*
X165709281Y30552570D01*
X165728494Y30566820D01*
X165749011Y30579117D01*
X165770635Y30589345D01*
X165793157Y30597403D01*
X165816361Y30603215D01*
X165840022Y30606725D01*
X165863914Y30607899D01*
X165887806Y30606725D01*
G37*
G36*
X177311239Y-45287036D02*
G01*
X177334900Y-45290546D01*
X177358104Y-45296358D01*
X177380626Y-45304416D01*
X177402250Y-45314644D01*
X177422767Y-45326941D01*
X177441980Y-45341191D01*
X177459704Y-45357255D01*
X177804419Y-45701970D01*
X177820483Y-45719694D01*
X177834733Y-45738907D01*
X177847030Y-45759424D01*
X177857258Y-45781048D01*
X177865316Y-45803570D01*
X177871128Y-45826774D01*
X177874638Y-45850435D01*
X177875812Y-45874327D01*
X177874638Y-45898219D01*
X177871128Y-45921880D01*
X177865316Y-45945084D01*
X177857258Y-45967606D01*
X177847030Y-45989230D01*
X177834733Y-46009747D01*
X177820483Y-46028960D01*
X177804419Y-46046684D01*
X177159184Y-46691919D01*
X177141460Y-46707983D01*
X177122247Y-46722233D01*
X177101730Y-46734530D01*
X177080106Y-46744758D01*
X177057584Y-46752816D01*
X177034380Y-46758628D01*
X177010719Y-46762138D01*
X176986827Y-46763312D01*
X176962935Y-46762138D01*
X176939274Y-46758628D01*
X176916070Y-46752816D01*
X176893548Y-46744758D01*
X176871924Y-46734530D01*
X176851407Y-46722233D01*
X176832194Y-46707983D01*
X176814470Y-46691919D01*
X176469755Y-46347204D01*
X176453691Y-46329480D01*
X176439441Y-46310267D01*
X176427144Y-46289750D01*
X176416916Y-46268126D01*
X176408858Y-46245604D01*
X176403046Y-46222400D01*
X176399536Y-46198739D01*
X176398362Y-46174847D01*
X176399536Y-46150955D01*
X176403046Y-46127294D01*
X176408858Y-46104090D01*
X176416916Y-46081568D01*
X176427144Y-46059944D01*
X176439441Y-46039427D01*
X176453691Y-46020214D01*
X176469755Y-46002490D01*
X177114990Y-45357255D01*
X177132714Y-45341191D01*
X177151927Y-45326941D01*
X177172444Y-45314644D01*
X177194068Y-45304416D01*
X177216590Y-45296358D01*
X177239794Y-45290546D01*
X177263455Y-45287036D01*
X177287347Y-45285862D01*
X177311239Y-45287036D01*
G37*
G36*
X178637065Y-46612862D02*
G01*
X178660726Y-46616372D01*
X178683930Y-46622184D01*
X178706452Y-46630242D01*
X178728076Y-46640470D01*
X178748593Y-46652767D01*
X178767806Y-46667017D01*
X178785530Y-46683081D01*
X179130245Y-47027796D01*
X179146309Y-47045520D01*
X179160559Y-47064733D01*
X179172856Y-47085250D01*
X179183084Y-47106874D01*
X179191142Y-47129396D01*
X179196954Y-47152600D01*
X179200464Y-47176261D01*
X179201638Y-47200153D01*
X179200464Y-47224045D01*
X179196954Y-47247706D01*
X179191142Y-47270910D01*
X179183084Y-47293432D01*
X179172856Y-47315056D01*
X179160559Y-47335573D01*
X179146309Y-47354786D01*
X179130245Y-47372510D01*
X178485010Y-48017745D01*
X178467286Y-48033809D01*
X178448073Y-48048059D01*
X178427556Y-48060356D01*
X178405932Y-48070584D01*
X178383410Y-48078642D01*
X178360206Y-48084454D01*
X178336545Y-48087964D01*
X178312653Y-48089138D01*
X178288761Y-48087964D01*
X178265100Y-48084454D01*
X178241896Y-48078642D01*
X178219374Y-48070584D01*
X178197750Y-48060356D01*
X178177233Y-48048059D01*
X178158020Y-48033809D01*
X178140296Y-48017745D01*
X177795581Y-47673030D01*
X177779517Y-47655306D01*
X177765267Y-47636093D01*
X177752970Y-47615576D01*
X177742742Y-47593952D01*
X177734684Y-47571430D01*
X177728872Y-47548226D01*
X177725362Y-47524565D01*
X177724188Y-47500673D01*
X177725362Y-47476781D01*
X177728872Y-47453120D01*
X177734684Y-47429916D01*
X177742742Y-47407394D01*
X177752970Y-47385770D01*
X177765267Y-47365253D01*
X177779517Y-47346040D01*
X177795581Y-47328316D01*
X178440816Y-46683081D01*
X178458540Y-46667017D01*
X178477753Y-46652767D01*
X178498270Y-46640470D01*
X178519894Y-46630242D01*
X178542416Y-46622184D01*
X178565620Y-46616372D01*
X178589281Y-46612862D01*
X178613173Y-46611688D01*
X178637065Y-46612862D01*
G37*
G36*
X157880142Y-43513674D02*
G01*
X157903803Y-43517184D01*
X157927007Y-43522996D01*
X157949529Y-43531054D01*
X157971153Y-43541282D01*
X157991670Y-43553579D01*
X158010883Y-43567829D01*
X158028607Y-43583893D01*
X158044671Y-43601617D01*
X158058921Y-43620830D01*
X158071218Y-43641347D01*
X158081446Y-43662971D01*
X158089504Y-43685493D01*
X158095316Y-43708697D01*
X158098826Y-43732358D01*
X158100000Y-43756250D01*
X158100000Y-44243750D01*
X158098826Y-44267642D01*
X158095316Y-44291303D01*
X158089504Y-44314507D01*
X158081446Y-44337029D01*
X158071218Y-44358653D01*
X158058921Y-44379170D01*
X158044671Y-44398383D01*
X158028607Y-44416107D01*
X158010883Y-44432171D01*
X157991670Y-44446421D01*
X157971153Y-44458718D01*
X157949529Y-44468946D01*
X157927007Y-44477004D01*
X157903803Y-44482816D01*
X157880142Y-44486326D01*
X157856250Y-44487500D01*
X156943750Y-44487500D01*
X156919858Y-44486326D01*
X156896197Y-44482816D01*
X156872993Y-44477004D01*
X156850471Y-44468946D01*
X156828847Y-44458718D01*
X156808330Y-44446421D01*
X156789117Y-44432171D01*
X156771393Y-44416107D01*
X156755329Y-44398383D01*
X156741079Y-44379170D01*
X156728782Y-44358653D01*
X156718554Y-44337029D01*
X156710496Y-44314507D01*
X156704684Y-44291303D01*
X156701174Y-44267642D01*
X156700000Y-44243750D01*
X156700000Y-43756250D01*
X156701174Y-43732358D01*
X156704684Y-43708697D01*
X156710496Y-43685493D01*
X156718554Y-43662971D01*
X156728782Y-43641347D01*
X156741079Y-43620830D01*
X156755329Y-43601617D01*
X156771393Y-43583893D01*
X156789117Y-43567829D01*
X156808330Y-43553579D01*
X156828847Y-43541282D01*
X156850471Y-43531054D01*
X156872993Y-43522996D01*
X156896197Y-43517184D01*
X156919858Y-43513674D01*
X156943750Y-43512500D01*
X157856250Y-43512500D01*
X157880142Y-43513674D01*
G37*
G36*
X157880142Y-45388674D02*
G01*
X157903803Y-45392184D01*
X157927007Y-45397996D01*
X157949529Y-45406054D01*
X157971153Y-45416282D01*
X157991670Y-45428579D01*
X158010883Y-45442829D01*
X158028607Y-45458893D01*
X158044671Y-45476617D01*
X158058921Y-45495830D01*
X158071218Y-45516347D01*
X158081446Y-45537971D01*
X158089504Y-45560493D01*
X158095316Y-45583697D01*
X158098826Y-45607358D01*
X158100000Y-45631250D01*
X158100000Y-46118750D01*
X158098826Y-46142642D01*
X158095316Y-46166303D01*
X158089504Y-46189507D01*
X158081446Y-46212029D01*
X158071218Y-46233653D01*
X158058921Y-46254170D01*
X158044671Y-46273383D01*
X158028607Y-46291107D01*
X158010883Y-46307171D01*
X157991670Y-46321421D01*
X157971153Y-46333718D01*
X157949529Y-46343946D01*
X157927007Y-46352004D01*
X157903803Y-46357816D01*
X157880142Y-46361326D01*
X157856250Y-46362500D01*
X156943750Y-46362500D01*
X156919858Y-46361326D01*
X156896197Y-46357816D01*
X156872993Y-46352004D01*
X156850471Y-46343946D01*
X156828847Y-46333718D01*
X156808330Y-46321421D01*
X156789117Y-46307171D01*
X156771393Y-46291107D01*
X156755329Y-46273383D01*
X156741079Y-46254170D01*
X156728782Y-46233653D01*
X156718554Y-46212029D01*
X156710496Y-46189507D01*
X156704684Y-46166303D01*
X156701174Y-46142642D01*
X156700000Y-46118750D01*
X156700000Y-45631250D01*
X156701174Y-45607358D01*
X156704684Y-45583697D01*
X156710496Y-45560493D01*
X156718554Y-45537971D01*
X156728782Y-45516347D01*
X156741079Y-45495830D01*
X156755329Y-45476617D01*
X156771393Y-45458893D01*
X156789117Y-45442829D01*
X156808330Y-45428579D01*
X156828847Y-45416282D01*
X156850471Y-45406054D01*
X156872993Y-45397996D01*
X156896197Y-45392184D01*
X156919858Y-45388674D01*
X156943750Y-45387500D01*
X157856250Y-45387500D01*
X157880142Y-45388674D01*
G37*
G36*
X164467642Y-63101174D02*
G01*
X164491303Y-63104684D01*
X164514507Y-63110496D01*
X164537029Y-63118554D01*
X164558653Y-63128782D01*
X164579170Y-63141079D01*
X164598383Y-63155329D01*
X164616107Y-63171393D01*
X164632171Y-63189117D01*
X164646421Y-63208330D01*
X164658718Y-63228847D01*
X164668946Y-63250471D01*
X164677004Y-63272993D01*
X164682816Y-63296197D01*
X164686326Y-63319858D01*
X164687500Y-63343750D01*
X164687500Y-64256250D01*
X164686326Y-64280142D01*
X164682816Y-64303803D01*
X164677004Y-64327007D01*
X164668946Y-64349529D01*
X164658718Y-64371153D01*
X164646421Y-64391670D01*
X164632171Y-64410883D01*
X164616107Y-64428607D01*
X164598383Y-64444671D01*
X164579170Y-64458921D01*
X164558653Y-64471218D01*
X164537029Y-64481446D01*
X164514507Y-64489504D01*
X164491303Y-64495316D01*
X164467642Y-64498826D01*
X164443750Y-64500000D01*
X163956250Y-64500000D01*
X163932358Y-64498826D01*
X163908697Y-64495316D01*
X163885493Y-64489504D01*
X163862971Y-64481446D01*
X163841347Y-64471218D01*
X163820830Y-64458921D01*
X163801617Y-64444671D01*
X163783893Y-64428607D01*
X163767829Y-64410883D01*
X163753579Y-64391670D01*
X163741282Y-64371153D01*
X163731054Y-64349529D01*
X163722996Y-64327007D01*
X163717184Y-64303803D01*
X163713674Y-64280142D01*
X163712500Y-64256250D01*
X163712500Y-63343750D01*
X163713674Y-63319858D01*
X163717184Y-63296197D01*
X163722996Y-63272993D01*
X163731054Y-63250471D01*
X163741282Y-63228847D01*
X163753579Y-63208330D01*
X163767829Y-63189117D01*
X163783893Y-63171393D01*
X163801617Y-63155329D01*
X163820830Y-63141079D01*
X163841347Y-63128782D01*
X163862971Y-63118554D01*
X163885493Y-63110496D01*
X163908697Y-63104684D01*
X163932358Y-63101174D01*
X163956250Y-63100000D01*
X164443750Y-63100000D01*
X164467642Y-63101174D01*
G37*
G36*
X166342642Y-63101174D02*
G01*
X166366303Y-63104684D01*
X166389507Y-63110496D01*
X166412029Y-63118554D01*
X166433653Y-63128782D01*
X166454170Y-63141079D01*
X166473383Y-63155329D01*
X166491107Y-63171393D01*
X166507171Y-63189117D01*
X166521421Y-63208330D01*
X166533718Y-63228847D01*
X166543946Y-63250471D01*
X166552004Y-63272993D01*
X166557816Y-63296197D01*
X166561326Y-63319858D01*
X166562500Y-63343750D01*
X166562500Y-64256250D01*
X166561326Y-64280142D01*
X166557816Y-64303803D01*
X166552004Y-64327007D01*
X166543946Y-64349529D01*
X166533718Y-64371153D01*
X166521421Y-64391670D01*
X166507171Y-64410883D01*
X166491107Y-64428607D01*
X166473383Y-64444671D01*
X166454170Y-64458921D01*
X166433653Y-64471218D01*
X166412029Y-64481446D01*
X166389507Y-64489504D01*
X166366303Y-64495316D01*
X166342642Y-64498826D01*
X166318750Y-64500000D01*
X165831250Y-64500000D01*
X165807358Y-64498826D01*
X165783697Y-64495316D01*
X165760493Y-64489504D01*
X165737971Y-64481446D01*
X165716347Y-64471218D01*
X165695830Y-64458921D01*
X165676617Y-64444671D01*
X165658893Y-64428607D01*
X165642829Y-64410883D01*
X165628579Y-64391670D01*
X165616282Y-64371153D01*
X165606054Y-64349529D01*
X165597996Y-64327007D01*
X165592184Y-64303803D01*
X165588674Y-64280142D01*
X165587500Y-64256250D01*
X165587500Y-63343750D01*
X165588674Y-63319858D01*
X165592184Y-63296197D01*
X165597996Y-63272993D01*
X165606054Y-63250471D01*
X165616282Y-63228847D01*
X165628579Y-63208330D01*
X165642829Y-63189117D01*
X165658893Y-63171393D01*
X165676617Y-63155329D01*
X165695830Y-63141079D01*
X165716347Y-63128782D01*
X165737971Y-63118554D01*
X165760493Y-63110496D01*
X165783697Y-63104684D01*
X165807358Y-63101174D01*
X165831250Y-63100000D01*
X166318750Y-63100000D01*
X166342642Y-63101174D01*
G37*
G36*
X165330142Y-65101174D02*
G01*
X165353803Y-65104684D01*
X165377007Y-65110496D01*
X165399529Y-65118554D01*
X165421153Y-65128782D01*
X165441670Y-65141079D01*
X165460883Y-65155329D01*
X165478607Y-65171393D01*
X165494671Y-65189117D01*
X165508921Y-65208330D01*
X165521218Y-65228847D01*
X165531446Y-65250471D01*
X165539504Y-65272993D01*
X165545316Y-65296197D01*
X165548826Y-65319858D01*
X165550000Y-65343750D01*
X165550000Y-66256250D01*
X165548826Y-66280142D01*
X165545316Y-66303803D01*
X165539504Y-66327007D01*
X165531446Y-66349529D01*
X165521218Y-66371153D01*
X165508921Y-66391670D01*
X165494671Y-66410883D01*
X165478607Y-66428607D01*
X165460883Y-66444671D01*
X165441670Y-66458921D01*
X165421153Y-66471218D01*
X165399529Y-66481446D01*
X165377007Y-66489504D01*
X165353803Y-66495316D01*
X165330142Y-66498826D01*
X165306250Y-66500000D01*
X164818750Y-66500000D01*
X164794858Y-66498826D01*
X164771197Y-66495316D01*
X164747993Y-66489504D01*
X164725471Y-66481446D01*
X164703847Y-66471218D01*
X164683330Y-66458921D01*
X164664117Y-66444671D01*
X164646393Y-66428607D01*
X164630329Y-66410883D01*
X164616079Y-66391670D01*
X164603782Y-66371153D01*
X164593554Y-66349529D01*
X164585496Y-66327007D01*
X164579684Y-66303803D01*
X164576174Y-66280142D01*
X164575000Y-66256250D01*
X164575000Y-65343750D01*
X164576174Y-65319858D01*
X164579684Y-65296197D01*
X164585496Y-65272993D01*
X164593554Y-65250471D01*
X164603782Y-65228847D01*
X164616079Y-65208330D01*
X164630329Y-65189117D01*
X164646393Y-65171393D01*
X164664117Y-65155329D01*
X164683330Y-65141079D01*
X164703847Y-65128782D01*
X164725471Y-65118554D01*
X164747993Y-65110496D01*
X164771197Y-65104684D01*
X164794858Y-65101174D01*
X164818750Y-65100000D01*
X165306250Y-65100000D01*
X165330142Y-65101174D01*
G37*
G36*
X167205142Y-65101174D02*
G01*
X167228803Y-65104684D01*
X167252007Y-65110496D01*
X167274529Y-65118554D01*
X167296153Y-65128782D01*
X167316670Y-65141079D01*
X167335883Y-65155329D01*
X167353607Y-65171393D01*
X167369671Y-65189117D01*
X167383921Y-65208330D01*
X167396218Y-65228847D01*
X167406446Y-65250471D01*
X167414504Y-65272993D01*
X167420316Y-65296197D01*
X167423826Y-65319858D01*
X167425000Y-65343750D01*
X167425000Y-66256250D01*
X167423826Y-66280142D01*
X167420316Y-66303803D01*
X167414504Y-66327007D01*
X167406446Y-66349529D01*
X167396218Y-66371153D01*
X167383921Y-66391670D01*
X167369671Y-66410883D01*
X167353607Y-66428607D01*
X167335883Y-66444671D01*
X167316670Y-66458921D01*
X167296153Y-66471218D01*
X167274529Y-66481446D01*
X167252007Y-66489504D01*
X167228803Y-66495316D01*
X167205142Y-66498826D01*
X167181250Y-66500000D01*
X166693750Y-66500000D01*
X166669858Y-66498826D01*
X166646197Y-66495316D01*
X166622993Y-66489504D01*
X166600471Y-66481446D01*
X166578847Y-66471218D01*
X166558330Y-66458921D01*
X166539117Y-66444671D01*
X166521393Y-66428607D01*
X166505329Y-66410883D01*
X166491079Y-66391670D01*
X166478782Y-66371153D01*
X166468554Y-66349529D01*
X166460496Y-66327007D01*
X166454684Y-66303803D01*
X166451174Y-66280142D01*
X166450000Y-66256250D01*
X166450000Y-65343750D01*
X166451174Y-65319858D01*
X166454684Y-65296197D01*
X166460496Y-65272993D01*
X166468554Y-65250471D01*
X166478782Y-65228847D01*
X166491079Y-65208330D01*
X166505329Y-65189117D01*
X166521393Y-65171393D01*
X166539117Y-65155329D01*
X166558330Y-65141079D01*
X166578847Y-65128782D01*
X166600471Y-65118554D01*
X166622993Y-65110496D01*
X166646197Y-65104684D01*
X166669858Y-65101174D01*
X166693750Y-65100000D01*
X167181250Y-65100000D01*
X167205142Y-65101174D01*
G37*
G36*
X162889504Y30818796D02*
G01*
X162913773Y30815196D01*
X162937571Y30809235D01*
X162960671Y30800970D01*
X162982849Y30790480D01*
X163003893Y30777867D01*
X163023598Y30763253D01*
X163041777Y30746777D01*
X163058253Y30728598D01*
X163072867Y30708893D01*
X163085480Y30687849D01*
X163095970Y30665671D01*
X163104235Y30642571D01*
X163110196Y30618773D01*
X163113796Y30594504D01*
X163115000Y30570000D01*
X163115000Y29320000D01*
X163113796Y29295496D01*
X163110196Y29271227D01*
X163104235Y29247429D01*
X163095970Y29224329D01*
X163085480Y29202151D01*
X163072867Y29181107D01*
X163058253Y29161402D01*
X163041777Y29143223D01*
X163023598Y29126747D01*
X163003893Y29112133D01*
X162982849Y29099520D01*
X162960671Y29089030D01*
X162937571Y29080765D01*
X162913773Y29074804D01*
X162889504Y29071204D01*
X162865000Y29070000D01*
X162115000Y29070000D01*
X162090496Y29071204D01*
X162066227Y29074804D01*
X162042429Y29080765D01*
X162019329Y29089030D01*
X161997151Y29099520D01*
X161976107Y29112133D01*
X161956402Y29126747D01*
X161938223Y29143223D01*
X161921747Y29161402D01*
X161907133Y29181107D01*
X161894520Y29202151D01*
X161884030Y29224329D01*
X161875765Y29247429D01*
X161869804Y29271227D01*
X161866204Y29295496D01*
X161865000Y29320000D01*
X161865000Y30570000D01*
X161866204Y30594504D01*
X161869804Y30618773D01*
X161875765Y30642571D01*
X161884030Y30665671D01*
X161894520Y30687849D01*
X161907133Y30708893D01*
X161921747Y30728598D01*
X161938223Y30746777D01*
X161956402Y30763253D01*
X161976107Y30777867D01*
X161997151Y30790480D01*
X162019329Y30800970D01*
X162042429Y30809235D01*
X162066227Y30815196D01*
X162090496Y30818796D01*
X162115000Y30820000D01*
X162865000Y30820000D01*
X162889504Y30818796D01*
G37*
G36*
X160089504Y30818796D02*
G01*
X160113773Y30815196D01*
X160137571Y30809235D01*
X160160671Y30800970D01*
X160182849Y30790480D01*
X160203893Y30777867D01*
X160223598Y30763253D01*
X160241777Y30746777D01*
X160258253Y30728598D01*
X160272867Y30708893D01*
X160285480Y30687849D01*
X160295970Y30665671D01*
X160304235Y30642571D01*
X160310196Y30618773D01*
X160313796Y30594504D01*
X160315000Y30570000D01*
X160315000Y29320000D01*
X160313796Y29295496D01*
X160310196Y29271227D01*
X160304235Y29247429D01*
X160295970Y29224329D01*
X160285480Y29202151D01*
X160272867Y29181107D01*
X160258253Y29161402D01*
X160241777Y29143223D01*
X160223598Y29126747D01*
X160203893Y29112133D01*
X160182849Y29099520D01*
X160160671Y29089030D01*
X160137571Y29080765D01*
X160113773Y29074804D01*
X160089504Y29071204D01*
X160065000Y29070000D01*
X159315000Y29070000D01*
X159290496Y29071204D01*
X159266227Y29074804D01*
X159242429Y29080765D01*
X159219329Y29089030D01*
X159197151Y29099520D01*
X159176107Y29112133D01*
X159156402Y29126747D01*
X159138223Y29143223D01*
X159121747Y29161402D01*
X159107133Y29181107D01*
X159094520Y29202151D01*
X159084030Y29224329D01*
X159075765Y29247429D01*
X159069804Y29271227D01*
X159066204Y29295496D01*
X159065000Y29320000D01*
X159065000Y30570000D01*
X159066204Y30594504D01*
X159069804Y30618773D01*
X159075765Y30642571D01*
X159084030Y30665671D01*
X159094520Y30687849D01*
X159107133Y30708893D01*
X159121747Y30728598D01*
X159138223Y30746777D01*
X159156402Y30763253D01*
X159176107Y30777867D01*
X159197151Y30790480D01*
X159219329Y30800970D01*
X159242429Y30809235D01*
X159266227Y30815196D01*
X159290496Y30818796D01*
X159315000Y30820000D01*
X160065000Y30820000D01*
X160089504Y30818796D01*
G37*
D10*
X347662500Y-61118750D03*
X347662500Y-64418750D03*
X290512500Y-61118750D03*
X290512500Y-64418750D03*
X272256250Y-61118750D03*
X272256250Y-64418750D03*
X261937500Y-61118750D03*
X261937500Y-64418750D03*
X247650000Y-61118750D03*
X247650000Y-64418750D03*
X195262500Y-61118750D03*
X195262500Y-64418750D03*
X171450000Y-61118750D03*
X171450000Y-64418750D03*
X347662500Y-31750000D03*
X347662500Y-28450000D03*
X319087500Y-31750000D03*
X319087500Y-28450000D03*
X300037500Y-31875000D03*
X300037500Y-28575000D03*
X280987500Y-31750000D03*
X280987500Y-28450000D03*
X261937500Y-31750000D03*
X261937500Y-28450000D03*
X242887500Y-31812500D03*
X242887500Y-28512500D03*
X223837500Y-31750000D03*
X223837500Y-28450000D03*
X204787500Y-31750000D03*
X204787500Y-28450000D03*
X185737500Y-31750000D03*
X185737500Y-28450000D03*
X166687500Y-31812500D03*
X166687500Y-28512500D03*
X347662500Y-12700000D03*
X347662500Y-9400000D03*
X328612500Y-12700000D03*
X328612500Y-9400000D03*
X309562500Y-12762500D03*
X309562500Y-9462500D03*
X290512500Y-12700000D03*
X290512500Y-9400000D03*
X271462500Y-12700000D03*
X271462500Y-9400000D03*
X252412500Y-12762500D03*
X252412500Y-9462500D03*
X233362500Y-12762500D03*
X233362500Y-9462500D03*
X214312500Y-12762500D03*
X214312500Y-9462500D03*
X195262500Y-12700000D03*
X195262500Y-9400000D03*
X176212500Y-12762500D03*
X176212500Y-9462500D03*
X157162500Y-12700000D03*
X157162500Y-9400000D03*
X338137500Y6287500D03*
X338137500Y9587500D03*
X319087500Y6350000D03*
X319087500Y9650000D03*
X300037500Y6350000D03*
X300037500Y9650000D03*
X280987500Y6350000D03*
X280987500Y9650000D03*
X261937500Y6350000D03*
X261937500Y9650000D03*
X242887500Y6350000D03*
X242887500Y9650000D03*
X223837500Y6287500D03*
X223837500Y9587500D03*
X204787500Y6350000D03*
X204787500Y9650000D03*
X185737500Y6287500D03*
X185737500Y9587500D03*
X166687500Y6350000D03*
X166687500Y9650000D03*
D11*
G36*
X164073632Y-54262449D02*
G01*
X164097293Y-54265959D01*
X164120497Y-54271771D01*
X164143019Y-54279829D01*
X164164643Y-54290057D01*
X164185160Y-54302354D01*
X164204373Y-54316604D01*
X164222097Y-54332668D01*
X164867332Y-54977903D01*
X164883396Y-54995627D01*
X164897646Y-55014840D01*
X164909943Y-55035357D01*
X164920171Y-55056981D01*
X164928229Y-55079503D01*
X164934041Y-55102707D01*
X164937551Y-55126368D01*
X164938725Y-55150260D01*
X164937551Y-55174152D01*
X164934041Y-55197813D01*
X164928229Y-55221017D01*
X164920171Y-55243539D01*
X164909943Y-55265163D01*
X164897646Y-55285680D01*
X164883396Y-55304893D01*
X164867332Y-55322617D01*
X164522617Y-55667332D01*
X164504893Y-55683396D01*
X164485680Y-55697646D01*
X164465163Y-55709943D01*
X164443539Y-55720171D01*
X164421017Y-55728229D01*
X164397813Y-55734041D01*
X164374152Y-55737551D01*
X164350260Y-55738725D01*
X164326368Y-55737551D01*
X164302707Y-55734041D01*
X164279503Y-55728229D01*
X164256981Y-55720171D01*
X164235357Y-55709943D01*
X164214840Y-55697646D01*
X164195627Y-55683396D01*
X164177903Y-55667332D01*
X163532668Y-55022097D01*
X163516604Y-55004373D01*
X163502354Y-54985160D01*
X163490057Y-54964643D01*
X163479829Y-54943019D01*
X163471771Y-54920497D01*
X163465959Y-54897293D01*
X163462449Y-54873632D01*
X163461275Y-54849740D01*
X163462449Y-54825848D01*
X163465959Y-54802187D01*
X163471771Y-54778983D01*
X163479829Y-54756461D01*
X163490057Y-54734837D01*
X163502354Y-54714320D01*
X163516604Y-54695107D01*
X163532668Y-54677383D01*
X163877383Y-54332668D01*
X163895107Y-54316604D01*
X163914320Y-54302354D01*
X163934837Y-54290057D01*
X163956461Y-54279829D01*
X163978983Y-54271771D01*
X164002187Y-54265959D01*
X164025848Y-54262449D01*
X164049740Y-54261275D01*
X164073632Y-54262449D01*
G37*
G36*
X162747806Y-55588275D02*
G01*
X162771467Y-55591785D01*
X162794671Y-55597597D01*
X162817193Y-55605655D01*
X162838817Y-55615883D01*
X162859334Y-55628180D01*
X162878547Y-55642430D01*
X162896271Y-55658494D01*
X163541506Y-56303729D01*
X163557570Y-56321453D01*
X163571820Y-56340666D01*
X163584117Y-56361183D01*
X163594345Y-56382807D01*
X163602403Y-56405329D01*
X163608215Y-56428533D01*
X163611725Y-56452194D01*
X163612899Y-56476086D01*
X163611725Y-56499978D01*
X163608215Y-56523639D01*
X163602403Y-56546843D01*
X163594345Y-56569365D01*
X163584117Y-56590989D01*
X163571820Y-56611506D01*
X163557570Y-56630719D01*
X163541506Y-56648443D01*
X163196791Y-56993158D01*
X163179067Y-57009222D01*
X163159854Y-57023472D01*
X163139337Y-57035769D01*
X163117713Y-57045997D01*
X163095191Y-57054055D01*
X163071987Y-57059867D01*
X163048326Y-57063377D01*
X163024434Y-57064551D01*
X163000542Y-57063377D01*
X162976881Y-57059867D01*
X162953677Y-57054055D01*
X162931155Y-57045997D01*
X162909531Y-57035769D01*
X162889014Y-57023472D01*
X162869801Y-57009222D01*
X162852077Y-56993158D01*
X162206842Y-56347923D01*
X162190778Y-56330199D01*
X162176528Y-56310986D01*
X162164231Y-56290469D01*
X162154003Y-56268845D01*
X162145945Y-56246323D01*
X162140133Y-56223119D01*
X162136623Y-56199458D01*
X162135449Y-56175566D01*
X162136623Y-56151674D01*
X162140133Y-56128013D01*
X162145945Y-56104809D01*
X162154003Y-56082287D01*
X162164231Y-56060663D01*
X162176528Y-56040146D01*
X162190778Y-56020933D01*
X162206842Y-56003209D01*
X162551557Y-55658494D01*
X162569281Y-55642430D01*
X162588494Y-55628180D01*
X162609011Y-55615883D01*
X162630635Y-55605655D01*
X162653157Y-55597597D01*
X162676361Y-55591785D01*
X162700022Y-55588275D01*
X162723914Y-55587101D01*
X162747806Y-55588275D01*
G37*
G36*
X162073632Y-41262449D02*
G01*
X162097293Y-41265959D01*
X162120497Y-41271771D01*
X162143019Y-41279829D01*
X162164643Y-41290057D01*
X162185160Y-41302354D01*
X162204373Y-41316604D01*
X162222097Y-41332668D01*
X162867332Y-41977903D01*
X162883396Y-41995627D01*
X162897646Y-42014840D01*
X162909943Y-42035357D01*
X162920171Y-42056981D01*
X162928229Y-42079503D01*
X162934041Y-42102707D01*
X162937551Y-42126368D01*
X162938725Y-42150260D01*
X162937551Y-42174152D01*
X162934041Y-42197813D01*
X162928229Y-42221017D01*
X162920171Y-42243539D01*
X162909943Y-42265163D01*
X162897646Y-42285680D01*
X162883396Y-42304893D01*
X162867332Y-42322617D01*
X162522617Y-42667332D01*
X162504893Y-42683396D01*
X162485680Y-42697646D01*
X162465163Y-42709943D01*
X162443539Y-42720171D01*
X162421017Y-42728229D01*
X162397813Y-42734041D01*
X162374152Y-42737551D01*
X162350260Y-42738725D01*
X162326368Y-42737551D01*
X162302707Y-42734041D01*
X162279503Y-42728229D01*
X162256981Y-42720171D01*
X162235357Y-42709943D01*
X162214840Y-42697646D01*
X162195627Y-42683396D01*
X162177903Y-42667332D01*
X161532668Y-42022097D01*
X161516604Y-42004373D01*
X161502354Y-41985160D01*
X161490057Y-41964643D01*
X161479829Y-41943019D01*
X161471771Y-41920497D01*
X161465959Y-41897293D01*
X161462449Y-41873632D01*
X161461275Y-41849740D01*
X161462449Y-41825848D01*
X161465959Y-41802187D01*
X161471771Y-41778983D01*
X161479829Y-41756461D01*
X161490057Y-41734837D01*
X161502354Y-41714320D01*
X161516604Y-41695107D01*
X161532668Y-41677383D01*
X161877383Y-41332668D01*
X161895107Y-41316604D01*
X161914320Y-41302354D01*
X161934837Y-41290057D01*
X161956461Y-41279829D01*
X161978983Y-41271771D01*
X162002187Y-41265959D01*
X162025848Y-41262449D01*
X162049740Y-41261275D01*
X162073632Y-41262449D01*
G37*
G36*
X163399458Y-39936623D02*
G01*
X163423119Y-39940133D01*
X163446323Y-39945945D01*
X163468845Y-39954003D01*
X163490469Y-39964231D01*
X163510986Y-39976528D01*
X163530199Y-39990778D01*
X163547923Y-40006842D01*
X164193158Y-40652077D01*
X164209222Y-40669801D01*
X164223472Y-40689014D01*
X164235769Y-40709531D01*
X164245997Y-40731155D01*
X164254055Y-40753677D01*
X164259867Y-40776881D01*
X164263377Y-40800542D01*
X164264551Y-40824434D01*
X164263377Y-40848326D01*
X164259867Y-40871987D01*
X164254055Y-40895191D01*
X164245997Y-40917713D01*
X164235769Y-40939337D01*
X164223472Y-40959854D01*
X164209222Y-40979067D01*
X164193158Y-40996791D01*
X163848443Y-41341506D01*
X163830719Y-41357570D01*
X163811506Y-41371820D01*
X163790989Y-41384117D01*
X163769365Y-41394345D01*
X163746843Y-41402403D01*
X163723639Y-41408215D01*
X163699978Y-41411725D01*
X163676086Y-41412899D01*
X163652194Y-41411725D01*
X163628533Y-41408215D01*
X163605329Y-41402403D01*
X163582807Y-41394345D01*
X163561183Y-41384117D01*
X163540666Y-41371820D01*
X163521453Y-41357570D01*
X163503729Y-41341506D01*
X162858494Y-40696271D01*
X162842430Y-40678547D01*
X162828180Y-40659334D01*
X162815883Y-40638817D01*
X162805655Y-40617193D01*
X162797597Y-40594671D01*
X162791785Y-40571467D01*
X162788275Y-40547806D01*
X162787101Y-40523914D01*
X162788275Y-40500022D01*
X162791785Y-40476361D01*
X162797597Y-40453157D01*
X162805655Y-40430635D01*
X162815883Y-40409011D01*
X162828180Y-40388494D01*
X162842430Y-40369281D01*
X162858494Y-40351557D01*
X163203209Y-40006842D01*
X163220933Y-39990778D01*
X163240146Y-39976528D01*
X163260663Y-39964231D01*
X163282287Y-39954003D01*
X163304809Y-39945945D01*
X163328013Y-39940133D01*
X163351674Y-39936623D01*
X163375566Y-39935449D01*
X163399458Y-39936623D01*
G37*
G36*
X162174152Y-35862449D02*
G01*
X162197813Y-35865959D01*
X162221017Y-35871771D01*
X162243539Y-35879829D01*
X162265163Y-35890057D01*
X162285680Y-35902354D01*
X162304893Y-35916604D01*
X162322617Y-35932668D01*
X162667332Y-36277383D01*
X162683396Y-36295107D01*
X162697646Y-36314320D01*
X162709943Y-36334837D01*
X162720171Y-36356461D01*
X162728229Y-36378983D01*
X162734041Y-36402187D01*
X162737551Y-36425848D01*
X162738725Y-36449740D01*
X162737551Y-36473632D01*
X162734041Y-36497293D01*
X162728229Y-36520497D01*
X162720171Y-36543019D01*
X162709943Y-36564643D01*
X162697646Y-36585160D01*
X162683396Y-36604373D01*
X162667332Y-36622097D01*
X162022097Y-37267332D01*
X162004373Y-37283396D01*
X161985160Y-37297646D01*
X161964643Y-37309943D01*
X161943019Y-37320171D01*
X161920497Y-37328229D01*
X161897293Y-37334041D01*
X161873632Y-37337551D01*
X161849740Y-37338725D01*
X161825848Y-37337551D01*
X161802187Y-37334041D01*
X161778983Y-37328229D01*
X161756461Y-37320171D01*
X161734837Y-37309943D01*
X161714320Y-37297646D01*
X161695107Y-37283396D01*
X161677383Y-37267332D01*
X161332668Y-36922617D01*
X161316604Y-36904893D01*
X161302354Y-36885680D01*
X161290057Y-36865163D01*
X161279829Y-36843539D01*
X161271771Y-36821017D01*
X161265959Y-36797813D01*
X161262449Y-36774152D01*
X161261275Y-36750260D01*
X161262449Y-36726368D01*
X161265959Y-36702707D01*
X161271771Y-36679503D01*
X161279829Y-36656981D01*
X161290057Y-36635357D01*
X161302354Y-36614840D01*
X161316604Y-36595627D01*
X161332668Y-36577903D01*
X161977903Y-35932668D01*
X161995627Y-35916604D01*
X162014840Y-35902354D01*
X162035357Y-35890057D01*
X162056981Y-35879829D01*
X162079503Y-35871771D01*
X162102707Y-35865959D01*
X162126368Y-35862449D01*
X162150260Y-35861275D01*
X162174152Y-35862449D01*
G37*
G36*
X163499978Y-37188275D02*
G01*
X163523639Y-37191785D01*
X163546843Y-37197597D01*
X163569365Y-37205655D01*
X163590989Y-37215883D01*
X163611506Y-37228180D01*
X163630719Y-37242430D01*
X163648443Y-37258494D01*
X163993158Y-37603209D01*
X164009222Y-37620933D01*
X164023472Y-37640146D01*
X164035769Y-37660663D01*
X164045997Y-37682287D01*
X164054055Y-37704809D01*
X164059867Y-37728013D01*
X164063377Y-37751674D01*
X164064551Y-37775566D01*
X164063377Y-37799458D01*
X164059867Y-37823119D01*
X164054055Y-37846323D01*
X164045997Y-37868845D01*
X164035769Y-37890469D01*
X164023472Y-37910986D01*
X164009222Y-37930199D01*
X163993158Y-37947923D01*
X163347923Y-38593158D01*
X163330199Y-38609222D01*
X163310986Y-38623472D01*
X163290469Y-38635769D01*
X163268845Y-38645997D01*
X163246323Y-38654055D01*
X163223119Y-38659867D01*
X163199458Y-38663377D01*
X163175566Y-38664551D01*
X163151674Y-38663377D01*
X163128013Y-38659867D01*
X163104809Y-38654055D01*
X163082287Y-38645997D01*
X163060663Y-38635769D01*
X163040146Y-38623472D01*
X163020933Y-38609222D01*
X163003209Y-38593158D01*
X162658494Y-38248443D01*
X162642430Y-38230719D01*
X162628180Y-38211506D01*
X162615883Y-38190989D01*
X162605655Y-38169365D01*
X162597597Y-38146843D01*
X162591785Y-38123639D01*
X162588275Y-38099978D01*
X162587101Y-38076086D01*
X162588275Y-38052194D01*
X162591785Y-38028533D01*
X162597597Y-38005329D01*
X162605655Y-37982807D01*
X162615883Y-37961183D01*
X162628180Y-37940666D01*
X162642430Y-37921453D01*
X162658494Y-37903729D01*
X163303729Y-37258494D01*
X163321453Y-37242430D01*
X163340666Y-37228180D01*
X163361183Y-37215883D01*
X163382807Y-37205655D01*
X163405329Y-37197597D01*
X163428533Y-37191785D01*
X163452194Y-37188275D01*
X163476086Y-37187101D01*
X163499978Y-37188275D01*
G37*
G36*
X176547806Y-50788275D02*
G01*
X176571467Y-50791785D01*
X176594671Y-50797597D01*
X176617193Y-50805655D01*
X176638817Y-50815883D01*
X176659334Y-50828180D01*
X176678547Y-50842430D01*
X176696271Y-50858494D01*
X177341506Y-51503729D01*
X177357570Y-51521453D01*
X177371820Y-51540666D01*
X177384117Y-51561183D01*
X177394345Y-51582807D01*
X177402403Y-51605329D01*
X177408215Y-51628533D01*
X177411725Y-51652194D01*
X177412899Y-51676086D01*
X177411725Y-51699978D01*
X177408215Y-51723639D01*
X177402403Y-51746843D01*
X177394345Y-51769365D01*
X177384117Y-51790989D01*
X177371820Y-51811506D01*
X177357570Y-51830719D01*
X177341506Y-51848443D01*
X176996791Y-52193158D01*
X176979067Y-52209222D01*
X176959854Y-52223472D01*
X176939337Y-52235769D01*
X176917713Y-52245997D01*
X176895191Y-52254055D01*
X176871987Y-52259867D01*
X176848326Y-52263377D01*
X176824434Y-52264551D01*
X176800542Y-52263377D01*
X176776881Y-52259867D01*
X176753677Y-52254055D01*
X176731155Y-52245997D01*
X176709531Y-52235769D01*
X176689014Y-52223472D01*
X176669801Y-52209222D01*
X176652077Y-52193158D01*
X176006842Y-51547923D01*
X175990778Y-51530199D01*
X175976528Y-51510986D01*
X175964231Y-51490469D01*
X175954003Y-51468845D01*
X175945945Y-51446323D01*
X175940133Y-51423119D01*
X175936623Y-51399458D01*
X175935449Y-51375566D01*
X175936623Y-51351674D01*
X175940133Y-51328013D01*
X175945945Y-51304809D01*
X175954003Y-51282287D01*
X175964231Y-51260663D01*
X175976528Y-51240146D01*
X175990778Y-51220933D01*
X176006842Y-51203209D01*
X176351557Y-50858494D01*
X176369281Y-50842430D01*
X176388494Y-50828180D01*
X176409011Y-50815883D01*
X176430635Y-50805655D01*
X176453157Y-50797597D01*
X176476361Y-50791785D01*
X176500022Y-50788275D01*
X176523914Y-50787101D01*
X176547806Y-50788275D01*
G37*
G36*
X177873632Y-49462449D02*
G01*
X177897293Y-49465959D01*
X177920497Y-49471771D01*
X177943019Y-49479829D01*
X177964643Y-49490057D01*
X177985160Y-49502354D01*
X178004373Y-49516604D01*
X178022097Y-49532668D01*
X178667332Y-50177903D01*
X178683396Y-50195627D01*
X178697646Y-50214840D01*
X178709943Y-50235357D01*
X178720171Y-50256981D01*
X178728229Y-50279503D01*
X178734041Y-50302707D01*
X178737551Y-50326368D01*
X178738725Y-50350260D01*
X178737551Y-50374152D01*
X178734041Y-50397813D01*
X178728229Y-50421017D01*
X178720171Y-50443539D01*
X178709943Y-50465163D01*
X178697646Y-50485680D01*
X178683396Y-50504893D01*
X178667332Y-50522617D01*
X178322617Y-50867332D01*
X178304893Y-50883396D01*
X178285680Y-50897646D01*
X178265163Y-50909943D01*
X178243539Y-50920171D01*
X178221017Y-50928229D01*
X178197813Y-50934041D01*
X178174152Y-50937551D01*
X178150260Y-50938725D01*
X178126368Y-50937551D01*
X178102707Y-50934041D01*
X178079503Y-50928229D01*
X178056981Y-50920171D01*
X178035357Y-50909943D01*
X178014840Y-50897646D01*
X177995627Y-50883396D01*
X177977903Y-50867332D01*
X177332668Y-50222097D01*
X177316604Y-50204373D01*
X177302354Y-50185160D01*
X177290057Y-50164643D01*
X177279829Y-50143019D01*
X177271771Y-50120497D01*
X177265959Y-50097293D01*
X177262449Y-50073632D01*
X177261275Y-50049740D01*
X177262449Y-50025848D01*
X177265959Y-50002187D01*
X177271771Y-49978983D01*
X177279829Y-49956461D01*
X177290057Y-49934837D01*
X177302354Y-49914320D01*
X177316604Y-49895107D01*
X177332668Y-49877383D01*
X177677383Y-49532668D01*
X177695107Y-49516604D01*
X177714320Y-49502354D01*
X177734837Y-49490057D01*
X177756461Y-49479829D01*
X177778983Y-49471771D01*
X177802187Y-49465959D01*
X177825848Y-49462449D01*
X177849740Y-49461275D01*
X177873632Y-49462449D01*
G37*
G36*
X161073632Y-53862449D02*
G01*
X161097293Y-53865959D01*
X161120497Y-53871771D01*
X161143019Y-53879829D01*
X161164643Y-53890057D01*
X161185160Y-53902354D01*
X161204373Y-53916604D01*
X161222097Y-53932668D01*
X161867332Y-54577903D01*
X161883396Y-54595627D01*
X161897646Y-54614840D01*
X161909943Y-54635357D01*
X161920171Y-54656981D01*
X161928229Y-54679503D01*
X161934041Y-54702707D01*
X161937551Y-54726368D01*
X161938725Y-54750260D01*
X161937551Y-54774152D01*
X161934041Y-54797813D01*
X161928229Y-54821017D01*
X161920171Y-54843539D01*
X161909943Y-54865163D01*
X161897646Y-54885680D01*
X161883396Y-54904893D01*
X161867332Y-54922617D01*
X161522617Y-55267332D01*
X161504893Y-55283396D01*
X161485680Y-55297646D01*
X161465163Y-55309943D01*
X161443539Y-55320171D01*
X161421017Y-55328229D01*
X161397813Y-55334041D01*
X161374152Y-55337551D01*
X161350260Y-55338725D01*
X161326368Y-55337551D01*
X161302707Y-55334041D01*
X161279503Y-55328229D01*
X161256981Y-55320171D01*
X161235357Y-55309943D01*
X161214840Y-55297646D01*
X161195627Y-55283396D01*
X161177903Y-55267332D01*
X160532668Y-54622097D01*
X160516604Y-54604373D01*
X160502354Y-54585160D01*
X160490057Y-54564643D01*
X160479829Y-54543019D01*
X160471771Y-54520497D01*
X160465959Y-54497293D01*
X160462449Y-54473632D01*
X160461275Y-54449740D01*
X160462449Y-54425848D01*
X160465959Y-54402187D01*
X160471771Y-54378983D01*
X160479829Y-54356461D01*
X160490057Y-54334837D01*
X160502354Y-54314320D01*
X160516604Y-54295107D01*
X160532668Y-54277383D01*
X160877383Y-53932668D01*
X160895107Y-53916604D01*
X160914320Y-53902354D01*
X160934837Y-53890057D01*
X160956461Y-53879829D01*
X160978983Y-53871771D01*
X161002187Y-53865959D01*
X161025848Y-53862449D01*
X161049740Y-53861275D01*
X161073632Y-53862449D01*
G37*
G36*
X162399458Y-52536623D02*
G01*
X162423119Y-52540133D01*
X162446323Y-52545945D01*
X162468845Y-52554003D01*
X162490469Y-52564231D01*
X162510986Y-52576528D01*
X162530199Y-52590778D01*
X162547923Y-52606842D01*
X163193158Y-53252077D01*
X163209222Y-53269801D01*
X163223472Y-53289014D01*
X163235769Y-53309531D01*
X163245997Y-53331155D01*
X163254055Y-53353677D01*
X163259867Y-53376881D01*
X163263377Y-53400542D01*
X163264551Y-53424434D01*
X163263377Y-53448326D01*
X163259867Y-53471987D01*
X163254055Y-53495191D01*
X163245997Y-53517713D01*
X163235769Y-53539337D01*
X163223472Y-53559854D01*
X163209222Y-53579067D01*
X163193158Y-53596791D01*
X162848443Y-53941506D01*
X162830719Y-53957570D01*
X162811506Y-53971820D01*
X162790989Y-53984117D01*
X162769365Y-53994345D01*
X162746843Y-54002403D01*
X162723639Y-54008215D01*
X162699978Y-54011725D01*
X162676086Y-54012899D01*
X162652194Y-54011725D01*
X162628533Y-54008215D01*
X162605329Y-54002403D01*
X162582807Y-53994345D01*
X162561183Y-53984117D01*
X162540666Y-53971820D01*
X162521453Y-53957570D01*
X162503729Y-53941506D01*
X161858494Y-53296271D01*
X161842430Y-53278547D01*
X161828180Y-53259334D01*
X161815883Y-53238817D01*
X161805655Y-53217193D01*
X161797597Y-53194671D01*
X161791785Y-53171467D01*
X161788275Y-53147806D01*
X161787101Y-53123914D01*
X161788275Y-53100022D01*
X161791785Y-53076361D01*
X161797597Y-53053157D01*
X161805655Y-53030635D01*
X161815883Y-53009011D01*
X161828180Y-52988494D01*
X161842430Y-52969281D01*
X161858494Y-52951557D01*
X162203209Y-52606842D01*
X162220933Y-52590778D01*
X162240146Y-52576528D01*
X162260663Y-52564231D01*
X162282287Y-52554003D01*
X162304809Y-52545945D01*
X162328013Y-52540133D01*
X162351674Y-52536623D01*
X162375566Y-52535449D01*
X162399458Y-52536623D01*
G37*
G36*
X171673632Y-55862449D02*
G01*
X171697293Y-55865959D01*
X171720497Y-55871771D01*
X171743019Y-55879829D01*
X171764643Y-55890057D01*
X171785160Y-55902354D01*
X171804373Y-55916604D01*
X171822097Y-55932668D01*
X172467332Y-56577903D01*
X172483396Y-56595627D01*
X172497646Y-56614840D01*
X172509943Y-56635357D01*
X172520171Y-56656981D01*
X172528229Y-56679503D01*
X172534041Y-56702707D01*
X172537551Y-56726368D01*
X172538725Y-56750260D01*
X172537551Y-56774152D01*
X172534041Y-56797813D01*
X172528229Y-56821017D01*
X172520171Y-56843539D01*
X172509943Y-56865163D01*
X172497646Y-56885680D01*
X172483396Y-56904893D01*
X172467332Y-56922617D01*
X172122617Y-57267332D01*
X172104893Y-57283396D01*
X172085680Y-57297646D01*
X172065163Y-57309943D01*
X172043539Y-57320171D01*
X172021017Y-57328229D01*
X171997813Y-57334041D01*
X171974152Y-57337551D01*
X171950260Y-57338725D01*
X171926368Y-57337551D01*
X171902707Y-57334041D01*
X171879503Y-57328229D01*
X171856981Y-57320171D01*
X171835357Y-57309943D01*
X171814840Y-57297646D01*
X171795627Y-57283396D01*
X171777903Y-57267332D01*
X171132668Y-56622097D01*
X171116604Y-56604373D01*
X171102354Y-56585160D01*
X171090057Y-56564643D01*
X171079829Y-56543019D01*
X171071771Y-56520497D01*
X171065959Y-56497293D01*
X171062449Y-56473632D01*
X171061275Y-56449740D01*
X171062449Y-56425848D01*
X171065959Y-56402187D01*
X171071771Y-56378983D01*
X171079829Y-56356461D01*
X171090057Y-56334837D01*
X171102354Y-56314320D01*
X171116604Y-56295107D01*
X171132668Y-56277383D01*
X171477383Y-55932668D01*
X171495107Y-55916604D01*
X171514320Y-55902354D01*
X171534837Y-55890057D01*
X171556461Y-55879829D01*
X171578983Y-55871771D01*
X171602187Y-55865959D01*
X171625848Y-55862449D01*
X171649740Y-55861275D01*
X171673632Y-55862449D01*
G37*
G36*
X170347806Y-57188275D02*
G01*
X170371467Y-57191785D01*
X170394671Y-57197597D01*
X170417193Y-57205655D01*
X170438817Y-57215883D01*
X170459334Y-57228180D01*
X170478547Y-57242430D01*
X170496271Y-57258494D01*
X171141506Y-57903729D01*
X171157570Y-57921453D01*
X171171820Y-57940666D01*
X171184117Y-57961183D01*
X171194345Y-57982807D01*
X171202403Y-58005329D01*
X171208215Y-58028533D01*
X171211725Y-58052194D01*
X171212899Y-58076086D01*
X171211725Y-58099978D01*
X171208215Y-58123639D01*
X171202403Y-58146843D01*
X171194345Y-58169365D01*
X171184117Y-58190989D01*
X171171820Y-58211506D01*
X171157570Y-58230719D01*
X171141506Y-58248443D01*
X170796791Y-58593158D01*
X170779067Y-58609222D01*
X170759854Y-58623472D01*
X170739337Y-58635769D01*
X170717713Y-58645997D01*
X170695191Y-58654055D01*
X170671987Y-58659867D01*
X170648326Y-58663377D01*
X170624434Y-58664551D01*
X170600542Y-58663377D01*
X170576881Y-58659867D01*
X170553677Y-58654055D01*
X170531155Y-58645997D01*
X170509531Y-58635769D01*
X170489014Y-58623472D01*
X170469801Y-58609222D01*
X170452077Y-58593158D01*
X169806842Y-57947923D01*
X169790778Y-57930199D01*
X169776528Y-57910986D01*
X169764231Y-57890469D01*
X169754003Y-57868845D01*
X169745945Y-57846323D01*
X169740133Y-57823119D01*
X169736623Y-57799458D01*
X169735449Y-57775566D01*
X169736623Y-57751674D01*
X169740133Y-57728013D01*
X169745945Y-57704809D01*
X169754003Y-57682287D01*
X169764231Y-57660663D01*
X169776528Y-57640146D01*
X169790778Y-57620933D01*
X169806842Y-57603209D01*
X170151557Y-57258494D01*
X170169281Y-57242430D01*
X170188494Y-57228180D01*
X170209011Y-57215883D01*
X170230635Y-57205655D01*
X170253157Y-57197597D01*
X170276361Y-57191785D01*
X170300022Y-57188275D01*
X170323914Y-57187101D01*
X170347806Y-57188275D01*
G37*
M02*
