M48
; DRILL file {KiCad (5.1.5)-3} date 09/23/20 00:09:51
; FORMAT={-:-/ absolute / inch / decimal}
; #@! TF.CreationDate,2020-09-23T00:09:51-07:00
; #@! TF.GenerationSoftware,Kicad,Pcbnew,(5.1.5)-3
; #@! TF.FileFunction,NonPlated,1,2,NPTH
FMAT,2
INCH
T1C0.0256
T2C0.0689
T3C0.1200
T4C0.1570
%
G90
G05
T1
X6.5669Y1.4211
X6.7945Y1.4211
T2
X6.3625Y-0.7188
X6.7625Y-0.7188
X11.9875Y-1.4688
X12.3875Y-1.4688
X11.6125Y-0.7188
X12.0125Y-0.7188
X8.6125Y-0.7188
X9.0125Y-0.7188
X11.9875Y0.0312
X12.3875Y0.0312
X8.9875Y-1.4688
X9.3875Y-1.4688
X9.3625Y-0.7188
X9.7625Y-0.7188
X8.2375Y-1.4688
X8.6375Y-1.4688
X13.1125Y-0.7188
X13.5125Y-0.7188
X10.3937Y-2.2188
X10.7937Y-2.2188
X6.7375Y0.0312
X7.1375Y0.0312
X11.2375Y-1.4688
X11.6375Y-1.4688
X8.2375Y0.0312
X8.6375Y0.0312
X10.1125Y-0.7188
X10.5125Y-0.7188
X7.1125Y-0.7188
X7.5125Y-0.7188
X7.0187Y-2.2188
X7.4188Y-2.2188
X7.4875Y-1.4688
X7.8875Y-1.4688
X9.7375Y0.0312
X10.1375Y0.0312
X12.8312Y-2.2188
X13.2312Y-2.2188
X5.9875Y0.0312
X6.3875Y0.0312
X11.2375Y0.0312
X11.6375Y0.0312
X8.5187Y-2.2188
X8.9187Y-2.2188
X12.925Y-1.4688
X13.325Y-1.4688
X9.8312Y-2.2188
X10.2312Y-2.2188
X10.8625Y-0.7188
X11.2625Y-0.7188
X12.3625Y-0.7188
X12.7625Y-0.7188
X10.4875Y0.0312
X10.8875Y0.0312
X11.7062Y-2.2188
X12.1062Y-2.2188
X6.7375Y-1.4688
X7.1375Y-1.4688
X9.7375Y-1.4688
X10.1375Y-1.4688
X7.8625Y-0.7188
X8.2625Y-0.7188
X10.4875Y-1.4688
X10.8875Y-1.4688
X8.9875Y0.0312
X9.3875Y0.0312
X12.7375Y0.0312
X13.1375Y0.0312
X7.4875Y0.0312
X7.8875Y0.0312
X5.8Y-1.4688
X6.2Y-1.4688
X5.8937Y-2.2188
X6.2938Y-2.2188
X5.6125Y-0.7188
X6.0125Y-0.7188
T3
X10.1237Y-2.4937
X11.0637Y-2.4937
X8.2487Y-2.4937
X9.1888Y-2.4937
X8.0627Y-2.4937
X11.9998Y-2.4937
T4
X9.5625Y-0.7188
X8.4375Y-1.4688
X13.3125Y-0.7188
X10.1237Y-1.8938
X10.5938Y-2.2188
X11.0637Y-1.8938
X6.9375Y0.0312
X11.4375Y-1.4688
X8.4375Y0.0312
X10.3125Y-0.7188
X7.3125Y-0.7188
X7.2188Y-2.2188
X7.6875Y-1.4688
X9.9375Y0.0312
X13.0312Y-2.2188
X6.1875Y0.0312
X11.4375Y0.0312
X8.2487Y-1.8938
X8.7188Y-2.2188
X9.1888Y-1.8938
X13.125Y-1.4688
X8.0627Y-1.8938
X10.0312Y-2.2188
X11.9998Y-1.8938
X11.0625Y-0.7188
X12.5625Y-0.7188
X10.6875Y0.0312
X11.9062Y-2.2188
X6.9375Y-1.4688
X9.9375Y-1.4688
X8.0625Y-0.7188
X10.6875Y-1.4688
X9.1875Y0.0312
X12.9375Y0.0312
X7.6875Y0.0312
X6.0Y-1.4688
X6.0938Y-2.2188
X5.8125Y-0.7188
X6.5625Y-0.7188
X12.1875Y-1.4688
X11.8125Y-0.7188
X8.8125Y-0.7188
X12.1875Y0.0312
X9.1875Y-1.4688
T0
M30
