0
SECTION
2
HEADER
9
$INSUNITS
70
4
9
$ACADVER
1
AC1014
9
$HANDSEED
5
FFFF
0
ENDSEC
0
SECTION
2
TABLES
0
TABLE
2
VPORT
5
8
100
AcDbSymbolTable
0
ENDTAB
0
TABLE
2
LTYPE
5
5
100
AcDbSymbolTable
0
LTYPE
5
14
100
AcDbSymbolTableRecord
100
AcDbLinetypeTableRecord
2
BYBLOCK
70
0
0
LTYPE
5
15
100
AcDbSymbolTableRecord
100
AcDbLinetypeTableRecord
2
BYLAYER
70
0
0
ENDTAB
0
TABLE
2
LAYER
5
2
100
AcDbSymbolTable
70
2
0
LAYER
5
50
100
AcDbSymbolTableRecord
100
AcDbLayerTableRecord
2
0
70
0
6
CONTINUOUS
0
ENDTAB
0
TABLE
2
STYLE
5
3
100
AcDbSymbolTable
70
1
0
STYLE
5
11
100
AcDbSymbolTableRecord
100
AcDbTextStyleTableRecord
2
STANDARD
70
0
0
ENDTAB
0
TABLE
2
VIEW
5
6
100
AcDbSymbolTable
70
0
0
ENDTAB
0
TABLE
2
UCS
5
7
100
AcDbSymbolTable
70
0
0
ENDTAB
0
TABLE
2
APPID
5
9
100
AcDbSymbolTable
70
2
0
APPID
5
12
100
AcDbSymbolTableRecord
100
AcDbRegAppTableRecord
2
ACAD
70
0
0
ENDTAB
0
TABLE
2
DIMSTYLE
5
A
100
AcDbSymbolTable
70
1
0
ENDTAB
0
TABLE
2
BLOCK_RECORD
5
1
100
AcDbSymbolTable
70
1
0
BLOCK_RECORD
5
1F
100
AcDbSymbolTableRecord
100
AcDbBlockTableRecord
2
*MODEL_SPACE
0
BLOCK_RECORD
5
1B
100
AcDbSymbolTableRecord
100
AcDbBlockTableRecord
2
*PAPER_SPACE
0
ENDTAB
0
ENDSEC
0
SECTION
2
BLOCKS
0
BLOCK
5
20
100
AcDbEntity
100
AcDbBlockBegin
2
*MODEL_SPACE
0
ENDBLK
5
21
100
AcDbEntity
100
AcDbBlockEnd
0
BLOCK
5
1C
100
AcDbEntity
100
AcDbBlockBegin
2
*PAPER_SPACE
0
ENDBLK
5
1D
100
AcDbEntity
100
AcDbBlockEnd
0
ENDSEC
0
SECTION
2
ENTITIES
0
LWPOLYLINE
5
100
100
AcDbEntity
8
0
100
AcDbPolyline
90
8
70
1
43
0.0
10
-90.450000000000017
20
-99.948223304703845
10
-490.87549999999993
20
-99.948223304703845
42
0.41421356237309764
10
-492.87549999999999
20
-101.94822330470386
10
-492.87549999999999
20
-107.60177669529595
42
0.41421356237309243
10
-490.87549999999993
20
-109.60177669529588
10
-90.450000000000017
20
-109.60177669529588
42
0.41421356237309503
10
-88.450000000000017
20
-107.6017766952959
10
-88.450000000000017
20
-101.9482233047038
42
0.41421356237309503
0
LWPOLYLINE
5
101
100
AcDbEntity
8
0
100
AcDbPolyline
90
6
70
1
43
0.0
10
-291.45625000000001
20
-117.72316083935182
10
-294.66054399400241
20
-119.57316083935181
10
-294.66054399400241
20
-123.27316083935182
10
-291.45625000000001
20
-125.12316083935183
10
-288.25195600599756
20
-123.27316083935182
10
-288.25195600599756
20
-119.57316083935181
0
LWPOLYLINE
5
102
100
AcDbEntity
8
0
100
AcDbPolyline
90
6
70
1
43
0.0
10
-291.45625000000001
20
3.2546875346492148
10
-288.25195600599756
20
5.1046875346492149
10
-288.25195600599756
20
8.8046875346492257
10
-291.45625000000001
20
10.654687534649231
10
-294.66054399400241
20
8.8046875346492222
10
-294.66054399400241
20
5.1046875346492104
0
LWPOLYLINE
5
103
100
AcDbEntity
8
0
100
AcDbPolyline
90
6
70
1
43
0.0
10
-500.19190845516607
20
3.254687534649197
10
-496.98761446116362
20
5.1046875346491971
10
-496.98761446116362
20
8.804687534649176
10
-500.19190845516607
20
10.654687534649165
10
-503.39620244916841
20
8.8046875346491813
10
-503.39620244916841
20
5.1046875346492104
0
LWPOLYLINE
5
104
100
AcDbEntity
8
0
100
AcDbPolyline
90
6
70
1
43
0.0
10
-82.720591544834079
20
-117.72316083935181
10
-85.924885538836492
20
-119.5731608393518
10
-85.924885538836492
20
-123.27316083935179
10
-82.720591544834079
20
-125.12316083935178
10
-79.516297550831666
20
-123.2731608393518
10
-79.516297550831652
20
-119.57316083935181
0
LWPOLYLINE
5
105
100
AcDbEntity
8
0
100
AcDbPolyline
90
6
70
1
43
0.0
10
-82.720591544833937
20
3.2546875346491793
10
-79.51629755083151
20
5.1046875346491793
10
-79.51629755083151
20
8.8046875346491813
10
-82.720591544833937
20
10.654687534649183
10
-85.924885538836378
20
8.8046875346491813
10
-85.924885538836378
20
5.1046875346491714
0
LWPOLYLINE
5
106
100
AcDbEntity
8
0
100
AcDbPolyline
90
6
70
1
43
0.0
10
-500.1919084551659
20
-117.72316083935179
10
-503.3962024491683
20
-119.57316083935177
10
-503.3962024491683
20
-123.27316083935175
10
-500.1919084551659
20
-125.12316083935174
10
-496.9876144611635
20
-123.27316083935176
10
-496.9876144611635
20
-119.5731608393518
0
LWPOLYLINE
5
107
100
AcDbEntity
8
0
100
AcDbPolyline
90
8
70
1
43
0.0
10
-396.83125000000013
20
-0.56847330470253288
42
-0.41421356237310542
10
-395.83125000000001
20
0.43152669529746379
10
-113.26250000000002
20
0.4315266952974684
42
-0.41421356237309642
10
-112.26249999999996
20
-0.56847330470255031
10
-112.26250000000002
20
-95.018473304702638
42
-0.41421356237309503
10
-113.26250000000002
20
-96.018473304702638
10
-395.83125000000001
20
-96.018473304702638
42
-0.41421356237313667
10
-396.83125000000007
20
-95.018473304702624
0
LWPOLYLINE
5
108
100
AcDbEntity
8
0
100
AcDbPolyline
90
8
70
1
43
0.0
10
-89.450000000000003
20
0.43152669529733961
10
-107.70000000000003
20
0.43152669529733961
42
0.4142135623730987
10
-108.70000000000005
20
-0.56847330470265689
10
-108.70000000000002
20
-95.018473304702624
42
0.41421356237309503
10
-107.70000000000003
20
-96.018473304702638
10
-89.450000000000045
20
-96.018473304702638
42
0.41421356237311063
10
-88.45000000000006
20
-95.018473304702667
10
-88.450000000000003
20
-0.568473304702657
42
0.41421356237309881
0
LWPOLYLINE
5
109
100
AcDbEntity
8
0
100
AcDbPolyline
90
8
70
1
43
0.0
10
-415.47499656677257
20
-95.01847196955849
42
-0.41421356237313667
10
-416.47499656677263
20
-96.018471969558476
10
-491.87499656677244
20
-96.018471969558519
42
-0.41421356237307422
10
-492.87499656677244
20
-95.018471969558504
10
-492.87499656677244
20
-0.56847196955860835
42
-0.41421356237314139
10
-491.87499656677238
20
0.43152803044138821
10
-416.47499656677263
20
0.43152803044142235
42
-0.41421356237314144
10
-415.47499656677257
20
-0.56847196955860824
0
LWPOLYLINE
5
110
100
AcDbEntity
8
0
100
AcDbPolyline
90
8
70
1
43
0.0
10
-508.38749999999999
20
11.356526695297386
42
-0.41421356237309681
10
-505.38749999999999
20
14.356526695297394
10
-77.524999999999977
20
14.356526695297349
42
-0.41421356237308898
10
-74.525000000000006
20
11.356526695297351
10
-74.525000000000006
20
-125.82500000000002
42
-0.41421356237310025
10
-77.525000000000048
20
-128.82499999999999
10
-505.38749999999999
20
-128.82499999999993
42
-0.41421356237309503
10
-508.38749999999999
20
-125.82499999999996
0
ENDSEC
0
SECTION
2
OBJECTS
0
DICTIONARY
5
C
100
AcDbDictionary
3
ACAD_GROUP
350
D
3
ACAD_MLINESTYLE
350
17
0
DICTIONARY
5
D
100
AcDbDictionary
0
DICTIONARY
5
1A
330
C
100
AcDbDictionary
0
DICTIONARY
5
17
100
AcDbDictionary
0
ENDSEC
0
EOF
