0
SECTION
2
HEADER
9
$INSUNITS
70
4
9
$ACADVER
1
AC1014
9
$HANDSEED
5
FFFF
0
ENDSEC
0
SECTION
2
TABLES
0
TABLE
2
VPORT
5
8
100
AcDbSymbolTable
0
ENDTAB
0
TABLE
2
LTYPE
5
5
100
AcDbSymbolTable
0
LTYPE
5
14
100
AcDbSymbolTableRecord
100
AcDbLinetypeTableRecord
2
BYBLOCK
70
0
0
LTYPE
5
15
100
AcDbSymbolTableRecord
100
AcDbLinetypeTableRecord
2
BYLAYER
70
0
0
ENDTAB
0
TABLE
2
LAYER
5
2
100
AcDbSymbolTable
70
2
0
LAYER
5
50
100
AcDbSymbolTableRecord
100
AcDbLayerTableRecord
2
0
70
0
6
CONTINUOUS
0
ENDTAB
0
TABLE
2
STYLE
5
3
100
AcDbSymbolTable
70
1
0
STYLE
5
11
100
AcDbSymbolTableRecord
100
AcDbTextStyleTableRecord
2
STANDARD
70
0
0
ENDTAB
0
TABLE
2
VIEW
5
6
100
AcDbSymbolTable
70
0
0
ENDTAB
0
TABLE
2
UCS
5
7
100
AcDbSymbolTable
70
0
0
ENDTAB
0
TABLE
2
APPID
5
9
100
AcDbSymbolTable
70
2
0
APPID
5
12
100
AcDbSymbolTableRecord
100
AcDbRegAppTableRecord
2
ACAD
70
0
0
ENDTAB
0
TABLE
2
DIMSTYLE
5
A
100
AcDbSymbolTable
70
1
0
ENDTAB
0
TABLE
2
BLOCK_RECORD
5
1
100
AcDbSymbolTable
70
1
0
BLOCK_RECORD
5
1F
100
AcDbSymbolTableRecord
100
AcDbBlockTableRecord
2
*MODEL_SPACE
0
BLOCK_RECORD
5
1B
100
AcDbSymbolTableRecord
100
AcDbBlockTableRecord
2
*PAPER_SPACE
0
ENDTAB
0
ENDSEC
0
SECTION
2
BLOCKS
0
BLOCK
5
20
100
AcDbEntity
100
AcDbBlockBegin
2
*MODEL_SPACE
0
ENDBLK
5
21
100
AcDbEntity
100
AcDbBlockEnd
0
BLOCK
5
1C
100
AcDbEntity
100
AcDbBlockBegin
2
*PAPER_SPACE
0
ENDBLK
5
1D
100
AcDbEntity
100
AcDbBlockEnd
0
ENDSEC
0
SECTION
2
ENTITIES
0
LWPOLYLINE
5
100
100
AcDbEntity
8
0
100
AcDbPolyline
90
6
70
1
43
0.0
10
503.3962024491683
20
-119.57316083935177
10
500.1919084551659
20
-117.72316083935179
10
496.9876144611635
20
-119.5731608393518
10
496.9876144611635
20
-123.27316083935176
10
500.1919084551659
20
-125.12316083935174
10
503.3962024491683
20
-123.27316083935175
0
LWPOLYLINE
5
101
100
AcDbEntity
8
0
100
AcDbPolyline
90
6
70
1
43
0.0
10
79.51629755083151
20
5.1046875346491793
10
82.720591544833937
20
3.2546875346491793
10
85.924885538836378
20
5.1046875346491714
10
85.924885538836378
20
8.8046875346491813
10
82.720591544833937
20
10.654687534649183
10
79.51629755083151
20
8.8046875346491813
0
LWPOLYLINE
5
102
100
AcDbEntity
8
0
100
AcDbPolyline
90
6
70
1
43
0.0
10
85.924885538836492
20
-119.5731608393518
10
82.720591544834079
20
-117.72316083935181
10
79.516297550831652
20
-119.57316083935181
10
79.516297550831666
20
-123.2731608393518
10
82.720591544834079
20
-125.12316083935178
10
85.924885538836492
20
-123.27316083935179
0
LWPOLYLINE
5
103
100
AcDbEntity
8
0
100
AcDbPolyline
90
6
70
1
43
0.0
10
496.98761446116362
20
5.1046875346491971
10
500.19190845516607
20
3.254687534649197
10
503.39620244916841
20
5.1046875346492104
10
503.39620244916841
20
8.8046875346491813
10
500.19190845516607
20
10.654687534649165
10
496.98761446116362
20
8.804687534649176
0
LWPOLYLINE
5
104
100
AcDbEntity
8
0
100
AcDbPolyline
90
6
70
1
43
0.0
10
288.25195600599756
20
5.1046875346492149
10
291.45625000000001
20
3.2546875346492148
10
294.66054399400241
20
5.1046875346492104
10
294.66054399400241
20
8.8046875346492222
10
291.45625000000001
20
10.654687534649231
10
288.25195600599756
20
8.8046875346492257
0
LWPOLYLINE
5
105
100
AcDbEntity
8
0
100
AcDbPolyline
90
6
70
1
43
0.0
10
294.66054399400241
20
-119.57316083935181
10
291.45625000000001
20
-117.72316083935182
10
288.25195600599756
20
-119.57316083935181
10
288.25195600599756
20
-123.27316083935182
10
291.45625000000001
20
-125.12316083935183
10
294.66054399400241
20
-123.27316083935182
0
LWPOLYLINE
5
106
100
AcDbEntity
8
0
100
AcDbPolyline
90
20
70
1
43
0.0
10
392.33070280998459
20
-111.80177669529584
10
392.33070280998459
20
-128.82499999999996
10
77.525000000000006
20
-128.82499999999999
42
-0.41421356237309764
10
74.525000000000006
20
-125.82499999999999
10
74.524999999999991
20
11.356526695297351
42
-0.41421356237308682
10
77.524999999999977
20
14.356526695297358
10
505.38749999999999
20
14.356526695297344
42
-0.41421356237312151
10
508.38749999999999
20
11.356526695297386
10
508.38749999999999
20
-125.82499999999996
42
-0.41421356237308293
10
505.38749999999999
20
-128.82499999999993
10
422.33070280998459
20
-128.82499999999996
10
422.33070280998459
20
-111.80177669529584
10
494.87499656677244
20
-111.80177669529584
42
0.41421356237309503
10
496.87499656677244
20
-109.80177669529584
10
496.87499656677244
20
0.6315280304413835
42
0.41421356237309509
10
494.87499656677244
20
2.6315280304413857
10
86.449999999999818
20
2.6315280304413813
42
0.41421356237309465
10
84.449999999999818
20
0.63152803044138395
10
84.449999999999804
20
-109.80177669529584
42
0.41421356237309764
10
86.449999999999818
20
-111.80177669529584
0
CIRCLE
5
107
100
AcDbEntity
8
0
100
AcDbCircle
10
446.40584684437323
20
-121.42316083935178
30
0
40
1.9999999999999574
210
0
220
-0
230
1
0
CIRCLE
5
108
100
AcDbEntity
8
0
100
AcDbCircle
10
136.50665315562676
20
-121.42316083935178
30
0
40
1.9999999999999929
210
0
220
-0
230
1
0
ENDSEC
0
SECTION
2
OBJECTS
0
DICTIONARY
5
C
100
AcDbDictionary
3
ACAD_GROUP
350
D
3
ACAD_MLINESTYLE
350
17
0
DICTIONARY
5
D
100
AcDbDictionary
0
DICTIONARY
5
1A
330
C
100
AcDbDictionary
0
DICTIONARY
5
17
100
AcDbDictionary
0
ENDSEC
0
EOF
