G04 #@! TF.GenerationSoftware,KiCad,Pcbnew,(5.1.5)-3*
G04 #@! TF.CreationDate,2021-03-20T18:45:02-07:00*
G04 #@! TF.ProjectId,plate,706c6174-652e-46b6-9963-61645f706362,rev?*
G04 #@! TF.SameCoordinates,Original*
G04 #@! TF.FileFunction,Profile,NP*
%FSLAX46Y46*%
G04 Gerber Fmt 4.6, Leading zero omitted, Abs format (unit mm)*
G04 Created by KiCad (PCBNEW (5.1.5)-3) date 2021-03-20 18:45:02*
%MOMM*%
%LPD*%
G04 APERTURE LIST*
%ADD10C,0.200000*%
G04 APERTURE END LIST*
D10*
X358068750Y-10718474D02*
X358068750Y-147900000D01*
X325431247Y-57150002D02*
X325431247Y-44150002D01*
X338931247Y-43650002D02*
G75*
G02X339431247Y-44150002I0J-500000D01*
G01*
X97631250Y-100800000D02*
G75*
G02X98131250Y-101300000I0J-500000D01*
G01*
X84131250Y-101300000D02*
G75*
G02X84631250Y-100800000I500000J0D01*
G01*
X98918750Y-43650000D02*
X111918750Y-43650000D01*
X111918750Y-57650000D02*
X98918750Y-57650000D01*
X-75793749Y-10718474D02*
G75*
G02X-72793749Y-7718474I3000000J0D01*
G01*
X-72793749Y-150900000D02*
G75*
G02X-75793749Y-147900000I0J3000000D01*
G01*
X179881250Y-133850000D02*
G75*
G02X179381250Y-133350000I0J500000D01*
G01*
X325931247Y-57650002D02*
G75*
G02X325431247Y-57150002I0J500000D01*
G01*
X98918750Y-57650000D02*
G75*
G02X98418750Y-57150000I0J500000D01*
G01*
X98418750Y-44150000D02*
G75*
G02X98918750Y-43650000I500000J0D01*
G01*
X-72793749Y-7718474D02*
X355068750Y-7718474D01*
X84631250Y-100800000D02*
X97631250Y-100800000D01*
X358068750Y-147900000D02*
G75*
G02X355068750Y-150900000I-3000000J0D01*
G01*
X98131250Y-101300000D02*
X98131250Y-114300000D01*
X338931247Y-57650002D02*
X325931247Y-57650002D01*
X84131250Y-114300000D02*
X84131250Y-101300000D01*
X112418750Y-44150000D02*
X112418750Y-57150000D01*
X84631250Y-114800000D02*
G75*
G02X84131250Y-114300000I0J500000D01*
G01*
X355068750Y-150900000D02*
X-72793749Y-150900000D01*
X339431247Y-44150002D02*
X339431247Y-57150002D01*
X97631250Y-114800000D02*
X84631250Y-114800000D01*
X98131250Y-114300000D02*
G75*
G02X97631250Y-114800000I-500000J0D01*
G01*
X179381250Y-133350000D02*
X179381250Y-120350000D01*
X195762500Y-133350000D02*
G75*
G02X195262500Y-133850000I-500000J0D01*
G01*
X98418750Y-57150000D02*
X98418750Y-44150000D01*
X111918750Y-43650000D02*
G75*
G02X112418750Y-44150000I0J-500000D01*
G01*
X112418750Y-57150000D02*
G75*
G02X111918750Y-57650000I-500000J0D01*
G01*
X195262500Y-133850000D02*
X179881250Y-133850000D01*
X339431247Y-57150002D02*
G75*
G02X338931247Y-57650002I-500000J0D01*
G01*
X325431247Y-44150002D02*
G75*
G02X325931247Y-43650002I500000J0D01*
G01*
X-75793749Y-147900000D02*
X-75793749Y-10718474D01*
X355068750Y-7718474D02*
G75*
G02X358068750Y-10718474I0J-3000000D01*
G01*
X325931247Y-43650002D02*
X338931247Y-43650002D01*
X179381250Y-120350000D02*
G75*
G02X179881250Y-119850000I500000J0D01*
G01*
X320381247Y-44150002D02*
X320381247Y-57150002D01*
X-34931249Y-57150000D02*
X-34931249Y-44150000D01*
X242887500Y-119850000D02*
G75*
G02X243387500Y-120350000I0J-500000D01*
G01*
X-20931249Y-44150000D02*
X-20931249Y-57150000D01*
X306381247Y-57150002D02*
X306381247Y-44150002D01*
X306881247Y-57650002D02*
G75*
G02X306381247Y-57150002I0J500000D01*
G01*
X320381247Y-57150002D02*
G75*
G02X319881247Y-57650002I-500000J0D01*
G01*
X160331250Y-114300000D02*
X160331250Y-101300000D01*
X206662000Y-102300000D02*
G75*
G02X207162000Y-101800000I500000J0D01*
G01*
X319881247Y-43650002D02*
G75*
G02X320381247Y-44150002I0J-500000D01*
G01*
X160331250Y-101300000D02*
G75*
G02X160831250Y-100800000I500000J0D01*
G01*
X160831250Y-114800000D02*
G75*
G02X160331250Y-114300000I0J500000D01*
G01*
X207162000Y-116800000D02*
G75*
G02X206662000Y-116300000I0J500000D01*
G01*
X243387500Y-133350000D02*
G75*
G02X242887500Y-133850000I-500000J0D01*
G01*
X79868750Y-57650000D02*
G75*
G02X79368750Y-57150000I0J500000D01*
G01*
X87012500Y-133850000D02*
G75*
G02X86512500Y-133350000I0J500000D01*
G01*
X86512500Y-120350000D02*
G75*
G02X87012500Y-119850000I500000J0D01*
G01*
X227006250Y-120350000D02*
X227006250Y-133350000D01*
X213662000Y-102300000D02*
X213662000Y-116300000D01*
X93368750Y-57150000D02*
G75*
G02X92868750Y-57650000I-500000J0D01*
G01*
X306881247Y-43650002D02*
X319881247Y-43650002D01*
X306381247Y-44150002D02*
G75*
G02X306881247Y-43650002I500000J0D01*
G01*
X79868750Y-43650000D02*
X92868750Y-43650000D01*
X111918750Y-119850000D02*
G75*
G02X112418750Y-120350000I0J-500000D01*
G01*
X160831250Y-100800000D02*
X173831250Y-100800000D01*
X112418750Y-120350000D02*
X112418750Y-133350000D01*
X213162000Y-101800000D02*
G75*
G02X213662000Y-102300000I0J-500000D01*
G01*
X173831250Y-114800000D02*
X160831250Y-114800000D01*
X-1881249Y-57150000D02*
G75*
G02X-2381249Y-57650000I-500000J0D01*
G01*
X-2381249Y-57650000D02*
X-15381249Y-57650000D01*
X174331250Y-101300000D02*
X174331250Y-114300000D01*
X-15881249Y-57150000D02*
X-15881249Y-44150000D01*
X174331250Y-114300000D02*
G75*
G02X173831250Y-114800000I-500000J0D01*
G01*
X173831250Y-100800000D02*
G75*
G02X174331250Y-101300000I0J-500000D01*
G01*
X213662000Y-116300000D02*
G75*
G02X213162000Y-116800000I-500000J0D01*
G01*
X112418750Y-133350000D02*
G75*
G02X111918750Y-133850000I-500000J0D01*
G01*
X-20931249Y-57150000D02*
G75*
G02X-21431249Y-57650000I-500000J0D01*
G01*
X87012500Y-119850000D02*
X111918750Y-119850000D01*
X242887500Y-119850000D02*
X227506250Y-119850000D01*
X213162000Y-116800000D02*
X207162000Y-116800000D01*
X-21431249Y-43650000D02*
G75*
G02X-20931249Y-44150000I0J-500000D01*
G01*
X111918750Y-133850000D02*
X87012500Y-133850000D01*
X-34431249Y-43650000D02*
X-21431249Y-43650000D01*
X93368750Y-44150000D02*
X93368750Y-57150000D01*
X79368750Y-44150000D02*
G75*
G02X79868750Y-43650000I500000J0D01*
G01*
X-34931249Y-44150000D02*
G75*
G02X-34431249Y-43650000I500000J0D01*
G01*
X227006250Y-120350000D02*
G75*
G02X227506250Y-119850000I500000J0D01*
G01*
X243387500Y-133350000D02*
X243387500Y-120350000D01*
X227506250Y-133850000D02*
G75*
G02X227006250Y-133350000I0J500000D01*
G01*
X92868750Y-57650000D02*
X79868750Y-57650000D01*
X92868750Y-43650000D02*
G75*
G02X93368750Y-44150000I0J-500000D01*
G01*
X207162000Y-101800000D02*
X213162000Y-101800000D01*
X227506250Y-133850000D02*
X242887500Y-133850000D01*
X86512500Y-133350000D02*
X86512500Y-120350000D01*
X-21431249Y-57650000D02*
X-34431249Y-57650000D01*
X195762500Y-120350000D02*
X195762500Y-133350000D01*
X179881250Y-119850000D02*
X195262500Y-119850000D01*
X206662000Y-116300000D02*
X206662000Y-102300000D01*
X-15381249Y-57650000D02*
G75*
G02X-15881249Y-57150000I0J500000D01*
G01*
X-34431249Y-57650000D02*
G75*
G02X-34931249Y-57150000I0J500000D01*
G01*
X79368750Y-57150000D02*
X79368750Y-44150000D01*
X319881247Y-57650002D02*
X306881247Y-57650002D01*
X195262500Y-119850000D02*
G75*
G02X195762500Y-120350000I0J-500000D01*
G01*
X15575001Y-133850000D02*
G75*
G02X15075001Y-133350000I0J500000D01*
G01*
X31456251Y-120350000D02*
X31456251Y-133350000D01*
X30956251Y-119850000D02*
G75*
G02X31456251Y-120350000I0J-500000D01*
G01*
X15575001Y-119850000D02*
X30956251Y-119850000D01*
X78581250Y-114800000D02*
X65581250Y-114800000D01*
X306381247Y-101300002D02*
G75*
G02X306881247Y-100800002I500000J0D01*
G01*
X319881247Y-100800002D02*
G75*
G02X320381247Y-101300002I0J-500000D01*
G01*
X346668865Y-141648161D02*
X346668865Y-145348161D01*
X141137500Y-139798161D02*
X137933206Y-141648161D01*
X349873159Y-139798161D02*
X346668865Y-141648161D01*
X141281250Y-101300000D02*
G75*
G02X141781250Y-100800000I500000J0D01*
G01*
X319881247Y-133850002D02*
X306881247Y-133850002D01*
X319881247Y-119850002D02*
G75*
G02X320381247Y-120350002I0J-500000D01*
G01*
X79081250Y-101300000D02*
X79081250Y-114300000D01*
X237038000Y-116800000D02*
X231038000Y-116800000D01*
X237538000Y-102300000D02*
X237538000Y-116300000D01*
X231038000Y-101800000D02*
X237038000Y-101800000D01*
X306881247Y-114800002D02*
G75*
G02X306381247Y-114300002I0J500000D01*
G01*
X141781250Y-100800000D02*
X154781250Y-100800000D01*
X144341794Y-145348161D02*
X144341794Y-141648161D01*
X349873159Y-147198161D02*
X353077453Y-145348161D01*
X30956251Y-133850000D02*
X15575001Y-133850000D01*
X141781250Y-114800000D02*
G75*
G02X141281250Y-114300000I0J500000D01*
G01*
X319881247Y-100800002D02*
X306881247Y-100800002D01*
X230538000Y-116300000D02*
X230538000Y-102300000D01*
X31456251Y-133350000D02*
G75*
G02X30956251Y-133850000I-500000J0D01*
G01*
X65081250Y-101300000D02*
G75*
G02X65581250Y-100800000I500000J0D01*
G01*
X65081250Y-114300000D02*
X65081250Y-101300000D01*
X15075001Y-120350000D02*
G75*
G02X15575001Y-119850000I500000J0D01*
G01*
X353077453Y-141648161D02*
X349873159Y-139798161D01*
X306881247Y-119850002D02*
X319881247Y-119850002D01*
X306381247Y-120350002D02*
G75*
G02X306881247Y-119850002I500000J0D01*
G01*
X154781250Y-100800000D02*
G75*
G02X155281250Y-101300000I0J-500000D01*
G01*
X306881247Y-114800002D02*
X319881247Y-114800002D01*
X320381247Y-133350002D02*
G75*
G02X319881247Y-133850002I-500000J0D01*
G01*
X65581250Y-100800000D02*
X78581250Y-100800000D01*
X141137500Y-147198161D02*
X144341794Y-145348161D01*
X154781250Y-114800000D02*
X141781250Y-114800000D01*
X320381247Y-120350002D02*
X320381247Y-133350002D01*
X231038000Y-116800000D02*
G75*
G02X230538000Y-116300000I0J500000D01*
G01*
X78581250Y-100800000D02*
G75*
G02X79081250Y-101300000I0J-500000D01*
G01*
X155281250Y-101300000D02*
X155281250Y-114300000D01*
X320381247Y-114300002D02*
X320381247Y-101300002D01*
X346668865Y-145348161D02*
X349873159Y-147198161D01*
X306381247Y-101300002D02*
X306381247Y-114300002D01*
X144341794Y-141648161D02*
X141137500Y-139798161D01*
X306381247Y-133350002D02*
X306381247Y-120350002D01*
X230538000Y-102300000D02*
G75*
G02X231038000Y-101800000I500000J0D01*
G01*
X155281250Y-114300000D02*
G75*
G02X154781250Y-114800000I-500000J0D01*
G01*
X65581250Y-114800000D02*
G75*
G02X65081250Y-114300000I0J500000D01*
G01*
X237038000Y-101800000D02*
G75*
G02X237538000Y-102300000I0J-500000D01*
G01*
X141281250Y-114300000D02*
X141281250Y-101300000D01*
X79081250Y-114300000D02*
G75*
G02X78581250Y-114800000I-500000J0D01*
G01*
X320381247Y-114300002D02*
G75*
G02X319881247Y-114800002I-500000J0D01*
G01*
X353077453Y-145348161D02*
X353077453Y-141648161D01*
X137933206Y-145348161D02*
X141137500Y-147198161D01*
X-1881249Y-44150000D02*
X-1881249Y-57150000D01*
X-2381249Y-43650000D02*
G75*
G02X-1881249Y-44150000I0J-500000D01*
G01*
X-15381249Y-43650000D02*
X-2381249Y-43650000D01*
X-15881249Y-44150000D02*
G75*
G02X-15381249Y-43650000I500000J0D01*
G01*
X306881247Y-133850002D02*
G75*
G02X306381247Y-133350002I0J500000D01*
G01*
X237538000Y-116300000D02*
G75*
G02X237038000Y-116800000I-500000J0D01*
G01*
X15075001Y-133350000D02*
X15075001Y-120350000D01*
X137933206Y-141648161D02*
X137933206Y-145348161D01*
X203693750Y-133850000D02*
X219075000Y-133850000D01*
X16668751Y-43650000D02*
G75*
G02X17168751Y-44150000I0J-500000D01*
G01*
X-70807515Y-141656960D02*
X-70797363Y-145356946D01*
X3168751Y-44150000D02*
G75*
G02X3668751Y-43650000I500000J0D01*
G01*
X268781247Y-95750002D02*
G75*
G02X268281247Y-95250002I0J500000D01*
G01*
X282281247Y-82250002D02*
X282281247Y-95250002D01*
X281781247Y-81750002D02*
G75*
G02X282281247Y-82250002I0J-500000D01*
G01*
X-58743749Y-63200000D02*
G75*
G02X-58243749Y-62700000I500000J0D01*
G01*
X3668751Y-57650000D02*
G75*
G02X3168751Y-57150000I0J500000D01*
G01*
X282281247Y-95250002D02*
G75*
G02X281781247Y-95750002I-500000J0D01*
G01*
X3668751Y-43650000D02*
X16668751Y-43650000D01*
X-67588005Y-147198147D02*
X-64388799Y-145339363D01*
X-44743749Y-120350000D02*
X-44743749Y-133350000D01*
X59531250Y-100800000D02*
G75*
G02X60031250Y-101300000I0J-500000D01*
G01*
X46031251Y-114300000D02*
X46031251Y-101300000D01*
X-58243749Y-133850000D02*
G75*
G02X-58743749Y-133350000I0J500000D01*
G01*
X-58243749Y-76700000D02*
G75*
G02X-58743749Y-76200000I0J500000D01*
G01*
X219575000Y-133350000D02*
G75*
G02X219075000Y-133850000I-500000J0D01*
G01*
X268781247Y-81750002D02*
X281781247Y-81750002D01*
X46031251Y-101300000D02*
G75*
G02X46531251Y-100800000I500000J0D01*
G01*
X3168751Y-57150000D02*
X3168751Y-44150000D01*
X17168751Y-44150000D02*
X17168751Y-57150000D01*
X-58743749Y-76200000D02*
X-58743749Y-63200000D01*
X-45243749Y-119850000D02*
G75*
G02X-44743749Y-120350000I0J-500000D01*
G01*
X219075000Y-119850000D02*
G75*
G02X219575000Y-120350000I0J-500000D01*
G01*
X203193750Y-120350000D02*
X203193750Y-133350000D01*
X219075000Y-119850000D02*
X203693750Y-119850000D01*
X-44743749Y-133350000D02*
G75*
G02X-45243749Y-133850000I-500000J0D01*
G01*
X-58243749Y-119850000D02*
X-45243749Y-119850000D01*
X60031250Y-114300000D02*
G75*
G02X59531250Y-114800000I-500000J0D01*
G01*
X-70797363Y-145356946D02*
X-67588005Y-147198147D01*
X60031250Y-101300000D02*
X60031250Y-114300000D01*
X-58743749Y-133350000D02*
X-58743749Y-120350000D01*
X-45243749Y-76700000D02*
X-58243749Y-76700000D01*
X-44743749Y-76200000D02*
G75*
G02X-45243749Y-76700000I-500000J0D01*
G01*
X-45243749Y-133850000D02*
X-58243749Y-133850000D01*
X203693750Y-133850000D02*
G75*
G02X203193750Y-133350000I0J500000D01*
G01*
X17168751Y-57150000D02*
G75*
G02X16668751Y-57650000I-500000J0D01*
G01*
X59531250Y-114800000D02*
X46531251Y-114800000D01*
X46531251Y-100800000D02*
X59531250Y-100800000D01*
X203193750Y-120350000D02*
G75*
G02X203693750Y-119850000I500000J0D01*
G01*
X268281247Y-95250002D02*
X268281247Y-82250002D01*
X-44743749Y-63200000D02*
X-44743749Y-76200000D01*
X-58243749Y-62700000D02*
X-45243749Y-62700000D01*
X16668751Y-57650000D02*
X3668751Y-57650000D01*
X268281247Y-82250002D02*
G75*
G02X268781247Y-81750002I500000J0D01*
G01*
X281781247Y-95750002D02*
X268781247Y-95750002D01*
X46531251Y-114800000D02*
G75*
G02X46031251Y-114300000I0J500000D01*
G01*
X-58743749Y-120350000D02*
G75*
G02X-58243749Y-119850000I500000J0D01*
G01*
X-64388799Y-145339363D02*
X-64398951Y-141639377D01*
X-45243749Y-62700000D02*
G75*
G02X-44743749Y-63200000I0J-500000D01*
G01*
X219575000Y-133350000D02*
X219575000Y-120350000D01*
X-16668749Y-119850000D02*
X-32049999Y-119850000D01*
X325431247Y-110825002D02*
G75*
G02X325931247Y-110325002I500000J0D01*
G01*
X-32049999Y-133850000D02*
G75*
G02X-32549999Y-133350000I0J500000D01*
G01*
X325931247Y-124325002D02*
G75*
G02X325431247Y-123825002I0J500000D01*
G01*
X7931251Y-101300000D02*
G75*
G02X8431251Y-100800000I500000J0D01*
G01*
X-67598157Y-18820313D02*
X-64393863Y-16970313D01*
X-70802451Y-13270313D02*
X-70802451Y-16970313D01*
X141137500Y-18820313D02*
X144341794Y-16970313D01*
X137933206Y-16970313D02*
X141137500Y-18820313D01*
X215100000Y-114300000D02*
X215100000Y-101300000D01*
X229100000Y-101300000D02*
X229100000Y-114300000D01*
X-64393863Y-13270313D02*
X-67598157Y-11420313D01*
X-64393863Y-16970313D02*
X-64393863Y-13270313D01*
X229100000Y-114300000D02*
G75*
G02X228600000Y-114800000I-500000J0D01*
G01*
X338931247Y-110325002D02*
G75*
G02X339431247Y-110825002I0J-500000D01*
G01*
X21931251Y-114300000D02*
G75*
G02X21431251Y-114800000I-500000J0D01*
G01*
X188118750Y-57650000D02*
X175118750Y-57650000D01*
X175118750Y-43650000D02*
X188118750Y-43650000D01*
X144341794Y-16970313D02*
X144341794Y-13270313D01*
X7143751Y-133850000D02*
X-8237499Y-133850000D01*
X-32549999Y-120350000D02*
G75*
G02X-32049999Y-119850000I500000J0D01*
G01*
X325431247Y-123825002D02*
X325431247Y-110825002D01*
X137933206Y-13270313D02*
X137933206Y-16970313D01*
X-16168749Y-133350000D02*
X-16168749Y-120350000D01*
X-67608309Y-139798175D02*
X-70807515Y-141656960D01*
X21431251Y-114800000D02*
X8431251Y-114800000D01*
X8431251Y-100800000D02*
X21431251Y-100800000D01*
X-32549999Y-120350000D02*
X-32549999Y-133350000D01*
X188618750Y-57150000D02*
G75*
G02X188118750Y-57650000I-500000J0D01*
G01*
X215600000Y-114800000D02*
G75*
G02X215100000Y-114300000I0J500000D01*
G01*
X215100000Y-101300000D02*
G75*
G02X215600000Y-100800000I500000J0D01*
G01*
X228600000Y-114800000D02*
X215600000Y-114800000D01*
X228600000Y-100800000D02*
G75*
G02X229100000Y-101300000I0J-500000D01*
G01*
X8431251Y-114800000D02*
G75*
G02X7931251Y-114300000I0J500000D01*
G01*
X215600000Y-100800000D02*
X228600000Y-100800000D01*
X175118750Y-57650000D02*
G75*
G02X174618750Y-57150000I0J500000D01*
G01*
X188618750Y-44150000D02*
X188618750Y-57150000D01*
X339431247Y-123825002D02*
G75*
G02X338931247Y-124325002I-500000J0D01*
G01*
X7143751Y-119850000D02*
G75*
G02X7643751Y-120350000I0J-500000D01*
G01*
X144341794Y-13270313D02*
X141137500Y-11420313D01*
X325931247Y-110325002D02*
X338931247Y-110325002D01*
X-8237499Y-133850000D02*
G75*
G02X-8737499Y-133350000I0J500000D01*
G01*
X-8237499Y-119850000D02*
X7143751Y-119850000D01*
X174618750Y-57150000D02*
X174618750Y-44150000D01*
X7643751Y-120350000D02*
X7643751Y-133350000D01*
X-8737499Y-120350000D02*
G75*
G02X-8237499Y-119850000I500000J0D01*
G01*
X21431251Y-100800000D02*
G75*
G02X21931251Y-101300000I0J-500000D01*
G01*
X338931247Y-124325002D02*
X325931247Y-124325002D01*
X169856250Y-95250000D02*
X169856250Y-82250000D01*
X7931251Y-114300000D02*
X7931251Y-101300000D01*
X-70802451Y-16970313D02*
X-67598157Y-18820313D01*
X-8737499Y-133350000D02*
X-8737499Y-120350000D01*
X-16668749Y-119850000D02*
G75*
G02X-16168749Y-120350000I0J-500000D01*
G01*
X7643751Y-133350000D02*
G75*
G02X7143751Y-133850000I-500000J0D01*
G01*
X339431247Y-110825002D02*
X339431247Y-123825002D01*
X141137500Y-11420313D02*
X137933206Y-13270313D01*
X174618750Y-44150000D02*
G75*
G02X175118750Y-43650000I500000J0D01*
G01*
X170356250Y-95750000D02*
G75*
G02X169856250Y-95250000I0J500000D01*
G01*
X21931251Y-101300000D02*
X21931251Y-114300000D01*
X188118750Y-43650000D02*
G75*
G02X188618750Y-44150000I0J-500000D01*
G01*
X-67598157Y-11420313D02*
X-70802451Y-13270313D01*
X-32049999Y-133850000D02*
X-16668749Y-133850000D01*
X-64398951Y-141639377D02*
X-67608309Y-139798175D01*
X-16168749Y-133350000D02*
G75*
G02X-16668749Y-133850000I-500000J0D01*
G01*
X170356250Y-81750000D02*
X183356250Y-81750000D01*
X103681250Y-100800000D02*
X116681250Y-100800000D01*
X40981251Y-114300000D02*
G75*
G02X40481251Y-114800000I-500000J0D01*
G01*
X36218751Y-57150000D02*
G75*
G02X35718751Y-57650000I-500000J0D01*
G01*
X26981251Y-101300000D02*
G75*
G02X27481251Y-100800000I500000J0D01*
G01*
X40481251Y-114800000D02*
X27481251Y-114800000D01*
X40481251Y-100800000D02*
G75*
G02X40981251Y-101300000I0J-500000D01*
G01*
X35718751Y-57650000D02*
X22718751Y-57650000D01*
X36218751Y-44150000D02*
X36218751Y-57150000D01*
X22718751Y-43650000D02*
X35718751Y-43650000D01*
X300831247Y-114800002D02*
X287831247Y-114800002D01*
X287831247Y-100800002D02*
X300831247Y-100800002D01*
X136231250Y-114300000D02*
G75*
G02X135731250Y-114800000I-500000J0D01*
G01*
X122231250Y-101300000D02*
G75*
G02X122731250Y-100800000I500000J0D01*
G01*
X117181250Y-101300000D02*
X117181250Y-114300000D01*
X35718751Y-43650000D02*
G75*
G02X36218751Y-44150000I0J-500000D01*
G01*
X22218751Y-44150000D02*
G75*
G02X22718751Y-43650000I500000J0D01*
G01*
X179381250Y-114300000D02*
X179381250Y-101300000D01*
X320381247Y-95250002D02*
G75*
G02X319881247Y-95750002I-500000J0D01*
G01*
X287331247Y-101300002D02*
G75*
G02X287831247Y-100800002I500000J0D01*
G01*
X116681250Y-100800000D02*
G75*
G02X117181250Y-101300000I0J-500000D01*
G01*
X103181250Y-114300000D02*
X103181250Y-101300000D01*
X287331247Y-114300002D02*
X287331247Y-101300002D01*
X192881250Y-100800000D02*
G75*
G02X193381250Y-101300000I0J-500000D01*
G01*
X193381250Y-101300000D02*
X193381250Y-114300000D01*
X179381250Y-101300000D02*
G75*
G02X179881250Y-100800000I500000J0D01*
G01*
X103181250Y-101300000D02*
G75*
G02X103681250Y-100800000I500000J0D01*
G01*
X306381247Y-95250002D02*
X306381247Y-82250002D01*
X135731250Y-100800000D02*
G75*
G02X136231250Y-101300000I0J-500000D01*
G01*
X306381247Y-82250002D02*
G75*
G02X306881247Y-81750002I500000J0D01*
G01*
X306881247Y-81750002D02*
X319881247Y-81750002D01*
X183356250Y-95750000D02*
X170356250Y-95750000D01*
X320381247Y-82250002D02*
X320381247Y-95250002D01*
X169856250Y-82250000D02*
G75*
G02X170356250Y-81750000I500000J0D01*
G01*
X122731250Y-114800000D02*
G75*
G02X122231250Y-114300000I0J500000D01*
G01*
X27481251Y-114800000D02*
G75*
G02X26981251Y-114300000I0J500000D01*
G01*
X40981251Y-101300000D02*
X40981251Y-114300000D01*
X301331247Y-114300002D02*
G75*
G02X300831247Y-114800002I-500000J0D01*
G01*
X300831247Y-100800002D02*
G75*
G02X301331247Y-101300002I0J-500000D01*
G01*
X135731250Y-114800000D02*
X122731250Y-114800000D01*
X301331247Y-101300002D02*
X301331247Y-114300002D01*
X116681250Y-114800000D02*
X103681250Y-114800000D01*
X136231250Y-101300000D02*
X136231250Y-114300000D01*
X103681250Y-114800000D02*
G75*
G02X103181250Y-114300000I0J500000D01*
G01*
X340556750Y-36595250D02*
X-59868749Y-36595250D01*
X117181250Y-114300000D02*
G75*
G02X116681250Y-114800000I-500000J0D01*
G01*
X183856250Y-95250000D02*
G75*
G02X183356250Y-95750000I-500000J0D01*
G01*
X22218751Y-57150000D02*
X22218751Y-44150000D01*
X179881250Y-114800000D02*
G75*
G02X179381250Y-114300000I0J500000D01*
G01*
X319881247Y-95750002D02*
X306881247Y-95750002D01*
X26981251Y-114300000D02*
X26981251Y-101300000D01*
X287831247Y-114800002D02*
G75*
G02X287331247Y-114300002I0J500000D01*
G01*
X122731250Y-100800000D02*
X135731250Y-100800000D01*
X306881247Y-95750002D02*
G75*
G02X306381247Y-95250002I0J500000D01*
G01*
X183856250Y-82250000D02*
X183856250Y-95250000D01*
X179881250Y-100800000D02*
X192881250Y-100800000D01*
X183356250Y-81750000D02*
G75*
G02X183856250Y-82250000I0J-500000D01*
G01*
X192881250Y-114800000D02*
X179881250Y-114800000D01*
X27481251Y-100800000D02*
X40481251Y-100800000D01*
X319881247Y-81750002D02*
G75*
G02X320381247Y-82250002I0J-500000D01*
G01*
X193381250Y-114300000D02*
G75*
G02X192881250Y-114800000I-500000J0D01*
G01*
X22718751Y-57650000D02*
G75*
G02X22218751Y-57150000I0J500000D01*
G01*
X342556750Y-34595250D02*
G75*
G02X340556750Y-36595250I-2000000J0D01*
G01*
X122231250Y-114300000D02*
X122231250Y-101300000D01*
X112706250Y-95250000D02*
X112706250Y-82250000D01*
X341431247Y-108387002D02*
X341431247Y-102387002D01*
X113206250Y-95750000D02*
G75*
G02X112706250Y-95250000I0J500000D01*
G01*
X126206250Y-95750000D02*
X113206250Y-95750000D01*
X301331247Y-44150002D02*
X301331247Y-57150002D01*
X301331247Y-82250002D02*
X301331247Y-95250002D01*
X287831247Y-81750002D02*
X300831247Y-81750002D01*
X-58743749Y-44150000D02*
G75*
G02X-58243749Y-43650000I500000J0D01*
G01*
X147012500Y-118350000D02*
X147012500Y-135350000D01*
X146512500Y-135850000D02*
X140512500Y-135850000D01*
X301331247Y-95250002D02*
G75*
G02X300831247Y-95750002I-500000J0D01*
G01*
X287831247Y-43650002D02*
X300831247Y-43650002D01*
X287831247Y-57650002D02*
G75*
G02X287331247Y-57150002I0J500000D01*
G01*
X117468750Y-57150000D02*
X117468750Y-44150000D01*
X117968750Y-43650000D02*
X130968750Y-43650000D01*
X12693751Y-76200000D02*
X12693751Y-63200000D01*
X26193751Y-76700000D02*
X13193751Y-76700000D01*
X-45243749Y-57650000D02*
X-58243749Y-57650000D01*
X300831247Y-95750002D02*
X287831247Y-95750002D01*
X140512500Y-117850000D02*
X146512500Y-117850000D01*
X-45243749Y-43650000D02*
G75*
G02X-44743749Y-44150000I0J-500000D01*
G01*
X26193751Y-62700000D02*
G75*
G02X26693751Y-63200000I0J-500000D01*
G01*
X140512500Y-135850000D02*
G75*
G02X140012500Y-135350000I0J500000D01*
G01*
X300831247Y-81750002D02*
G75*
G02X301331247Y-82250002I0J-500000D01*
G01*
X131468750Y-44150000D02*
X131468750Y-57150000D01*
X126706250Y-95250000D02*
G75*
G02X126206250Y-95750000I-500000J0D01*
G01*
X131468750Y-57150000D02*
G75*
G02X130968750Y-57650000I-500000J0D01*
G01*
X300831247Y-57650002D02*
X287831247Y-57650002D01*
X147012500Y-135350000D02*
G75*
G02X146512500Y-135850000I-500000J0D01*
G01*
X340931247Y-101887002D02*
G75*
G02X341431247Y-102387002I0J-500000D01*
G01*
X126706250Y-82250000D02*
X126706250Y-95250000D01*
X126206250Y-81750000D02*
G75*
G02X126706250Y-82250000I0J-500000D01*
G01*
X287831247Y-95750002D02*
G75*
G02X287331247Y-95250002I0J500000D01*
G01*
X-58243749Y-57650000D02*
G75*
G02X-58743749Y-57150000I0J500000D01*
G01*
X287331247Y-44150002D02*
G75*
G02X287831247Y-43650002I500000J0D01*
G01*
X130968750Y-57650000D02*
X117968750Y-57650000D01*
X140012500Y-118350000D02*
G75*
G02X140512500Y-117850000I500000J0D01*
G01*
X13193751Y-62700000D02*
X26193751Y-62700000D01*
X287331247Y-57150002D02*
X287331247Y-44150002D01*
X130968750Y-43650000D02*
G75*
G02X131468750Y-44150000I0J-500000D01*
G01*
X117968750Y-57650000D02*
G75*
G02X117468750Y-57150000I0J500000D01*
G01*
X287331247Y-95250002D02*
X287331247Y-82250002D01*
X287331247Y-82250002D02*
G75*
G02X287831247Y-81750002I500000J0D01*
G01*
X-58243749Y-43650000D02*
X-45243749Y-43650000D01*
X-44743749Y-57150000D02*
G75*
G02X-45243749Y-57650000I-500000J0D01*
G01*
X146512500Y-117850000D02*
G75*
G02X147012500Y-118350000I0J-500000D01*
G01*
X113206250Y-81750000D02*
X126206250Y-81750000D01*
X26693751Y-76200000D02*
G75*
G02X26193751Y-76700000I-500000J0D01*
G01*
X12693751Y-63200000D02*
G75*
G02X13193751Y-62700000I500000J0D01*
G01*
X301331247Y-57150002D02*
G75*
G02X300831247Y-57650002I-500000J0D01*
G01*
X13193751Y-76700000D02*
G75*
G02X12693751Y-76200000I0J500000D01*
G01*
X26693751Y-63200000D02*
X26693751Y-76200000D01*
X300831247Y-43650002D02*
G75*
G02X301331247Y-44150002I0J-500000D01*
G01*
X-58743749Y-57150000D02*
X-58743749Y-44150000D01*
X-44743749Y-44150000D02*
X-44743749Y-57150000D01*
X140012500Y-135350000D02*
X140012500Y-118350000D01*
X342556750Y-28941697D02*
X342556750Y-34595250D01*
X340556750Y-26941697D02*
G75*
G02X342556750Y-28941697I0J-2000000D01*
G01*
X-59868749Y-26941697D02*
X340556750Y-26941697D01*
X-61868749Y-28941697D02*
G75*
G02X-59868749Y-26941697I2000000J0D01*
G01*
X112706250Y-82250000D02*
G75*
G02X113206250Y-81750000I500000J0D01*
G01*
X117468750Y-44150000D02*
G75*
G02X117968750Y-43650000I500000J0D01*
G01*
X-61868749Y-34595250D02*
X-61868749Y-28941697D01*
X-59868749Y-36595250D02*
G75*
G02X-61868749Y-34595250I0J2000000D01*
G01*
X245268750Y-57650000D02*
X244681750Y-57650000D01*
X237681750Y-43650000D02*
X237681750Y-42150000D01*
X213805750Y-42150000D02*
G75*
G02X214305750Y-41650000I500000J0D01*
G01*
X300831247Y-119850002D02*
X300244247Y-119850002D01*
X293244247Y-119850002D02*
X276368247Y-119850002D01*
X238181750Y-41650000D02*
X244181750Y-41650000D01*
X340931247Y-101887002D02*
X323931247Y-101887002D01*
X323431247Y-102387002D02*
G75*
G02X323931247Y-101887002I500000J0D01*
G01*
X245268750Y-43650000D02*
G75*
G02X245768750Y-44150000I0J-500000D01*
G01*
X341431247Y-108387002D02*
G75*
G02X340931247Y-108887002I-500000J0D01*
G01*
X237681750Y-59150000D02*
X237681750Y-57650000D01*
X244181750Y-59650000D02*
X238181750Y-59650000D01*
X300244247Y-133850002D02*
X300831247Y-133850002D01*
X323931247Y-108887002D02*
G75*
G02X323431247Y-108387002I0J500000D01*
G01*
X301331247Y-133350002D02*
X301331247Y-120350002D01*
X323931247Y-108887002D02*
X340931247Y-108887002D01*
X323431247Y-102387002D02*
X323431247Y-108387002D01*
X220805750Y-43650000D02*
X237681750Y-43650000D01*
X213805750Y-59150000D02*
X213805750Y-57650000D01*
X245768750Y-44150000D02*
X245768750Y-57150000D01*
X237681750Y-42150000D02*
G75*
G02X238181750Y-41650000I500000J0D01*
G01*
X40512501Y-135850000D02*
G75*
G02X40012501Y-135350000I0J500000D01*
G01*
X301331247Y-133350002D02*
G75*
G02X300831247Y-133850002I-500000J0D01*
G01*
X276368247Y-133850002D02*
X293244247Y-133850002D01*
X51268750Y-135850000D02*
X40512501Y-135850000D01*
X51768750Y-135350000D02*
G75*
G02X51268750Y-135850000I-500000J0D01*
G01*
X51768750Y-118350000D02*
X51768750Y-135350000D01*
X213805750Y-57650000D02*
X213218750Y-57650000D01*
X214305750Y-59650000D02*
G75*
G02X213805750Y-59150000I0J500000D01*
G01*
X237681750Y-57650000D02*
X220805750Y-57650000D01*
X293744247Y-135850002D02*
X299744247Y-135850002D01*
X51268750Y-117850000D02*
G75*
G02X51768750Y-118350000I0J-500000D01*
G01*
X40512501Y-117850000D02*
X51268750Y-117850000D01*
X40012501Y-135350000D02*
X40012501Y-118350000D01*
X212718750Y-57150000D02*
X212718750Y-44150000D01*
X244681750Y-57650000D02*
X244681750Y-59150000D01*
X244681750Y-42150000D02*
X244681750Y-43650000D01*
X212718750Y-44150000D02*
G75*
G02X213218750Y-43650000I500000J0D01*
G01*
X220805750Y-42150000D02*
X220805750Y-43650000D01*
X300244247Y-119850002D02*
X300244247Y-118350002D01*
X293244247Y-118350002D02*
X293244247Y-119850002D01*
X293244247Y-133850002D02*
X293244247Y-135350002D01*
X214305750Y-41650000D02*
X220305750Y-41650000D01*
X293244247Y-118350002D02*
G75*
G02X293744247Y-117850002I500000J0D01*
G01*
X300244247Y-135350002D02*
X300244247Y-133850002D01*
X299744247Y-117850002D02*
X293744247Y-117850002D01*
X299744247Y-117850002D02*
G75*
G02X300244247Y-118350002I0J-500000D01*
G01*
X300244247Y-135350002D02*
G75*
G02X299744247Y-135850002I-500000J0D01*
G01*
X300831247Y-119850002D02*
G75*
G02X301331247Y-120350002I0J-500000D01*
G01*
X220805750Y-59150000D02*
G75*
G02X220305750Y-59650000I-500000J0D01*
G01*
X244681750Y-59150000D02*
G75*
G02X244181750Y-59650000I-500000J0D01*
G01*
X244181750Y-41650000D02*
G75*
G02X244681750Y-42150000I0J-500000D01*
G01*
X245768750Y-57150000D02*
G75*
G02X245268750Y-57650000I-500000J0D01*
G01*
X244681750Y-43650000D02*
X245268750Y-43650000D01*
X220305750Y-41650000D02*
G75*
G02X220805750Y-42150000I0J-500000D01*
G01*
X213218750Y-43650000D02*
X213805750Y-43650000D01*
X238181750Y-59650000D02*
G75*
G02X237681750Y-59150000I0J500000D01*
G01*
X276368247Y-135350002D02*
X276368247Y-133850002D01*
X293744247Y-135850002D02*
G75*
G02X293244247Y-135350002I0J500000D01*
G01*
X220805750Y-57650000D02*
X220805750Y-59150000D01*
X213805750Y-43650000D02*
X213805750Y-42150000D01*
X40012501Y-118350000D02*
G75*
G02X40512501Y-117850000I500000J0D01*
G01*
X213218750Y-57650000D02*
G75*
G02X212718750Y-57150000I0J500000D01*
G01*
X220305750Y-59650000D02*
X214305750Y-59650000D01*
X166068750Y-118350000D02*
X166068750Y-119850000D01*
X159568750Y-117850000D02*
X165568750Y-117850000D01*
X323431247Y-94163002D02*
X323431247Y-88163002D01*
X159068750Y-119850000D02*
X159068750Y-118350000D01*
X323431247Y-132263002D02*
X323431247Y-126263002D01*
X323931247Y-132763002D02*
G75*
G02X323431247Y-132263002I0J500000D01*
G01*
X323931247Y-63787002D02*
X325431247Y-63787002D01*
X323431247Y-64287002D02*
G75*
G02X323931247Y-63787002I500000J0D01*
G01*
X323431247Y-88163002D02*
G75*
G02X323931247Y-87663002I500000J0D01*
G01*
X325431247Y-94663002D02*
X323931247Y-94663002D01*
X157950000Y-120350000D02*
G75*
G02X158450000Y-119850000I500000J0D01*
G01*
X325931247Y-62700002D02*
X338931247Y-62700002D01*
X165568750Y-117850000D02*
G75*
G02X166068750Y-118350000I0J-500000D01*
G01*
X325431247Y-63200002D02*
G75*
G02X325931247Y-62700002I500000J0D01*
G01*
X171950000Y-133350000D02*
G75*
G02X171450000Y-133850000I-500000J0D01*
G01*
X340931247Y-125763002D02*
G75*
G02X341431247Y-126263002I0J-500000D01*
G01*
X306381247Y-76200002D02*
X306381247Y-63200002D01*
X320381247Y-63200002D02*
X320381247Y-76200002D01*
X325431247Y-70787002D02*
X323931247Y-70787002D01*
X276368247Y-135350002D02*
G75*
G02X275868247Y-135850002I-500000J0D01*
G01*
X269368247Y-118350002D02*
G75*
G02X269868247Y-117850002I500000J0D01*
G01*
X159068750Y-133850000D02*
X158450000Y-133850000D01*
X340931247Y-132763002D02*
X323931247Y-132763002D01*
X268781247Y-133850002D02*
G75*
G02X268281247Y-133350002I0J500000D01*
G01*
X269868247Y-135850002D02*
X275868247Y-135850002D01*
X171450000Y-133850000D02*
X166068750Y-133850000D01*
X166068750Y-119850000D02*
X171450000Y-119850000D01*
X269368247Y-118350002D02*
X269368247Y-119850002D01*
X306881247Y-76700002D02*
G75*
G02X306381247Y-76200002I0J500000D01*
G01*
X269868247Y-135850002D02*
G75*
G02X269368247Y-135350002I0J500000D01*
G01*
X269368247Y-133850002D02*
X269368247Y-135350002D01*
X268781247Y-133850002D02*
X269368247Y-133850002D01*
X166068750Y-133850000D02*
X166068750Y-135350000D01*
X323431247Y-126263002D02*
G75*
G02X323931247Y-125763002I500000J0D01*
G01*
X319881247Y-76700002D02*
X306881247Y-76700002D01*
X323931247Y-87663002D02*
X325431247Y-87663002D01*
X323431247Y-70287002D02*
X323431247Y-64287002D01*
X165568750Y-135850000D02*
X159568750Y-135850000D01*
X323931247Y-94663002D02*
G75*
G02X323431247Y-94163002I0J500000D01*
G01*
X341431247Y-126263002D02*
X341431247Y-132263002D01*
X157950000Y-133350000D02*
X157950000Y-120350000D01*
X268281247Y-120350002D02*
X268281247Y-133350002D01*
X268281247Y-120350002D02*
G75*
G02X268781247Y-119850002I500000J0D01*
G01*
X323931247Y-125763002D02*
X340931247Y-125763002D01*
X269368247Y-119850002D02*
X268781247Y-119850002D01*
X275868247Y-117850002D02*
X269868247Y-117850002D01*
X171450000Y-119850000D02*
G75*
G02X171950000Y-120350000I0J-500000D01*
G01*
X159568750Y-135850000D02*
G75*
G02X159068750Y-135350000I0J500000D01*
G01*
X306881247Y-62700002D02*
X319881247Y-62700002D01*
X166068750Y-135350000D02*
G75*
G02X165568750Y-135850000I-500000J0D01*
G01*
X159068750Y-118350000D02*
G75*
G02X159568750Y-117850000I500000J0D01*
G01*
X275868247Y-117850002D02*
G75*
G02X276368247Y-118350002I0J-500000D01*
G01*
X325431247Y-87663002D02*
X325431247Y-70787002D01*
X276368247Y-119850002D02*
X276368247Y-118350002D01*
X171950000Y-120350000D02*
X171950000Y-133350000D01*
X341431247Y-132263002D02*
G75*
G02X340931247Y-132763002I-500000J0D01*
G01*
X319881247Y-62700002D02*
G75*
G02X320381247Y-63200002I0J-500000D01*
G01*
X306381247Y-63200002D02*
G75*
G02X306881247Y-62700002I500000J0D01*
G01*
X158450000Y-119850000D02*
X159068750Y-119850000D01*
X320381247Y-76200002D02*
G75*
G02X319881247Y-76700002I-500000J0D01*
G01*
X325431247Y-63787002D02*
X325431247Y-63200002D01*
X323931247Y-70787002D02*
G75*
G02X323431247Y-70287002I0J500000D01*
G01*
X158450000Y-133850000D02*
G75*
G02X157950000Y-133350000I0J500000D01*
G01*
X159068750Y-135350000D02*
X159068750Y-133850000D01*
X-30168749Y-63200000D02*
X-30168749Y-76200000D01*
X233862500Y-95250000D02*
G75*
G02X233362500Y-95750000I-500000J0D01*
G01*
X241006250Y-72225000D02*
X242887500Y-72225000D01*
X235300500Y-94663000D02*
X233862500Y-94663000D01*
X235300500Y-97250000D02*
X235300500Y-94663000D01*
X242300500Y-97250000D02*
G75*
G02X241800500Y-97750000I-500000J0D01*
G01*
X242387500Y-88163000D02*
X242387500Y-94163000D01*
X242300500Y-87881165D02*
G75*
G02X242387500Y-88163000I-413000J-281835D01*
G01*
X242300500Y-86225000D02*
X242300500Y-87881165D01*
X287831247Y-76700002D02*
G75*
G02X287331247Y-76200002I0J500000D01*
G01*
X242387500Y-70287000D02*
G75*
G02X241887500Y-70787000I-500000J0D01*
G01*
X300831247Y-62700002D02*
G75*
G02X301331247Y-63200002I0J-500000D01*
G01*
X83343750Y-62700000D02*
G75*
G02X83843750Y-63200000I0J-500000D01*
G01*
X243387500Y-85725000D02*
G75*
G02X242887500Y-86225000I-500000J0D01*
G01*
X242387500Y-64287000D02*
X242387500Y-70287000D01*
X287331247Y-63200002D02*
G75*
G02X287831247Y-62700002I500000J0D01*
G01*
X287831247Y-62700002D02*
X300831247Y-62700002D01*
X70343750Y-62700000D02*
X83343750Y-62700000D01*
X70343750Y-76700000D02*
G75*
G02X69843750Y-76200000I0J500000D01*
G01*
X-16168749Y-76200000D02*
G75*
G02X-16668749Y-76700000I-500000J0D01*
G01*
X242887500Y-72225000D02*
G75*
G02X243387500Y-72725000I0J-500000D01*
G01*
X-29668749Y-76700000D02*
G75*
G02X-30168749Y-76200000I0J500000D01*
G01*
X241887500Y-70787000D02*
X241006250Y-70787000D01*
X241006250Y-70787000D02*
X241006250Y-72225000D01*
X241887500Y-63787000D02*
G75*
G02X242387500Y-64287000I0J-500000D01*
G01*
X-16168749Y-76200000D02*
X-16168749Y-63200000D01*
X69843750Y-76200000D02*
X69843750Y-63200000D01*
X207956250Y-82250000D02*
G75*
G02X208456250Y-81750000I500000J0D01*
G01*
X207956250Y-95250000D02*
X207956250Y-82250000D01*
X235800500Y-97750000D02*
G75*
G02X235300500Y-97250000I0J500000D01*
G01*
X242387501Y-94163001D02*
G75*
G02X242300500Y-94444836I-500001J1D01*
G01*
X155568750Y-57150000D02*
X155568750Y-44150000D01*
X218424500Y-97250000D02*
G75*
G02X217924500Y-97750000I-500000J0D01*
G01*
X300831247Y-76700002D02*
X287831247Y-76700002D01*
X301331247Y-63200002D02*
X301331247Y-76200002D01*
X242887500Y-86225000D02*
X242300500Y-86225000D01*
X83843750Y-76200000D02*
G75*
G02X83343750Y-76700000I-500000J0D01*
G01*
X83343750Y-76700000D02*
X70343750Y-76700000D01*
X301331247Y-76200002D02*
G75*
G02X300831247Y-76700002I-500000J0D01*
G01*
X83843750Y-63200000D02*
X83843750Y-76200000D01*
X208456250Y-95750000D02*
G75*
G02X207956250Y-95250000I0J500000D01*
G01*
X211424500Y-97250000D02*
X211424500Y-95750000D01*
X217924500Y-97750000D02*
X211924500Y-97750000D01*
X-30168749Y-63200000D02*
G75*
G02X-29668749Y-62700000I500000J0D01*
G01*
X218424500Y-95750000D02*
X218424500Y-97250000D01*
X211424500Y-95750000D02*
X208456250Y-95750000D01*
X242300500Y-94444836D02*
X242300500Y-97250000D01*
X287331247Y-76200002D02*
X287331247Y-63200002D01*
X-29668749Y-76700000D02*
X-16668749Y-76700000D01*
X211924500Y-97750000D02*
G75*
G02X211424500Y-97250000I0J500000D01*
G01*
X-16668749Y-62700000D02*
X-29668749Y-62700000D01*
X241800500Y-97750000D02*
X235800500Y-97750000D01*
X-16668749Y-62700000D02*
G75*
G02X-16168749Y-63200000I0J-500000D01*
G01*
X243387500Y-72725000D02*
X243387500Y-85725000D01*
X233862500Y-94663000D02*
X233862500Y-95250000D01*
X233362500Y-95750000D02*
X218424500Y-95750000D01*
X69843750Y-63200000D02*
G75*
G02X70343750Y-62700000I500000J0D01*
G01*
X349873159Y-11420313D02*
X346668865Y-13270313D01*
X108443750Y-62700000D02*
X121443750Y-62700000D01*
X281781247Y-43650002D02*
G75*
G02X282281247Y-44150002I0J-500000D01*
G01*
X156068750Y-43650000D02*
X169068750Y-43650000D01*
X155568750Y-44150000D02*
G75*
G02X156068750Y-43650000I500000J0D01*
G01*
X107943750Y-76200000D02*
X107943750Y-63200000D01*
X7643751Y-63200000D02*
X7643751Y-76200000D01*
X-5856249Y-62700000D02*
X7143751Y-62700000D01*
X268281247Y-44150002D02*
G75*
G02X268781247Y-43650002I500000J0D01*
G01*
X150518750Y-57150000D02*
G75*
G02X150018750Y-57650000I-500000J0D01*
G01*
X164306250Y-95750000D02*
X151306250Y-95750000D01*
X136518750Y-44150000D02*
G75*
G02X137018750Y-43650000I500000J0D01*
G01*
X7143751Y-62700000D02*
G75*
G02X7643751Y-63200000I0J-500000D01*
G01*
X151306250Y-81750000D02*
X164306250Y-81750000D01*
X164806250Y-82250000D02*
X164806250Y-95250000D01*
X353077453Y-16970313D02*
X353077453Y-13270313D01*
X150018750Y-57650000D02*
X137018750Y-57650000D01*
X137018750Y-43650000D02*
X150018750Y-43650000D01*
X-6356249Y-76200000D02*
X-6356249Y-63200000D01*
X60318750Y-57150000D02*
X60318750Y-44150000D01*
X140993750Y-76200000D02*
G75*
G02X140493750Y-76700000I-500000J0D01*
G01*
X107943750Y-63200000D02*
G75*
G02X108443750Y-62700000I500000J0D01*
G01*
X346668865Y-13270313D02*
X346668865Y-16970313D01*
X282281247Y-44150002D02*
X282281247Y-57150002D01*
X137018750Y-57650000D02*
G75*
G02X136518750Y-57150000I0J500000D01*
G01*
X121443750Y-62700000D02*
G75*
G02X121943750Y-63200000I0J-500000D01*
G01*
X7643751Y-76200000D02*
G75*
G02X7143751Y-76700000I-500000J0D01*
G01*
X346668865Y-16970313D02*
X349873159Y-18820313D01*
X169568750Y-44150000D02*
X169568750Y-57150000D01*
X156068750Y-57650000D02*
G75*
G02X155568750Y-57150000I0J500000D01*
G01*
X126993750Y-76200000D02*
X126993750Y-63200000D01*
X169568750Y-57150000D02*
G75*
G02X169068750Y-57650000I-500000J0D01*
G01*
X150806250Y-95250000D02*
X150806250Y-82250000D01*
X121943750Y-63200000D02*
X121943750Y-76200000D01*
X151306250Y-95750000D02*
G75*
G02X150806250Y-95250000I0J500000D01*
G01*
X150806250Y-82250000D02*
G75*
G02X151306250Y-81750000I500000J0D01*
G01*
X60818750Y-57650000D02*
G75*
G02X60318750Y-57150000I0J500000D01*
G01*
X121443750Y-76700000D02*
X108443750Y-76700000D01*
X164806250Y-95250000D02*
G75*
G02X164306250Y-95750000I-500000J0D01*
G01*
X268281247Y-57150002D02*
X268281247Y-44150002D01*
X349873159Y-18820313D02*
X353077453Y-16970313D01*
X140493750Y-76700000D02*
X127493750Y-76700000D01*
X127493750Y-62700000D02*
X140493750Y-62700000D01*
X268781247Y-57650002D02*
G75*
G02X268281247Y-57150002I0J500000D01*
G01*
X126993750Y-63200000D02*
G75*
G02X127493750Y-62700000I500000J0D01*
G01*
X140493750Y-62700000D02*
G75*
G02X140993750Y-63200000I0J-500000D01*
G01*
X7143751Y-76700000D02*
X-5856249Y-76700000D01*
X281781247Y-57650002D02*
X268781247Y-57650002D01*
X108443750Y-76700000D02*
G75*
G02X107943750Y-76200000I0J500000D01*
G01*
X121943750Y-76200000D02*
G75*
G02X121443750Y-76700000I-500000J0D01*
G01*
X-6356249Y-63200000D02*
G75*
G02X-5856249Y-62700000I500000J0D01*
G01*
X169068750Y-43650000D02*
G75*
G02X169568750Y-44150000I0J-500000D01*
G01*
X282281247Y-57150002D02*
G75*
G02X281781247Y-57650002I-500000J0D01*
G01*
X150518750Y-44150000D02*
X150518750Y-57150000D01*
X150018750Y-43650000D02*
G75*
G02X150518750Y-44150000I0J-500000D01*
G01*
X73818750Y-57650000D02*
X60818750Y-57650000D01*
X127493750Y-76700000D02*
G75*
G02X126993750Y-76200000I0J500000D01*
G01*
X140993750Y-63200000D02*
X140993750Y-76200000D01*
X353077453Y-13270313D02*
X349873159Y-11420313D01*
X-5856249Y-76700000D02*
G75*
G02X-6356249Y-76200000I0J500000D01*
G01*
X164306250Y-81750000D02*
G75*
G02X164806250Y-82250000I0J-500000D01*
G01*
X268781247Y-43650002D02*
X281781247Y-43650002D01*
X169068750Y-57650000D02*
X156068750Y-57650000D01*
X136518750Y-57150000D02*
X136518750Y-44150000D01*
X339431247Y-95250002D02*
G75*
G02X338931247Y-95750002I-500000J0D01*
G01*
X340931247Y-87663002D02*
G75*
G02X341431247Y-88163002I0J-500000D01*
G01*
X341431247Y-64287002D02*
X341431247Y-70287002D01*
X340931247Y-63787002D02*
G75*
G02X341431247Y-64287002I0J-500000D01*
G01*
X2381251Y-100800000D02*
X-32049999Y-100800000D01*
X11906251Y-81750000D02*
G75*
G02X12406251Y-82250000I0J-500000D01*
G01*
X241006250Y-63787000D02*
X241887500Y-63787000D01*
X227506250Y-62700000D02*
X240506250Y-62700000D01*
X227006250Y-63200000D02*
G75*
G02X227506250Y-62700000I500000J0D01*
G01*
X12406251Y-95250000D02*
G75*
G02X11906251Y-95750000I-500000J0D01*
G01*
X11906251Y-95750000D02*
X-1093749Y-95750000D01*
X240506250Y-62700000D02*
G75*
G02X241006250Y-63200000I0J-500000D01*
G01*
X339431247Y-63787002D02*
X340931247Y-63787002D01*
X-30962999Y-116800000D02*
G75*
G02X-31462999Y-116300000I0J500000D01*
G01*
X2881251Y-114300000D02*
X2881251Y-101300000D01*
X-24462999Y-114800000D02*
X-7586999Y-114800000D01*
X-7086999Y-116800000D02*
G75*
G02X-7586999Y-116300000I0J500000D01*
G01*
X-1093749Y-95750000D02*
G75*
G02X-1593749Y-95250000I0J500000D01*
G01*
X229387500Y-81750000D02*
X229387500Y-76700000D01*
X-32049999Y-114800000D02*
G75*
G02X-32549999Y-114300000I0J500000D01*
G01*
X-45243749Y-100800000D02*
X-58243749Y-100800000D01*
X-44743749Y-114300000D02*
G75*
G02X-45243749Y-114800000I-500000J0D01*
G01*
X227006250Y-76200000D02*
X227006250Y-63200000D01*
X12406251Y-82250000D02*
X12406251Y-95250000D01*
X-586999Y-116300000D02*
G75*
G02X-1086999Y-116800000I-500000J0D01*
G01*
X339431247Y-94663002D02*
X339431247Y-95250002D01*
X-586999Y-116300000D02*
X-586999Y-114800000D01*
X-32549999Y-101300000D02*
X-32549999Y-114300000D01*
X340931247Y-94663002D02*
X339431247Y-94663002D01*
X341431247Y-88163002D02*
X341431247Y-94163002D01*
X339431247Y-87663002D02*
X340931247Y-87663002D01*
X-24462999Y-116300000D02*
X-24462999Y-114800000D01*
X340931247Y-70787002D02*
X339431247Y-70787002D01*
X-1593749Y-95250000D02*
X-1593749Y-82250000D01*
X341431247Y-70287002D02*
G75*
G02X340931247Y-70787002I-500000J0D01*
G01*
X-32049999Y-114800000D02*
X-31462999Y-114800000D01*
X-586999Y-114800000D02*
X2381251Y-114800000D01*
X-58243749Y-114800000D02*
X-45243749Y-114800000D01*
X-7086999Y-116800000D02*
X-1086999Y-116800000D01*
X229387500Y-76700000D02*
X227506250Y-76700000D01*
X-31462999Y-114800000D02*
X-31462999Y-116300000D01*
X-58743749Y-101300000D02*
X-58743749Y-114300000D01*
X2881251Y-114300000D02*
G75*
G02X2381251Y-114800000I-500000J0D01*
G01*
X208456250Y-81750000D02*
X229387500Y-81750000D01*
X-1093749Y-81750000D02*
X11906251Y-81750000D01*
X339431247Y-63200002D02*
X339431247Y-63787002D01*
X338931247Y-62700002D02*
G75*
G02X339431247Y-63200002I0J-500000D01*
G01*
X-45243749Y-100800000D02*
G75*
G02X-44743749Y-101300000I0J-500000D01*
G01*
X-58243749Y-114800000D02*
G75*
G02X-58743749Y-114300000I0J500000D01*
G01*
X339431247Y-70787002D02*
X339431247Y-87663002D01*
X-58743749Y-101300000D02*
G75*
G02X-58243749Y-100800000I500000J0D01*
G01*
X-44743749Y-114300000D02*
X-44743749Y-101300000D01*
X-24462999Y-116300000D02*
G75*
G02X-24962999Y-116800000I-500000J0D01*
G01*
X-32549999Y-101300000D02*
G75*
G02X-32049999Y-100800000I500000J0D01*
G01*
X2381251Y-100800000D02*
G75*
G02X2881251Y-101300000I0J-500000D01*
G01*
X-1593749Y-82250000D02*
G75*
G02X-1093749Y-81750000I500000J0D01*
G01*
X227506250Y-76700000D02*
G75*
G02X227006250Y-76200000I0J500000D01*
G01*
X325431247Y-95250002D02*
X325431247Y-94663002D01*
X338931247Y-95750002D02*
X325931247Y-95750002D01*
X-30962999Y-116800000D02*
X-24962999Y-116800000D01*
X241006250Y-63200000D02*
X241006250Y-63787000D01*
X-7586999Y-114800000D02*
X-7586999Y-116300000D01*
X341431247Y-94163002D02*
G75*
G02X340931247Y-94663002I-500000J0D01*
G01*
X325931247Y-95750002D02*
G75*
G02X325431247Y-95250002I0J500000D01*
G01*
X107156250Y-81750000D02*
G75*
G02X107656250Y-82250000I0J-500000D01*
G01*
X159543750Y-62700000D02*
X146543750Y-62700000D01*
X160043750Y-76200000D02*
X160043750Y-63200000D01*
X146543750Y-76700000D02*
X159543750Y-76700000D01*
X193668750Y-57150000D02*
X193668750Y-44150000D01*
X202906250Y-95250000D02*
G75*
G02X202406250Y-95750000I-500000J0D01*
G01*
X202906250Y-82250000D02*
X202906250Y-95250000D01*
X194168750Y-57650000D02*
G75*
G02X193668750Y-57150000I0J500000D01*
G01*
X64293750Y-62700000D02*
G75*
G02X64793750Y-63200000I0J-500000D01*
G01*
X146043750Y-63200000D02*
X146043750Y-76200000D01*
X188906250Y-95250000D02*
X188906250Y-82250000D01*
X159543750Y-62700000D02*
G75*
G02X160043750Y-63200000I0J-500000D01*
G01*
X189406250Y-95750000D02*
G75*
G02X188906250Y-95250000I0J500000D01*
G01*
X207168750Y-43650000D02*
G75*
G02X207668750Y-44150000I0J-500000D01*
G01*
X268281247Y-114300002D02*
X268281247Y-101300002D01*
X282281247Y-101300002D02*
X282281247Y-114300002D01*
X188906250Y-82250000D02*
G75*
G02X189406250Y-81750000I500000J0D01*
G01*
X74318750Y-57150000D02*
G75*
G02X73818750Y-57650000I-500000J0D01*
G01*
X73818750Y-43650000D02*
G75*
G02X74318750Y-44150000I0J-500000D01*
G01*
X55268750Y-44150000D02*
X55268750Y-57150000D01*
X207168750Y-57650000D02*
X194168750Y-57650000D01*
X74318750Y-44150000D02*
X74318750Y-57150000D01*
X60818750Y-43650000D02*
X73818750Y-43650000D01*
X146043750Y-63200000D02*
G75*
G02X146543750Y-62700000I500000J0D01*
G01*
X107656250Y-82250000D02*
X107656250Y-95250000D01*
X268781247Y-114800002D02*
G75*
G02X268281247Y-114300002I0J500000D01*
G01*
X64793750Y-76200000D02*
X64793750Y-63200000D01*
X54768750Y-57650000D02*
X41768751Y-57650000D01*
X107656250Y-95250000D02*
G75*
G02X107156250Y-95750000I-500000J0D01*
G01*
X193668750Y-44150000D02*
G75*
G02X194168750Y-43650000I500000J0D01*
G01*
X281781247Y-114800002D02*
X268781247Y-114800002D01*
X202406250Y-81750000D02*
G75*
G02X202906250Y-82250000I0J-500000D01*
G01*
X64293750Y-62700000D02*
X51293750Y-62700000D01*
X94156250Y-95750000D02*
G75*
G02X93656250Y-95250000I0J500000D01*
G01*
X60318750Y-44150000D02*
G75*
G02X60818750Y-43650000I500000J0D01*
G01*
X207668750Y-44150000D02*
X207668750Y-57150000D01*
X41268751Y-57150000D02*
X41268751Y-44150000D01*
X41768751Y-57650000D02*
G75*
G02X41268751Y-57150000I0J500000D01*
G01*
X194168750Y-43650000D02*
X207168750Y-43650000D01*
X55268750Y-57150000D02*
G75*
G02X54768750Y-57650000I-500000J0D01*
G01*
X54768750Y-43650000D02*
G75*
G02X55268750Y-44150000I0J-500000D01*
G01*
X93656250Y-82250000D02*
G75*
G02X94156250Y-81750000I500000J0D01*
G01*
X93656250Y-95250000D02*
X93656250Y-82250000D01*
X268781247Y-100800002D02*
X281781247Y-100800002D01*
X107156250Y-95750000D02*
X94156250Y-95750000D01*
X160043750Y-76200000D02*
G75*
G02X159543750Y-76700000I-500000J0D01*
G01*
X41768751Y-43650000D02*
X54768750Y-43650000D01*
X50793750Y-63200000D02*
G75*
G02X51293750Y-62700000I500000J0D01*
G01*
X94156250Y-81750000D02*
X107156250Y-81750000D01*
X207668750Y-57150000D02*
G75*
G02X207168750Y-57650000I-500000J0D01*
G01*
X281781247Y-100800002D02*
G75*
G02X282281247Y-101300002I0J-500000D01*
G01*
X268281247Y-101300002D02*
G75*
G02X268781247Y-100800002I500000J0D01*
G01*
X282281247Y-114300002D02*
G75*
G02X281781247Y-114800002I-500000J0D01*
G01*
X146543750Y-76700000D02*
G75*
G02X146043750Y-76200000I0J500000D01*
G01*
X189406250Y-81750000D02*
X202406250Y-81750000D01*
X202406250Y-95750000D02*
X189406250Y-95750000D01*
X41268751Y-44150000D02*
G75*
G02X41768751Y-43650000I500000J0D01*
G01*
X45243751Y-76700000D02*
X32243751Y-76700000D01*
X165593750Y-62700000D02*
X178593750Y-62700000D01*
X203193750Y-63200000D02*
G75*
G02X203693750Y-62700000I500000J0D01*
G01*
X45743751Y-76200000D02*
G75*
G02X45243751Y-76700000I-500000J0D01*
G01*
X45743751Y-63200000D02*
X45743751Y-76200000D01*
X45243751Y-62700000D02*
G75*
G02X45743751Y-63200000I0J-500000D01*
G01*
X32243751Y-62700000D02*
X45243751Y-62700000D01*
X88893750Y-76200000D02*
X88893750Y-63200000D01*
X102893750Y-63200000D02*
X102893750Y-76200000D01*
X30956251Y-95750000D02*
X17956251Y-95750000D01*
X268781247Y-76700002D02*
G75*
G02X268281247Y-76200002I0J500000D01*
G01*
X281781247Y-62700002D02*
G75*
G02X282281247Y-63200002I0J-500000D01*
G01*
X17956251Y-81750000D02*
X30956251Y-81750000D01*
X216693750Y-62700000D02*
G75*
G02X217193750Y-63200000I0J-500000D01*
G01*
X198143750Y-63200000D02*
X198143750Y-76200000D01*
X102393750Y-62700000D02*
G75*
G02X102893750Y-63200000I0J-500000D01*
G01*
X203693750Y-76700000D02*
G75*
G02X203193750Y-76200000I0J500000D01*
G01*
X89393750Y-62700000D02*
X102393750Y-62700000D01*
X179093750Y-76200000D02*
G75*
G02X178593750Y-76700000I-500000J0D01*
G01*
X184143750Y-76200000D02*
X184143750Y-63200000D01*
X197643750Y-62700000D02*
G75*
G02X198143750Y-63200000I0J-500000D01*
G01*
X217193750Y-76200000D02*
G75*
G02X216693750Y-76700000I-500000J0D01*
G01*
X30956251Y-81750000D02*
G75*
G02X31456251Y-82250000I0J-500000D01*
G01*
X17956251Y-95750000D02*
G75*
G02X17456251Y-95250000I0J500000D01*
G01*
X17456251Y-95250000D02*
X17456251Y-82250000D01*
X178593750Y-62700000D02*
G75*
G02X179093750Y-63200000I0J-500000D01*
G01*
X178593750Y-76700000D02*
X165593750Y-76700000D01*
X268781247Y-62700002D02*
X281781247Y-62700002D01*
X282281247Y-76200002D02*
G75*
G02X281781247Y-76700002I-500000J0D01*
G01*
X165093750Y-63200000D02*
G75*
G02X165593750Y-62700000I500000J0D01*
G01*
X-58243749Y-95750000D02*
G75*
G02X-58743749Y-95250000I0J500000D01*
G01*
X51293750Y-76700000D02*
X64293750Y-76700000D01*
X89393750Y-76700000D02*
G75*
G02X88893750Y-76200000I0J500000D01*
G01*
X102393750Y-76700000D02*
X89393750Y-76700000D01*
X184143750Y-63200000D02*
G75*
G02X184643750Y-62700000I500000J0D01*
G01*
X102893750Y-76200000D02*
G75*
G02X102393750Y-76700000I-500000J0D01*
G01*
X203693750Y-62700000D02*
X216693750Y-62700000D01*
X268281247Y-63200002D02*
G75*
G02X268781247Y-62700002I500000J0D01*
G01*
X203193750Y-76200000D02*
X203193750Y-63200000D01*
X268281247Y-76200002D02*
X268281247Y-63200002D01*
X197643750Y-76700000D02*
X184643750Y-76700000D01*
X-44743749Y-95250000D02*
G75*
G02X-45243749Y-95750000I-500000J0D01*
G01*
X281781247Y-76700002D02*
X268781247Y-76700002D01*
X184643750Y-76700000D02*
G75*
G02X184143750Y-76200000I0J500000D01*
G01*
X17456251Y-82250000D02*
G75*
G02X17956251Y-81750000I500000J0D01*
G01*
X198143750Y-76200000D02*
G75*
G02X197643750Y-76700000I-500000J0D01*
G01*
X64793750Y-76200000D02*
G75*
G02X64293750Y-76700000I-500000J0D01*
G01*
X-58743749Y-95250000D02*
X-58743749Y-82250000D01*
X216693750Y-76700000D02*
X203693750Y-76700000D01*
X88893750Y-63200000D02*
G75*
G02X89393750Y-62700000I500000J0D01*
G01*
X51293750Y-76700000D02*
G75*
G02X50793750Y-76200000I0J500000D01*
G01*
X50793750Y-63200000D02*
X50793750Y-76200000D01*
X31743751Y-63200000D02*
G75*
G02X32243751Y-62700000I500000J0D01*
G01*
X282281247Y-63200002D02*
X282281247Y-76200002D01*
X165093750Y-76200000D02*
X165093750Y-63200000D01*
X179093750Y-63200000D02*
X179093750Y-76200000D01*
X31456251Y-95250000D02*
G75*
G02X30956251Y-95750000I-500000J0D01*
G01*
X31456251Y-82250000D02*
X31456251Y-95250000D01*
X-45243749Y-95750000D02*
X-58243749Y-95750000D01*
X165593750Y-76700000D02*
G75*
G02X165093750Y-76200000I0J500000D01*
G01*
X217193750Y-63200000D02*
X217193750Y-76200000D01*
X31743751Y-76200000D02*
X31743751Y-63200000D01*
X32243751Y-76700000D02*
G75*
G02X31743751Y-76200000I0J500000D01*
G01*
X184643750Y-62700000D02*
X197643750Y-62700000D01*
X-32049999Y-81750000D02*
X-14287499Y-81750000D01*
X-32549999Y-82250000D02*
G75*
G02X-32049999Y-81750000I500000J0D01*
G01*
X36506251Y-82250000D02*
G75*
G02X37006251Y-81750000I500000J0D01*
G01*
X145256250Y-95750000D02*
X132256250Y-95750000D01*
X145256250Y-81750000D02*
G75*
G02X145756250Y-82250000I0J-500000D01*
G01*
X145756250Y-95250000D02*
G75*
G02X145256250Y-95750000I-500000J0D01*
G01*
X75106250Y-95750000D02*
G75*
G02X74606250Y-95250000I0J500000D01*
G01*
X88606250Y-95250000D02*
G75*
G02X88106250Y-95750000I-500000J0D01*
G01*
X88106250Y-81750000D02*
G75*
G02X88606250Y-82250000I0J-500000D01*
G01*
X-14287499Y-81750000D02*
G75*
G02X-13787499Y-82250000I0J-500000D01*
G01*
X50506250Y-95250000D02*
G75*
G02X50006250Y-95750000I-500000J0D01*
G01*
X131756250Y-95250000D02*
X131756250Y-82250000D01*
X-32549999Y-95250000D02*
X-32549999Y-82250000D01*
X37006251Y-81750000D02*
X50006250Y-81750000D01*
X55556250Y-82250000D02*
G75*
G02X56056250Y-81750000I500000J0D01*
G01*
X55556250Y-95250000D02*
X55556250Y-82250000D01*
X56056250Y-81750000D02*
X69056250Y-81750000D01*
X145756250Y-82250000D02*
X145756250Y-95250000D01*
X69056250Y-81750000D02*
G75*
G02X69556250Y-82250000I0J-500000D01*
G01*
X-13787499Y-82250000D02*
X-13787499Y-95250000D01*
X50006250Y-95750000D02*
X37006251Y-95750000D01*
X-32049999Y-95750000D02*
G75*
G02X-32549999Y-95250000I0J500000D01*
G01*
X69056250Y-95750000D02*
X56056250Y-95750000D01*
X74606250Y-95250000D02*
X74606250Y-82250000D01*
X69556250Y-82250000D02*
X69556250Y-95250000D01*
X-13787499Y-95250000D02*
G75*
G02X-14287499Y-95750000I-500000J0D01*
G01*
X75106250Y-81750000D02*
X88106250Y-81750000D01*
X132256250Y-95750000D02*
G75*
G02X131756250Y-95250000I0J500000D01*
G01*
X36506251Y-95250000D02*
X36506251Y-82250000D01*
X50506250Y-82250000D02*
X50506250Y-95250000D01*
X132256250Y-81750000D02*
X145256250Y-81750000D01*
X131756250Y-82250000D02*
G75*
G02X132256250Y-81750000I500000J0D01*
G01*
X-14287499Y-95750000D02*
X-32049999Y-95750000D01*
X88606250Y-82250000D02*
X88606250Y-95250000D01*
X74606250Y-82250000D02*
G75*
G02X75106250Y-81750000I500000J0D01*
G01*
X37006251Y-95750000D02*
G75*
G02X36506251Y-95250000I0J500000D01*
G01*
X50006250Y-81750000D02*
G75*
G02X50506250Y-82250000I0J-500000D01*
G01*
X-44743749Y-82250000D02*
X-44743749Y-95250000D01*
X-45243749Y-81750000D02*
G75*
G02X-44743749Y-82250000I0J-500000D01*
G01*
X-58243749Y-81750000D02*
X-45243749Y-81750000D01*
X-58743749Y-82250000D02*
G75*
G02X-58243749Y-81750000I500000J0D01*
G01*
X56056250Y-95750000D02*
G75*
G02X55556250Y-95250000I0J500000D01*
G01*
X88106250Y-95750000D02*
X75106250Y-95750000D01*
X69556250Y-95250000D02*
G75*
G02X69056250Y-95750000I-500000J0D01*
G01*
M02*
