0
SECTION
2
HEADER
9
$INSUNITS
70
4
9
$ACADVER
1
AC1014
9
$HANDSEED
5
FFFF
0
ENDSEC
0
SECTION
2
TABLES
0
TABLE
2
VPORT
5
8
100
AcDbSymbolTable
0
ENDTAB
0
TABLE
2
LTYPE
5
5
100
AcDbSymbolTable
0
LTYPE
5
14
100
AcDbSymbolTableRecord
100
AcDbLinetypeTableRecord
2
BYBLOCK
70
0
0
LTYPE
5
15
100
AcDbSymbolTableRecord
100
AcDbLinetypeTableRecord
2
BYLAYER
70
0
0
ENDTAB
0
TABLE
2
LAYER
5
2
100
AcDbSymbolTable
70
2
0
LAYER
5
50
100
AcDbSymbolTableRecord
100
AcDbLayerTableRecord
2
0
70
0
6
CONTINUOUS
0
ENDTAB
0
TABLE
2
STYLE
5
3
100
AcDbSymbolTable
70
1
0
STYLE
5
11
100
AcDbSymbolTableRecord
100
AcDbTextStyleTableRecord
2
STANDARD
70
0
0
ENDTAB
0
TABLE
2
VIEW
5
6
100
AcDbSymbolTable
70
0
0
ENDTAB
0
TABLE
2
UCS
5
7
100
AcDbSymbolTable
70
0
0
ENDTAB
0
TABLE
2
APPID
5
9
100
AcDbSymbolTable
70
2
0
APPID
5
12
100
AcDbSymbolTableRecord
100
AcDbRegAppTableRecord
2
ACAD
70
0
0
ENDTAB
0
TABLE
2
DIMSTYLE
5
A
100
AcDbSymbolTable
70
1
0
ENDTAB
0
TABLE
2
BLOCK_RECORD
5
1
100
AcDbSymbolTable
70
1
0
BLOCK_RECORD
5
1F
100
AcDbSymbolTableRecord
100
AcDbBlockTableRecord
2
*MODEL_SPACE
0
BLOCK_RECORD
5
1B
100
AcDbSymbolTableRecord
100
AcDbBlockTableRecord
2
*PAPER_SPACE
0
ENDTAB
0
ENDSEC
0
SECTION
2
BLOCKS
0
BLOCK
5
20
100
AcDbEntity
100
AcDbBlockBegin
2
*MODEL_SPACE
0
ENDBLK
5
21
100
AcDbEntity
100
AcDbBlockEnd
0
BLOCK
5
1C
100
AcDbEntity
100
AcDbBlockBegin
2
*PAPER_SPACE
0
ENDBLK
5
1D
100
AcDbEntity
100
AcDbBlockEnd
0
ENDSEC
0
SECTION
2
ENTITIES
0
LWPOLYLINE
5
100
100
AcDbEntity
8
0
100
AcDbPolyline
90
4
70
1
43
0.0
10
-106.38025000000019
20
98.325400000000059
10
-103.08124000000021
20
98.325400000000059
10
-103.08124000000019
20
112.52609000000004
10
-106.38025000000019
20
112.52609000000004
0
LWPOLYLINE
5
101
100
AcDbEntity
8
0
100
AcDbPolyline
90
4
70
1
43
0.0
10
-206.3801500000001
20
98.325400000000116
10
-203.08015000000009
20
98.325400000000116
10
-203.08015000000009
20
112.5260900000001
10
-206.3801500000001
20
112.5260900000001
0
LWPOLYLINE
5
102
100
AcDbEntity
8
0
100
AcDbPolyline
90
8
70
1
43
0.0
10
-1.3999999999999346
20
14.520249999998809
10
-401.82549999999992
20
14.520249999998809
42
0.41421356237309664
10
-403.82550000000003
20
12.520249999998793
10
-403.82549999999992
20
6.8666966094067039
42
0.41421356237309309
10
-401.82549999999992
20
4.866696609406719
10
-1.3999999999999349
20
4.8666966094067172
42
0.41421356237309304
10
0.60000000000005826
20
6.8666966094067172
10
0.60000000000006493
20
12.520249999998807
42
0.41421356237309503
0
LWPOLYLINE
5
103
100
AcDbEntity
8
0
100
AcDbPolyline
90
6
70
1
43
0.0
10
-202.40624999999997
20
-10.654687534649213
10
-199.20195600599754
20
-8.8046875346492044
10
-199.20195600599754
20
-5.1046875346491927
10
-202.40624999999997
20
-3.254687534649197
10
-205.6105439940024
20
-5.1046875346491971
10
-205.6105439940024
20
-8.8046875346492079
0
LWPOLYLINE
5
104
100
AcDbEntity
8
0
100
AcDbPolyline
90
6
70
1
43
0.0
10
3.1251144611635393
20
-8.804687534649144
10
6.3294084551659315
20
-10.654687534649128
10
9.5337024491683238
20
-8.8046875346491458
10
9.5337024491683273
20
-5.104687534649182
10
6.3294084551659324
20
-3.254687534649197
10
3.1251144611635402
20
-5.1046875346491793
0
LWPOLYLINE
5
105
100
AcDbEntity
8
0
100
AcDbPolyline
90
6
70
1
43
0.0
10
-411.14190845516589
20
-10.654687534649129
10
-407.93761446116349
20
-8.8046875346491458
10
-407.93761446116349
20
-5.1046875346491749
10
-411.14190845516589
20
-3.2546875346491615
10
-414.34620244916829
20
-5.1046875346491616
10
-414.34620244916829
20
-8.8046875346491404
0
LWPOLYLINE
5
106
100
AcDbEntity
8
0
100
AcDbPolyline
90
6
70
1
43
0.0
10
-202.40624999999997
20
117.72316083935182
10
-199.20195600599754
20
119.57316083935183
10
-199.20195600599754
20
123.2731608393518
10
-202.40624999999997
20
125.12316083935181
10
-205.6105439940024
20
123.2731608393518
10
-205.6105439940024
20
119.57316083935183
0
LWPOLYLINE
5
107
100
AcDbEntity
8
0
100
AcDbPolyline
90
6
70
1
43
0.0
10
6.3395602372717388
20
117.72317476622666
10
9.5387662791939203
20
119.58195950398644
10
9.5286144970882507
20
123.28194557711159
10
6.3192566730604041
20
125.12314691247697
10
3.1200506311382261
20
123.26436217471721
10
3.1302024132438966
20
119.56437610159205
0
LWPOLYLINE
5
108
100
AcDbEntity
8
0
100
AcDbPolyline
90
6
70
1
43
0.0
10
-407.93761446116366
20
119.57316083935183
10
-407.93761446116366
20
123.2731608393518
10
-411.141908455166
20
125.12316083935181
10
-414.34620244916846
20
123.27316083935182
10
-414.34620244916846
20
119.57316083935184
10
-411.141908455166
20
117.72316083935186
0
LWPOLYLINE
5
109
100
AcDbEntity
8
0
100
AcDbPolyline
90
8
70
1
43
0.0
10
11.525
20
128.82499999999999
42
-0.41421356237309503
10
14.525000000000002
20
125.82499999999999
10
14.525000000000041
20
-11.356526695297351
42
-0.41421356237309503
10
11.525000000000034
20
-14.356526695297358
10
-416.33749999999998
20
-14.356526695297323
42
-0.41421356237309503
10
-419.33749999999998
20
-11.356526695297351
10
-419.33750000000003
20
125.82499999999999
42
-0.41421356237310197
10
-416.33749999999992
20
128.82499999999999
0
LWPOLYLINE
5
110
100
AcDbEntity
8
0
100
AcDbPolyline
90
8
70
1
43
0.0
10
-329.29999656677262
20
54.025001335144012
10
-343.79999656677262
20
54.025001335144012
42
0.41421356237330315
10
-344.29999656677251
20
53.52500133514404
10
-344.29999656677262
20
41.725001335144043
42
0.41421356237299095
10
-343.79999656677262
20
41.225001335144071
10
-329.29999656677262
20
41.225001335144071
42
0.41421356237331353
10
-328.79999656677273
20
41.725001335144078
10
-328.79999656677262
20
53.52500133514404
42
0.41421356237299095
0
LWPOLYLINE
5
111
100
AcDbEntity
8
0
100
AcDbPolyline
90
8
70
1
43
0.0
10
-381.89999656677276
20
79.32500133514398
10
-367.39999656677264
20
79.32500133514398
42
0.41421356237326673
10
-366.89999656677264
20
79.825001335143995
10
-366.89999656677264
20
91.625001335143963
42
0.41421356237295975
10
-367.39999656677264
20
92.125001335143992
10
-381.89999656677264
20
92.125001335143992
42
0.41421356237314705
10
-382.39999656677276
20
91.625001335143963
10
-382.39999656677264
20
79.825001335143995
42
0.41421356237305862
0
LWPOLYLINE
5
112
100
AcDbEntity
8
0
100
AcDbPolyline
90
8
70
1
43
0.0
10
-338.32499656677271
20
98.875001335143963
10
-338.32499656677271
20
110.67500133514393
42
0.41421356237295975
10
-338.82499656677271
20
111.17500133514395
10
-353.32499656677265
20
111.17500133514395
42
0.41421356237323032
10
-353.8249965667726
20
110.67500133514393
10
-353.8249965667726
20
98.875001335143963
42
0.41421356237300139
10
-353.32499656677265
20
98.375001335143992
10
-338.82499656677271
20
98.375001335143963
42
0.41421356237312623
0
LWPOLYLINE
5
113
100
AcDbEntity
8
0
100
AcDbPolyline
90
8
70
1
43
0.0
10
-387.79999656677251
20
103.00000133514395
10
-399.59999656677246
20
103.00000133514395
42
0.4142135623732407
10
-400.09999656677235
20
102.50000133514393
10
-400.09999656677246
20
88.000001335143992
42
0.4142135623730534
10
-399.59999656677246
20
87.500001335143978
10
-387.79999656677256
20
87.500001335143978
42
0.4142135623732407
10
-387.29999656677262
20
88.000001335143992
10
-387.29999656677256
20
102.50000133514393
42
0.41421356237306384
0
LWPOLYLINE
5
114
100
AcDbEntity
8
0
100
AcDbPolyline
90
8
70
1
43
0.0
10
-385.11499656677256
20
44.48500133514397
10
-389.3249965667726
20
44.485001335144041
42
0.41421356237319906
10
-389.82499656677254
20
43.985001335144034
10
-389.82499656677254
20
42.315001335144053
42
0.41421356237296497
10
-389.3249965667726
20
41.815001335144046
10
-385.11499656677256
20
41.815001335144046
42
0.41421356237314183
10
-384.61499656677262
20
42.315001335144053
10
-384.61499656677267
20
43.985001335144069
42
0.41421356237299095
0
LWPOLYLINE
5
115
100
AcDbEntity
8
0
100
AcDbPolyline
90
8
70
1
43
0.0
10
-343.79999656677273
20
22.175001335144096
10
-329.29999656677262
20
22.175001335144096
42
0.41421356237326151
10
-328.79999656677262
20
22.675001335144103
10
-328.79999656677262
20
34.475001335144086
42
0.414213562373004
10
-329.29999656677262
20
34.975001335144036
10
-343.79999656677262
20
34.975001335144071
42
0.41421356237326151
10
-344.29999656677262
20
34.475001335144064
10
-344.29999656677262
20
22.675001335144103
42
0.41421356237306123
0
LWPOLYLINE
5
116
100
AcDbEntity
8
0
100
AcDbPolyline
90
8
70
1
43
0.0
10
-400.94999656677254
20
22.175001335144024
10
-386.44999656677265
20
22.175001335144096
42
0.41421356237319906
10
-385.94999656677265
20
22.675001335144085
10
-385.94999656677265
20
34.475001335144064
42
0.41421356237296497
10
-386.44999656677265
20
34.975001335144071
10
-400.94999656677254
20
34.975001335144071
42
0.4142135623730846
10
-401.44999656677243
20
34.475001335144064
10
-401.44999656677248
20
22.675001335144085
42
0.41421356237291551
0
LWPOLYLINE
5
117
100
AcDbEntity
8
0
100
AcDbPolyline
90
8
70
1
43
0.0
10
-385.11499656677256
20
82.585001335143915
10
-389.3249965667726
20
82.585001335144028
42
0.41421356237313667
10
-389.8249965667726
20
82.085001335144028
10
-389.82499656677254
20
80.41500133514397
42
0.41421356237295975
10
-389.3249965667726
20
79.915001335143955
10
-385.11499656677256
20
79.915001335143955
42
0.41421356237313667
10
-384.61499656677262
20
80.41500133514397
10
-384.61499656677267
20
82.085001335144028
42
0.41421356237299095
0
LWPOLYLINE
5
118
100
AcDbEntity
8
0
100
AcDbPolyline
90
8
70
1
43
0.0
10
-358.73999656677256
20
109.15000133514394
10
-358.73999656677262
20
113.36000133514392
42
0.41421356237306384
10
-359.23999656677256
20
113.86000133514393
10
-360.90999656677263
20
113.86000133514393
42
0.41421356237323032
10
-361.40999656677258
20
113.36000133514392
10
-361.40999656677258
20
109.15000133514394
42
0.41421356237300139
10
-360.90999656677263
20
108.65000133514397
10
-359.23999656677262
20
108.65000133514393
42
0.41421356237323032
0
LWPOLYLINE
5
119
100
AcDbEntity
8
0
100
AcDbPolyline
90
8
70
1
43
0.0
10
-347.84999656677263
20
79.825001335143995
10
-347.84999656677263
20
91.625001335143992
42
0.41421356237300139
10
-348.34999656677263
20
92.125001335143963
10
-362.84999656677257
20
92.125001335143992
42
0.4142135623732095
10
-363.34999656677269
20
91.625001335143963
10
-363.34999656677263
20
79.825001335143995
42
0.41421356237305862
10
-362.84999656677269
20
79.32500133514398
10
-348.34999656677263
20
79.32500133514398
42
0.41421356237326673
0
LWPOLYLINE
5
120
100
AcDbEntity
8
0
100
AcDbPolyline
90
8
70
1
43
0.0
10
-329.29999656677262
20
73.07500133514398
10
-343.79999656677262
20
73.07500133514398
42
0.41421356237325629
10
-344.29999656677262
20
72.575001335144009
10
-344.29999656677262
20
60.775001335144019
42
0.41421356237299095
10
-343.79999656677262
20
60.275001335144012
10
-329.29999656677262
20
60.275001335144012
42
0.41421356237315227
10
-328.79999656677256
20
60.775001335144019
10
-328.79999656677262
20
72.575001335144009
42
0.41421356237299095
0
LWPOLYLINE
5
121
100
AcDbEntity
8
0
100
AcDbPolyline
90
8
70
1
43
0.0
10
-348.34999656677263
20
54.025001335144012
10
-362.84999656677263
20
54.025001335144012
42
0.41421356237330315
10
-363.34999656677257
20
53.52500133514404
10
-363.34999656677263
20
41.725001335144043
42
0.41421356237299095
10
-362.84999656677263
20
41.225001335144071
10
-348.34999656677263
20
41.225001335144071
42
0.41421356237330315
10
-347.84999656677269
20
41.725001335144043
10
-347.84999656677263
20
53.52500133514404
42
0.41421356237299095
0
LWPOLYLINE
5
122
100
AcDbEntity
8
0
100
AcDbPolyline
90
8
70
1
43
0.0
10
-367.39999656677253
20
73.07500133514398
10
-381.89999656677264
20
73.07500133514398
42
0.41421356237326673
10
-382.39999656677264
20
72.57500133514398
10
-382.39999656677264
20
60.775001335144019
42
0.41421356237296497
10
-381.89999656677264
20
60.275001335144047
10
-367.39999656677264
20
60.275001335144012
42
0.41421356237315227
10
-366.89999656677259
20
60.775001335144019
10
-366.89999656677264
20
72.57500133514398
42
0.41421356237305862
0
LWPOLYLINE
5
123
100
AcDbEntity
8
0
100
AcDbPolyline
90
8
70
1
43
0.0
10
-330.73999656677256
20
109.15000133514394
10
-330.73999656677267
20
113.36000133514392
42
0.41421356237306384
10
-331.23999656677256
20
113.86000133514393
10
-332.90999656677263
20
113.86000133514393
42
0.41421356237323032
10
-333.40999656677269
20
113.36000133514392
10
-333.40999656677263
20
109.15000133514394
42
0.41421356237300139
10
-332.90999656677263
20
108.65000133514397
10
-331.23999656677262
20
108.65000133514393
42
0.41421356237323032
0
LWPOLYLINE
5
124
100
AcDbEntity
8
0
100
AcDbPolyline
90
8
70
1
43
0.0
10
-385.11499656677256
20
110.58500133514386
10
-389.3249965667726
20
110.58500133514393
42
0.4142135623732095
10
-389.82499656677254
20
110.08500133514391
10
-389.82499656677254
20
108.41500133514394
42
0.41421356237300139
10
-389.3249965667726
20
107.91500133514397
10
-385.11499656677256
20
107.91500133514393
42
0.41421356237298057
10
-384.61499656677245
20
108.41500133514394
10
-384.61499656677267
20
110.08500133514391
42
0.41421356237311585
0
LWPOLYLINE
5
125
100
AcDbEntity
8
0
100
AcDbPolyline
90
8
70
1
43
0.0
10
-387.79999656677256
20
64.900001335143997
10
-399.59999656677246
20
64.900001335143997
42
0.4142135623730222
10
-400.09999656677246
20
64.400001335144026
10
-400.09999656677246
20
49.900001335144033
42
0.41421356237304818
10
-399.59999656677246
20
49.400001335144061
10
-387.79999656677256
20
49.400001335144061
42
0.4142135623730222
10
-387.29999656677256
20
49.900001335144033
10
-387.29999656677256
20
64.400001335144026
42
0.41421356237299095
0
LWPOLYLINE
5
126
100
AcDbEntity
8
0
100
AcDbPolyline
90
8
70
1
43
0.0
10
-362.84999656677263
20
22.175001335144096
10
-348.34999656677263
20
22.175001335144096
42
0.41421356237326151
10
-347.84999656677263
20
22.675001335144103
10
-347.84999656677263
20
34.475001335144086
42
0.414213562373004
10
-348.34999656677263
20
34.975001335144036
10
-362.84999656677263
20
34.975001335144071
42
0.41421356237326151
10
-363.34999656677263
20
34.475001335144064
10
-363.34999656677263
20
22.675001335144085
42
0.414213562373004
0
LWPOLYLINE
5
127
100
AcDbEntity
8
0
100
AcDbPolyline
90
8
70
1
43
0.0
10
-381.89999656677264
20
22.175001335144096
10
-367.39999656677264
20
22.175001335144096
42
0.41421356237326412
10
-366.89999656677264
20
22.675001335144085
10
-366.89999656677264
20
34.475001335144064
42
0.41421356237296497
10
-367.39999656677264
20
34.975001335144071
10
-381.89999656677264
20
34.975001335144071
42
0.41421356237326151
10
-382.39999656677264
20
34.475001335144064
10
-382.39999656677264
20
22.675001335144085
42
0.414213562373004
0
LWPOLYLINE
5
128
100
AcDbEntity
8
0
100
AcDbPolyline
90
8
70
1
43
0.0
10
-385.11499656677256
20
72.485001335143906
10
-389.3249965667726
20
72.485001335143977
42
0.41421356237306384
10
-389.82499656677248
20
71.985001335144005
10
-389.82499656677254
20
70.31500133514399
42
0.41421356237299095
10
-389.3249965667726
20
69.815001335144018
10
-385.11499656677256
20
69.815001335144018
42
0.41421356237308982
10
-384.61499656677262
20
70.31500133514399
10
-384.61499656677267
20
71.985001335144005
42
0.41421356237299095
0
LWPOLYLINE
5
129
100
AcDbEntity
8
0
100
AcDbPolyline
90
8
70
1
43
0.0
10
-366.89999656677259
20
98.875001335143963
10
-366.89999656677264
20
110.67500133514393
42
0.41421356237306384
10
-367.39999656677253
20
111.17500133514395
10
-381.89999656677264
20
111.17500133514395
42
0.41421356237323032
10
-382.3999965667727
20
110.67500133514393
10
-382.39999656677264
20
98.875001335143963
42
0.41421356237300139
10
-381.89999656677264
20
98.375001335143992
10
-367.39999656677264
20
98.375001335143963
42
0.41421356237323032
0
LWPOLYLINE
5
130
100
AcDbEntity
8
0
100
AcDbPolyline
90
8
70
1
43
0.0
10
-343.79999656677273
20
79.32500133514398
10
-329.29999656677262
20
79.32500133514398
42
0.41421356237326673
10
-328.79999656677262
20
79.825001335143995
10
-328.79999656677262
20
91.625001335143963
42
0.41421356237295975
10
-329.29999656677262
20
92.125001335143935
10
-343.79999656677262
20
92.125001335143963
42
0.41421356237323032
10
-344.29999656677268
20
91.625001335143963
10
-344.29999656677262
20
79.825001335143995
42
0.41421356237305862
0
LWPOLYLINE
5
131
100
AcDbEntity
8
0
100
AcDbPolyline
90
8
70
1
43
0.0
10
-348.34999656677257
20
73.07500133514398
10
-362.84999656677263
20
73.07500133514398
42
0.41421356237326673
10
-363.34999656677263
20
72.57500133514398
10
-363.34999656677263
20
60.775001335144019
42
0.41421356237299095
10
-362.84999656677263
20
60.275001335144047
10
-348.34999656677263
20
60.275001335144012
42
0.41421356237315227
10
-347.84999656677257
20
60.775001335144019
10
-347.84999656677263
20
72.57500133514398
42
0.41421356237305862
0
LWPOLYLINE
5
132
100
AcDbEntity
8
0
100
AcDbPolyline
90
8
70
1
43
0.0
10
-367.39999656677264
20
54.025001335144012
10
-381.89999656677264
20
54.025001335144012
42
0.41421356237331353
10
-382.39999656677253
20
53.525001335144005
10
-382.39999656677264
20
41.725001335144043
42
0.41421356237299095
10
-381.89999656677264
20
41.225001335144071
10
-367.39999656677264
20
41.225001335144036
42
0.41421356237326673
10
-366.89999656677264
20
41.725001335144043
10
-366.89999656677264
20
53.52500133514404
42
0.41421356237299095
0
LWPOLYLINE
5
133
100
AcDbEntity
8
0
100
AcDbPolyline
90
8
70
1
43
0.0
10
-111.58625000000001
20
109.15000000000001
42
-0.41421356237307422
10
-112.08625000000001
20
108.65000000000001
10
-113.75624999999999
20
108.65000000000001
42
-0.41421356237307422
10
-114.25624999999999
20
109.15000000000001
10
-114.25624999999999
20
113.36
42
-0.41421356237307422
10
-113.75624999999999
20
113.86000000000001
10
-112.08625000000001
20
113.86000000000001
42
-0.41421356237307422
10
-111.58625000000001
20
113.36
0
LWPOLYLINE
5
134
100
AcDbEntity
8
0
100
AcDbPolyline
90
8
70
1
43
0.0
10
-242.28125
20
98.875000000000014
42
-0.4142135623730846
10
-242.78125000000003
20
98.375
10
-257.28125
20
98.375
42
-0.41421356237309503
10
-257.78125
20
98.875000000000014
10
-257.78125
20
110.67500000000001
42
-0.41421356237309503
10
-257.28125
20
111.17500000000001
10
-242.78125000000003
20
111.175
42
-0.4142135623730846
10
-242.28125000000003
20
110.67500000000001
0
LWPOLYLINE
5
135
100
AcDbEntity
8
0
100
AcDbPolyline
90
8
70
1
43
0.0
10
-147.03125
20
98.875000000000014
42
-0.41421356237307422
10
-147.53125
20
98.375
10
-162.03125
20
98.375000000000028
42
-0.4142135623730846
10
-162.53125
20
98.875000000000014
10
-162.53125000000006
20
110.67500000000001
42
-0.4142135623730846
10
-162.03125
20
111.17500000000001
10
-147.53125
20
111.17500000000001
42
-0.41421356237307422
10
-147.03125
20
110.67500000000001
0
LWPOLYLINE
5
136
100
AcDbEntity
8
0
100
AcDbPolyline
90
8
70
1
43
0.0
10
-218.46874999999997
20
98.875000000000014
42
-0.4142135623730846
10
-218.96875
20
98.375
10
-233.46875
20
98.375
42
-0.41421356237309503
10
-233.96875
20
98.875000000000014
10
-233.96875
20
110.67500000000001
42
-0.41421356237309503
10
-233.46875
20
111.17500000000001
10
-218.96875
20
111.175
42
-0.4142135623730846
10
-218.46875
20
110.67500000000001
0
LWPOLYLINE
5
137
100
AcDbEntity
8
0
100
AcDbPolyline
90
8
70
1
43
0.0
10
-75.593749999999986
20
98.875
42
-0.414213562373069
10
-76.09375
20
98.375
10
-90.593750000000014
20
98.375
42
-0.4142135623730534
10
-91.093750000000014
20
98.875000000000014
10
-91.093750000000014
20
110.67500000000001
42
-0.4142135623730534
10
-90.593750000000014
20
111.17500000000001
10
-76.09375
20
111.175
42
-0.41421356237310542
10
-75.59375
20
110.67500000000001
0
LWPOLYLINE
5
138
100
AcDbEntity
8
0
100
AcDbPolyline
90
8
70
1
43
0.0
10
-289.90625
20
98.875000000000014
42
-0.41421356237309503
10
-290.40625
20
98.375
10
-304.90625
20
98.375000000000028
42
-0.4142135623730846
10
-305.40625
20
98.875000000000014
10
-305.40625000000006
20
110.67500000000001
42
-0.4142135623730846
10
-304.90625
20
111.17500000000001
10
-290.40625
20
111.17500000000001
42
-0.41421356237309503
10
-289.90625
20
110.67500000000001
0
LWPOLYLINE
5
139
100
AcDbEntity
8
0
100
AcDbPolyline
90
8
70
1
43
0.0
10
-29.908749999999994
20
90.099999999999994
42
-0.41421356237307422
10
-30.408750000000001
20
89.599999999999994
10
-32.078749999999978
20
89.600000000000009
42
-0.41421356237309764
10
-32.578749999999999
20
90.099999999999994
10
-32.578750000000007
20
94.310000000000002
42
-0.41421356237309503
10
-32.078749999999999
20
94.810000000000016
10
-30.408749999999998
20
94.810000000000016
42
-0.41421356237310542
10
-29.908750000000005
20
94.310000000000002
0
LWPOLYLINE
5
140
100
AcDbEntity
8
0
100
AcDbPolyline
90
8
70
1
43
0.0
10
-195.30625000000001
20
109.15000000000001
42
-0.41421356237309503
10
-195.80625000000001
20
108.65000000000001
10
-197.47624999999999
20
108.65000000000002
42
-0.4142135623730846
10
-197.97624999999999
20
109.15000000000001
10
-197.97625000000005
20
113.36
42
-0.4142135623730846
10
-197.47624999999999
20
113.86000000000001
10
-195.80625000000001
20
113.86000000000001
42
-0.41421356237309503
10
-195.30625000000001
20
113.36
0
LWPOLYLINE
5
141
100
AcDbEntity
8
0
100
AcDbPolyline
90
8
70
1
43
0.0
10
-275.61874999999998
20
79.825000000000003
42
-0.4142135623730222
10
-276.11874999999998
20
79.325000000000017
10
-290.61874999999998
20
79.325000000000031
42
-0.41421356237312101
10
-291.11875000000003
20
79.825000000000003
10
-291.11875000000003
20
91.625
42
-0.4142135623730846
10
-290.61874999999998
20
92.125
10
-276.11874999999998
20
92.124999999999986
42
-0.4142135623730846
10
-275.61874999999998
20
91.625
0
LWPOLYLINE
5
142
100
AcDbEntity
8
0
100
AcDbPolyline
90
8
70
1
43
0.0
10
-51.781249999999986
20
98.875
42
-0.414213562373069
10
-52.28125
20
98.375
10
-66.781250000000014
20
98.375000000000028
42
-0.41421356237309503
10
-67.28125
20
98.875000000000014
10
-67.281250000000014
20
110.67500000000001
42
-0.41421356237307422
10
-66.78125
20
111.17500000000001
10
-52.28125
20
111.175
42
-0.41421356237310542
10
-51.781250000000007
20
110.67500000000001
0
LWPOLYLINE
5
143
100
AcDbEntity
8
0
100
AcDbPolyline
90
8
70
1
43
0.0
10
-216.80000000000004
20
79.325000000000017
42
-0.41421356237313145
10
-217.30000000000004
20
79.825000000000003
10
-217.30000000000004
20
91.625
42
-0.41421356237309503
10
-216.80000000000004
20
92.125
10
-202.30000000000004
20
92.124999999999986
42
-0.4142135623730846
10
-201.80000000000004
20
91.625
10
-201.80000000000007
20
79.825000000000003
42
-0.4142135623730222
10
-202.30000000000004
20
79.325000000000017
0
LWPOLYLINE
5
144
100
AcDbEntity
8
0
100
AcDbPolyline
90
8
70
1
43
0.0
10
-1.7749999999999935
20
98.875000000000014
42
-0.41421356237307388
10
-2.2750000000000004
20
98.375
10
-16.774999999999984
20
98.375000000000028
42
-0.4142135623730846
10
-17.274999999999999
20
98.875000000000014
10
-17.275000000000006
20
110.67500000000001
42
-0.41421356237307422
10
-16.774999999999999
20
111.17500000000001
10
-2.2749999999999915
20
111.17500000000001
42
-0.41421356237306922
10
-1.7749999999999999
20
110.67500000000001
0
LWPOLYLINE
5
145
100
AcDbEntity
8
0
100
AcDbPolyline
90
8
70
1
43
0.0
10
-239.89999999999998
20
79.825000000000003
42
-0.41421356237307422
10
-240.40000000000003
20
79.325000000000017
10
-254.90000000000003
20
79.325000000000031
42
-0.41421356237312101
10
-255.40000000000003
20
79.825000000000003
10
-255.40000000000006
20
91.625
42
-0.4142135623730846
10
-254.90000000000003
20
92.125
10
-240.40000000000003
20
92.125
42
-0.41421356237309503
10
-239.90000000000003
20
91.625
0
LWPOLYLINE
5
146
100
AcDbEntity
8
0
100
AcDbPolyline
90
8
70
1
43
0.0
10
-302.53375
20
90.099999999999994
42
-0.4142135623730846
10
-303.03375000000005
20
89.599999999999994
10
-304.70375000000001
20
89.600000000000009
42
-0.4142135623730846
10
-305.20375000000007
20
90.099999999999994
10
-305.20375000000001
20
94.310000000000002
42
-0.41421356237310542
10
-304.70375000000001
20
94.810000000000016
10
-303.03375000000005
20
94.810000000000031
42
-0.41421356237310542
10
-302.53375
20
94.310000000000002
0
LWPOLYLINE
5
147
100
AcDbEntity
8
0
100
AcDbPolyline
90
8
70
1
43
0.0
10
-182.74999999999994
20
79.825000000000003
42
-0.41421356237307422
10
-183.25
20
79.325000000000017
10
-197.75000000000003
20
79.325000000000017
42
-0.41421356237313145
10
-198.25000000000003
20
79.825000000000003
10
-198.25000000000003
20
91.625
42
-0.41421356237309503
10
-197.75000000000003
20
92.125
10
-183.25
20
92.125
42
-0.41421356237309503
10
-182.75
20
91.625
0
LWPOLYLINE
5
148
100
AcDbEntity
8
0
100
AcDbPolyline
90
8
70
1
43
0.0
10
-261.53374999999994
20
90.099999999999994
42
-0.4142135623730846
10
-262.03375
20
89.599999999999994
10
-263.70375000000001
20
89.600000000000009
42
-0.4142135623730846
10
-264.20375000000001
20
90.099999999999994
10
-264.20375000000001
20
94.310000000000002
42
-0.41421356237310542
10
-263.70375000000001
20
94.810000000000016
10
-262.03375
20
94.810000000000031
42
-0.41421356237310542
10
-261.53375
20
94.310000000000002
0
LWPOLYLINE
5
149
100
AcDbEntity
8
0
100
AcDbPolyline
90
8
70
1
43
0.0
10
-106.55000000000001
20
79.825000000000003
42
-0.41421356237310025
10
-107.05
20
79.325000000000017
10
-121.55000000000001
20
79.325000000000003
42
-0.41421356237309503
10
-122.05000000000001
20
79.825000000000003
10
-122.05000000000001
20
91.625
42
-0.41421356237307422
10
-121.55000000000001
20
92.125
10
-107.05
20
92.125
42
-0.4142135623730534
10
-106.55
20
91.625
0
LWPOLYLINE
5
150
100
AcDbEntity
8
0
100
AcDbPolyline
90
8
70
1
43
0.0
10
-27.968749999999996
20
98.875000000000014
42
-0.41421356237307422
10
-28.468750000000004
20
98.375
10
-42.96875
20
98.375000000000028
42
-0.41421356237310542
10
-43.46875
20
98.875000000000014
10
-43.468750000000014
20
110.67499999999998
42
-0.41421356237307944
10
-42.96875
20
111.17500000000001
10
-28.468750000000007
20
111.175
42
-0.41421356237308721
10
-27.968750000000004
20
110.67500000000001
0
LWPOLYLINE
5
151
100
AcDbEntity
8
0
100
AcDbPolyline
90
8
70
1
43
0.0
10
-220.84999999999997
20
79.825000000000003
42
-0.41421356237307422
10
-221.35000000000002
20
79.325000000000017
10
-235.85000000000002
20
79.325000000000031
42
-0.41421356237312101
10
-236.35000000000002
20
79.825000000000003
10
-236.35000000000005
20
91.625
42
-0.4142135623730846
10
-235.85000000000002
20
92.125
10
-221.35000000000002
20
92.125
42
-0.41421356237309503
10
-220.85000000000002
20
91.625
0
LWPOLYLINE
5
152
100
AcDbEntity
8
0
100
AcDbPolyline
90
8
70
1
43
0.0
10
-37.493749999999999
20
79.825000000000003
42
-0.41421356237309503
10
-37.993749999999999
20
79.325000000000017
10
-52.493750000000006
20
79.325000000000017
42
-0.41421356237309503
10
-52.993750000000006
20
79.825000000000003
10
-52.99375000000002
20
91.624999999999972
42
-0.41421356237307944
10
-52.493750000000006
20
92.125
10
-37.993750000000013
20
92.124999999999986
42
-0.41421356237309243
10
-37.493749999999999
20
91.625
0
LWPOLYLINE
5
153
100
AcDbEntity
8
0
100
AcDbPolyline
90
8
70
1
43
0.0
10
-68.450000000000003
20
79.825000000000003
42
-0.41421356237309503
10
-68.950000000000003
20
79.325000000000017
10
-83.450000000000003
20
79.325000000000003
42
-0.41421356237307422
10
-83.950000000000017
20
79.825000000000003
10
-83.950000000000017
20
91.625
42
-0.4142135623730534
10
-83.450000000000003
20
92.125
10
-68.949999999999989
20
92.124999999999986
42
-0.41421356237309503
10
-68.450000000000003
20
91.625
0
LWPOLYLINE
5
154
100
AcDbEntity
8
0
100
AcDbPolyline
90
8
70
1
43
0.0
10
-16.774999999999999
20
79.325000000000017
42
-0.4142135623730937
10
-17.274999999999999
20
79.825000000000003
10
-17.275000000000006
20
91.625
42
-0.41421356237307422
10
-16.774999999999999
20
92.125
10
-2.2749999999999915
20
92.125
42
-0.41421356237306922
10
-1.7749999999999999
20
91.625
10
-1.7750000000000032
20
79.825000000000003
42
-0.41421356237309426
10
-2.2750000000000004
20
79.325000000000017
0
LWPOLYLINE
5
155
100
AcDbEntity
8
0
100
AcDbPolyline
90
8
70
1
43
0.0
10
-57.908749999999991
20
90.09999999999998
42
-0.414213562373069
10
-58.408750000000005
20
89.599999999999994
10
-60.078749999999999
20
89.600000000000009
42
-0.41421356237310542
10
-60.578749999999999
20
90.099999999999994
10
-60.578750000000021
20
94.310000000000002
42
-0.41421356237310025
10
-60.078749999999999
20
94.810000000000016
10
-58.408750000000005
20
94.810000000000016
42
-0.41421356237310542
10
-57.908750000000005
20
94.310000000000002
0
LWPOLYLINE
5
156
100
AcDbEntity
8
0
100
AcDbPolyline
90
8
70
1
43
0.0
10
-44.63750000000001
20
22.675000000000001
10
-44.63750000000001
20
34.474999999999994
42
0.41421356237310281
10
-45.137500000000017
20
34.975000000000009
10
-59.63750000000001
20
34.975000000000001
42
0.41421356237310025
10
-60.137500000000017
20
34.474999999999994
10
-60.13750000000001
20
22.675000000000001
42
0.41421356237309764
10
-59.63750000000001
20
22.174999999999994
10
-45.13750000000001
20
22.175000000000004
42
0.41421356237309503
0
LWPOLYLINE
5
157
100
AcDbEntity
8
0
100
AcDbPolyline
90
8
70
1
43
0.0
10
-192.27500000000006
20
60.775000000000006
42
-0.4142135623730222
10
-192.77500000000003
20
60.275000000000006
10
-207.27500000000003
20
60.274999999999999
42
-0.41421356237313667
10
-207.77500000000003
20
60.775000000000006
10
-207.77500000000006
20
72.575000000000003
42
-0.41421356237307422
10
-207.27500000000003
20
73.075000000000003
10
-192.77500000000003
20
73.074999999999989
42
-0.41421356237312623
10
-192.27500000000003
20
72.575000000000003
0
LWPOLYLINE
5
158
100
AcDbEntity
8
0
100
AcDbPolyline
90
8
70
1
43
0.0
10
-77.975000000000009
20
60.775000000000006
42
-0.41421356237310542
10
-78.474999999999994
20
60.275000000000006
10
-92.974999999999994
20
60.274999999999991
42
-0.41421356237310025
10
-93.474999999999994
20
60.775000000000006
10
-93.474999999999994
20
72.575000000000003
42
-0.41421356237310542
10
-92.974999999999994
20
73.075000000000003
10
-78.474999999999994
20
73.075000000000003
42
-0.41421356237310542
10
-77.975000000000009
20
72.575000000000003
0
LWPOLYLINE
5
159
100
AcDbEntity
8
0
100
AcDbPolyline
90
8
70
1
43
0.0
10
-197.03749999999997
20
22.675000000000001
42
-0.41421356237307683
10
-197.53749999999999
20
22.175000000000004
10
-212.03749999999999
20
22.174999999999983
42
-0.41421356237310025
10
-212.53749999999999
20
22.675000000000001
10
-212.53749999999999
20
34.474999999999994
42
-0.4142135623730534
10
-212.03749999999999
20
34.975000000000001
10
-197.53749999999999
20
34.975000000000009
42
-0.41421356237313406
10
-197.03749999999999
20
34.475000000000001
0
LWPOLYLINE
5
160
100
AcDbEntity
8
0
100
AcDbPolyline
90
8
70
1
43
0.0
10
-135.125
20
60.775000000000006
42
-0.41421356237310542
10
-135.625
20
60.275000000000006
10
-150.125
20
60.274999999999991
42
-0.41421356237307944
10
-150.62500000000003
20
60.775000000000006
10
-150.625
20
72.575000000000003
42
-0.41421356237310542
10
-150.125
20
73.075000000000003
10
-135.625
20
73.075000000000017
42
-0.41421356237310025
10
-135.125
20
72.575000000000003
0
LWPOLYLINE
5
161
100
AcDbEntity
8
0
100
AcDbPolyline
90
8
70
1
43
0.0
10
-280.38125000000008
20
60.775000000000006
42
-0.4142135623730222
10
-280.88125000000002
20
60.275000000000006
10
-295.38125000000002
20
60.274999999999999
42
-0.41421356237313667
10
-295.88125000000002
20
60.775000000000006
10
-295.88125000000008
20
72.575000000000003
42
-0.41421356237307422
10
-295.38125000000002
20
73.075000000000003
10
-280.88125000000002
20
73.074999999999989
42
-0.41421356237312623
10
-280.38125000000002
20
72.575000000000003
0
LWPOLYLINE
5
162
100
AcDbEntity
8
0
100
AcDbPolyline
90
8
70
1
43
0.0
10
-300.79624999999999
20
71.050000000000011
42
-0.41421356237307422
10
-301.29624999999999
20
70.550000000000011
10
-302.96625
20
70.549999999999997
42
-0.41421356237313667
10
-303.46625000000006
20
71.050000000000011
10
-303.46625000000006
20
75.260000000000005
42
-0.41421356237307422
10
-302.96625
20
75.760000000000005
10
-301.29624999999999
20
75.760000000000005
42
-0.41421356237313145
10
-300.79624999999999
20
75.260000000000005
0
LWPOLYLINE
5
163
100
AcDbEntity
8
0
100
AcDbPolyline
90
8
70
1
43
0.0
10
-87.5
20
79.825000000000003
42
-0.41421356237308982
10
-88
20
79.325000000000017
10
-102.5
20
79.325000000000003
42
-0.41421356237309503
10
-103
20
79.825000000000003
10
-103
20
91.625
42
-0.41421356237307422
10
-102.5
20
92.125
10
-88
20
92.125
42
-0.41421356237307422
10
-87.5
20
91.625
0
LWPOLYLINE
5
164
100
AcDbEntity
8
0
100
AcDbPolyline
90
8
70
1
43
0.0
10
-159.65000000000001
20
79.325000000000003
42
-0.41421356237310542
10
-160.15000000000001
20
79.825000000000003
10
-160.15000000000001
20
91.625
42
-0.4142135623730846
10
-159.65000000000001
20
92.125
10
-145.15000000000001
20
92.125
42
-0.41421356237307422
10
-144.65000000000001
20
91.625
10
-144.65000000000001
20
79.825000000000003
42
-0.41421356237308982
10
-145.15000000000001
20
79.325000000000017
0
LWPOLYLINE
5
165
100
AcDbEntity
8
0
100
AcDbPolyline
90
8
70
1
43
0.0
10
-125.59999999999999
20
79.825000000000003
42
-0.41421356237308982
10
-126.09999999999999
20
79.325000000000017
10
-140.59999999999999
20
79.325000000000003
42
-0.41421356237307422
10
-141.10000000000002
20
79.825000000000003
10
-141.10000000000002
20
91.625
42
-0.4142135623730534
10
-140.59999999999999
20
92.125
10
-126.09999999999999
20
92.125
42
-0.41421356237307422
10
-125.59999999999999
20
91.625
0
LWPOLYLINE
5
166
100
AcDbEntity
8
0
100
AcDbPolyline
90
8
70
1
43
0.0
10
-264.42500000000001
20
60.27500000000002
42
-0.41421356237312623
10
-264.92500000000001
20
60.775000000000006
10
-264.92500000000001
20
72.575000000000003
42
-0.4142135623730222
10
-264.42500000000001
20
73.075000000000003
10
-249.92500000000004
20
73.075000000000017
42
-0.41421356237313667
10
-249.42500000000001
20
72.575000000000003
10
-249.42499999999998
20
60.775000000000006
42
-0.41421356237307422
10
-249.92500000000004
20
60.275000000000006
0
LWPOLYLINE
5
167
100
AcDbEntity
8
0
100
AcDbPolyline
90
8
70
1
43
0.0
10
-163.69999999999993
20
79.825000000000003
42
-0.41421356237307422
10
-164.19999999999999
20
79.325000000000017
10
-178.70000000000002
20
79.325000000000017
42
-0.41421356237313145
10
-179.20000000000002
20
79.825000000000003
10
-179.20000000000002
20
91.625
42
-0.41421356237309503
10
-178.70000000000002
20
92.125
10
-164.19999999999999
20
92.125
42
-0.41421356237309503
10
-163.69999999999999
20
91.625
0
LWPOLYLINE
5
168
100
AcDbEntity
8
0
100
AcDbPolyline
90
8
70
1
43
0.0
10
-272.79625000000004
20
71.050000000000011
42
-0.4142135623730222
10
-273.29624999999999
20
70.550000000000011
10
-274.96625
20
70.550000000000011
42
-0.41421356237312623
10
-275.46625
20
71.050000000000011
10
-275.46625
20
75.260000000000005
42
-0.4142135623730222
10
-274.96625
20
75.760000000000005
10
-273.29624999999999
20
75.759999999999991
42
-0.41421356237312101
10
-272.79624999999999
20
75.260000000000005
0
LWPOLYLINE
5
169
100
AcDbEntity
8
0
100
AcDbPolyline
90
8
70
1
43
0.0
10
-158.9375
20
22.675000000000001
42
-0.41421356237310542
10
-159.4375
20
22.175000000000004
10
-173.9375
20
22.175000000000004
42
-0.41421356237313145
10
-174.4375
20
22.675000000000001
10
-174.4375
20
34.474999999999994
42
-0.4142135623730846
10
-173.9375
20
34.975000000000001
10
-159.4375
20
34.975000000000009
42
-0.41421356237309503
10
-158.9375
20
34.475000000000001
0
LWPOLYLINE
5
170
100
AcDbEntity
8
0
100
AcDbPolyline
90
8
70
1
43
0.0
10
-116.07500000000002
20
60.775000000000006
42
-0.41421356237310542
10
-116.575
20
60.275000000000006
10
-131.07499999999999
20
60.274999999999991
42
-0.41421356237307944
10
-131.57500000000002
20
60.775000000000006
10
-131.57499999999999
20
72.575000000000003
42
-0.41421356237310542
10
-131.07499999999999
20
73.075000000000003
10
-116.57500000000002
20
73.075000000000017
42
-0.41421356237307944
10
-116.075
20
72.575000000000003
0
LWPOLYLINE
5
171
100
AcDbEntity
8
0
100
AcDbPolyline
90
8
70
1
43
0.0
10
-173.22499999999994
20
60.775000000000006
42
-0.41421356237307422
10
-173.72499999999999
20
60.275000000000006
10
-188.22500000000002
20
60.274999999999999
42
-0.41421356237313667
10
-188.72500000000002
20
60.775000000000006
10
-188.72500000000005
20
72.575000000000003
42
-0.41421356237307422
10
-188.22500000000002
20
73.075000000000003
10
-173.72499999999999
20
73.075000000000017
42
-0.41421356237313667
10
-173.22499999999997
20
72.575000000000003
0
LWPOLYLINE
5
172
100
AcDbEntity
8
0
100
AcDbPolyline
90
8
70
1
43
0.0
10
-211.32499999999996
20
60.775000000000006
42
-0.41421356237307422
10
-211.82500000000002
20
60.275000000000006
10
-226.32499999999999
20
60.27500000000002
42
-0.41421356237312623
10
-226.82500000000002
20
60.775000000000006
10
-226.82499999999999
20
72.575000000000003
42
-0.4142135623730222
10
-226.32499999999999
20
73.075000000000003
10
-211.82500000000002
20
73.075000000000017
42
-0.41421356237313667
10
-211.32499999999999
20
72.575000000000003
0
LWPOLYLINE
5
173
100
AcDbEntity
8
0
100
AcDbPolyline
90
8
70
1
43
0.0
10
-25.587500000000002
20
22.675000000000001
42
-0.41421356237309503
10
-26.087500000000002
20
22.175000000000004
10
-40.587499999999999
20
22.174999999999997
42
-0.41421356237309764
10
-41.087499999999999
20
22.675000000000001
10
-41.087499999999991
20
34.474999999999994
42
-0.41421356237310025
10
-40.587499999999999
20
34.975000000000001
10
-26.087500000000006
20
34.975000000000001
42
-0.41421356237309764
10
-25.587500000000002
20
34.475000000000001
0
LWPOLYLINE
5
174
100
AcDbEntity
8
0
100
AcDbPolyline
90
8
70
1
43
0.0
10
-230.37499999999997
20
60.775000000000006
42
-0.41421356237307422
10
-230.87500000000003
20
60.275000000000006
10
-245.375
20
60.27500000000002
42
-0.41421356237312623
10
-245.87500000000003
20
60.775000000000006
10
-245.875
20
72.575000000000003
42
-0.4142135623730222
10
-245.375
20
73.075000000000003
10
-230.87500000000003
20
73.075000000000017
42
-0.41421356237313667
10
-230.375
20
72.575000000000003
0
LWPOLYLINE
5
175
100
AcDbEntity
8
0
100
AcDbPolyline
90
8
70
1
43
0.0
10
-1.7749999999999988
20
60.775000000000006
42
-0.41421356237309687
10
-2.2750000000000004
20
60.275000000000006
10
-16.774999999999984
20
60.275000000000006
42
-0.41421356237310542
10
-17.274999999999999
20
60.775000000000006
10
-17.275000000000002
20
72.575000000000003
42
-0.41421356237309764
10
-16.774999999999999
20
73.075000000000003
10
-2.2749999999999915
20
73.075000000000003
42
-0.41421356237309198
10
-1.7749999999999999
20
72.575000000000003
0
LWPOLYLINE
5
176
100
AcDbEntity
8
0
100
AcDbPolyline
90
8
70
1
43
0.0
10
-154.17500000000001
20
60.775000000000006
42
-0.41421356237310542
10
-154.67500000000001
20
60.275000000000006
10
-169.17500000000001
20
60.274999999999999
42
-0.41421356237313667
10
-169.67500000000001
20
60.775000000000006
10
-169.67500000000004
20
72.575000000000003
42
-0.41421356237307422
10
-169.17500000000001
20
73.075000000000003
10
-154.67500000000001
20
73.075000000000017
42
-0.41421356237310025
10
-154.17500000000001
20
72.575000000000003
0
LWPOLYLINE
5
177
100
AcDbEntity
8
0
100
AcDbPolyline
90
8
70
1
43
0.0
10
-235.13749999999999
20
22.675000000000001
10
-235.13749999999999
20
34.474999999999994
42
0.41421356237310542
10
-235.63749999999999
20
34.975000000000009
10
-250.13750000000002
20
34.975000000000001
42
0.4142135623730534
10
-250.63750000000002
20
34.474999999999994
10
-250.63750000000002
20
22.675000000000001
42
0.41421356237310025
10
-250.13750000000002
20
22.174999999999994
10
-235.63749999999999
20
22.175000000000004
42
0.41421356237304563
0
LWPOLYLINE
5
178
100
AcDbEntity
8
0
100
AcDbPolyline
90
8
70
1
43
0.0
10
-135.83750000000003
20
22.174999999999997
42
-0.41421356237309243
10
-136.33750000000003
20
22.675000000000001
10
-136.33750000000003
20
34.474999999999994
42
-0.41421356237311063
10
-135.83750000000003
20
34.975000000000001
10
-121.33750000000001
20
34.975000000000009
42
-0.41421356237307422
10
-120.83750000000001
20
34.475000000000001
10
-120.83750000000002
20
22.675000000000001
42
-0.41421356237310025
10
-121.33750000000001
20
22.175000000000004
0
LWPOLYLINE
5
179
100
AcDbEntity
8
0
100
AcDbPolyline
90
8
70
1
43
0.0
10
-101.78750000000001
20
22.675000000000001
42
-0.41421356237310025
10
-102.28749999999999
20
22.175000000000004
10
-116.78750000000001
20
22.174999999999997
42
-0.41421356237309243
10
-117.28750000000002
20
22.675000000000001
10
-117.28750000000002
20
34.474999999999994
42
-0.41421356237311063
10
-116.78750000000001
20
34.975000000000001
10
-102.28749999999999
20
34.975000000000009
42
-0.41421356237307422
10
-101.78749999999999
20
34.475000000000001
0
LWPOLYLINE
5
180
100
AcDbEntity
8
0
100
AcDbPolyline
90
8
70
1
43
0.0
10
-54.162500000000009
20
41.725000000000001
42
-0.41421356237309503
10
-54.662500000000009
20
41.225000000000009
10
-69.162499999999994
20
41.225000000000009
42
-0.41421356237309503
10
-69.662499999999994
20
41.725000000000001
10
-69.662499999999994
20
53.524999999999999
42
-0.41421356237309503
10
-69.162499999999994
20
54.024999999999999
10
-54.662500000000009
20
54.024999999999999
42
-0.41421356237309503
10
-54.162500000000009
20
53.524999999999999
0
LWPOLYLINE
5
181
100
AcDbEntity
8
0
100
AcDbPolyline
90
8
70
1
43
0.0
10
-244.66250000000002
20
41.725000000000001
42
-0.4142135623730222
10
-245.16249999999999
20
41.225000000000009
10
-259.66250000000002
20
41.225000000000023
42
-0.41421356237312101
10
-260.16250000000002
20
41.725000000000001
10
-260.16250000000002
20
53.524999999999999
42
-0.4142135623730222
10
-259.66250000000002
20
54.024999999999999
10
-245.16249999999999
20
54.024999999999977
42
-0.41421356237312101
10
-244.66249999999999
20
53.524999999999999
0
LWPOLYLINE
5
182
100
AcDbEntity
8
0
100
AcDbPolyline
90
8
70
1
43
0.0
10
-139.88749999999999
20
22.675000000000001
10
-139.88749999999999
20
34.474999999999994
42
0.41421356237309764
10
-140.38749999999999
20
34.975000000000009
10
-154.88749999999999
20
34.975000000000001
42
0.41421356237311063
10
-155.38749999999999
20
34.474999999999994
10
-155.38749999999999
20
22.675000000000001
42
0.41421356237309243
10
-154.88749999999999
20
22.174999999999994
10
-140.38749999999999
20
22.175000000000004
42
0.41421356237310542
0
LWPOLYLINE
5
183
100
AcDbEntity
8
0
100
AcDbPolyline
90
8
70
1
43
0.0
10
-1.775000000000001
20
22.675000000000001
42
-0.41421356237309553
10
-2.2750000000000004
20
22.175000000000004
10
-16.774999999999984
20
22.175000000000004
42
-0.41421356237310153
10
-17.274999999999999
20
22.675000000000001
10
-17.274999999999999
20
34.474999999999994
42
-0.41421356237309892
10
-16.774999999999999
20
34.975000000000001
10
-2.2749999999999915
20
34.975000000000001
42
-0.41421356237309065
10
-1.7749999999999999
20
34.475000000000001
0
LWPOLYLINE
5
184
100
AcDbEntity
8
0
100
AcDbPolyline
90
8
70
1
43
0.0
10
-281.09375
20
98.375000000000028
42
-0.4142135623730846
10
-281.59375
20
98.875000000000014
10
-281.59375000000006
20
110.67500000000001
42
-0.4142135623730846
10
-281.09375
20
111.17500000000001
10
-266.59375
20
111.17500000000001
42
-0.41421356237309503
10
-266.09375
20
110.67500000000001
10
-266.09375
20
98.875000000000014
42
-0.41421356237309503
10
-266.59375
20
98.375
0
LWPOLYLINE
5
185
100
AcDbEntity
8
0
100
AcDbPolyline
90
8
70
1
43
0.0
10
-282.76249999999999
20
22.675000000000001
10
-282.76249999999999
20
34.474999999999994
42
0.41421356237310542
10
-283.26250000000005
20
34.975000000000009
10
-297.76249999999999
20
34.975000000000001
42
0.4142135623730846
10
-298.26250000000005
20
34.474999999999994
10
-298.26250000000005
20
22.675000000000001
42
0.41421356237313145
10
-297.76249999999999
20
22.174999999999994
10
-283.26250000000005
20
22.175000000000004
42
0.41421356237304563
0
LWPOLYLINE
5
186
100
AcDbEntity
8
0
100
AcDbPolyline
90
8
70
1
43
0.0
10
-97.025000000000006
20
60.775000000000006
42
-0.41421356237310542
10
-97.525000000000006
20
60.275000000000006
10
-112.02500000000001
20
60.274999999999991
42
-0.41421356237310025
10
-112.52500000000001
20
60.775000000000006
10
-112.52500000000001
20
72.575000000000003
42
-0.41421356237310542
10
-112.02500000000001
20
73.075000000000003
10
-97.525000000000006
20
73.075000000000017
42
-0.41421356237310025
10
-97.025000000000006
20
72.575000000000003
0
LWPOLYLINE
5
187
100
AcDbEntity
8
0
100
AcDbPolyline
90
8
70
1
43
0.0
10
-82.737499999999997
20
22.675000000000001
42
-0.41421356237310542
10
-83.237500000000011
20
22.175000000000004
10
-97.737499999999997
20
22.174999999999997
42
-0.41421356237309243
10
-98.237500000000011
20
22.675000000000001
10
-98.237500000000011
20
34.474999999999994
42
-0.41421356237311063
10
-97.737499999999997
20
34.975000000000001
10
-83.237500000000011
20
34.975000000000009
42
-0.41421356237309503
10
-82.737499999999997
20
34.475000000000001
0
LWPOLYLINE
5
188
100
AcDbEntity
8
0
100
AcDbPolyline
90
8
70
1
43
0.0
10
-177.98750000000001
20
22.675000000000001
42
-0.41421356237304563
10
-178.48750000000001
20
22.175000000000004
10
-192.98750000000001
20
22.175000000000004
42
-0.41421356237313145
10
-193.48750000000001
20
22.675000000000001
10
-193.48750000000001
20
34.474999999999994
42
-0.4142135623730846
10
-192.98750000000001
20
34.975000000000001
10
-178.48750000000001
20
34.975000000000023
42
-0.41421356237310281
10
-177.98750000000001
20
34.475000000000001
0
LWPOLYLINE
5
189
100
AcDbEntity
8
0
100
AcDbPolyline
90
8
70
1
43
0.0
10
-254.1875
20
22.675000000000001
42
-0.41421356237304563
10
-254.6875
20
22.175000000000004
10
-269.1875
20
22.174999999999983
42
-0.41421356237310025
10
-269.68750000000006
20
22.675000000000001
10
-269.68750000000006
20
34.474999999999994
42
-0.4142135623730534
10
-269.1875
20
34.975000000000001
10
-254.6875
20
34.975000000000023
42
-0.41421356237310281
10
-254.1875
20
34.475000000000001
0
LWPOLYLINE
5
190
100
AcDbEntity
8
0
100
AcDbPolyline
90
8
70
1
43
0.0
10
-63.6875
20
22.675000000000001
42
-0.41421356237309503
10
-64.1875
20
22.175000000000004
10
-78.6875
20
22.174999999999997
42
-0.41421356237309764
10
-79.1875
20
22.675000000000001
10
-79.1875
20
34.474999999999994
42
-0.41421356237310025
10
-78.6875
20
34.975000000000001
10
-64.1875
20
34.975000000000001
42
-0.41421356237308982
10
-63.6875
20
34.475000000000001
0
LWPOLYLINE
5
191
100
AcDbEntity
8
0
100
AcDbPolyline
90
8
70
1
43
0.0
10
-1.7750000000000032
20
41.725000000000001
42
-0.41421356237309426
10
-2.2750000000000004
20
41.225000000000009
10
-16.774999999999984
20
41.225000000000009
42
-0.41421356237310281
10
-17.274999999999999
20
41.725000000000001
10
-17.274999999999999
20
53.524999999999999
42
-0.41421356237309503
10
-16.774999999999999
20
54.024999999999999
10
-2.2749999999999915
20
54.024999999999999
42
-0.41421356237308937
10
-1.7749999999999999
20
53.524999999999999
0
LWPOLYLINE
5
192
100
AcDbEntity
8
0
100
AcDbPolyline
90
8
70
1
43
0.0
10
-216.08749999999998
20
22.675000000000001
42
-0.41421356237307683
10
-216.58750000000001
20
22.175000000000004
10
-231.08750000000001
20
22.174999999999983
42
-0.41421356237310025
10
-231.58750000000001
20
22.675000000000001
10
-231.58750000000001
20
34.474999999999994
42
-0.4142135623730534
10
-231.08750000000001
20
34.975000000000001
10
-216.58750000000001
20
34.975000000000009
42
-0.41421356237313406
10
-216.08750000000001
20
34.475000000000001
0
LWPOLYLINE
5
193
100
AcDbEntity
8
0
100
AcDbPolyline
90
8
70
1
43
0.0
10
-303.17750000000001
20
32.950000000000003
42
-0.41421356237305079
10
-303.67750000000001
20
32.450000000000003
10
-305.34750000000003
20
32.449999999999982
42
-0.41421356237310281
10
-305.84750000000003
20
32.950000000000003
10
-305.84750000000003
20
37.159999999999997
42
-0.4142135623730534
10
-305.34750000000003
20
37.659999999999997
10
-303.67750000000001
20
37.660000000000018
42
-0.41421356237310281
10
-303.17750000000001
20
37.159999999999997
0
LWPOLYLINE
5
194
100
AcDbEntity
8
0
100
AcDbPolyline
90
8
70
1
43
0.0
10
-111.31250000000001
20
41.725000000000001
42
-0.41421356237310025
10
-111.8125
20
41.225000000000009
10
-126.31250000000001
20
41.224999999999994
42
-0.41421356237309503
10
-126.81250000000003
20
41.725000000000001
10
-126.81250000000003
20
53.524999999999999
42
-0.41421356237308982
10
-126.31250000000001
20
54.024999999999999
10
-111.8125
20
54.025000000000006
42
-0.41421356237307422
10
-111.3125
20
53.524999999999999
0
LWPOLYLINE
5
195
100
AcDbEntity
8
0
100
AcDbPolyline
90
8
70
1
43
0.0
10
-277.34750000000008
20
32.449999999999982
42
-0.41421356237310281
10
-277.84750000000008
20
32.950000000000003
10
-277.84750000000008
20
37.159999999999997
42
-0.4142135623730534
10
-277.34750000000008
20
37.659999999999997
10
-275.67750000000001
20
37.660000000000018
42
-0.41421356237310281
10
-275.17750000000001
20
37.159999999999997
10
-275.17750000000001
20
32.950000000000003
42
-0.41421356237304818
10
-275.67750000000001
20
32.450000000000003
0
LWPOLYLINE
5
196
100
AcDbEntity
8
0
100
AcDbPolyline
90
8
70
1
43
0.0
10
-287.52499999999992
20
41.725000000000001
42
-0.41421356237307422
10
-288.02499999999998
20
41.225000000000009
10
-302.52499999999998
20
41.225000000000023
42
-0.41421356237312101
10
-303.02499999999998
20
41.725000000000001
10
-303.02499999999998
20
53.524999999999999
42
-0.4142135623730222
10
-302.52499999999998
20
54.024999999999999
10
-288.02499999999998
20
54.024999999999999
42
-0.41421356237313145
10
-287.52499999999998
20
53.524999999999999
0
LWPOLYLINE
5
197
100
AcDbEntity
8
0
100
AcDbPolyline
90
8
70
1
43
0.0
10
-149.41249999999999
20
41.725000000000001
42
-0.41421356237308982
10
-149.91250000000002
20
41.225000000000009
10
-164.41249999999999
20
41.225000000000009
42
-0.41421356237313145
10
-164.91250000000002
20
41.725000000000001
10
-164.91250000000005
20
53.524999999999999
42
-0.41421356237307422
10
-164.41249999999999
20
54.024999999999999
10
-149.91250000000002
20
54.025000000000006
42
-0.41421356237309503
10
-149.41249999999999
20
53.524999999999999
0
LWPOLYLINE
5
198
100
AcDbEntity
8
0
100
AcDbPolyline
90
8
70
1
43
0.0
10
-206.56249999999997
20
41.725000000000001
42
-0.41421356237307422
10
-207.0625
20
41.225000000000009
10
-221.5625
20
41.225000000000023
42
-0.41421356237312101
10
-222.0625
20
41.725000000000001
10
-222.06249999999997
20
53.524999999999999
42
-0.4142135623730222
10
-221.5625
20
54.024999999999999
10
-207.0625
20
54.024999999999999
42
-0.41421356237313145
10
-206.5625
20
53.524999999999999
0
LWPOLYLINE
5
199
100
AcDbEntity
8
0
100
AcDbPolyline
90
8
70
1
43
0.0
10
-73.212500000000006
20
41.725000000000001
42
-0.41421356237309503
10
-73.712500000000006
20
41.225000000000009
10
-88.212500000000006
20
41.224999999999994
42
-0.41421356237307422
10
-88.71250000000002
20
41.725000000000001
10
-88.712500000000006
20
53.524999999999999
42
-0.41421356237310025
10
-88.212500000000006
20
54.024999999999999
10
-73.712500000000006
20
54.024999999999999
42
-0.41421356237308982
10
-73.212500000000006
20
53.524999999999999
0
LWPOLYLINE
5
200
100
AcDbEntity
8
0
100
AcDbPolyline
90
8
70
1
43
0.0
10
-30.350000000000005
20
41.725000000000001
42
-0.41421356237309503
10
-30.850000000000005
20
41.225000000000009
10
-45.350000000000001
20
41.225000000000009
42
-0.41421356237309503
10
-45.850000000000001
20
41.725000000000001
10
-45.850000000000001
20
53.524999999999999
42
-0.41421356237309503
10
-45.350000000000001
20
54.024999999999999
10
-30.850000000000009
20
54.024999999999999
42
-0.41421356237309764
10
-30.350000000000005
20
53.524999999999999
0
LWPOLYLINE
5
201
100
AcDbEntity
8
0
100
AcDbPolyline
90
8
70
1
43
0.0
10
-130.36250000000001
20
41.725000000000001
42
-0.41421356237310025
10
-130.86250000000001
20
41.225000000000009
10
-145.36250000000001
20
41.224999999999994
42
-0.41421356237309503
10
-145.86250000000004
20
41.725000000000001
10
-145.86250000000004
20
53.524999999999999
42
-0.41421356237308982
10
-145.36250000000001
20
54.024999999999999
10
-130.86250000000001
20
54.025000000000006
42
-0.41421356237307422
10
-130.36250000000001
20
53.524999999999999
0
LWPOLYLINE
5
202
100
AcDbEntity
8
0
100
AcDbPolyline
90
8
70
1
43
0.0
10
-168.46250000000001
20
41.725000000000009
10
-168.46250000000001
20
53.524999999999999
42
0.41421356237312101
10
-168.96250000000003
20
54.024999999999999
10
-183.46250000000001
20
54.024999999999999
42
0.41421356237307422
10
-183.96250000000003
20
53.524999999999999
10
-183.96250000000003
20
41.725000000000001
42
0.41421356237313145
10
-183.46250000000001
20
41.225000000000009
10
-168.96250000000003
20
41.225000000000009
42
0.41421356237302737
0
LWPOLYLINE
5
203
100
AcDbEntity
8
0
100
AcDbPolyline
90
8
70
1
43
0.0
10
-225.61249999999998
20
41.725000000000001
42
-0.41421356237307422
10
-226.11250000000001
20
41.225000000000009
10
-240.61250000000001
20
41.225000000000023
42
-0.41421356237312101
10
-241.11250000000001
20
41.725000000000001
10
-241.11249999999998
20
53.524999999999999
42
-0.4142135623730222
10
-240.61250000000001
20
54.024999999999999
10
-226.11250000000001
20
54.024999999999999
42
-0.41421356237313145
10
-225.61250000000001
20
53.524999999999999
0
LWPOLYLINE
5
204
100
AcDbEntity
8
0
100
AcDbPolyline
90
8
70
1
43
0.0
10
-92.262500000000003
20
41.725000000000001
42
-0.41421356237308982
10
-92.762500000000017
20
41.225000000000009
10
-107.2625
20
41.224999999999994
42
-0.41421356237309503
10
-107.76250000000002
20
41.725000000000001
10
-107.76250000000002
20
53.524999999999999
42
-0.41421356237308982
10
-107.2625
20
54.024999999999999
10
-92.762500000000017
20
54.025000000000006
42
-0.41421356237309503
10
-92.262500000000003
20
53.524999999999999
0
LWPOLYLINE
5
205
100
AcDbEntity
8
0
100
AcDbPolyline
90
8
70
1
43
0.0
10
-263.71250000000003
20
41.725000000000001
42
-0.4142135623730222
10
-264.21249999999998
20
41.225000000000009
10
-278.71249999999998
20
41.225000000000009
42
-0.41421356237313145
10
-279.21249999999998
20
41.725000000000001
10
-279.21250000000003
20
53.524999999999999
42
-0.41421356237307422
10
-278.71249999999998
20
54.024999999999999
10
-264.21249999999998
20
54.024999999999977
42
-0.41421356237312101
10
-263.71249999999998
20
53.524999999999999
0
LWPOLYLINE
5
206
100
AcDbEntity
8
0
100
AcDbPolyline
90
8
70
1
43
0.0
10
-187.51249999999996
20
41.725000000000001
42
-0.41421356237307422
10
-188.01249999999999
20
41.225000000000009
10
-202.51249999999999
20
41.225000000000023
42
-0.41421356237312101
10
-203.01249999999999
20
41.725000000000001
10
-203.01249999999996
20
53.524999999999999
42
-0.4142135623730222
10
-202.51249999999999
20
54.024999999999999
10
-188.01249999999999
20
54.024999999999999
42
-0.41421356237313145
10
-187.51249999999999
20
53.524999999999999
0
LWPOLYLINE
5
207
100
AcDbEntity
8
0
100
AcDbPolyline
90
8
70
1
43
0.0
10
-58.924999999999997
20
60.775000000000006
42
-0.41421356237309503
10
-59.424999999999997
20
60.275000000000006
10
-73.924999999999997
20
60.275000000000006
42
-0.41421356237310542
10
-74.424999999999997
20
60.775000000000006
10
-74.424999999999997
20
72.575000000000003
42
-0.41421356237310542
10
-73.924999999999997
20
73.075000000000003
10
-59.42499999999999
20
73.075000000000003
42
-0.41421356237308982
10
-58.924999999999997
20
72.575000000000003
0
LWPOLYLINE
5
208
100
AcDbEntity
8
0
100
AcDbPolyline
90
8
70
1
43
0.0
10
-32.731250000000003
20
60.775000000000006
42
-0.41421356237309764
10
-33.231250000000003
20
60.275000000000006
10
-47.731250000000003
20
60.275000000000006
42
-0.41421356237310542
10
-48.231250000000003
20
60.775000000000006
10
-48.231250000000003
20
72.575000000000003
42
-0.41421356237310542
10
-47.731250000000003
20
73.075000000000003
10
-33.23125000000001
20
73.074999999999989
42
-0.41421356237310025
10
-32.73125000000001
20
72.575000000000003
0
LWPOLYLINE
5
209
100
AcDbEntity
8
0
100
AcDbPolyline
90
8
70
1
43
0.0
10
-27.146249999999998
20
71.050000000000011
42
-0.41421356237309764
10
-27.646250000000002
20
70.550000000000011
10
-29.316250000000004
20
70.550000000000011
42
-0.41421356237309764
10
-29.816250000000004
20
71.050000000000011
10
-29.816250000000004
20
75.260000000000005
42
-0.41421356237309503
10
-29.316250000000004
20
75.760000000000005
10
-27.646249999999988
20
75.760000000000005
42
-0.41421356237308721
10
-27.146250000000002
20
75.260000000000005
0
LWPOLYLINE
5
210
100
AcDbEntity
8
0
100
AcDbPolyline
90
8
70
1
43
0.0
10
-51.146250000000009
20
71.050000000000011
42
-0.41421356237310542
10
-51.646250000000009
20
70.550000000000011
10
-53.316249999999989
20
70.550000000000011
42
-0.41421356237310025
10
-53.816249999999997
20
71.050000000000011
10
-53.816249999999997
20
75.260000000000005
42
-0.41421356237309503
10
-53.316249999999997
20
75.760000000000005
10
-51.646250000000009
20
75.760000000000005
42
-0.41421356237309503
10
-51.146250000000009
20
75.260000000000005
0
ENDSEC
0
SECTION
2
OBJECTS
0
DICTIONARY
5
C
100
AcDbDictionary
3
ACAD_GROUP
350
D
3
ACAD_MLINESTYLE
350
17
0
DICTIONARY
5
D
100
AcDbDictionary
0
DICTIONARY
5
1A
330
C
100
AcDbDictionary
0
DICTIONARY
5
17
100
AcDbDictionary
0
ENDSEC
0
EOF
