0
SECTION
2
HEADER
9
$INSUNITS
70
4
9
$ACADVER
1
AC1014
9
$HANDSEED
5
FFFF
0
ENDSEC
0
SECTION
2
TABLES
0
TABLE
2
VPORT
5
8
100
AcDbSymbolTable
0
ENDTAB
0
TABLE
2
LTYPE
5
5
100
AcDbSymbolTable
0
LTYPE
5
14
100
AcDbSymbolTableRecord
100
AcDbLinetypeTableRecord
2
BYBLOCK
70
0
0
LTYPE
5
15
100
AcDbSymbolTableRecord
100
AcDbLinetypeTableRecord
2
BYLAYER
70
0
0
ENDTAB
0
TABLE
2
LAYER
5
2
100
AcDbSymbolTable
70
2
0
LAYER
5
50
100
AcDbSymbolTableRecord
100
AcDbLayerTableRecord
2
0
70
0
6
CONTINUOUS
0
ENDTAB
0
TABLE
2
STYLE
5
3
100
AcDbSymbolTable
70
1
0
STYLE
5
11
100
AcDbSymbolTableRecord
100
AcDbTextStyleTableRecord
2
STANDARD
70
0
0
ENDTAB
0
TABLE
2
VIEW
5
6
100
AcDbSymbolTable
70
0
0
ENDTAB
0
TABLE
2
UCS
5
7
100
AcDbSymbolTable
70
0
0
ENDTAB
0
TABLE
2
APPID
5
9
100
AcDbSymbolTable
70
2
0
APPID
5
12
100
AcDbSymbolTableRecord
100
AcDbRegAppTableRecord
2
ACAD
70
0
0
ENDTAB
0
TABLE
2
DIMSTYLE
5
A
100
AcDbSymbolTable
70
1
0
ENDTAB
0
TABLE
2
BLOCK_RECORD
5
1
100
AcDbSymbolTable
70
1
0
BLOCK_RECORD
5
1F
100
AcDbSymbolTableRecord
100
AcDbBlockTableRecord
2
*MODEL_SPACE
0
BLOCK_RECORD
5
1B
100
AcDbSymbolTableRecord
100
AcDbBlockTableRecord
2
*PAPER_SPACE
0
ENDTAB
0
ENDSEC
0
SECTION
2
BLOCKS
0
BLOCK
5
20
100
AcDbEntity
100
AcDbBlockBegin
2
*MODEL_SPACE
0
ENDBLK
5
21
100
AcDbEntity
100
AcDbBlockEnd
0
BLOCK
5
1C
100
AcDbEntity
100
AcDbBlockBegin
2
*PAPER_SPACE
0
ENDBLK
5
1D
100
AcDbEntity
100
AcDbBlockEnd
0
ENDSEC
0
SECTION
2
ENTITIES
0
LWPOLYLINE
5
100
100
AcDbEntity
8
0
100
AcDbPolyline
90
8
70
1
43
0.0
10
-82.34315278403102
20
124.89262495020115
42
-0.41421356237307422
10
-82.84315278403102
20
124.39262495020115
10
-95.843152784031034
20
124.39262495020115
42
-0.41421356237307422
10
-96.343152784031048
20
124.89262495020115
10
-96.343152784031048
20
137.89262495020114
42
-0.41421356237309503
10
-95.843152784031034
20
138.39262495020114
10
-82.84315278403102
20
138.39262495020114
42
-0.41421356237309503
10
-82.34315278403102
20
137.89262495020114
0
LWPOLYLINE
5
101
100
AcDbEntity
8
0
100
AcDbPolyline
90
8
70
1
43
0.0
10
-0.59315278403101235
20
124.39262495020115
42
-0.41421356237307411
10
-1.0931527840310125
20
124.89262495020115
10
-1.0931527840310187
20
137.89262495020114
42
-0.41421356237309453
10
-0.59315278403101246
20
138.39262495020114
10
12.406847215968995
20
138.39262495020114
42
-0.41421356237310675
10
12.906847215968995
20
137.89262495020114
10
12.906847215969004
20
124.89262495020115
42
-0.41421356237307555
10
12.406847215968995
20
124.39262495020115
0
LWPOLYLINE
5
102
100
AcDbEntity
8
0
100
AcDbPolyline
90
8
70
1
43
0.0
10
81.963097215969015
20
124.89262495020115
42
-0.41421356237307422
10
81.463097215969
20
124.39262495020115
10
63.70059721596899
20
124.39262495020117
42
-0.41421356237309503
10
63.200597215968997
20
124.89262495020115
10
63.20059721596899
20
137.89262495020114
42
-0.41421356237309503
10
63.700597215968997
20
138.39262495020114
10
81.463097215969
20
138.39262495020114
42
-0.41421356237309503
10
81.963097215969015
20
137.89262495020114
0
LWPOLYLINE
5
103
100
AcDbEntity
8
0
100
AcDbPolyline
90
8
70
1
43
0.0
10
-25.193152784031007
20
124.89262495020115
42
-0.41421356237307161
10
-25.69315278403101
20
124.39262495020115
10
-38.693152784031
20
124.39262495020117
42
-0.41421356237310025
10
-39.193152784031
20
124.89262495020115
10
-39.193152784031
20
137.89262495020114
42
-0.41421356237309243
10
-38.693152784031
20
138.39262495020114
10
-25.69315278403101
20
138.39262495020114
42
-0.41421356237310542
10
-25.193152784031014
20
137.89262495020114
0
LWPOLYLINE
5
104
100
AcDbEntity
8
0
100
AcDbPolyline
90
8
70
1
43
0.0
10
-6.1431527840310114
20
124.89262495020115
42
-0.41421356237307294
10
-6.6431527840310167
20
124.39262495020115
10
-19.643152784030988
20
124.39262495020118
42
-0.41421356237308721
10
-20.143152784030988
20
124.89262495020115
10
-20.143152784030995
20
137.89262495020114
42
-0.41421356237309631
10
-19.643152784030988
20
138.39262495020114
10
-6.6431527840310167
20
138.39262495020117
42
-0.41421356237310542
10
-6.1431527840310167
20
137.89262495020114
0
LWPOLYLINE
5
105
100
AcDbEntity
8
0
100
AcDbPolyline
90
8
70
1
43
0.0
10
108.15684721596901
20
124.89262495020115
42
-0.4142135623730534
10
107.65684721596899
20
124.39262495020115
10
94.656847215969009
20
124.39262495020115
42
-0.41421356237309503
10
94.156847215969009
20
124.89262495020115
10
94.156847215969009
20
137.89262495020114
42
-0.41421356237309503
10
94.656847215969009
20
138.39262495020114
10
107.65684721596898
20
138.39262495020114
42
-0.4142135623730846
10
108.15684721596901
20
137.89262495020114
0
LWPOLYLINE
5
106
100
AcDbEntity
8
0
100
AcDbPolyline
90
8
70
1
43
0.0
10
31.95684721596901
20
124.89262495020115
42
-0.41421356237307161
10
31.456847215969006
20
124.39262495020115
10
18.456847215968999
20
124.39262495020117
42
-0.41421356237307555
10
17.956847215968999
20
124.89262495020115
10
17.956847215968988
20
137.89262495020114
42
-0.41421356237309631
10
18.456847215968999
20
138.39262495020114
10
31.456847215969006
20
138.39262495020114
42
-0.41421356237310542
10
31.956847215969006
20
137.89262495020114
0
LWPOLYLINE
5
107
100
AcDbEntity
8
0
100
AcDbPolyline
90
8
70
1
43
0.0
10
-153.78065278403099
20
105.84262495020116
42
-0.41421356237309503
10
-154.28065278403099
20
105.34262495020116
10
-167.28065278403102
20
105.34262495020114
42
-0.41421356237310542
10
-167.78065278403102
20
105.84262495020116
10
-167.78065278403096
20
118.84262495020117
42
-0.41421356237310542
10
-167.28065278403102
20
119.34262495020118
10
-154.28065278403099
20
119.34262495020118
42
-0.41421356237309503
10
-153.78065278403099
20
118.84262495020117
0
LWPOLYLINE
5
108
100
AcDbEntity
8
0
100
AcDbPolyline
90
8
70
1
43
0.0
10
-218.86814935080338
20
105.84262628534519
42
-0.4142135623730846
10
-219.36814935080344
20
105.34262628534519
10
-232.36814935080338
20
105.34262628534515
42
-0.41421356237309503
10
-232.86814935080344
20
105.84262628534519
10
-232.86814935080344
20
118.8426262853452
42
-0.4142135623730846
10
-232.36814935080338
20
119.3426262853452
10
-219.36814935080344
20
119.34262628534518
42
-0.41421356237309503
10
-218.86814935080344
20
118.8426262853452
0
LWPOLYLINE
5
109
100
AcDbEntity
8
0
100
AcDbPolyline
90
8
70
1
43
0.0
10
-134.73065278403101
20
105.84262495020116
42
-0.41421356237309503
10
-135.23065278403101
20
105.34262495020116
10
-148.23065278403104
20
105.34262495020116
42
-0.41421356237309503
10
-148.73065278403104
20
105.84262495020116
10
-148.73065278403104
20
118.84262495020117
42
-0.41421356237309503
10
-148.23065278403104
20
119.34262495020118
10
-135.23065278403101
20
119.34262495020118
42
-0.41421356237309503
10
-134.73065278403101
20
118.84262495020117
0
LWPOLYLINE
5
110
100
AcDbEntity
8
0
100
AcDbPolyline
90
8
70
1
43
0.0
10
-115.680652784031
20
105.84262495020116
42
-0.41421356237309503
10
-116.18065278403101
20
105.34262495020116
10
-129.18065278403103
20
105.34262495020116
42
-0.41421356237309503
10
-129.68065278403103
20
105.84262495020116
10
-129.68065278403103
20
118.84262495020117
42
-0.41421356237309503
10
-129.18065278403103
20
119.34262495020118
10
-116.18065278403101
20
119.34262495020118
42
-0.41421356237309503
10
-115.680652784031
20
118.84262495020117
0
LWPOLYLINE
5
111
100
AcDbEntity
8
0
100
AcDbPolyline
90
8
70
1
43
0.0
10
-39.480652784031001
20
105.84262495020116
42
-0.41421356237309243
10
-39.980652784031001
20
105.34262495020116
10
-52.980652784031008
20
105.34262495020116
42
-0.41421356237310542
10
-53.480652784031008
20
105.84262495020116
10
-53.480652784031022
20
118.84262495020117
42
-0.41421356237310025
10
-52.980652784031008
20
119.34262495020118
10
-39.980652784031001
20
119.34262495020118
42
-0.41421356237310542
10
-39.480652784031001
20
118.84262495020117
0
LWPOLYLINE
5
112
100
AcDbEntity
8
0
100
AcDbPolyline
90
8
70
1
43
0.0
10
17.669347215969008
20
105.84262495020116
42
-0.41421356237309631
10
17.169347215968997
20
105.34262495020116
10
4.1693472159689904
20
105.34262495020114
42
-0.41421356237310542
10
3.6693472159689904
20
105.84262495020116
10
3.6693472159689842
20
118.84262495020117
42
-0.41421356237309437
10
4.1693472159689904
20
119.34262495020118
10
17.169347215968997
20
119.34262495020118
42
-0.41421356237310675
10
17.669347215968997
20
118.84262495020117
0
LWPOLYLINE
5
113
100
AcDbEntity
8
0
100
AcDbPolyline
90
8
70
1
43
0.0
10
-1.3806527840310068
20
105.84262495020116
10
-1.3806527840310068
20
118.84262495020117
42
0.41421356237310542
10
-1.8806527840310139
20
119.34262495020118
10
-14.880652784031003
20
119.34262495020118
42
0.41421356237309631
10
-15.38065278403101
20
118.84262495020117
10
-15.380652784031003
20
105.84262495020116
42
0.41421356237310675
10
-14.880652784031003
20
105.34262495020116
10
-1.8806527840310139
20
105.34262495020116
42
0.41421356237309437
0
LWPOLYLINE
5
114
100
AcDbEntity
8
0
100
AcDbPolyline
90
8
70
1
43
0.0
10
-139.49315278403103
20
124.89262495020115
42
-0.41421356237307422
10
-139.99315278403103
20
124.39262495020115
10
-152.99315278403103
20
124.39262495020115
42
-0.41421356237307422
10
-153.49315278403105
20
124.89262495020115
10
-153.49315278403105
20
137.89262495020114
42
-0.41421356237309503
10
-152.99315278403103
20
138.39262495020114
10
-139.99315278403103
20
138.39262495020114
42
-0.41421356237309503
10
-139.49315278403103
20
137.89262495020114
0
LWPOLYLINE
5
115
100
AcDbEntity
8
0
100
AcDbPolyline
90
8
70
1
43
0.0
10
-218.86814935080338
20
143.94262628534517
42
-0.4142135623730846
10
-219.36814935080344
20
143.44262628534517
10
-232.36814935080338
20
143.44262628534514
42
-0.41421356237309503
10
-232.86814935080344
20
143.94262628534517
10
-232.86814935080344
20
156.9426262853452
42
-0.4142135623730846
10
-232.36814935080338
20
157.4426262853452
10
-219.36814935080344
20
157.44262628534517
42
-0.41421356237309503
10
-218.86814935080344
20
156.9426262853452
0
LWPOLYLINE
5
116
100
AcDbEntity
8
0
100
AcDbPolyline
90
8
70
1
43
0.0
10
-144.25565278403101
20
86.792624950201144
42
-0.41421356237309503
10
-144.75565278403104
20
86.292624950201144
10
-157.75565278403099
20
86.292624950201144
42
-0.41421356237309503
10
-158.25565278403101
20
86.792624950201144
10
-158.25565278403101
20
99.792624950201159
42
-0.41421356237309503
10
-157.75565278403099
20
100.29262495020117
10
-144.75565278403104
20
100.29262495020117
42
-0.41421356237309503
10
-144.25565278403101
20
99.792624950201159
0
LWPOLYLINE
5
117
100
AcDbEntity
8
0
100
AcDbPolyline
90
8
70
1
43
0.0
10
-96.630652784030985
20
105.84262495020116
10
-96.630652784030985
20
118.84262495020117
42
0.41421356237309503
10
-97.130652784031
20
119.34262495020118
10
-110.13065278403101
20
119.34262495020118
42
0.41421356237309503
10
-110.63065278403101
20
118.84262495020117
10
-110.63065278403101
20
105.84262495020116
42
0.41421356237309503
10
-110.13065278403101
20
105.34262495020116
10
-97.130652784031
20
105.34262495020116
42
0.41421356237309503
0
LWPOLYLINE
5
118
100
AcDbEntity
8
0
100
AcDbPolyline
90
8
70
1
43
0.0
10
-44.243152784031004
20
124.89262495020114
42
-0.414213562373069
10
-44.743152784031025
20
124.39262495020115
10
-57.743152784031011
20
124.39262495020117
42
-0.41421356237310542
10
-58.243152784031011
20
124.89262495020115
10
-58.243152784031025
20
137.89262495020114
42
-0.41421356237310025
10
-57.743152784031011
20
138.39262495020114
10
-44.743152784031025
20
138.39262495020114
42
-0.41421356237310542
10
-44.243152784031025
20
137.89262495020114
0
LWPOLYLINE
5
119
100
AcDbEntity
8
0
100
AcDbPolyline
90
8
70
1
43
0.0
10
8.1443472159689971
20
86.792624950201144
42
-0.4142135623730937
10
7.6443472159689918
20
86.292624950201144
10
-5.3556527840309975
20
86.29262495020113
42
-0.41421356237310542
10
-5.8556527840309975
20
86.792624950201144
10
-5.8556527840310029
20
99.792624950201159
42
-0.4142135623730937
10
-5.3556527840309975
20
100.29262495020117
10
7.6443472159689918
20
100.29262495020119
42
-0.41421356237310542
10
8.1443472159689918
20
99.792624950201159
0
LWPOLYLINE
5
120
100
AcDbEntity
8
0
100
AcDbPolyline
90
8
70
1
43
0.0
10
-10.905652784031011
20
86.792624950201144
42
-0.41421356237309631
10
-11.40565278403102
20
86.292624950201144
10
-24.405652784031009
20
86.292624950201144
42
-0.41421356237310542
10
-24.905652784031005
20
86.792624950201144
10
-24.905652784031012
20
99.792624950201159
42
-0.41421356237309243
10
-24.405652784031009
20
100.29262495020117
10
-11.40565278403102
20
100.29262495020117
42
-0.41421356237310675
10
-10.90565278403102
20
99.792624950201159
0
LWPOLYLINE
5
121
100
AcDbEntity
8
0
100
AcDbPolyline
90
8
70
1
43
0.0
10
55.769347215968999
20
105.84262495020116
42
-0.41421356237309503
10
55.269347215968992
20
105.34262495020116
10
42.269347215969013
20
105.34262495020116
42
-0.41421356237309503
10
41.769347215969006
20
105.84262495020116
10
41.769347215968999
20
118.84262495020117
42
-0.41421356237309503
10
42.269347215969006
20
119.34262495020118
10
55.269347215968985
20
119.34262495020118
42
-0.41421356237309503
10
55.769347215968992
20
118.84262495020117
0
LWPOLYLINE
5
122
100
AcDbEntity
8
0
100
AcDbPolyline
90
8
70
1
43
0.0
10
-72.03065278403102
20
105.34262495020116
42
-0.41421356237310542
10
-72.53065278403102
20
105.84262495020116
10
-72.530652784031034
20
118.84262495020117
42
-0.41421356237310025
10
-72.03065278403102
20
119.34262495020118
10
-59.030652784031012
20
119.34262495020118
42
-0.41421356237310542
10
-58.530652784031012
20
118.84262495020117
10
-58.530652784030998
20
105.84262495020116
42
-0.41421356237310025
10
-59.030652784031012
20
105.34262495020116
0
LWPOLYLINE
5
123
100
AcDbEntity
8
0
100
AcDbPolyline
90
6
70
1
43
0.0
10
-300.46006123919653
20
61.462937415551963
10
-303.66435523319899
20
59.612937415551954
10
-303.66435523319899
20
55.91293741555198
10
-300.46006123919653
20
54.062937415551993
10
-297.25576724519419
20
55.912937415551966
10
-297.25576724519419
20
59.61293741555194
0
LWPOLYLINE
5
124
100
AcDbEntity
8
0
100
AcDbPolyline
90
8
70
1
43
0.0
10
-218.86814935080338
20
86.792626285345179
42
-0.4142135623730846
10
-219.36814935080344
20
86.292626285345179
10
-232.36814935080338
20
86.292626285345136
42
-0.41421356237309503
10
-232.86814935080344
20
86.792626285345179
10
-232.86814935080344
20
99.792626285345193
42
-0.4142135623730846
10
-232.36814935080338
20
100.29262628534519
10
-219.36814935080344
20
100.29262628534516
42
-0.41421356237309503
10
-218.86814935080344
20
99.792626285345193
0
LWPOLYLINE
5
125
100
AcDbEntity
8
0
100
AcDbPolyline
90
8
70
1
43
0.0
10
-91.080652784031003
20
105.34262495020116
42
-0.41421356237309503
10
-91.580652784031003
20
105.84262495020116
10
-91.580652784031003
20
118.84262495020117
42
-0.41421356237309503
10
-91.080652784031003
20
119.34262495020118
10
-78.080652784030988
20
119.34262495020118
42
-0.41421356237310542
10
-77.580652784030988
20
118.84262495020117
10
-77.580652784030974
20
105.84262495020116
42
-0.41421356237310025
10
-78.080652784030988
20
105.34262495020116
0
LWPOLYLINE
5
126
100
AcDbEntity
8
0
100
AcDbPolyline
90
8
70
1
43
0.0
10
-87.10565278403098
20
86.792624950201144
42
-0.41421356237309503
10
-87.605652784030994
20
86.292624950201144
10
-100.60565278403101
20
86.292624950201144
42
-0.41421356237309503
10
-101.10565278403101
20
86.792624950201144
10
-101.10565278403101
20
99.792624950201159
42
-0.41421356237309503
10
-100.60565278403101
20
100.29262495020117
10
-87.605652784030994
20
100.29262495020117
42
-0.41421356237309503
10
-87.10565278403098
20
99.792624950201159
0
LWPOLYLINE
5
127
100
AcDbEntity
8
0
100
AcDbPolyline
90
8
70
1
43
0.0
10
-101.393152784031
20
124.89262495020115
42
-0.41421356237307422
10
-101.893152784031
20
124.39262495020115
10
-114.893152784031
20
124.39262495020115
42
-0.41421356237307422
10
-115.39315278403102
20
124.89262495020115
10
-115.39315278403102
20
137.89262495020114
42
-0.41421356237309503
10
-114.893152784031
20
138.39262495020114
10
-101.893152784031
20
138.39262495020114
42
-0.41421356237309503
10
-101.393152784031
20
137.89262495020114
0
LWPOLYLINE
5
128
100
AcDbEntity
8
0
100
AcDbPolyline
90
8
70
1
43
0.0
10
-106.15565278403099
20
86.792624950201144
42
-0.41421356237309503
10
-106.65565278403101
20
86.292624950201144
10
-119.65565278403102
20
86.292624950201144
42
-0.41421356237309503
10
-120.15565278403102
20
86.792624950201144
10
-120.15565278403102
20
99.792624950201159
42
-0.41421356237309503
10
-119.65565278403102
20
100.29262495020117
10
-106.65565278403101
20
100.29262495020117
42
-0.41421356237309503
10
-106.15565278403099
20
99.792624950201159
0
LWPOLYLINE
5
129
100
AcDbEntity
8
0
100
AcDbPolyline
90
8
70
1
43
0.0
10
-20.430652784031022
20
105.84262495020116
42
-0.41421356237309243
10
-20.930652784031025
20
105.34262495020116
10
-33.930652784031011
20
105.34262495020116
42
-0.41421356237310542
10
-34.430652784031011
20
105.84262495020116
10
-34.430652784031018
20
118.84262495020117
42
-0.41421356237309243
10
-33.930652784031011
20
119.34262495020118
10
-20.930652784031025
20
119.34262495020118
42
-0.41421356237310542
10
-20.430652784031025
20
118.84262495020117
0
LWPOLYLINE
5
130
100
AcDbEntity
8
0
100
AcDbPolyline
90
8
70
1
43
0.0
10
79.581847215969006
20
105.84262495020116
10
79.581847215969006
20
118.84262495020117
42
0.41421356237310542
10
79.081847215968992
20
119.34262495020118
10
66.081847215969006
20
119.34262495020118
42
0.41421356237309503
10
65.581847215969006
20
118.84262495020117
10
65.581847215969006
20
105.84262495020116
42
0.4142135623730846
10
66.081847215968992
20
105.34262495020116
10
79.081847215968992
20
105.34262495020116
42
0.41421356237310025
0
LWPOLYLINE
5
131
100
AcDbEntity
8
0
100
AcDbPolyline
90
8
70
1
43
0.0
10
-237.91814935080339
20
105.84262628534519
42
-0.4142135623730846
10
-238.41814935080345
20
105.34262628534519
10
-251.41814935080339
20
105.34262628534515
42
-0.41421356237309503
10
-251.91814935080345
20
105.84262628534519
10
-251.91814935080345
20
118.8426262853452
42
-0.4142135623730846
10
-251.41814935080339
20
119.3426262853452
10
-238.41814935080345
20
119.34262628534518
42
-0.41421356237309503
10
-237.91814935080345
20
118.8426262853452
0
LWPOLYLINE
5
132
100
AcDbEntity
8
0
100
AcDbPolyline
90
42
70
1
43
0.0
10
-192.47440278403101
20
106.42962495020114
42
-0.41421356237313667
10
-192.97440278403101
20
106.92962495020114
10
-192.97440278403101
20
112.92962495020117
42
-0.41421356237313667
10
-192.47440278403101
20
113.42962495020117
10
-191.59315278403099
20
113.42962495020117
10
-191.59315278403099
20
114.86762495020116
10
-193.47440278403101
20
114.86762495020116
42
-0.41421356237313667
10
-193.97440278403104
20
115.36762495020116
10
-193.97440278403104
20
128.36762495020116
42
-0.41421356237309503
10
-193.47440278403101
20
128.86762495020116
10
-192.88740278403105
20
128.86762495020116
10
-192.88740278403105
20
130.52378989205548
42
-0.15083409114168453
10
-192.97440278403101
20
130.80562495020118
10
-192.97440278403101
20
136.80562495020115
42
-0.15083409114168453
10
-192.88740278403105
20
137.08746000834685
10
-192.88740278403105
20
139.89262495020117
42
-0.41421356237309503
10
-192.38740278403102
20
140.39262495020117
10
-186.38740278403102
20
140.39262495020117
42
-0.41421356237309503
10
-185.887402784031
20
139.89262495020117
10
-185.887402784031
20
137.30562495020115
10
-184.44940278403101
20
137.30562495020115
10
-184.44940278403101
20
137.89262495020114
42
-0.41421356237310542
10
-183.94940278403107
20
138.39262495020114
10
-169.01140278403102
20
138.39262495020114
10
-169.01140278403105
20
139.89262495020117
42
-0.4142135623730846
10
-168.51140278403102
20
140.39262495020117
10
-162.51140278403099
20
140.39262495020114
42
-0.4142135623730846
10
-162.01140278403099
20
139.89262495020117
10
-162.01140278403099
20
138.39262495020114
10
-159.04315278403104
20
138.39262495020114
42
-0.41421356237309503
10
-158.54315278403104
20
137.89262495020114
10
-158.54315278403104
20
124.89262495020115
42
-0.41421356237307422
10
-159.04315278403104
20
124.39262495020115
10
-179.97440278403101
20
124.39262495020115
10
-179.97440278403101
20
119.34262495020116
10
-178.09315278403096
20
119.3426249502012
42
-0.41421356237310542
10
-177.59315278403096
20
118.84262495020117
10
-177.59315278403102
20
105.84262495020116
42
-0.41421356237310542
10
-178.09315278403096
20
105.34262495020116
10
-191.09315278403099
20
105.34262495020116
42
-0.41421356237313667
10
-191.59315278403099
20
105.84262495020116
10
-191.59315278403099
20
106.42962495020114
0
LWPOLYLINE
5
133
100
AcDbEntity
8
0
100
AcDbPolyline
90
8
70
1
43
0.0
10
51.006847215969017
20
124.89262495020114
42
-0.414213562373069
10
50.506847215969003
20
124.39262495020115
10
37.50684721596901
20
124.39262495020117
42
-0.41421356237310542
10
37.006847215969003
20
124.89262495020115
10
37.006847215968996
20
137.89262495020114
42
-0.41421356237309243
10
37.506847215969003
20
138.39262495020114
10
50.506847215969003
20
138.39262495020114
42
-0.41421356237310542
10
51.006847215968996
20
137.89262495020114
0
LWPOLYLINE
5
134
100
AcDbEntity
8
0
100
AcDbPolyline
90
8
70
1
43
0.0
10
108.15684721596902
20
143.94262495020115
10
108.15684721596902
20
156.94262495020115
42
0.4142135623730846
10
107.65684721596898
20
157.44262495020115
10
94.656847215968995
20
157.44262495020115
42
0.41421356237310542
10
94.156847215969009
20
156.94262495020115
10
94.156847215969009
20
143.94262495020115
42
0.41421356237309503
10
94.656847215969009
20
143.44262495020115
10
107.65684721596899
20
143.44262495020115
42
0.41421356237307422
0
LWPOLYLINE
5
135
100
AcDbEntity
8
0
100
AcDbPolyline
90
20
70
1
43
0.0
10
73.876097215968997
20
157.44262495020115
10
57.000097215968992
20
157.44262495020115
10
57.000097215968992
20
158.94262495020115
42
0.41421356237309503
10
56.500097215968985
20
159.44262495020115
10
50.500097215968999
20
159.44262495020115
42
0.41421356237309503
10
50.000097215968999
20
158.94262495020115
10
50.000097215968999
20
157.44262495020115
10
47.031847215968995
20
157.44262495020115
42
0.41421356237310025
10
46.531847215968995
20
156.94262495020115
10
46.531847215969002
20
143.94262495020115
42
0.41421356237310542
10
47.031847215968995
20
143.44262495020115
10
81.463097215969
20
143.44262495020115
42
0.41421356237309503
10
81.963097215969015
20
143.94262495020115
10
81.963097215969015
20
156.94262495020115
42
0.41421356237309503
10
81.463097215969
20
157.44262495020115
10
80.876097215968983
20
157.44262495020115
10
80.876097215968997
20
158.94262495020115
42
0.41421356237306384
10
80.376097215969011
20
159.44262495020115
10
74.376097215968997
20
159.44262495020115
42
0.41421356237310025
10
73.876097215968997
20
158.94262495020115
0
LWPOLYLINE
5
136
100
AcDbEntity
8
0
100
AcDbPolyline
90
32
70
1
43
0.0
10
-289.51814935080347
20
105.34262628534522
42
-0.41421356237309503
10
-290.01814935080347
20
105.84262628534519
10
-290.01814935080347
20
106.42962628534521
10
-291.51814935080347
20
106.42962628534521
42
-0.41421356237309503
10
-292.01814935080341
20
106.92962628534518
10
-292.01814935080347
20
112.92962628534519
42
-0.4142135623730846
10
-291.51814935080347
20
113.42962628534521
10
-290.01814935080347
20
113.42962628534521
10
-290.01814935080347
20
130.3056262853452
10
-291.51814935080347
20
130.30562628534517
42
-0.41421356237309503
10
-292.01814935080347
20
130.8056262853452
10
-292.01814935080347
20
136.8056262853452
42
-0.4142135623730846
10
-291.51814935080347
20
137.3056262853452
10
-290.01814935080347
20
137.3056262853452
10
-290.01814935080353
20
137.89262628534519
42
-0.4142135623730846
10
-289.51814935080347
20
138.39262628534519
10
-276.51814935080347
20
138.39262628534516
42
-0.41421356237309503
10
-276.01814935080347
20
137.89262628534519
10
-276.01814935080347
20
137.3056262853452
10
-274.51814935080347
20
137.30562628534523
42
-0.41421356237309503
10
-274.01814935080347
20
136.8056262853452
10
-274.01814935080347
20
130.8056262853452
42
-0.4142135623730846
10
-274.51814935080347
20
130.3056262853452
10
-276.01814935080347
20
130.3056262853452
10
-276.01814935080347
20
113.42962628534521
10
-274.51814935080347
20
113.42962628534524
42
-0.41421356237309503
10
-274.01814935080347
20
112.92962628534519
10
-274.01814935080353
20
106.92962628534518
42
-0.41421356237309503
10
-274.51814935080347
20
106.42962628534521
10
-276.01814935080347
20
106.42962628534521
10
-276.01814935080341
20
105.84262628534519
42
-0.4142135623730846
10
-276.51814935080347
20
105.34262628534519
0
LWPOLYLINE
5
137
100
AcDbEntity
8
0
100
AcDbPolyline
90
8
70
1
43
0.0
10
-256.9681493508034
20
105.84262628534519
42
-0.4142135623730846
10
-257.46814935080346
20
105.34262628534519
10
-270.4681493508034
20
105.34262628534515
42
-0.41421356237309503
10
-270.96814935080346
20
105.84262628534519
10
-270.96814935080346
20
118.8426262853452
42
-0.4142135623730846
10
-270.4681493508034
20
119.3426262853452
10
-257.46814935080346
20
119.34262628534518
42
-0.41421356237309503
10
-256.96814935080346
20
118.8426262853452
0
LWPOLYLINE
5
138
100
AcDbEntity
8
0
100
AcDbPolyline
90
8
70
1
43
0.0
10
-274.01814935080353
20
168.90562628534519
42
-0.41421356237309503
10
-274.51814935080347
20
168.40562628534519
10
-291.51814935080347
20
168.40562628534519
42
-0.41421356237309503
10
-292.01814935080341
20
168.90562628534519
10
-292.01814935080341
20
174.90562628534519
42
-0.41421356237309503
10
-291.51814935080347
20
175.40562628534516
10
-274.51814935080347
20
175.40562628534525
42
-0.4142135623730534
10
-274.01814935080347
20
174.90562628534519
0
LWPOLYLINE
5
139
100
AcDbEntity
8
0
100
AcDbPolyline
90
20
70
1
43
0.0
10
-108.53690278403099
20
162.99262495020116
42
-0.41421356237310542
10
-109.03690278403101
20
162.49262495020116
10
-109.65565278403102
20
162.49262495020119
10
-109.65565278403099
20
160.99262495020113
42
-0.41421356237310542
10
-110.15565278403102
20
160.49262495020113
10
-116.15565278403103
20
160.49262495020116
42
-0.41421356237309503
10
-116.65565278403101
20
160.99262495020113
10
-116.65565278403101
20
162.49262495020119
10
-122.03690278403101
20
162.49262495020119
42
-0.41421356237310542
10
-122.53690278403101
20
162.99262495020116
10
-122.53690278403101
20
175.99262495020116
42
-0.41421356237313667
10
-122.03690278403101
20
176.49262495020116
10
-116.65565278403101
20
176.49262495020116
10
-116.65565278403106
20
177.99262495020116
42
-0.41421356237310542
10
-116.15565278403103
20
178.49262495020116
10
-110.15565278403102
20
178.49262495020113
42
-0.41421356237310542
10
-109.65565278403102
20
177.99262495020116
10
-109.65565278403102
20
176.49262495020116
10
-109.03690278403101
20
176.49262495020116
42
-0.41421356237313667
10
-108.536902784031
20
175.99262495020116
0
LWPOLYLINE
5
140
100
AcDbEntity
8
0
100
AcDbPolyline
90
32
70
1
43
0.0
10
-226.95514935080348
20
162.49262628534524
10
-226.95514935080348
20
160.99262628534518
42
0.4142135623730534
10
-226.45514935080342
20
160.49262628534512
10
-220.45514935080342
20
160.49262628534512
42
0.4142135623730534
10
-219.95514935080337
20
160.99262628534518
10
-219.95514935080342
20
162.49262628534524
10
-219.36814935080344
20
162.49262628534524
42
0.41421356237309503
10
-218.86814935080344
20
162.99262628534521
10
-218.86814935080344
20
175.99262628534518
42
0.41421356237309503
10
-219.36814935080344
20
176.49262628534515
10
-219.95514935080342
20
176.49262628534524
10
-219.95514935080342
20
177.99262628534521
42
0.41421356237309503
10
-220.45514935080342
20
178.49262628534518
10
-226.45514935080342
20
178.49262628534518
42
0.41421356237309503
10
-226.95514935080348
20
177.99262628534521
10
-226.95514935080348
20
176.49262628534524
10
-243.83114935080351
20
176.49262628534524
10
-243.83114935080351
20
177.99262628534521
42
0.41421356237309503
10
-244.33114935080346
20
178.49262628534518
10
-250.3311493508034
20
178.49262628534518
42
0.41421356237309503
10
-250.8311493508034
20
177.99262628534521
10
-250.83114935080346
20
176.49262628534524
10
-251.41814935080339
20
176.49262628534524
42
0.4142135623730534
10
-251.91814935080345
20
175.99262628534518
10
-251.91814935080345
20
162.99262628534521
42
0.4142135623730534
10
-251.41814935080339
20
162.49262628534518
10
-250.83114935080346
20
162.49262628534518
10
-250.83114935080346
20
160.99262628534518
42
0.4142135623730534
10
-250.3311493508034
20
160.49262628534512
10
-244.33114935080346
20
160.49262628534512
42
0.4142135623730534
10
-243.83114935080343
20
160.99262628534518
10
-243.83114935080351
20
162.49262628534518
0
LWPOLYLINE
5
141
100
AcDbEntity
8
0
100
AcDbPolyline
90
32
70
1
43
0.0
10
-163.30565278403105
20
86.792624950201144
42
-0.41421356237310542
10
-163.80565278403105
20
86.292624950201144
10
-164.39265278403101
20
86.292624950201144
10
-164.39265278403101
20
84.792624950201144
42
-0.41421356237304302
10
-164.89265278403104
20
84.292624950201144
10
-170.89265278403101
20
84.29262495020113
42
-0.41421356237309503
10
-171.39265278403101
20
84.792624950201144
10
-171.39265278403101
20
86.292624950201144
10
-188.26865278403096
20
86.292624950201159
10
-188.26865278403096
20
84.792624950201144
42
-0.41421356237307422
10
-188.76865278403099
20
84.292624950201144
10
-194.76865278403099
20
84.292624950201144
42
-0.41421356237313667
10
-195.26865278403102
20
84.792624950201159
10
-195.26865278403102
20
86.292624950201144
10
-195.85565278403101
20
86.29262495020113
42
-0.41421356237310542
10
-196.35565278403104
20
86.792624950201144
10
-196.35565278403101
20
99.792624950201159
42
-0.41421356237310542
10
-195.85565278403101
20
100.29262495020117
10
-195.26865278403102
20
100.29262495020117
10
-195.26865278403102
20
101.79262495020114
42
-0.41421356237313667
10
-194.76865278403099
20
102.29262495020116
10
-188.76865278403096
20
102.29262495020117
42
-0.41421356237307422
10
-188.26865278403096
20
101.79262495020117
10
-188.26865278403096
20
100.29262495020117
10
-171.39265278403101
20
100.29262495020117
10
-171.39265278403101
20
101.79262495020117
42
-0.41421356237307422
10
-170.89265278403101
20
102.29262495020116
10
-164.89265278403104
20
102.29262495020116
42
-0.41421356237304302
10
-164.39265278403101
20
101.79262495020117
10
-164.39265278403101
20
100.29262495020117
10
-163.80565278403105
20
100.29262495020119
42
-0.41421356237310542
10
-163.30565278403103
20
99.792624950201159
0
LWPOLYLINE
5
142
100
AcDbEntity
8
0
100
AcDbPolyline
90
8
70
1
43
0.0
10
8.9005972159689861
20
178.49262495020113
42
-0.41421356237302542
10
9.4005972159689861
20
177.99262495020116
10
9.4005972159690039
20
160.99262495020113
42
-0.41421356237310153
10
8.9005972159689861
20
160.49262495020113
10
-1.8556527840310011
20
160.49262495020113
42
-0.41421356237304624
10
-2.3556527840309993
20
160.99262495020113
10
-2.3556527840310197
20
177.99262495020116
42
-0.41421356237310175
10
-1.8556527840310011
20
178.49262495020116
0
LWPOLYLINE
5
143
100
AcDbEntity
8
0
100
AcDbPolyline
90
8
70
1
43
0.0
10
-291.51814935080347
20
144.52962628534516
10
-274.51814935080347
20
144.52962628534516
42
0.4142135623730846
10
-274.01814935080347
20
145.02962628534516
10
-274.01814935080347
20
151.02962628534519
42
0.41421356237309503
10
-274.51814935080347
20
151.52962628534522
10
-291.51814935080347
20
151.52962628534519
42
0.4142135623730846
10
-292.01814935080347
20
151.02962628534519
10
-292.01814935080341
20
145.02962628534516
42
0.41421356237309503
0
LWPOLYLINE
5
144
100
AcDbEntity
8
0
100
AcDbPolyline
90
8
70
1
43
0.0
10
-91.099402784031014
20
178.49262495020113
42
-0.41421356237310542
10
-90.599402784031014
20
177.99262495020116
10
-90.599402784030985
20
160.99262495020113
42
-0.41421356237310542
10
-91.099402784031014
20
160.49262495020113
10
-97.099402784031028
20
160.49262495020116
42
-0.41421356237309503
10
-97.599402784031
20
160.99262495020113
10
-97.599402784031057
20
177.99262495020116
42
-0.41421356237310542
10
-97.099402784031028
20
178.49262495020116
0
LWPOLYLINE
5
145
100
AcDbEntity
8
0
100
AcDbPolyline
90
8
70
1
43
0.0
10
108.15684721596901
20
86.792624950201144
42
-0.41421356237307422
10
107.65684721596899
20
86.292624950201144
10
94.656847215969009
20
86.292624950201144
42
-0.41421356237309503
10
94.156847215969009
20
86.792624950201144
10
94.156847215969009
20
99.792624950201159
42
-0.41421356237309503
10
94.656847215969009
20
100.29262495020117
10
107.65684721596898
20
100.29262495020117
42
-0.4142135623730846
10
108.15684721596901
20
99.792624950201159
0
LWPOLYLINE
5
146
100
AcDbEntity
8
0
100
AcDbPolyline
90
8
70
1
43
0.0
10
-237.91814935080339
20
124.8926262853452
42
-0.4142135623730846
10
-238.41814935080345
20
124.3926262853452
10
-251.41814935080339
20
124.39262628534516
42
-0.41421356237309503
10
-251.91814935080345
20
124.8926262853452
10
-251.91814935080345
20
137.89262628534519
42
-0.4142135623730846
10
-251.41814935080339
20
138.39262628534519
10
-238.41814935080345
20
138.39262628534516
42
-0.41421356237309503
10
-237.91814935080345
20
137.89262628534519
0
LWPOLYLINE
5
147
100
AcDbEntity
8
0
100
AcDbPolyline
90
8
70
1
43
0.0
10
36.719347215968995
20
105.84262495020116
42
-0.41421356237309243
10
36.219347215968995
20
105.34262495020116
10
23.219347215968984
20
105.34262495020116
42
-0.41421356237310542
10
22.719347215968988
20
105.84262495020116
10
22.71934721596898
20
118.84262495020117
42
-0.41421356237309243
10
23.219347215968984
20
119.34262495020118
10
36.219347215968995
20
119.34262495020118
42
-0.41421356237310542
10
36.719347215968988
20
118.84262495020117
0
LWPOLYLINE
5
148
100
AcDbEntity
8
0
100
AcDbPolyline
90
8
70
1
43
0.0
10
-68.055652784030997
20
86.792624950201144
42
-0.41421356237310025
10
-68.555652784031025
20
86.292624950201144
10
-81.555652784031025
20
86.292624950201144
42
-0.41421356237309503
10
-82.055652784031025
20
86.792624950201144
10
-82.055652784031025
20
99.792624950201159
42
-0.41421356237309503
10
-81.555652784031025
20
100.29262495020117
10
-68.555652784031025
20
100.29262495020117
42
-0.41421356237310542
10
-68.055652784031025
20
99.792624950201159
0
LWPOLYLINE
5
149
100
AcDbEntity
8
0
100
AcDbPolyline
90
8
70
1
43
0.0
10
-251.41814935080339
20
86.292626285345136
42
-0.41421356237309503
10
-251.91814935080345
20
86.792626285345179
10
-251.91814935080345
20
99.792626285345193
42
-0.4142135623730846
10
-251.41814935080339
20
100.29262628534519
10
-238.41814935080345
20
100.29262628534516
42
-0.41421356237309503
10
-237.91814935080345
20
99.792626285345193
10
-237.91814935080345
20
86.792626285345179
42
-0.41421356237309503
10
-238.41814935080345
20
86.292626285345207
0
LWPOLYLINE
5
150
100
AcDbEntity
8
0
100
AcDbPolyline
90
8
70
1
43
0.0
10
-63.293152784031001
20
124.89262495020114
42
-0.414213562373069
10
-63.793152784031015
20
124.39262495020115
10
-76.79315278403098
20
124.39262495020117
42
-0.41421356237310542
10
-77.29315278403098
20
124.89262495020115
10
-77.293152784031008
20
137.89262495020114
42
-0.41421356237310025
10
-76.79315278403098
20
138.39262495020114
10
-63.793152784031015
20
138.39262495020114
42
-0.41421356237310542
10
-63.293152784031015
20
137.89262495020114
0
LWPOLYLINE
5
151
100
AcDbEntity
8
0
100
AcDbPolyline
90
8
70
1
43
0.0
10
109.28184721596909
20
79.237874950199966
42
-0.41421356237309764
10
111.28184721596909
20
77.237874950199995
10
111.28184721596909
20
71.584321559607901
42
-0.41421356237309115
10
109.28184721596914
20
69.584321559607915
10
-291.14365278403062
20
69.584321559607858
42
-0.41421356237309503
10
-293.14365278403068
20
71.584321559607815
10
-293.14365278403073
20
77.237874950199895
42
-0.41421356237310675
10
-291.14365278403062
20
79.23787495019991
0
LWPOLYLINE
5
152
100
AcDbEntity
8
0
100
AcDbPolyline
90
8
70
1
43
0.0
10
-256.9681493508034
20
124.8926262853452
42
-0.4142135623730846
10
-257.46814935080346
20
124.3926262853452
10
-270.4681493508034
20
124.39262628534516
42
-0.41421356237309503
10
-270.96814935080346
20
124.8926262853452
10
-270.96814935080346
20
137.89262628534519
42
-0.4142135623730846
10
-270.4681493508034
20
138.39262628534519
10
-257.46814935080346
20
138.39262628534516
42
-0.41421356237309503
10
-256.96814935080346
20
137.89262628534519
0
LWPOLYLINE
5
153
100
AcDbEntity
8
0
100
AcDbPolyline
90
8
70
1
43
0.0
10
-72.818152784031
20
143.94262495020115
42
-0.41421356237310025
10
-73.318152784031014
20
143.44262495020115
10
-86.318152784031028
20
143.44262495020115
42
-0.41421356237309503
10
-86.818152784031042
20
143.94262495020115
10
-86.818152784031042
20
156.94262495020115
42
-0.41421356237309503
10
-86.318152784031028
20
157.44262495020115
10
-73.318152784031014
20
157.44262495020115
42
-0.41421356237310542
10
-72.818152784031028
20
156.94262495020115
0
LWPOLYLINE
5
154
100
AcDbEntity
8
0
100
AcDbPolyline
90
8
70
1
43
0.0
10
-67.268152784030974
20
143.44262495020115
42
-0.41421356237310542
10
-67.768152784030974
20
143.94262495020115
10
-67.768152784031003
20
156.94262495020115
42
-0.41421356237310025
10
-67.268152784030974
20
157.44262495020115
10
-54.26815278403101
20
157.44262495020115
42
-0.41421356237310542
10
-53.76815278403101
20
156.94262495020115
10
-53.768152784030995
20
143.94262495020115
42
-0.41421356237310025
10
-54.26815278403101
20
143.44262495020115
0
LWPOLYLINE
5
155
100
AcDbEntity
8
0
100
AcDbPolyline
90
8
70
1
43
0.0
10
-129.96815278403102
20
143.94262495020115
42
-0.41421356237309503
10
-130.46815278403102
20
143.44262495020115
10
-143.46815278403102
20
143.44262495020115
42
-0.41421356237309503
10
-143.96815278403102
20
143.94262495020115
10
-143.96815278403102
20
156.94262495020115
42
-0.41421356237309503
10
-143.46815278403102
20
157.44262495020115
10
-130.46815278403102
20
157.44262495020115
42
-0.41421356237309503
10
-129.96815278403102
20
156.94262495020115
0
LWPOLYLINE
5
156
100
AcDbEntity
8
0
100
AcDbPolyline
90
8
70
1
43
0.0
10
-237.91814935080339
20
143.94262628534517
42
-0.4142135623730846
10
-238.41814935080345
20
143.44262628534517
10
-251.41814935080339
20
143.44262628534514
42
-0.41421356237309503
10
-251.91814935080345
20
143.94262628534517
10
-251.91814935080339
20
156.9426262853452
42
-0.41421356237309503
10
-251.41814935080339
20
157.44262628534517
10
-238.41814935080345
20
157.44262628534517
42
-0.41421356237309503
10
-237.91814935080345
20
156.9426262853452
0
LWPOLYLINE
5
157
100
AcDbEntity
8
0
100
AcDbPolyline
90
8
70
1
43
0.0
10
27.194347215969007
20
86.792624950201144
42
-0.41421356237309243
10
26.694347215969003
20
86.292624950201144
10
13.694347215968996
20
86.292624950201144
42
-0.41421356237310675
10
13.194347215968996
20
86.792624950201144
10
13.194347215968987
20
99.792624950201159
42
-0.41421356237309631
10
13.694347215968996
20
100.29262495020117
10
26.694347215969003
20
100.29262495020117
42
-0.41421356237310542
10
27.194347215969003
20
99.792624950201159
0
LWPOLYLINE
5
158
100
AcDbEntity
8
0
100
AcDbPolyline
90
8
70
1
43
0.0
10
8.9318472159689932
20
143.44262495020112
42
-0.41421356237310542
10
8.4318472159689932
20
143.94262495020115
10
8.4318472159689879
20
156.94262495020115
42
-0.4142135623730937
10
8.9318472159689932
20
157.44262495020115
10
21.931847215969
20
157.44262495020115
42
-0.41421356237310542
10
22.431847215969
20
156.94262495020115
10
22.431847215969004
20
143.94262495020115
42
-0.41421356237309243
10
21.931847215969
20
143.44262495020115
0
LWPOLYLINE
5
159
100
AcDbEntity
8
0
100
AcDbPolyline
90
8
70
1
43
0.0
10
-120.44315278403101
20
124.89262495020115
42
-0.41421356237307422
10
-120.94315278403101
20
124.39262495020115
10
-133.94315278403101
20
124.39262495020115
42
-0.41421356237307422
10
-134.44315278403104
20
124.89262495020115
10
-134.44315278403104
20
137.89262495020114
42
-0.41421356237309503
10
-133.94315278403101
20
138.39262495020114
10
-120.94315278403101
20
138.39262495020114
42
-0.41421356237309503
10
-120.44315278403101
20
137.89262495020114
0
LWPOLYLINE
5
160
100
AcDbEntity
8
0
100
AcDbPolyline
90
8
70
1
43
0.0
10
-125.205652784031
20
86.792624950201144
42
-0.41421356237309503
10
-125.70565278403102
20
86.292624950201144
10
-138.70565278403097
20
86.292624950201144
42
-0.41421356237309503
10
-139.205652784031
20
86.792624950201144
10
-139.205652784031
20
99.792624950201159
42
-0.41421356237309503
10
-138.70565278403097
20
100.29262495020117
10
-125.70565278403102
20
100.29262495020117
42
-0.41421356237309503
10
-125.205652784031
20
99.792624950201159
0
LWPOLYLINE
5
161
100
AcDbEntity
8
0
100
AcDbPolyline
90
6
70
1
43
0.0
10
-94.928696778033299
20
59.612937415551954
10
-94.928696778033299
20
55.912937415551944
10
-91.724402784030872
20
54.062937415551957
10
-88.520108790028445
20
55.912937415551966
10
-88.520108790028445
20
59.612937415551968
10
-91.724402784030872
20
61.462937415551977
0
LWPOLYLINE
5
162
100
AcDbEntity
8
0
100
AcDbPolyline
90
6
70
1
43
0.0
10
113.80696167713253
20
55.912937415552051
10
117.01125567113493
20
54.062937415552064
10
120.21554966513733
20
55.912937415552051
10
120.21554966513733
20
59.612937415552011
10
117.01125567113493
20
61.462937415551991
10
113.80696167713253
20
59.612937415552011
0
LWPOLYLINE
5
163
100
AcDbEntity
8
0
100
AcDbPolyline
90
8
70
1
43
0.0
10
41.481847215969012
20
143.94262495020115
42
-0.41421356237310025
10
40.981847215968997
20
143.44262495020115
10
27.981847215968987
20
143.44262495020115
42
-0.41421356237310542
10
27.48184721596899
20
143.94262495020115
10
27.481847215968983
20
156.94262495020115
42
-0.41421356237309243
10
27.981847215968987
20
157.44262495020115
10
40.981847215968997
20
157.44262495020115
42
-0.41421356237310542
10
41.48184721596899
20
156.94262495020115
0
LWPOLYLINE
5
164
100
AcDbEntity
8
0
100
AcDbPolyline
90
8
70
1
43
0.0
10
-290.01814935080353
20
166.46762628534518
42
-0.4142135623730534
10
-289.51814935080347
20
166.9676262853452
10
-276.51814935080347
20
166.96762628534515
42
-0.41421356237309503
10
-276.01814935080347
20
166.46762628534518
10
-276.01814935080341
20
153.46762628534518
42
-0.4142135623730846
10
-276.51814935080347
20
152.96762628534518
10
-289.51814935080347
20
152.9676262853452
42
-0.41421356237309503
10
-290.01814935080347
20
153.46762628534518
0
LWPOLYLINE
5
165
100
AcDbEntity
8
0
100
AcDbPolyline
90
8
70
1
43
0.0
10
66.081847215968992
20
162.49262495020116
10
81.463097215969
20
162.49262495020116
42
0.41421356237310542
10
81.963097215969015
20
162.99262495020116
10
81.963097215969015
20
175.99262495020116
42
0.41421356237313667
10
81.463097215969
20
176.49262495020116
10
66.081847215969006
20
176.49262495020116
42
0.41421356237313145
10
65.581847215969006
20
175.99262495020116
10
65.581847215969006
20
162.99262495020116
42
0.41421356237301699
0
LWPOLYLINE
5
166
100
AcDbEntity
8
0
100
AcDbPolyline
90
8
70
1
43
0.0
10
58.150597215968972
20
162.99262495020116
42
-0.41421356237312101
10
57.650597215968993
20
162.49262495020116
10
42.269347215969013
20
162.49262495020119
42
-0.41421356237302737
10
41.769347215969006
20
162.99262495020116
10
41.769347215969006
20
175.99262495020116
42
-0.41421356237313145
10
42.269347215969006
20
176.49262495020116
10
57.650597215968986
20
176.49262495020122
42
-0.41421356237307944
10
58.150597215968993
20
175.99262495020116
0
LWPOLYLINE
5
167
100
AcDbEntity
8
0
100
AcDbPolyline
90
8
70
1
43
0.0
10
-165.68690278403102
20
143.94262495020115
42
-0.41421356237310542
10
-166.18690278403102
20
143.44262495020115
10
-179.18690278403096
20
143.44262495020112
42
-0.41421356237310542
10
-179.68690278403099
20
143.94262495020115
10
-179.68690278403096
20
156.94262495020115
42
-0.41421356237310542
10
-179.18690278403096
20
157.44262495020115
10
-166.18690278403102
20
157.44262495020118
42
-0.41421356237310542
10
-165.68690278403099
20
156.94262495020115
0
LWPOLYLINE
5
168
100
AcDbEntity
8
0
100
AcDbPolyline
90
6
70
1
43
0.0
10
113.81204962921288
20
184.28200105179317
10
117.02140745324073
20
182.44079971642779
10
120.22061349516292
20
184.2995844541876
10
120.21046171305727
20
187.99957052731273
10
117.00110388902942
20
189.84077186267808
10
113.80189784710723
20
187.98198712491831
0
LWPOLYLINE
5
169
100
AcDbEntity
8
0
100
AcDbPolyline
90
8
70
1
43
0.0
10
3.3818472159689952
20
143.94262495020115
42
-0.41421356237309437
10
2.881847215968989
20
143.44262495020115
10
-10.118152784031
20
143.44262495020115
42
-0.41421356237310675
10
-10.618152784031
20
143.94262495020115
10
-10.618152784031009
20
156.94262495020115
42
-0.41421356237309631
10
-10.118152784031
20
157.44262495020115
10
2.881847215968989
20
157.44262495020118
42
-0.41421356237310542
10
3.381847215968989
20
156.94262495020115
0
LWPOLYLINE
5
170
100
AcDbEntity
8
0
100
AcDbPolyline
90
8
70
1
43
0.0
10
108.15684721596898
20
162.99262495020116
42
-0.4142135623730846
10
107.65684721596899
20
162.49262495020116
10
94.656847215969009
20
162.49262495020116
42
-0.4142135623730534
10
94.156847215969009
20
162.99262495020116
10
94.156847215969009
20
175.99262495020116
42
-0.41421356237313667
10
94.656847215969009
20
176.49262495020116
10
107.65684721596898
20
176.49262495020116
42
-0.41421356237310542
10
108.15684721596901
20
175.99262495020116
0
LWPOLYLINE
5
171
100
AcDbEntity
8
0
100
AcDbPolyline
90
8
70
1
43
0.0
10
-218.86814935080338
20
124.8926262853452
42
-0.4142135623730846
10
-219.36814935080344
20
124.3926262853452
10
-232.36814935080338
20
124.39262628534516
42
-0.41421356237309503
10
-232.86814935080344
20
124.8926262853452
10
-232.86814935080344
20
137.89262628534519
42
-0.4142135623730846
10
-232.36814935080338
20
138.39262628534519
10
-219.36814935080344
20
138.39262628534516
42
-0.41421356237309503
10
-218.86814935080344
20
137.89262628534519
0
LWPOLYLINE
5
172
100
AcDbEntity
8
0
100
AcDbPolyline
90
8
70
1
43
0.0
10
46.244347215969015
20
86.792624950201144
42
-0.41421356237310025
10
45.744347215969
20
86.292624950201144
10
32.744347215969007
20
86.292624950201144
42
-0.41421356237311063
10
32.244347215969
20
86.792624950201144
10
32.244347215968993
20
99.792624950201159
42
-0.41421356237309243
10
32.744347215969
20
100.29262495020117
10
45.744347215969
20
100.29262495020117
42
-0.41421356237310542
10
46.244347215968993
20
99.792624950201159
0
LWPOLYLINE
5
173
100
AcDbEntity
8
0
100
AcDbPolyline
90
8
70
1
43
0.0
10
-169.66190278403101
20
162.49262495020116
10
-154.28065278403099
20
162.49262495020116
42
0.41421356237310542
10
-153.78065278403099
20
162.99262495020116
10
-153.78065278403099
20
175.99262495020116
42
0.41421356237313667
10
-154.28065278403099
20
176.49262495020116
10
-169.66190278403101
20
176.49262495020116
42
0.4142135623731783
10
-170.16190278403101
20
175.99262495020116
10
-170.16190278403101
20
162.99262495020116
42
0.41421356237313667
0
LWPOLYLINE
5
174
100
AcDbEntity
8
0
100
AcDbPolyline
90
8
70
1
43
0.0
10
108.15684721596901
20
105.84262495020116
42
-0.41421356237307422
10
107.65684721596899
20
105.34262495020116
10
94.656847215969009
20
105.34262495020116
42
-0.41421356237309503
10
94.156847215969009
20
105.84262495020116
10
94.156847215969009
20
118.84262495020117
42
-0.41421356237309503
10
94.656847215969009
20
119.34262495020118
10
107.65684721596898
20
119.34262495020118
42
-0.4142135623730846
10
108.15684721596901
20
118.84262495020117
0
LWPOLYLINE
5
175
100
AcDbEntity
8
0
100
AcDbPolyline
90
6
70
1
43
0.0
10
-88.520108790028459
20
184.2907857895529
10
-88.520108790028459
20
187.99078578955289
10
-91.724402784030886
20
189.84078578955288
10
-94.928696778033327
20
187.99078578955289
10
-94.928696778033327
20
184.2907857895529
10
-91.724402784030886
20
182.44078578955288
0
LWPOLYLINE
5
176
100
AcDbEntity
8
0
100
AcDbPolyline
90
6
70
1
43
0.0
10
-303.66435523319922
20
184.2907857895529
10
-300.46006123919676
20
182.44078578955293
10
-297.25576724519448
20
184.2907857895529
10
-297.25576724519448
20
187.99078578955286
10
-300.46006123919676
20
189.84078578955285
10
-303.66435523319922
20
187.99078578955286
0
LWPOLYLINE
5
177
100
AcDbEntity
8
0
100
AcDbPolyline
90
8
70
1
43
0.0
10
-256.96814935080346
20
143.94262628534517
10
-256.96814935080346
20
156.9426262853452
42
0.41421356237309503
10
-257.46814935080346
20
157.44262628534517
10
-270.4681493508034
20
157.4426262853452
42
0.4142135623730846
10
-270.9681493508034
20
156.9426262853452
10
-270.9681493508034
20
143.94262628534517
42
0.41421356237309503
10
-270.4681493508034
20
143.44262628534517
10
-257.46814935080346
20
143.44262628534517
42
0.4142135623730846
0
LWPOLYLINE
5
178
100
AcDbEntity
8
0
100
AcDbPolyline
90
8
70
1
43
0.0
10
-91.868152784031025
20
143.94262495020115
42
-0.41421356237309503
10
-92.368152784031025
20
143.44262495020115
10
-105.36815278403104
20
143.44262495020115
42
-0.41421356237309503
10
-105.86815278403105
20
143.94262495020115
10
-105.86815278403105
20
156.94262495020115
42
-0.41421356237309503
10
-105.36815278403104
20
157.44262495020115
10
-92.368152784031025
20
157.44262495020115
42
-0.41421356237309503
10
-91.868152784031025
20
156.94262495020115
0
LWPOLYLINE
5
179
100
AcDbEntity
8
0
100
AcDbPolyline
90
8
70
1
43
0.0
10
-181.12490278403101
20
144.94262495020115
42
-0.4142135623730846
10
-181.62490278403106
20
144.44262495020115
10
-187.62490278403104
20
144.44262495020115
42
-0.41421356237309503
10
-188.12490278403104
20
144.94262495020115
10
-188.12490278403104
20
158.94262495020115
42
-0.41421356237313667
10
-187.62490278403104
20
159.44262495020115
10
-181.62490278403106
20
159.44262495020118
42
-0.41421356237310542
10
-181.12490278403104
20
158.94262495020115
0
LWPOLYLINE
5
180
100
AcDbEntity
8
0
100
AcDbPolyline
90
8
70
1
43
0.0
10
-15.668152784030996
20
143.94262495020115
42
-0.41421356237309631
10
-16.168152784031005
20
143.44262495020115
10
-29.168152784030994
20
143.44262495020115
42
-0.41421356237310542
10
-29.668152784030994
20
143.94262495020115
10
-29.668152784030998
20
156.94262495020115
42
-0.41421356237309243
10
-29.168152784030994
20
157.44262495020115
10
-16.168152784031005
20
157.44262495020115
42
-0.41421356237310675
10
-15.668152784031005
20
156.94262495020115
0
LWPOLYLINE
5
181
100
AcDbEntity
8
0
100
AcDbPolyline
90
8
70
1
43
0.0
10
-270.4681493508034
20
162.49262628534524
42
-0.41421356237309503
10
-270.9681493508034
20
162.99262628534521
10
-270.96814935080346
20
175.99262628534518
42
-0.4142135623730534
10
-270.4681493508034
20
176.49262628534524
10
-257.46814935080346
20
176.49262628534515
42
-0.41421356237309503
10
-256.96814935080346
20
175.99262628534518
10
-256.96814935080346
20
162.99262628534521
42
-0.41421356237309503
10
-257.46814935080346
20
162.49262628534524
0
LWPOLYLINE
5
182
100
AcDbEntity
8
0
100
AcDbPolyline
90
8
70
1
43
0.0
10
34.338097215969015
20
162.99262495020116
42
-0.41421356237310025
10
33.838097215969
20
162.49262495020116
10
18.456847215968999
20
162.49262495020116
42
-0.41421356237304691
10
17.956847215968999
20
162.99262495020116
10
17.956847215968995
20
175.99262495020116
42
-0.41421356237313406
10
18.456847215968999
20
176.49262495020116
10
33.838097215969007
20
176.49262495020122
42
-0.41421356237307161
10
34.338097215969
20
175.99262495020116
0
LWPOLYLINE
5
183
100
AcDbEntity
8
0
100
AcDbPolyline
90
8
70
1
43
0.0
10
65.294347215969012
20
86.792624950201144
42
-0.41421356237309503
10
64.794347215968997
20
86.292624950201144
10
51.794347215968983
20
86.292624950201144
42
-0.4142135623730846
10
51.294347215968997
20
86.792624950201144
10
51.294347215968983
20
99.792624950201159
42
-0.41421356237309503
10
51.79434721596899
20
100.29262495020117
10
64.794347215968997
20
100.29262495020117
42
-0.41421356237309503
10
65.294347215968997
20
99.792624950201159
0
LWPOLYLINE
5
184
100
AcDbEntity
8
0
100
AcDbPolyline
90
8
70
1
43
0.0
10
-177.59315278403096
20
162.99262495020116
10
-177.59315278403096
20
175.99262495020116
42
0.41421356237313667
10
-178.09315278403096
20
176.49262495020116
10
-193.47440278403101
20
176.49262495020116
42
0.4142135623731783
10
-193.97440278403104
20
175.99262495020116
10
-193.97440278403104
20
162.99262495020116
42
0.41421356237313667
10
-193.47440278403101
20
162.49262495020116
10
-178.09315278403096
20
162.49262495020116
42
0.41421356237313667
0
LWPOLYLINE
5
185
100
AcDbEntity
8
0
100
AcDbPolyline
90
8
70
1
43
0.0
10
84.344347215969009
20
86.792624950201144
42
-0.41421356237309503
10
83.844347215969009
20
86.292624950201144
10
70.844347215968995
20
86.292624950201144
42
-0.41421356237310542
10
70.344347215968995
20
86.792624950201144
10
70.34434721596898
20
99.792624950201159
42
-0.41421356237310025
10
70.844347215968995
20
100.29262495020117
10
83.844347215969009
20
100.29262495020117
42
-0.41421356237309503
10
84.344347215969009
20
99.792624950201159
0
LWPOLYLINE
5
186
100
AcDbEntity
8
0
100
AcDbPolyline
90
8
70
1
43
0.0
10
-29.955652784030992
20
86.792624950201144
42
-0.41421356237309243
10
-30.455652784030995
20
86.292624950201144
10
-43.455652784031003
20
86.292624950201144
42
-0.41421356237310542
10
-43.955652784031003
20
86.792624950201144
10
-43.955652784031017
20
99.792624950201159
42
-0.41421356237310025
10
-43.455652784031003
20
100.29262495020117
10
-30.455652784030995
20
100.29262495020117
42
-0.41421356237310542
10
-29.955652784030995
20
99.792624950201159
0
LWPOLYLINE
5
187
100
AcDbEntity
8
0
100
AcDbPolyline
90
8
70
1
43
0.0
10
-37.099402784030985
20
162.99262495020116
42
-0.41421356237310025
10
-37.599402784031
20
162.49262495020116
10
-62.505652784031014
20
162.49262495020119
42
-0.4142135623730222
10
-63.005652784031014
20
162.99262495020116
10
-63.005652784031021
20
175.99262495020116
42
-0.41421356237313667
10
-62.505652784031014
20
176.49262495020116
10
-37.599402784031
20
176.49262495020122
42
-0.41421356237307683
10
-37.099402784031
20
175.99262495020116
0
LWPOLYLINE
5
188
100
AcDbEntity
8
0
100
AcDbPolyline
90
8
70
1
43
0.0
10
-157.24890278403097
20
144.94262495020115
42
-0.41421356237307422
10
-157.74890278403097
20
144.44262495020115
10
-163.748902784031
20
144.44262495020115
42
-0.4142135623730846
10
-164.248902784031
20
144.94262495020115
10
-164.24890278403097
20
158.94262495020115
42
-0.41421356237310542
10
-163.748902784031
20
159.44262495020115
10
-157.74890278403097
20
159.44262495020115
42
-0.41421356237309503
10
-157.24890278403097
20
158.94262495020115
0
LWPOLYLINE
5
189
100
AcDbEntity
8
0
100
AcDbPolyline
90
8
70
1
43
0.0
10
-124.41815278403101
20
143.44262495020115
42
-0.41421356237309503
10
-124.91815278403102
20
143.94262495020115
10
-124.91815278403102
20
156.94262495020115
42
-0.41421356237309503
10
-124.41815278403101
20
157.44262495020115
10
-111.41815278403101
20
157.44262495020115
42
-0.41421356237309503
10
-110.91815278403101
20
156.94262495020115
10
-110.91815278403101
20
143.94262495020115
42
-0.41421356237309503
10
-111.41815278403101
20
143.44262495020115
0
LWPOLYLINE
5
190
100
AcDbEntity
8
0
100
AcDbPolyline
90
8
70
1
43
0.0
10
-256.96814935080346
20
86.792626285345179
42
-0.41421356237309503
10
-257.46814935080346
20
86.292626285345207
10
-270.4681493508034
20
86.292626285345136
42
-0.41421356237309503
10
-270.96814935080346
20
86.792626285345179
10
-270.96814935080346
20
99.792626285345193
42
-0.4142135623730846
10
-270.4681493508034
20
100.29262628534519
10
-257.46814935080346
20
100.29262628534516
42
-0.41421356237309503
10
-256.96814935080346
20
99.792626285345193
0
LWPOLYLINE
5
191
100
AcDbEntity
8
0
100
AcDbPolyline
90
8
70
1
43
0.0
10
-129.96815278403099
20
162.99262495020116
42
-0.41421356237310542
10
-130.46815278403102
20
162.49262495020116
10
-145.84940278403104
20
162.49262495020119
42
-0.41421356237310542
10
-146.34940278403104
20
162.99262495020116
10
-146.34940278403104
20
175.99262495020116
42
-0.41421356237313667
10
-145.84940278403104
20
176.49262495020116
10
-130.46815278403102
20
176.49262495020116
42
-0.41421356237313667
10
-129.96815278403102
20
175.99262495020116
0
LWPOLYLINE
5
192
100
AcDbEntity
8
0
100
AcDbPolyline
90
8
70
1
43
0.0
10
-48.218152784031005
20
143.44262495020115
42
-0.41421356237310542
10
-48.718152784031005
20
143.94262495020115
10
-48.71815278403102
20
156.94262495020115
42
-0.41421356237310025
10
-48.218152784031005
20
157.44262495020115
10
-35.21815278403102
20
157.44262495020115
42
-0.41421356237310542
10
-34.71815278403102
20
156.94262495020115
10
-34.718152784031012
20
143.94262495020115
42
-0.41421356237309243
10
-35.21815278403102
20
143.44262495020115
0
LWPOLYLINE
5
193
100
AcDbEntity
8
0
100
AcDbPolyline
90
8
70
1
43
0.0
10
-276.01814935080347
20
86.792626285345179
42
-0.41421356237309503
10
-276.51814935080347
20
86.292626285345207
10
-289.51814935080347
20
86.292626285345207
42
-0.41421356237309503
10
-290.01814935080347
20
86.792626285345179
10
-290.01814935080353
20
99.792626285345193
42
-0.4142135623730846
10
-289.51814935080347
20
100.29262628534519
10
-276.51814935080347
20
100.29262628534524
42
-0.41421356237309503
10
-276.01814935080341
20
99.792626285345193
0
LWPOLYLINE
5
194
100
AcDbEntity
8
0
100
AcDbPolyline
90
8
70
1
43
0.0
10
-49.005652784030993
20
86.792624950201144
42
-0.41421356237310025
10
-49.505652784031007
20
86.292624950201144
10
-62.505652784031014
20
86.292624950201144
42
-0.41421356237310542
10
-63.005652784031014
20
86.792624950201144
10
-63.005652784031028
20
99.792624950201159
42
-0.41421356237310025
10
-62.505652784031014
20
100.29262495020117
10
-49.505652784031007
20
100.29262495020117
42
-0.41421356237310542
10
-49.005652784031007
20
99.792624950201159
0
LWPOLYLINE
5
195
100
AcDbEntity
8
0
100
AcDbPolyline
90
8
70
1
43
0.0
10
-308.65565278403074
20
53.361098254903766
10
-308.65565278403074
20
190.54262495020106
42
-0.41421356237312623
10
-305.65565278403062
20
193.54262495020106
10
122.20684721596903
20
193.54262495020117
42
-0.41421356237309331
10
125.20684721596901
20
190.54262495020114
10
125.20684721596906
20
53.361098254903837
42
-0.41421356237309681
10
122.20684721596903
20
50.361098254903837
10
-305.65565278403074
20
50.36109825490378
42
-0.41421356237307599
0
ENDSEC
0
SECTION
2
OBJECTS
0
DICTIONARY
5
C
100
AcDbDictionary
3
ACAD_GROUP
350
D
3
ACAD_MLINESTYLE
350
17
0
DICTIONARY
5
D
100
AcDbDictionary
0
DICTIONARY
5
1A
330
C
100
AcDbDictionary
0
DICTIONARY
5
17
100
AcDbDictionary
0
ENDSEC
0
EOF
